<?xml version="1.0" encoding="utf-8"?>
<!-- Generator: Adobe Illustrator 23.0.0, SVG Export Plug-In . SVG Version: 6.00 Build 0)  -->
<svg version="1.1" id="Capa_1" xmlns="http://www.w3.org/2000/svg" xmlns:xlink="http://www.w3.org/1999/xlink" x="0px" y="0px"
	 viewBox="0 0 512 512" style="enable-background:new 0 0 512 512;" xml:space="preserve">
<style type="text/css">
	.st0{fill:#FFFFFF;}
</style>
<g>
	<g>
		<path class="st0" d="M0,220c0,26.1,16.7,48.3,40,56.6V412c0,33.1,26.9,60,60,60h59.4c8.3,23.3,30.5,40,56.6,40h160
			c33.1,0,60-26.9,60-60v-63.7c4.7-4.1,9.3-8.4,13.8-13C489.9,334.1,512,278.9,512,220s-22.1-114.1-62.2-155.4
			C409.2,23,354.6,0,296,0S182.8,23,142.2,64.6C114.7,93,95.6,127.9,86.4,166.1c-8-3.9-16.9-6.1-26.4-6.1C26.9,160,0,186.9,0,220z
			 M196,415.6c30.4,15.9,64.4,24.4,100,24.4c35.6,0,69.6-8.5,100-24.4V452c0,11-9,20-20,20H216c-11,0-20-9-20-20V415.6z M120,220
			c0-100.9,77.3-180,176-180s176,79.1,176,180s-77.3,180-176,180S120,320.9,120,220z M80,412V276.6c2.2-0.8,4.3-1.7,6.4-2.7
			c9.2,38.2,28.3,73.1,55.9,101.5c4.4,4.5,9,8.9,13.8,13V432h-56C89,432,80,423,80,412L80,412z M40,220c0-11,9-20,20-20s20,9,20,20
			s-9,20-20,20S40,231,40,220z M236,220c0,33.1,26.9,60,60,60s60-26.9,60-60s-26.9-60-60-60S236,186.9,236,220z M276,220
			c0-11,9-20,20-20c11,0,20,9,20,20s-9,20-20,20C285,240,276,231,276,220z"/>
	</g>
</g>
</svg>
