<?xml version="1.0" encoding="utf-8"?>
<!-- Generator: Adobe Illustrator 23.0.0, SVG Export Plug-In . SVG Version: 6.00 Build 0)  -->
<svg version="1.1" id="Capa_1" xmlns="http://www.w3.org/2000/svg" xmlns:xlink="http://www.w3.org/1999/xlink" x="0px" y="0px"
	 viewBox="0 0 354.18 244.59" style="enable-background:new 0 0 354.18 244.59;" xml:space="preserve">
<style type="text/css">
	.st0{fill:none;}
	.st1{fill:#73C698;}
	.st2{fill:#8BD1AF;}
	.st3{fill:#FFFFFF;}
	.st4{fill:#4B3C51;}
	.st5{fill:#B8E3EC;}
	.st6{fill:#62BFCC;}
	.st7{fill:#3E3244;}
	.st8{fill:#E8A17E;}
	.st9{fill:#D88D6C;}
	.st10{fill:#161119;}
	.st11{opacity:0.45;fill:#F27B53;}
	.st12{opacity:0.07;fill:#26476D;}
	.st13{fill:#F2F2F2;}
	.st14{fill:#FFCE45;}
	.st15{fill:#F5DC17;}
	.st16{opacity:0.11;fill:#345D95;}
	.st17{opacity:0.38;}
	.st18{fill:#E8C11A;}
	.st19{fill:#FFA748;}
	.st20{fill:#24778A;}
	.st21{fill:#1F4D57;}
	.st22{fill:#C5E1F9;}
	.st23{opacity:0.27;fill:#26476D;}
</style>
<g>
	<path class="st0" d="M46.04,228.77l-0.51,3.93c1.53-0.08,2.65-0.62,3.15-1.24c0.31-0.38,0.38-0.78,0.23-1.23
		C48.59,229.32,47.29,228.92,46.04,228.77z"/>
	<g>
		<g>
			<path class="st1" d="M67.09,222.08c-1.2-3.41-4.74-4.72-7.91-5.2c-6.93,10.84-15.59,13-20.33,13.28l1.38,8.12h15.62l0.84-6.48
				c3.96-0.07,7.46-1.43,9.34-3.74C67.45,226.3,67.83,224.18,67.09,222.08z M63.02,225.63c-0.93,1.15-3,2.15-5.84,2.3l0.94-7.3
				c2.32,0.28,4.72,1.02,5.32,2.72C63.73,224.18,63.6,224.92,63.02,225.63z"/>
			<path class="st2" d="M59.18,216.88c-0.19-0.03-0.38-0.06-0.56-0.09l0.94-7.32c0.06-0.43-0.28-0.82-0.72-0.82H36.16
				c-0.5,0-0.88,0.45-0.8,0.94l3.49,20.57C43.6,229.88,52.25,227.72,59.18,216.88z"/>
		</g>
		<g>
			<path class="st3" d="M48.77,205.61c-2.26-1.2-4.41-5.52-5.3-7.52c-0.89-2-1.15-4.39-0.16-6.35c0.83-1.65,2.43-2.79,3.42-4.34
				c1.02-1.61,1.35-3.65,0.87-5.49c-0.68-2.6-2.81-4.67-3.3-7.31c-0.57-3.1,1.23-6.08,2.02-9.13c0.73-2.81,0.58-5.83-0.41-8.56
				c2.2,1.31,3.52,3.67,4.73,5.92c1.11,2.06,2.25,4.26,2.09,6.59c-0.1,1.47-0.71,2.84-1.23,4.22c-0.93,2.49-1.57,5.22-0.9,7.8
				c1,3.89,4.84,6.94,4.69,10.96c-0.09,2.38-1.63,4.49-3.49,5.98c-1.21,0.97-2.61,1.78-3.46,3.08
				C47.49,202.75,47.46,204.78,48.77,205.61"/>
		</g>
	</g>
	<g>
		<g>
			<path class="st4" d="M187.46,87.83c-1.81,4.19-3.19,8.24-3.86,12.4c-0.67,4.16-0.9,8.41-1.94,12.49
				c-0.91,3.61-2.44,7.04-4.08,10.38c-0.15,0.31-0.3,0.62-0.3,0.96c0,0.66,0.57,1.17,1.11,1.56c8.14,5.95,19.42,7.29,28.73,3.42"/>
		</g>
		<ellipse class="st5" cx="185.29" cy="105.94" rx="8.02" ry="9.97"/>
		<ellipse class="st6" cx="189.07" cy="107.35" rx="8.02" ry="9.97"/>
		<g>
			<path class="st7" d="M207.11,129.09l-16.73-35.11c-1.85,6.17-3.7,12.34-5.45,18.53c-0.58,2.06-1.16,4.14-1.35,6.28
				c-0.17,1.87-0.04,3.76,0.38,5.59c0.41,1.78,1.12,3.54,2.36,4.87c0.22,0.24,0.48,0.44,0.74,0.65
				C193.59,131.89,200.8,131.72,207.11,129.09z"/>
		</g>
		<g>
			<path class="st8" d="M203.59,127.88c0.76,4.26,1.38,9.1-1.26,12.52c-0.58,0.75-1.33,1.48-1.38,2.43
				c-0.05,1.24,1.13,2.16,2.25,2.71c4.3,2.15,9.5,2.42,14,0.72c0.37-0.14,0.76-0.31,1.01-0.62c0.57-0.7,0.2-1.73-0.14-2.56
				c-3.19-7.62-3.1-16.56,0.25-24.12"/>
		</g>
		<g>
			<path class="st9" d="M203.21,126.64c0.74,2.99,1.22,5.87,0.9,8.94c-0.01,0.1-0.02,0.22,0.05,0.3c0.1,0.1,0.27,0.06,0.4,0.01
				c0.98-0.35,1.98-0.72,2.84-1.3c1.45-0.99,3.16-2.81,3.91-4.41c1.03-2.2,1.54-4.35,1.35-6.78"/>
		</g>
		<g>
			<path class="st8" d="M193.36,88.41c-3.04,3.39-3.75,8.22-4.15,12.76c-0.35,4-0.57,8.04,0,12.01s1.96,7.9,4.53,10.98
				c1.08,1.3,2.36,2.43,3.78,3.35c0.98,0.63,2.04,1.17,3.18,1.41c2.17,0.46,4.4-0.16,6.51-0.84c4.8-1.56,9.74-3.66,12.71-7.75
				c3.86-5.32,6.41-19.33,7.42-25.83"/>
		</g>
		<g>
			<path class="st9" d="M187.31,92.54c4.49,3.88,10.06,6.49,15.92,7.46c3.39,0.56,6.85,0.57,10.29,0.5
				c1.29-0.03,2.59-0.07,3.84-0.37c1.74-0.42,3.39-1.41,4.33-2.92c0.95-1.51,1.08-3.59,0.07-5.06"/>
		</g>
		<g>
			<path class="st4" d="M226.06,74.8c-8.56-4.14-20.95-3.28-27.18,0.28c-6.23,3.56-8.81,6.75-12.06,14.18
				c-0.19,0.44-1.32,3.18-1.15,3.63c0.17,0.45,0.39,0.7,0.83,0.87c7.69,2.94,14.46,3.47,22.68,3.87c2.74,0.14,5.52,0.14,8.18-0.51
				c3.77,12.63,1.81,21.69-4.47,33.28c4.09,1.72,19.98,2.72,27.55-3.14c1.95-1.51,3.73-3.3,4.92-5.46
				c3.01-5.49,1.72-12.26,0.08-18.3c-1.22-4.5-2.6-8.99-4.81-13.09C237.24,84.1,232.63,77.63,226.06,74.8"/>
		</g>
		<g>
			<path class="st3" d="M196.08,116.25c0.62,1.93,1.34,3.71,3.05,4.8c1.69,1.08,3.96,0.96,5.78,0.1c1.82-0.85,3.55-2.99,4.83-4.55
				C205.31,117.02,200.45,117.02,196.08,116.25"/>
		</g>
		<g>
			<path class="st7" d="M231.57,126.4c-0.52-0.41-0.99-0.91-1.24-1.53c-0.48-1.19-0.06-2.54,0.31-3.78
				c0.63-2.09,1.11-4.26,1.04-6.44c-0.08-2.18-0.76-4.4-2.22-6.02c-2.12-2.35-5.44-3.09-8.54-3.71c-0.65-0.13-1.3-0.26-1.95-0.39
				c1.16,9.06-1.05,16.68-6.03,25.88c4.09,1.72,19.98,2.72,27.55-3.14c0.28-0.21,0.54-0.45,0.81-0.67
				c-0.46,0.26-0.93,0.53-1.43,0.72C237.14,128.37,233.85,128.21,231.57,126.4z"/>
		</g>
		<g>
			<path class="st10" d="M203.68,104.85c-2.13-1.13-3.77-0.05-3.79-0.03l-0.41-0.61c0.08-0.05,2.02-1.34,4.54-0.01L203.68,104.85z"
				/>
		</g>
		<g>
			<polygon class="st10" points="218.99,104.65 217.08,104.62 217.08,103.89 218.89,103.89 			"/>
		</g>
		<polyline class="st9" points="201.22,106.17 198.9,113.27 202.55,113.56 		"/>
		<g>
			<path class="st7" d="M208.45,100.53c0.15-0.09,0.3-0.17,0.46-0.24c0.09-0.04,0.19-0.09,0.28-0.13c-0.03,0.01-0.07,0.03-0.1,0.04
				c0.24-0.1,0.48-0.19,0.73-0.27c0.3-0.1,0.61-0.18,0.93-0.24c0.2-0.04,0.4-0.08,0.61-0.1c-0.04,0.01-0.08,0.01-0.12,0.02
				c0.58-0.08,1.18-0.1,1.77-0.06c0.18,0.01,0.36,0.03,0.54,0.06c-0.04-0.01-0.08-0.01-0.12-0.02c0.6,0.08,1.18,0.22,1.75,0.42
				c0.17,0.06,0.35,0.13,0.52,0.2c-0.03-0.01-0.07-0.03-0.1-0.04c0.64,0.27,1.24,0.61,1.81,1c0.09,0.06,0.24,0.07,0.34,0.04
				c0.1-0.03,0.21-0.11,0.26-0.2c0.05-0.1,0.08-0.22,0.04-0.34c-0.04-0.11-0.1-0.19-0.2-0.26c-0.89-0.61-1.88-1.1-2.93-1.4
				c-0.85-0.25-1.74-0.37-2.63-0.36c-0.73,0.01-1.46,0.11-2.16,0.28c-0.52,0.13-1.03,0.31-1.52,0.53c-0.2,0.09-0.4,0.18-0.59,0.3
				c0,0-0.01,0-0.01,0c-0.1,0.06-0.17,0.15-0.2,0.26c-0.03,0.1-0.02,0.24,0.04,0.34c0.06,0.09,0.15,0.18,0.26,0.2
				C208.22,100.6,208.35,100.59,208.45,100.53L208.45,100.53z"/>
		</g>
		<g>
			<path class="st7" d="M196.65,100.58c-0.13-0.12-0.27-0.22-0.41-0.32c-0.08-0.06-0.17-0.12-0.26-0.18
				c0.03,0.02,0.06,0.04,0.09,0.06c-0.22-0.14-0.44-0.27-0.67-0.4c-0.28-0.15-0.57-0.29-0.87-0.41c-0.19-0.08-0.38-0.15-0.58-0.21
				c0.04,0.01,0.07,0.02,0.11,0.04c-0.56-0.18-1.14-0.31-1.73-0.38c-0.18-0.02-0.36-0.04-0.55-0.04c0.04,0,0.08,0,0.12,0.01
				c-0.6-0.03-1.2,0-1.8,0.1c-0.18,0.03-0.36,0.06-0.55,0.1c0.04-0.01,0.07-0.02,0.11-0.02c-0.68,0.15,0.22,0.61-1.01,0.28
				c-0.12-0.03,0.81-1.19,1.89-1.3c0.88-0.09,1.78-0.05,2.65,0.13c0.71,0.14,1.41,0.37,2.08,0.67c0.49,0.22,0.95,0.49,1.4,0.8
				c0.18,0.12,0.36,0.26,0.53,0.4c0,0,0,0,0.01,0.01c0.08,0.08,0.14,0.18,0.15,0.29c0.01,0.11-0.03,0.24-0.1,0.32
				c-0.08,0.08-0.18,0.15-0.29,0.15C196.86,100.69,196.74,100.66,196.65,100.58L196.65,100.58z"/>
		</g>
		<g>
			<g>
				<path class="st7" d="M208.72,105.41c0.27-0.38,0.77-0.8,1.23-1.04c1.25-0.65,2.56-0.18,3.59,0.66c0.25,0.2,0.6-0.15,0.35-0.35
					c-1.13-0.92-2.54-1.47-3.95-0.86c-0.65,0.28-1.25,0.76-1.66,1.34C208.11,105.42,208.54,105.67,208.72,105.41L208.72,105.41z"/>
			</g>
		</g>
		<g>
			<g>
				<path class="st7" d="M190.56,104.76c0.27-0.38,0.77-0.8,1.23-1.04c1.25-0.65,2.56-0.18,3.59,0.66c0.25,0.2,0.6-0.15,0.35-0.35
					c-1.13-0.92-2.54-1.47-3.95-0.86c-0.65,0.28-1.25,0.76-1.66,1.34C189.94,104.77,190.38,105.02,190.56,104.76L190.56,104.76z"/>
			</g>
		</g>
		<circle class="st11" cx="214.25" cy="111.88" r="3.13"/>
		<circle class="st11" cx="191.71" cy="110.67" r="2.64"/>
		<g>
			<path class="st10" d="M193.02,111.72c-3.82,0-6.92-3.11-6.92-6.92s3.11-6.92,6.92-6.92c3.82,0,6.92,3.11,6.92,6.92
				S196.84,111.72,193.02,111.72z M193.02,98.67c-3.38,0-6.13,2.75-6.13,6.13s2.75,6.13,6.13,6.13c3.38,0,6.13-2.75,6.13-6.13
				S196.4,98.67,193.02,98.67z"/>
		</g>
		<g>
			<path class="st10" d="M210.44,111.72c-3.82,0-6.92-3.11-6.92-6.92s3.11-6.92,6.92-6.92c3.82,0,6.92,3.11,6.92,6.92
				S214.26,111.72,210.44,111.72z M210.44,98.67c-3.38,0-6.13,2.75-6.13,6.13s2.75,6.13,6.13,6.13c3.38,0,6.13-2.75,6.13-6.13
				S213.82,98.67,210.44,98.67z"/>
		</g>
		<g>
			<g>
				
					<ellipse transform="matrix(0.9954 -0.0961 0.0961 0.9954 -11.0682 20.1092)" class="st10" cx="203.3" cy="125" rx="2.41" ry="1.88"/>
			</g>
			<g>
				<path class="st10" d="M207.66,125.37c-1.06,0.1-2.15,0.14-3.26,0.09l0.04-1.04c12.55,0.5,22.21-9.64,22.3-9.74l0.76,0.71
					C227.41,115.49,219.06,124.27,207.66,125.37z"/>
			</g>
		</g>
		<g>
			<g>
				<path class="st5" d="M185.93,96.65c1-7.04,4.69-14.78,10.73-18.76c5.41-3.56,12.65-3.79,18.61-1.5
					c5.14,1.97,8.54,6.36,10.21,11.48c1.43,4.36,1.62,8.84,1.95,13.37c0.11,1.49,2.45,1.51,2.34,0c-0.32-4.31-0.49-8.61-1.67-12.8
					c-1.54-5.46-4.68-10.47-9.78-13.21c-6.07-3.26-14.11-3.61-20.37-0.73c-5.1,2.34-8.82,6.89-11.19,11.87
					c-1.43,3.02-2.62,6.33-3.09,9.66C183.46,97.5,185.72,98.14,185.93,96.65L185.93,96.65z"/>
			</g>
			<ellipse class="st5" cx="227.34" cy="108.75" rx="8.02" ry="9.97"/>
			<ellipse class="st6" cx="228.6" cy="108.75" rx="7.62" ry="9.47"/>
		</g>
	</g>
	<g>
		<g>
			<path class="st12" d="M285.82,64.35h-39.3c-2.63,0-4.76-2.13-4.76-4.76V36.4c0-2.63,2.13-4.76,4.76-4.76h39.3
				c2.63,0,4.76,2.13,4.76,4.76v23.19C290.59,62.21,288.45,64.35,285.82,64.35z"/>
			<g>
				<path class="st13" d="M284.68,63.25h-39.3c-2.63,0-4.76-2.13-4.76-4.76V35.3c0-2.63,2.13-4.76,4.76-4.76h39.3
					c2.63,0,4.76,2.13,4.76,4.76v23.19C289.44,61.11,287.31,63.25,284.68,63.25z"/>
				<g>
					<path class="st14" d="M268.34,36.52c1,0.47,1.78,1.13,2.35,1.97c0.57,0.84,0.86,1.78,0.86,2.8c0,0.77-0.13,1.46-0.39,2.05
						c-0.26,0.59-0.58,1.09-0.96,1.51c-0.38,0.42-0.87,0.89-1.49,1.41c-0.83,0.72-1.45,1.35-1.86,1.92
						c-0.41,0.56-0.61,1.26-0.61,2.09v0.41c0,0.21-0.08,0.4-0.23,0.55c-0.16,0.15-0.34,0.23-0.55,0.23h-1.07
						c-0.21,0-0.4-0.08-0.55-0.23c-0.15-0.15-0.23-0.34-0.23-0.55v-0.61c0-0.77,0.14-1.46,0.41-2.05c0.27-0.59,0.59-1.09,0.97-1.5
						c0.38-0.41,0.88-0.9,1.52-1.48c0.81-0.7,1.42-1.31,1.81-1.84c0.4-0.53,0.6-1.17,0.6-1.9c0-0.93-0.39-1.66-1.16-2.21
						c-0.77-0.54-1.7-0.81-2.79-0.81c-1.05,0-1.92,0.26-2.61,0.78c-0.7,0.52-1.18,1.33-1.45,2.41c-0.04,0.19-0.13,0.35-0.28,0.46
						c-0.15,0.12-0.31,0.17-0.48,0.17h-1.25c-0.17,0-0.33-0.06-0.47-0.19c-0.14-0.13-0.19-0.28-0.17-0.45
						c0.06-0.91,0.34-1.8,0.86-2.67c0.51-0.87,1.27-1.59,2.26-2.15c1-0.56,2.19-0.84,3.59-0.84
						C266.21,35.81,267.34,36.05,268.34,36.52z M266.29,56.19c-0.16,0.15-0.34,0.23-0.55,0.23h-1.65c-0.21,0-0.4-0.08-0.55-0.23
						c-0.15-0.15-0.23-0.34-0.23-0.55v-1.65c0-0.21,0.08-0.4,0.23-0.55c0.15-0.15,0.34-0.23,0.55-0.23h1.65
						c0.21,0,0.4,0.08,0.55,0.23c0.15,0.16,0.23,0.34,0.23,0.55v1.65C266.52,55.85,266.45,56.03,266.29,56.19z"/>
				</g>
			</g>
		</g>
		<g>
			<path class="st12" d="M186.44,1.06h-38.91c-2.74,0-4.95,2.22-4.95,4.95v22.8c0,2.74,2.22,4.95,4.95,4.95h27.6l10.46,7.42v-7.42
				h0.86c2.74,0,4.95-2.22,4.95-4.95V6.02C191.4,3.28,189.18,1.06,186.44,1.06z"/>
			<g>
				<path class="st13" d="M185.27,0h-38.91c-2.74,0-4.95,2.22-4.95,4.95v22.8c0,2.74,2.22,4.95,4.95,4.95h27.6l10.46,7.42v-7.42
					h0.86c2.74,0,4.95-2.22,4.95-4.95V4.95C190.23,2.22,188.01,0,185.27,0z"/>
				<g>
					<path class="st14" d="M146.52,3.75"/>
					<g>
						<path class="st15" d="M185.11,8.45c-4.35,0-8.69,0-13.04,0c-6.93,0-13.85,0-20.78,0c-1.59,0-3.18,0-4.77,0
							c-0.5,0-0.5,0.78,0,0.78c4.35,0,8.69,0,13.04,0c6.93,0,13.85,0,20.78,0c1.59,0,3.18,0,4.77,0
							C185.61,9.23,185.62,8.45,185.11,8.45L185.11,8.45z"/>
					</g>
					<g>
						<path class="st15" d="M185.11,13.53c-4.35,0-8.69,0-13.04,0c-6.93,0-13.85,0-20.78,0c-1.59,0-3.18,0-4.77,0
							c-0.5,0-0.5,0.78,0,0.78c4.35,0,8.69,0,13.04,0c6.93,0,13.85,0,20.78,0c1.59,0,3.18,0,4.77,0
							C185.61,14.31,185.62,13.53,185.11,13.53L185.11,13.53z"/>
					</g>
					<g>
						<path class="st15" d="M173.59,18.62c-3.04,0-6.09,0-9.13,0c-4.86,0-9.71,0-14.57,0c-1.12,0-2.24,0-3.37,0
							c-0.5,0-0.5,0.78,0,0.78c3.04,0,6.09,0,9.13,0c4.86,0,9.71,0,14.57,0c1.12,0,2.24,0,3.37,0
							C174.09,19.4,174.09,18.62,173.59,18.62L173.59,18.62z"/>
					</g>
					<g>
						<path class="st15" d="M173.59,23.7c-3.04,0-6.09,0-9.13,0c-4.86,0-9.71,0-14.57,0c-1.12,0-2.24,0-3.37,0
							c-0.5,0-0.5,0.78,0,0.78c3.04,0,6.09,0,9.13,0c4.86,0,9.71,0,14.57,0c1.12,0,2.24,0,3.37,0
							C174.09,24.48,174.09,23.7,173.59,23.7L173.59,23.7z"/>
					</g>
				</g>
			</g>
		</g>
		<g>
			<path class="st12" d="M165.6,41.71h-25.28c-1.78,0-3.22,1.44-3.22,3.22v14.81c0,1.78,1.44,3.22,3.22,3.22h17.93l6.79,4.82v-4.82
				h0.56c1.78,0,3.22-1.44,3.22-3.22V44.93C168.82,43.15,167.38,41.71,165.6,41.71z"/>
			<g>
				<path class="st13" d="M164.84,41.02h-25.28c-1.78,0-3.22,1.44-3.22,3.22v14.81c0,1.78,1.44,3.22,3.22,3.22h17.93l6.79,4.82
					v-4.82h0.56c1.78,0,3.22-1.44,3.22-3.22V44.24C168.06,42.46,166.62,41.02,164.84,41.02z"/>
				<g>
					<path class="st14" d="M139.67,43.45"/>
					<g>
						<path class="st15" d="M164.74,46.5c-2.82,0-5.65,0-8.47,0c-4.5,0-9,0-13.5,0c-1.03,0-2.07,0-3.1,0c-0.33,0-0.33,0.51,0,0.51
							c2.82,0,5.65,0,8.47,0c4.5,0,9,0,13.5,0c1.03,0,2.07,0,3.1,0C165.06,47.01,165.06,46.5,164.74,46.5L164.74,46.5z"/>
					</g>
					<g>
						<path class="st15" d="M164.74,49.81c-2.82,0-5.65,0-8.47,0c-4.5,0-9,0-13.5,0c-1.03,0-2.07,0-3.1,0c-0.33,0-0.33,0.51,0,0.51
							c2.82,0,5.65,0,8.47,0c4.5,0,9,0,13.5,0c1.03,0,2.07,0,3.1,0C165.06,50.31,165.06,49.81,164.74,49.81L164.74,49.81z"/>
					</g>
					<g>
						<path class="st15" d="M157.25,53.11c-1.98,0-3.95,0-5.93,0c-3.15,0-6.31,0-9.46,0c-0.73,0-1.46,0-2.19,0
							c-0.33,0-0.33,0.51,0,0.51c1.98,0,3.95,0,5.93,0c3.15,0,6.31,0,9.46,0c0.73,0,1.46,0,2.19,0
							C157.57,53.62,157.58,53.11,157.25,53.11L157.25,53.11z"/>
					</g>
					<g>
						<path class="st15" d="M157.25,56.41c-1.98,0-3.95,0-5.93,0c-3.15,0-6.31,0-9.46,0c-0.73,0-1.46,0-2.19,0
							c-0.33,0-0.33,0.51,0,0.51c1.98,0,3.95,0,5.93,0c3.15,0,6.31,0,9.46,0c0.73,0,1.46,0,2.19,0
							C157.57,56.92,157.58,56.41,157.25,56.41L157.25,56.41z"/>
					</g>
				</g>
			</g>
		</g>
		<g>
			<path class="st12" d="M115.93,110.99h-39.3c-2.63,0-4.76-2.13-4.76-4.76V83.04c0-2.63,2.13-4.76,4.76-4.76h39.3
				c2.63,0,4.76,2.13,4.76,4.76v23.19C120.69,108.86,118.56,110.99,115.93,110.99z"/>
			<g>
				<path class="st13" d="M114.48,109.69h-39.3c-2.63,0-4.76-2.13-4.76-4.76V81.74c0-2.63,2.13-4.76,4.76-4.76h39.3
					c2.63,0,4.76,2.13,4.76,4.76v23.19C119.24,107.56,117.11,109.69,114.48,109.69z"/>
				<path class="st15" d="M90.37,84.71c0.35,3.7,4.3,3.12,4.3,3.12c2.41,0.35,2.05,5.64,2.05,5.64s-0.26,5.29-2.7,5.36
					c0,0-3.86-1.04-4.63,2.6c-0.78,3.64,1.42,5.5,4.99,5.25c0,0,4.95-0.48,5.69-13.13c0.41-12.82-4.14-13.47-4.14-13.47
					C92.42,79.41,90.02,81,90.37,84.71z"/>
			</g>
		</g>
	</g>
	<g>
		<g>
			<path class="st2" d="M247.88,238c11.71-5.73,19.81-16.64,26.06-27.86c11.34-20.36,18.18-43.91,14.38-66.78
				c-0.74-4.49-2.37-9.5-6.64-11.34c-2.01-0.87-4.36-0.85-6.47-0.24c-4.17,1.21-7.4,4.57-9.34,8.37c-1.94,3.79-2.78,8.02-3.55,12.2
				c-5.51,29.57-9.4,59.66-19.95,87.9"/>
			<path class="st16" d="M245.85,238.48c9.06-4.21,19.42-17.12,24.46-25.74c9.13-15.64,15.9-31.87,13.56-49.81
				c-0.46-3.52-1.58-7.47-4.78-9c-1.51-0.72-3.3-0.76-4.92-0.33c-3.21,0.85-5.75,3.41-7.32,6.32s-2.31,6.2-3,9.44
				c-4.91,22.96-8.6,46.37-17.32,68.17"/>
			<g>
				<path class="st3" d="M277.68,144.34c-0.97,7.08-1.98,14.15-3.2,21.19c-1.21,6.98-2.63,13.93-4.41,20.79
					c-1.65,6.34-3.62,12.57-6.13,18.64c-2.48,5.99-5.41,11.81-8.73,17.41c-3.25,5.47-6.89,10.74-10.99,15.65
					c-0.5,0.6-1,1.19-1.51,1.77c-0.11,0.12,0.08,0.3,0.18,0.18c4.17-4.79,7.89-9.94,11.23-15.31c3.44-5.55,6.48-11.34,9.08-17.3
					c2.61-5.97,4.7-12.11,6.43-18.37c1.9-6.9,3.4-13.89,4.67-20.92c1.27-7.04,2.32-14.12,3.3-21.21c0.12-0.84,0.23-1.67,0.34-2.51
					C277.97,144.17,277.71,144.18,277.68,144.34L277.68,144.34z"/>
			</g>
		</g>
		<g>
			<path class="st2" d="M252.45,236.73c8.12,2,19.33,3.55,27.29,4.02c14.99,0.87,33.35,0.33,45.26-8.83
				c3.86-2.97,7.23-7.83,5.65-12.44c-1-2.93-3.84-4.93-6.83-5.72c-2.99-0.79-6.15-0.54-9.22-0.19
				C292.42,216.12,270.89,224.14,252.45,236.73"/>
			<path class="st16" d="M255.83,236c6.3,1.45,15,2.58,21.17,2.91c11.63,0.62,25.89,0.19,35.14-6.55c3-2.18,5.62-5.76,4.4-9.14
				c-0.77-2.15-2.97-3.62-5.29-4.19c-2.32-0.57-4.77-0.39-7.16-0.13C286.88,220.81,270.16,226.74,255.83,236"/>
			<g>
				<path class="st3" d="M318.35,223.67c-4.17,0.94-8.33,1.88-12.5,2.81c-4.26,0.95-8.53,1.88-12.8,2.79
					c-4.3,0.91-8.61,1.8-12.93,2.65c-4.29,0.84-8.59,1.63-12.9,2.37c-4.25,0.73-8.51,1.39-12.78,1.98
					c-0.52,0.07-1.03,0.14-1.55,0.21c-0.18,0.02-0.18,0.32,0.01,0.29c4.25-0.56,8.49-1.21,12.72-1.91c4.3-0.72,8.58-1.5,12.86-2.32
					c4.32-0.83,8.63-1.71,12.93-2.62c4.3-0.91,8.59-1.84,12.88-2.79c4.2-0.93,8.41-1.88,12.61-2.83c0.51-0.11,1.02-0.23,1.53-0.34
					C318.62,223.9,318.53,223.62,318.35,223.67L318.35,223.67z"/>
			</g>
		</g>
		<g>
			<path class="st2" d="M248.86,235.51c17.01-0.89,35.99-10.99,49.62-21.21c8.97-6.73,17.83-13.87,24.45-22.91
				c5.43-7.41,9.23-16,11.08-24.99c1.21-5.9,1-13.22-4.08-16.44c-2.75-1.74-6.33-1.74-9.4-0.66c-3.06,1.09-5.68,3.15-8.05,5.37
				c-6.77,6.33-11.96,14.12-17.23,21.74C281.53,196.26,264.49,217.12,248.86,235.51"/>
			<path class="st16" d="M253.45,233.11c13.14-0.65,27.8-8.09,38.32-15.62c6.93-4.95,13.77-10.21,18.89-16.87
				c4.19-5.46,7.13-11.78,8.56-18.41c0.93-4.34,0.77-9.74-3.15-12.11c-2.12-1.28-4.89-1.28-7.26-0.48s-4.39,2.32-6.22,3.95
				c-5.23,4.66-9.23,10.4-13.31,16.01C278.68,204.2,265.52,219.57,253.45,233.11"/>
			<g>
				<path class="st3" d="M323.32,164.19c-4.98,6.09-9.97,12.18-14.95,18.27c-4.42,5.41-8.82,10.84-13.33,16.17
					c-4.16,4.91-8.44,9.72-12.99,14.26c-4.51,4.5-9.3,8.73-14.48,12.45c-5.14,3.69-10.67,6.86-16.55,9.2
					c-0.72,0.29-1.45,0.56-2.18,0.83c-0.18,0.06-0.1,0.35,0.08,0.28c5.94-2.14,11.54-5.1,16.76-8.63
					c5.25-3.56,10.11-7.67,14.68-12.06c4.66-4.49,9.02-9.27,13.24-14.18c4.45-5.17,8.74-10.48,13.06-15.76c5-6.11,10-12.22,15-18.33
					c0.63-0.77,1.25-1.53,1.88-2.3C323.64,164.25,323.44,164.04,323.32,164.19L323.32,164.19z"/>
			</g>
		</g>
		<g class="st17">
			<g>
				<path class="st2" d="M303.74,218.41c3.42-1.05,6.48-2.98,9.35-5.08c1.52-1.11,3-2.27,4.5-3.42c1.63-1.26,3.26-2.52,4.86-3.81
					c3.06-2.45,6.05-4.97,8.97-7.57c2.94-2.61,5.8-5.3,8.6-8.06c2.8-2.76,5.52-5.6,8.17-8.5c0.32-0.35,0.64-0.71,0.96-1.06
					c0.23-0.25-0.14-0.63-0.37-0.37c-2.61,2.9-5.29,5.73-8.05,8.49c-2.76,2.76-5.58,5.45-8.48,8.06c-2.9,2.61-5.86,5.15-8.89,7.61
					c-3.09,2.51-6.24,4.95-9.43,7.35c-2.82,2.13-5.78,4.18-9.11,5.44c-0.4,0.15-0.81,0.29-1.23,0.42
					C303.28,218.01,303.42,218.51,303.74,218.41L303.74,218.41z"/>
			</g>
			<path class="st2" d="M347.67,181.91c0.2-2.25,1.55-4.39,3.52-5.49c0.79-0.44,1.88-0.69,2.54-0.07c0.49,0.46,0.54,1.25,0.29,1.87
				c-0.25,0.62-0.75,1.1-1.27,1.53c-1.53,1.27-3.3,2.24-5.19,2.84"/>
			<path class="st2" d="M345.52,184.59c-0.95-0.62-1.37-1.78-1.58-2.89c-0.15-0.78-0.22-1.6-0.01-2.37c0.2-0.77,0.72-1.49,1.46-1.78
				c0.11-0.04,0.23-0.08,0.35-0.06c0.12,0.02,0.22,0.09,0.31,0.16c0.45,0.37,0.68,0.96,0.73,1.55s-0.07,1.17-0.21,1.73
				c-0.32,1.3-0.79,2.56-1.39,3.76"/>
			<path class="st2" d="M340.62,189.24c-0.39-0.13-0.7-0.44-0.99-0.73c-0.79-0.81-1.61-1.69-1.76-2.81
				c-0.08-0.56,0.03-1.14,0.19-1.68c0.25-0.86,0.67-1.74,1.46-2.15c0.26-0.14,0.57-0.21,0.85-0.14c0.35,0.09,0.62,0.39,0.76,0.72
				c0.14,0.34,0.16,0.7,0.16,1.07C341.32,185.71,341.18,187.11,340.62,189.24"/>
			<path class="st2" d="M335.19,194.85c-0.1,0.09-0.26,0.01-0.37-0.07c-0.99-0.75-1.85-1.69-2.39-2.81s-0.75-2.42-0.44-3.62
				c0.14-0.55,0.41-1.1,0.91-1.37c0.64-0.34,1.47-0.08,1.97,0.45c0.49,0.53,0.71,1.26,0.8,1.98c0.26,1.93-0.17,3.87-0.61,5.77"/>
			<path class="st2" d="M329.09,200.49c-0.55-0.18-0.97-0.63-1.35-1.08c-0.92-1.09-1.77-2.29-2.15-3.67s-0.23-2.96,0.68-4.07
				c0.36-0.44,0.9-0.81,1.47-0.73c0.43,0.06,0.78,0.37,1.06,0.7c1.11,1.39,1.14,3.33,0.97,5.09c-0.11,1.1-0.28,2.2-0.52,3.28"/>
			<path class="st2" d="M321.25,206.75c-2.38-1.87-3.86-4.82-3.93-7.84c-0.03-1.16,0.29-2.54,1.38-2.97c0.7-0.28,1.53-0.04,2.1,0.46
				c0.57,0.49,0.91,1.2,1.14,1.92c0.8,2.53,0.3,5.26-0.2,7.87"/>
			<path class="st2" d="M340.86,189.54c1.74-0.76,3.74-0.55,5.62-0.27c0.46,0.07,0.98,0.19,1.18,0.61c0.17,0.38-0.02,0.83-0.29,1.14
				c-0.48,0.54-1.2,0.83-1.92,0.88c-0.72,0.05-1.45-0.11-2.12-0.37c-1.07-0.4-2.07-1.03-2.79-1.91"/>
			<path class="st2" d="M345.62,184.42c1.74-0.76,3.74-0.55,5.62-0.27c0.46,0.07,0.98,0.19,1.18,0.61c0.17,0.38-0.02,0.83-0.29,1.14
				c-0.48,0.54-1.2,0.83-1.92,0.88c-0.72,0.05-1.45-0.11-2.12-0.37c-1.07-0.4-2.07-1.03-2.79-1.91"/>
			<path class="st2" d="M335.24,194.75c2.18-1.05,4.86-1.03,7.02,0.07c0.48,0.24,0.97,0.58,1.11,1.1c0.12,0.45-0.08,0.95-0.41,1.27
				c-0.34,0.33-0.79,0.5-1.25,0.6c-1.05,0.22-2.16,0.05-3.16-0.35c-1-0.4-1.9-1.02-2.74-1.69c-0.33-0.27-0.68-0.58-0.77-1"/>
			<path class="st2" d="M329.16,200.13c2.12-0.74,4.46-0.31,6.63,0.27c0.84,0.22,1.76,0.53,2.18,1.29c0.52,0.95-0.05,2.23-1.01,2.74
				c-0.95,0.51-2.13,0.41-3.15,0.05c-1.93-0.67-3.5-2.16-4.57-3.9"/>
			<path class="st2" d="M321.63,206.24c1.63-0.53,3.43-0.32,5.04,0.25c1.61,0.58,3.08,1.5,4.52,2.41c0.7,0.44,1.48,1.01,1.55,1.83
				c0.04,0.57-0.28,1.12-0.74,1.45c-0.46,0.34-1.03,0.49-1.59,0.57c-2.91,0.4-5.87-1.15-7.67-3.48c-0.77-0.99-1.37-2.2-1.25-3.45"/>
			<path class="st2" d="M312.35,213.86c-0.09,0.15-0.32,0.04-0.44-0.07c-2.2-2.07-3.29-5.27-2.82-8.25
				c0.09-0.57,0.24-1.15,0.55-1.63c0.48-0.75,1.29-1.22,2.11-1.57c0.19-0.08,0.4-0.16,0.61-0.13c0.27,0.04,0.47,0.26,0.64,0.48
				c1.17,1.54,1.55,3.58,1.32,5.5s-1.03,3.73-2.03,5.38"/>
			<path class="st2" d="M311.82,213.82c1.26-0.55,2.69-0.63,4.05-0.44c1.36,0.19,2.68,0.64,3.97,1.11c0.95,0.35,1.94,0.73,2.63,1.47
				c0.69,0.74,1,1.95,0.42,2.78c-0.56,0.81-1.69,0.97-2.68,0.95c-1.94-0.04-3.91-0.53-5.5-1.65c-1.59-1.12-2.75-2.92-2.83-4.86"/>
		</g>
		<g class="st17">
			<g>
				<path class="st2" d="M287.25,190.44c2.18-2.84,3.56-6.18,4.68-9.55c0.6-1.79,1.14-3.59,1.69-5.39c0.6-1.97,1.2-3.94,1.76-5.92
					c1.08-3.76,2.05-7.56,2.93-11.37c0.88-3.83,1.66-7.68,2.34-11.55s1.26-7.76,1.74-11.66c0.06-0.47,0.11-0.95,0.17-1.42
					c0.04-0.34-0.48-0.43-0.52-0.09c-0.45,3.87-1,7.74-1.65,11.58c-0.65,3.85-1.4,7.67-2.25,11.48c-0.85,3.81-1.79,7.59-2.84,11.35
					c-1.07,3.84-2.22,7.65-3.43,11.45c-1.07,3.37-2.29,6.76-4.28,9.71c-0.24,0.36-0.49,0.71-0.76,1.05
					C286.64,190.38,287.04,190.71,287.25,190.44L287.25,190.44z"/>
			</g>
			<path class="st2" d="M301.93,135.24c-1.14-1.95-1.28-4.47-0.31-6.52c0.39-0.82,1.13-1.65,2.03-1.53c0.66,0.09,1.16,0.7,1.32,1.35
				c0.15,0.65,0.02,1.34-0.15,1.98c-0.51,1.92-1.4,3.74-2.59,5.32"/>
			<path class="st2" d="M301.72,138.67c-1.13,0.05-2.15-0.66-2.97-1.44c-0.57-0.55-1.1-1.18-1.38-1.92
				c-0.28-0.75-0.28-1.63,0.16-2.29c0.07-0.1,0.15-0.2,0.26-0.25c0.11-0.05,0.23-0.06,0.35-0.05c0.58,0.05,1.11,0.39,1.49,0.84
				c0.38,0.45,0.62,0.99,0.83,1.53c0.49,1.25,0.84,2.54,1.04,3.87"/>
			<path class="st2" d="M300.42,145.3c-0.4,0.12-0.82,0.05-1.23-0.03c-1.11-0.2-2.29-0.45-3.06-1.27c-0.39-0.41-0.63-0.94-0.82-1.48
				c-0.3-0.84-0.46-1.8-0.05-2.59c0.13-0.26,0.34-0.5,0.61-0.61c0.34-0.13,0.73-0.05,1.03,0.15c0.31,0.19,0.54,0.48,0.75,0.77
				C298.95,142.02,299.65,143.24,300.42,145.3"/>
			<path class="st2" d="M299.24,153.02c-0.03,0.13-0.2,0.16-0.34,0.15c-1.24-0.04-2.49-0.31-3.58-0.91s-2.01-1.54-2.46-2.69
				c-0.2-0.53-0.3-1.14-0.05-1.64c0.32-0.65,1.15-0.92,1.86-0.77c0.71,0.14,1.31,0.62,1.8,1.15c1.33,1.42,2.1,3.26,2.84,5.06"/>
			<path class="st2" d="M297.54,161.15c-0.56,0.17-1.16,0.05-1.72-0.1c-1.38-0.35-2.77-0.84-3.87-1.75c-1.11-0.9-1.9-2.28-1.8-3.71
				c0.04-0.57,0.26-1.19,0.77-1.45c0.38-0.2,0.85-0.16,1.27-0.04c1.71,0.49,2.86,2.05,3.74,3.59c0.55,0.96,1.04,1.96,1.48,2.98"/>
			<path class="st2" d="M294.76,170.8c-3.02-0.15-5.94-1.7-7.75-4.12c-0.7-0.93-1.23-2.24-0.6-3.21c0.41-0.63,1.23-0.91,1.98-0.84
				c0.75,0.07,1.44,0.45,2.04,0.9c2.12,1.6,3.3,4.12,4.39,6.53"/>
			<path class="st2" d="M300.79,145.41c0.98-1.63,2.73-2.62,4.42-3.48c0.41-0.21,0.91-0.41,1.31-0.18c0.36,0.21,0.46,0.68,0.42,1.1
				c-0.08,0.72-0.5,1.37-1.06,1.84c-0.56,0.46-1.24,0.74-1.94,0.93c-1.1,0.29-2.28,0.36-3.38,0.06"/>
			<path class="st2" d="M301.71,138.48c0.98-1.63,2.73-2.62,4.42-3.48c0.41-0.21,0.91-0.41,1.31-0.18c0.36,0.21,0.46,0.68,0.42,1.1
				c-0.08,0.72-0.5,1.37-1.06,1.84c-0.56,0.46-1.24,0.74-1.94,0.93c-1.1,0.29-2.28,0.36-3.38,0.06"/>
			<path class="st2" d="M299.23,152.91c1.17-2.12,3.36-3.65,5.76-4.01c0.53-0.08,1.13-0.09,1.54,0.26c0.36,0.3,0.48,0.82,0.4,1.28
				c-0.08,0.46-0.35,0.87-0.67,1.21c-0.73,0.79-1.74,1.29-2.78,1.54c-1.05,0.25-2.14,0.27-3.21,0.2c-0.43-0.03-0.89-0.08-1.2-0.37"
				/>
			<path class="st2" d="M297.39,160.82c1.3-1.83,3.45-2.83,5.56-3.62c0.81-0.31,1.74-0.59,2.52-0.21c0.98,0.47,1.25,1.85,0.77,2.82
				c-0.48,0.97-1.5,1.57-2.54,1.87c-1.96,0.57-4.1,0.26-5.98-0.54"/>
			<path class="st2" d="M294.78,170.16c1.02-1.38,2.61-2.25,4.25-2.71c1.65-0.46,3.37-0.56,5.08-0.65c0.83-0.04,1.79-0.04,2.32,0.6
				c0.36,0.44,0.42,1.07,0.24,1.62c-0.18,0.54-0.55,0.99-0.97,1.38c-2.15,2.01-5.46,2.46-8.27,1.6c-1.2-0.36-2.4-1-3.02-2.09"/>
			<path class="st2" d="M291.63,181.74c0.01,0.17-0.23,0.22-0.4,0.2c-3-0.42-5.73-2.39-7.07-5.1c-0.26-0.52-0.47-1.07-0.5-1.65
				c-0.04-0.89,0.35-1.74,0.81-2.5c0.11-0.18,0.24-0.36,0.42-0.46c0.25-0.12,0.54-0.06,0.8,0.02c1.84,0.58,3.34,2.02,4.26,3.72
				c0.92,1.7,1.32,3.64,1.46,5.56"/>
			<path class="st2" d="M291.17,182.03c0.71-1.18,1.83-2.07,3.05-2.71s2.55-1.03,3.88-1.39c0.98-0.27,2-0.53,3-0.33
				s1.94,1.01,1.95,2.02c0.01,0.99-0.82,1.77-1.64,2.33c-1.61,1.09-3.49,1.83-5.44,1.84c-1.94,0.01-3.93-0.79-5.12-2.32"/>
		</g>
	</g>
	<g class="st17">
		<g>
			<path class="st2" d="M178.75,196.87c-0.54-3.54-2-6.84-3.66-9.99c-0.88-1.67-1.81-3.3-2.73-4.95c-1-1.8-2.02-3.59-3.05-5.37
				c-1.97-3.38-4.04-6.71-6.18-9.98c-2.16-3.29-4.4-6.51-6.72-9.68c-2.32-3.17-4.73-6.28-7.22-9.32c-0.3-0.37-0.6-0.74-0.91-1.1
				c-0.22-0.26-0.64,0.05-0.42,0.31c2.49,3,4.9,6.07,7.22,9.2c2.33,3.13,4.57,6.32,6.74,9.56c2.16,3.25,4.24,6.55,6.23,9.9
				c2.03,3.43,3.99,6.9,5.9,10.4c1.69,3.1,3.3,6.33,4.05,9.81c0.09,0.42,0.17,0.85,0.23,1.27
				C178.28,197.27,178.8,197.21,178.75,196.87L178.75,196.87z"/>
		</g>
		<path class="st2" d="M149.04,148.09c-2.2-0.52-4.11-2.17-4.92-4.29c-0.32-0.85-0.41-1.96,0.3-2.53c0.52-0.42,1.31-0.36,1.89-0.01
			c0.58,0.34,0.98,0.91,1.33,1.48c1.03,1.7,1.73,3.59,2.05,5.55"/>
		<path class="st2" d="M151.38,150.61c-0.75,0.85-1.96,1.1-3.09,1.14c-0.8,0.03-1.61-0.02-2.34-0.33c-0.73-0.31-1.37-0.93-1.54-1.71
			c-0.03-0.12-0.04-0.24,0-0.36c0.04-0.11,0.12-0.2,0.21-0.28c0.44-0.39,1.05-0.53,1.64-0.49c0.58,0.04,1.14,0.24,1.68,0.46
			c1.24,0.51,2.42,1.16,3.51,1.92"/>
		<path class="st2" d="M155.27,156.13c-0.19,0.37-0.53,0.63-0.87,0.87c-0.91,0.66-1.91,1.35-3.04,1.33
			c-0.57-0.01-1.12-0.2-1.64-0.43c-0.81-0.37-1.62-0.92-1.91-1.76c-0.1-0.28-0.13-0.59-0.02-0.87c0.14-0.34,0.47-0.56,0.82-0.64
			c0.35-0.09,0.72-0.05,1.08-0.01C151.88,154.93,153.25,155.27,155.27,156.13"/>
		<path class="st2" d="M160.02,162.33c0.07,0.11-0.03,0.26-0.12,0.35c-0.89,0.87-1.94,1.58-3.13,1.96s-2.5,0.39-3.65-0.09
			c-0.52-0.22-1.03-0.57-1.22-1.1c-0.24-0.68,0.13-1.47,0.73-1.88c0.59-0.41,1.35-0.51,2.07-0.51c1.94,0.02,3.81,0.74,5.62,1.45"/>
		<path class="st2" d="M164.72,169.18c-0.26,0.52-0.77,0.87-1.26,1.18c-1.21,0.76-2.52,1.41-3.94,1.59
			c-1.42,0.17-2.96-0.21-3.92-1.26c-0.39-0.42-0.67-1.01-0.51-1.56c0.12-0.42,0.48-0.72,0.85-0.94c1.53-0.9,3.46-0.65,5.18-0.21
			c1.08,0.27,2.14,0.6,3.17,0.99"/>
		<path class="st2" d="M169.76,177.86c-2.19,2.08-5.33,3.11-8.33,2.75c-1.15-0.14-2.47-0.66-2.73-1.79
			c-0.17-0.73,0.19-1.52,0.76-2.01c0.57-0.49,1.32-0.73,2.06-0.85c2.62-0.42,5.25,0.47,7.76,1.35"/>
		<path class="st2" d="M155.6,155.94c-0.5-1.84,0-3.78,0.55-5.6c0.13-0.44,0.33-0.95,0.78-1.08c0.4-0.12,0.82,0.14,1.08,0.45
			c0.47,0.55,0.65,1.31,0.59,2.03s-0.32,1.41-0.67,2.05c-0.55,1-1.32,1.89-2.3,2.48"/>
		<path class="st2" d="M151.23,150.48c-0.5-1.84,0-3.78,0.55-5.6c0.13-0.44,0.33-0.95,0.78-1.08c0.4-0.12,0.82,0.14,1.08,0.45
			c0.47,0.55,0.65,1.31,0.59,2.03s-0.32,1.41-0.67,2.05c-0.55,1-1.32,1.89-2.3,2.48"/>
		<path class="st2" d="M159.93,162.26c-0.72-2.31-0.31-4.96,1.09-6.94c0.31-0.44,0.72-0.88,1.25-0.93c0.46-0.05,0.92,0.22,1.2,0.6
			c0.27,0.38,0.38,0.85,0.41,1.32c0.07,1.07-0.27,2.15-0.81,3.08c-0.54,0.93-1.28,1.73-2.08,2.46c-0.32,0.29-0.67,0.59-1.1,0.61"/>
		<path class="st2" d="M164.37,169.06c-0.42-2.2,0.35-4.45,1.23-6.52c0.34-0.8,0.78-1.66,1.59-1.97c1.01-0.38,2.2,0.38,2.57,1.39
			c0.37,1.02,0.09,2.17-0.41,3.13c-0.95,1.81-2.65,3.14-4.53,3.95"/>
		<path class="st2" d="M169.32,177.4c-0.29-1.69,0.18-3.44,0.99-4.95c0.81-1.51,1.93-2.82,3.05-4.12c0.54-0.63,1.21-1.32,2.04-1.26
			c0.57,0.04,1.06,0.44,1.33,0.95c0.27,0.5,0.34,1.09,0.33,1.65c-0.03,2.94-2,5.64-4.56,7.08c-1.09,0.61-2.38,1.04-3.6,0.73"/>
		<path class="st2" d="M175.5,187.69c0.13,0.11,0,0.32-0.14,0.43c-2.37,1.87-5.69,2.49-8.58,1.58c-0.55-0.17-1.1-0.4-1.54-0.78
			c-0.67-0.58-1.02-1.46-1.24-2.32c-0.05-0.2-0.1-0.42-0.04-0.62c0.08-0.26,0.33-0.43,0.57-0.56c1.69-0.93,3.77-1.01,5.63-0.5
			s3.54,1.56,5.03,2.79"/>
		<path class="st2" d="M175.39,188.22c-0.36-1.33-0.23-2.75,0.16-4.08c0.39-1.32,1.02-2.55,1.68-3.77c0.48-0.89,1-1.81,1.84-2.39
			c0.83-0.58,2.07-0.7,2.81-0.01c0.72,0.68,0.72,1.82,0.55,2.79c-0.33,1.91-1.1,3.79-2.43,5.2s-3.29,2.29-5.22,2.09"/>
	</g>
	<g>
		<g>
			<path class="st15" d="M217.24,140.87c10.5,0.45,21.87,3.62,29.55,10.78c0.65,0.61,1.29,1.27,1.57,2.11
				c0.41,1.23-0.01,2.57-0.4,3.81c-4.54,14.31-4.79,29.95-0.69,44.39c1.07,3.78,2.44,7.52,2.81,11.43c0.37,3.91-0.41,8.15-3.11,11
				c-1.16,1.23-2.62,2.14-4.13,2.9c-8.41,4.25-18.28,4.09-27.69,3.7c-5.8-0.24-11.66-0.54-17.25-2.13
				c-5.59-1.59-10.95-4.59-14.35-9.3c-3.5-4.86-4.6-11.04-5.04-17.01c-1.01-13.57,0.83-27.18,1.09-40.79
				c0.07-3.96-0.01-8.04-1.55-11.68c7.17-4.96,15.74-7.97,24.29-9.67c1.84,2.45,4.41,3.56,7.47,3.71
				C212.85,144.28,215.16,143.12,217.24,140.87"/>
		</g>
		<g>
			<path class="st18" d="M245.63,211.68c-0.34-3.91,2.44-8.44,1.45-12.22c-2.52-9.61-7.26-18.95-6.24-28.87
				c-2.16,1.08-4.11,2.51-5.22,4.64c-0.91,1.75-1.15,3.79-1.17,5.77c-0.04,3.97,0.69,7.9,0.85,11.86c0.16,3.96-0.34,8.14-2.57,11.38
				c-2.58,3.74-7.02,5.63-11.35,6.79c-2.91,0.78-5.89,1.32-8.86,1.79c-3.42,0.54-6.9,0.99-10.34,0.55
				c-3.44-0.44-6.86-1.87-9.12-4.56c-3.58-4.25-3.47-10.43-4.12-16.01c-0.71-6.12-2.55-12.11-5.41-17.53
				c-0.86-1.63-1.86-3.27-3.41-4.22c0,0-0.01,0-0.01-0.01c-0.53,9.94-6.28,20.37-5.6,30.28c0.41,5.98,6.45,11.65,9.69,16.51
				c3.13,4.71,8.09,7.71,13.25,9.3c5.16,1.59,10.57,1.89,15.93,2.13c8.69,0.39,17.81,0.55,25.57-3.7c1.39-0.76,2.74-1.67,3.81-2.9
				C245.25,219.83,245.97,215.6,245.63,211.68z"/>
		</g>
		<g>
			<path class="st15" d="M182.41,147.38c3.24,14.42,0.45,31.44-3.15,45.77c-1.07,4.26-0.84,8.93,0.68,11.09
				c1.58,2.24,4.31,3.58,6.8,4.73c5.79,2.67,9.81,5.82,14.23,10.41c1.77,1.84,3.4,3.92,4.16,6.35s0.54,5.3-1.09,7.27
				c-1.56,1.88-4.13,2.66-6.57,2.66c-2.44,0-4.83-0.68-7.2-1.24c-3.98-0.93-8.04-1.54-12.12-1.82c-3.53-0.24-7.12-0.24-10.52-1.23
				c-4.83-1.42-8.98-4.86-11.53-9.2c-2.54-4.35-3.52-9.54-3.01-14.55c0.27-2.69,0.95-5.31,1.65-7.92c2.9-10.8,6.9-20.25,10.56-30.82
				c1.5-4.32,4.25-9.2,6.9-12.94C174.85,152.22,177.9,148.15,182.41,147.38"/>
		</g>
		<g>
			<path class="st3" d="M183.59,174.84c1.96-8.91,1.26-18.77-0.83-27.56c-0.11-0.46-0.81-0.26-0.7,0.19
				c1.49,6.27,2.07,12.72,1.75,19.16c-0.13,2.67-0.35,5.4-0.92,8.01C182.79,175.11,183.49,175.3,183.59,174.84L183.59,174.84z"/>
		</g>
		<path class="st8" d="M210.17,225.84c0,0-9.65-2.4-13.27-0.33s-9.1,5.09-8.93,8.93l0,1.58c0,0,25.88,0.76,27.98-1.58"/>
		<g>
			<path class="st15" d="M239.01,146.3c4.74,0.55,9.92,6.07,13.19,10.84c3.28,4.77,5.51,10.17,7.71,15.52
				c4.13,10.02,8.26,20.04,12.38,30.06c1.28,3.11,2.57,6.24,3.19,9.54c0.52,2.74,0.56,5.57,0.14,8.32
				c-0.35,2.26-1.04,4.52-2.45,6.32c-2,2.54-5.15,3.83-8.17,4.98c-6.37,2.42-12.91,4.69-19.7,5.16c-2.68,0.18-5.37,0.09-8.05-0.01
				c-7.41-0.27-14.86-0.54-22.15-1.9c-0.52-0.1-1.07-0.21-1.49-0.54c-0.44-0.34-0.68-0.86-0.91-1.36c-0.73-1.6-1.47-3.21-2.2-4.81
				c-0.41-0.9-0.83-1.84-0.75-2.82c0.11-1.32,1.07-2.39,2.04-3.28c2.57-2.38,5.53-4.34,8.73-5.77c6.57-2.95,14.08-3.69,20.26-7.4
				c0.75-0.45,1.48-0.95,2.08-1.58c2.28-2.42,2.14-6.31,0.86-9.37c-1.28-3.06-2.17-5.99-3.42-9.06c-2.79-6.84-4.18-11.3-4.33-17.14
				C235.73,163.66,236.35,154.18,239.01,146.3"/>
		</g>
		<g>
			<path class="st19" d="M213.96,220.65c0.87,1.17,1.53,2.53,2.13,3.86c1.53,3.44,2.4,7.16,2.67,10.92c0.03,0.47,0.76,0.47,0.73,0
				c-0.27-3.78-1.13-7.5-2.64-10.99c-0.62-1.43-1.33-2.9-2.26-4.16C214.32,219.9,213.68,220.27,213.96,220.65L213.96,220.65z"/>
		</g>
		<g>
			<path class="st3" d="M235.98,175.23c-0.61-9.53,0.13-19.83,3.38-28.84c0.16-0.44-0.55-0.63-0.7-0.19
				c-3.27,9.07-4.01,19.45-3.4,29.04C235.28,175.7,236.01,175.7,235.98,175.23L235.98,175.23z"/>
		</g>
	</g>
	<path class="st20" d="M342.07,244.59H3.03c-1.67,0-3.03-1.36-3.03-3.03l0-0.25c0-1.67,1.36-3.03,3.03-3.03h339.04
		c1.67,0,3.03,1.36,3.03,3.03v0.25C345.1,243.23,343.74,244.59,342.07,244.59z"/>
	<g>
		<path class="st21" d="M254.54,238.28H137.83c-0.28,0-0.5-0.22-0.5-0.5v-1.93c0-0.28,0.22-0.5,0.5-0.5h116.71
			c0.28,0,0.5,0.22,0.5,0.5v1.93C255.04,238.06,254.82,238.28,254.54,238.28z"/>
		<polygon class="st21" points="188.98,238.28 88.56,238.28 83.7,168.56 182.12,168.56 		"/>
		<g>
			<polygon class="st22" points="185.57,238.28 85.14,238.28 80.29,168.56 178.71,168.56 			"/>
			<circle class="st23" cx="132.93" cy="203.42" r="6"/>
			<path class="st12" d="M81.13,180.61l4.01,57.62h100.43l-1.34-13.62C131.37,217.77,94.96,191.99,81.13,180.61z"/>
		</g>
	</g>
</g>
</svg>
