<?xml version="1.0" encoding="utf-8"?>
<!-- Generator: Adobe Illustrator 23.0.0, SVG Export Plug-In . SVG Version: 6.00 Build 0)  -->
<svg version="1.1" xmlns="http://www.w3.org/2000/svg" xmlns:xlink="http://www.w3.org/1999/xlink" x="0px" y="0px"
	 viewBox="0 0 401.9 357.9" style="enable-background:new 0 0 401.9 357.9;" xml:space="preserve">
<style type="text/css">
	.st0{clip-path:url(#SVGID_2_);fill:url(#SVGID_3_);}
	.st1{display:none;clip-path:url(#SVGID_2_);}
	.st2{opacity:0.335;}
	.st3{display:inline;}
	.st4{display:none;}
	.st5{fill:#FFFFFF;}
	.st6{fill:url(#SVGID_4_);}
	.st7{opacity:0.7;fill:url(#SVGID_5_);}
	.st8{font-family:'Montserrat-Regular';}
	.st9{font-size:10.2044px;}
	.st10{fill:#3D4051;}
	.st11{fill:#00B255;}
	.st12{opacity:0.3;}
	.st13{fill:#FFD524;}
	.st14{fill:#FFC32E;}
	.st15{fill:#FFE2B2;}
	.st16{fill:#FF582A;}
	.st17{fill:#AE1E0B;}
	.st18{fill:#009FDA;}
	.st19{fill:#0071B8;}
	.st20{fill:#484D5B;}
	.st21{fill:#CADFEF;}
	.st22{fill:#8D5115;}
	.st23{fill:#774206;}
	.st24{fill:#02BFBA;}
	.st25{fill:#008C41;}
	.st26{clip-path:url(#SVGID_2_);}
	.st27{display:none;opacity:0.335;}
	.st28{fill:url(#SVGID_6_);}
	.st29{opacity:0.7;fill:url(#SVGID_7_);}
	.st30{font-size:10.1922px;}
	.st31{fill:#008B99;}
</style>
<g id="Capa_1">
</g>
<g id="Capa_2">
	<g>
		<defs>
			<rect id="SVGID_1_" x="0" width="401.9" height="357.9"/>
		</defs>
		<clipPath id="SVGID_2_">
			<use xlink:href="#SVGID_1_"  style="overflow:visible;"/>
		</clipPath>
		
			<linearGradient id="SVGID_3_" gradientUnits="userSpaceOnUse" x1="131.3564" y1="20.8846" x2="296.8283" y2="387.1689" gradientTransform="matrix(1 0 0 -1 0 352)">
			<stop  offset="0" style="stop-color:#8DD2AF"/>
			<stop  offset="0.6663" style="stop-color:#1EAAC3"/>
		</linearGradient>
		<path class="st0" d="M401.9-7v364.9c-27.9-6.1-54.5-22.7-67.5-48.1c-8.2-16-11.6-35.8-25.9-46.7c-12-9.1-28.9-9.2-43.4-5
			s-27.6,12.1-41.5,18c-21.6,9.3-46.1,13.7-69,8.1c-22.9-5.6-43.7-22.6-49.9-45.3c-6.7-24.6,3-54.6-13.8-73.9
			c-18.7-21.6-56.8-13.1-77.5-32.8C0.3,119.7-1.7,99.2,1.1,81.2s9.3-35.5,9.9-53.8C11.3,15.4,8.3,2.5,1.4-7H401.9z"/>
		<g class="st1">
			<g class="st2">
				
					<image style="display:inline;overflow:visible;" width="670" height="456" xlink:href="BA672DBC.png"  transform="matrix(1 0 0 1 -222 -36.08)">
				</image>
			</g>
			<g class="st3">
				<g class="st4">
					<g class="st3">
						<rect x="-195.7" y="-9.5" class="st5" width="597" height="382.1"/>
						<linearGradient id="SVGID_4_" gradientUnits="userSpaceOnUse" x1="-1.1812" y1="173.2202" x2="401.2307" y2="173.2202">
							<stop  offset="0" style="stop-color:#8EE5B6"/>
							<stop  offset="1" style="stop-color:#00C4D8"/>
						</linearGradient>
						<path class="st6" d="M401.2-9.5v365.4c-28-6.1-54.6-22.7-67.6-48.2c-8.2-16-11.6-35.8-25.9-46.7c-12-9.1-28.9-9.2-43.4-5
							c-14.5,4.2-27.6,12.1-41.5,18.1c-21.7,9.3-46.2,13.7-69.1,8.1c-22.9-5.6-43.7-22.6-49.9-45.4c-6.7-24.6,3-54.7-13.8-74
							c-18.7-21.6-56.9-13.1-77.6-32.8C-0.9,117.4-2.8,96.9-0.1,78.8C2.6,60.8,9.1,43.3,9.7,25C10.1,13,7.1,0,0.2-9.5H401.2z"/>
						<linearGradient id="SVGID_5_" gradientUnits="userSpaceOnUse" x1="219.8227" y1="151.4648" x2="115.5922" y2="270.2729">
							<stop  offset="0" style="stop-color:#A7EBEB"/>
							<stop  offset="1" style="stop-color:#A7EBEB;stop-opacity:0"/>
						</linearGradient>
						<path class="st7" d="M392.1,318.8c-24.9-1.5-50.8-16.5-56.6-40.7c-5.2-21.5,5.5-47.1-7.7-64.9c-10.1-13.7-30.8-15.7-46.6-9.2
							c-15.8,6.6-27.7,19.6-39.2,32.3c-11.5,12.6-23.5,25.7-39.4,32c-16.4,6.6-35.8,5-50.9-4.2c-15.1-9.2-25.5-25.7-27.2-43.3
							c-1.6-17,4.3-33.7,6.2-50.7c1.8-17-2.2-36.9-17.3-45c-12.9-6.9-28.6-2.6-42.8,0.6c-14.3,3.2-31.5,4.3-41.2-6.6
							C18.1,106.6,24,87,31.7,72.1C45.3,45.9,63.3,19.2,64.3-9.5h-64C7.1,0,10.1,13,9.7,25C9.1,43.3,2.6,60.8-0.1,78.8
							c-2.7,18.1-0.7,38.6,12.5,51.2c20.7,19.7,58.9,11.2,77.6,32.8c16.7,19.3,7.1,49.4,13.8,74c6.2,22.8,27,39.8,49.9,45.4
							c22.9,5.6,47.4,1.2,69.1-8.1c13.9-5.9,27-13.9,41.5-18.1c14.5-4.2,31.4-4.1,43.4,5c14.4,10.9,17.7,30.7,25.9,46.7
							c13,25.5,39.7,42,67.6,48.2v-37C398.2,319,395.1,319,392.1,318.8z M296.3,232.3c-6.7,4-22.2,3.7-22.2-7c0-9,13.6-15,21.1-14.8
							C309.3,210.9,305.1,227.1,296.3,232.3z M322.9,229.2c-0.4,1.2-1.3,2.2-2.5,2.6c-1.3,0.5-2.7,0.2-4-0.5c-2-1-3.5-3-4-5.2
							c-0.5-2.3,0.2-5.8,2.6-6.8c1.7-0.7,4.1,0,5.5,1.1c1.5,1.2,2.3,3.1,2.6,5C323.3,226.7,323.3,228,322.9,229.2z"/>
						<g>
							<g>
								<g>
									<text transform="matrix(1 0 0 1 -167.9595 28.5684)"><tspan x="0" y="0" class="st10" style="font-family:'Montserrat-Bold'; font-size:14.5777px;">YOUR</tspan><tspan x="35.2" y="0" class="st10 st8" style="font-size:14.5777px;">LOGO</tspan></text>
								</g>
								<g>
									<g>
										<text transform="matrix(1 0 0 1 136.5151 27.4688)" class="st5 st8 st9">Home</text>
									</g>
									<g>
										<text transform="matrix(1 0 0 1 194.5347 27.4688)" class="st5 st8 st9">About</text>
									</g>
									<g>
										<text transform="matrix(1 0 0 1 257.1084 27.4688)" class="st5 st8 st9">Blog</text>
									</g>
									<g>
										<text transform="matrix(1 0 0 1 306.9023 27.4688)" class="st5 st8 st9">Contact</text>
									</g>
								</g>
							</g>
						</g>
						<g>
							<g>
								<g>
									<g>
										
											<text transform="matrix(1 0 0 1 -167.7915 150.1563)" class="st11" style="font-family:'Montserrat-Black'; font-size:32.0709px;">BACK TO</text>
									</g>
									<g>
										
											<text transform="matrix(1 0 0 1 -167.7915 187.0566)" class="st11" style="font-family:'Montserrat-Black'; font-size:36.4442px;">SCHOOL</text>
									</g>
								</g>
							</g>
							<g>
								<rect x="-168" y="233.2" style="fill:none;" width="131.7" height="26"/>
								<text transform="matrix(1 0 0 1 -167.9604 238.3594)"><tspan x="0" y="0" class="st8" style="fill:#CBD0E3; font-size:7.2888px;">Lorem ipsum dolor sit amet, consec</tspan><tspan x="120" y="0" class="st8" style="fill:#CBD0E3; font-size:7.2888px;">-</tspan><tspan x="0" y="8.7" class="st8" style="fill:#CBD0E3; font-size:7.2888px;">tetuer adipiscing elit, sed diam </tspan><tspan x="0" y="17.5" class="st8" style="fill:#CBD0E3; font-size:7.2888px;">nonummy nibh euismod</tspan></text>
							</g>
							<g>
								<path class="st10" d="M-109.4,220.7h-50c-4.7,0-8.6-3.8-8.6-8.6v0c0-4.7,3.8-8.6,8.6-8.6h50c4.7,0,8.6,3.8,8.6,8.6v0
									C-100.8,216.9-104.7,220.7-109.4,220.7z"/>
								
									<text transform="matrix(1 0 0 1 -157.3726 214.1934)" class="st5" style="font-family:'Montserrat-Bold'; font-size:7.2888px;">READ MORE</text>
							</g>
							<g>
								<g>
									<g>
										<circle class="st11" cx="-164.9" cy="278.1" r="3.1"/>
									</g>
									<g class="st12">
										<path class="st11" d="M-149.9,278.1c0,1.7-1.4,3.1-3.1,3.1c-1.7,0-3.1-1.4-3.1-3.1s1.4-3.1,3.1-3.1
											C-151.3,275-149.9,276.4-149.9,278.1z"/>
									</g>
									<g class="st12">
										<circle class="st11" cx="-141.1" cy="278.1" r="3.1"/>
									</g>
								</g>
							</g>
						</g>
					</g>
				</g>
				<g>
					<g>
						<path class="st13" d="M330.4,227l43.4-68.1c1.3-2,4-2.6,6-1.3l4.5,2.8c2,1.3,2.6,4,1.3,6l-43.4,68.1l-7.6,5.1l-7.1,4.8
							l1.4-8.4L330.4,227z"/>
						<path class="st14" d="M336.3,230.8L382,159l2.2,1.4c2,1.3,2.6,4,1.3,6l-43.4,68.1L336.3,230.8z"/>
						<polygon class="st15" points="330.4,227 342.2,234.6 334.6,239.7 327.6,244.5 328.9,236 						"/>
						<polygon class="st10" points="328.9,236 334.6,239.7 327.6,244.5 						"/>
						<path class="st16" d="M369.3,165.9l4.4-7c1.3-2,4-2.6,6-1.3l4.5,2.8c2,1.3,2.6,4,1.3,6l-4.4,7L369.3,165.9z"/>
						
							<rect x="366.9" y="169.3" transform="matrix(-0.8434 -0.5373 0.5373 -0.8434 596.907 517.5392)" class="st10" width="14" height="4.9"/>
						<path class="st17" d="M375.2,169.7L382,159l2.2,1.4c2,1.3,2.6,4,1.3,6l-4.4,7L375.2,169.7z"/>
					</g>
					<g>
						<path class="st18" d="M53.9,101.9l76.6-25.5c2.3-0.8,4.8,0.5,5.5,2.8l1.7,5c0.8,2.3-0.5,4.8-2.8,5.5l-76.6,25.5l-9.1-0.8
							l-8.5-0.7l6.4-5.7L53.9,101.9z"/>
						<path class="st19" d="M56.2,108.5l80.7-26.9l0.8,2.5c0.8,2.3-0.5,4.8-2.8,5.5l-76.6,25.5L56.2,108.5z"/>
						<polygon class="st15" points="53.9,101.9 58.4,115.2 49.3,114.4 40.8,113.6 47.2,107.9 						"/>
						<polygon class="st10" points="47.2,107.9 49.3,114.4 40.8,113.6 						"/>
						<path class="st13" d="M122.7,79l7.8-2.6c2.3-0.8,4.8,0.5,5.5,2.8l1.7,5c0.8,2.3-0.5,4.8-2.8,5.5l-7.8,2.6L122.7,79z"/>
						
							<rect x="115.5" y="83.9" transform="matrix(-0.3162 -0.9487 0.9487 -0.3162 79.3712 229.9838)" class="st10" width="14" height="4.9"/>
						<path class="st14" d="M124.9,85.6l12-4l0.8,2.5c0.8,2.3-0.5,4.8-2.8,5.5l-7.8,2.6L124.9,85.6z"/>
					</g>
					<g>
						<g>
							<path class="st10" d="M207,107l-53.6,18.3l9.5,27.3c19.8,2.8,39.7-4.1,53.6-18.6L207,107z"/>
							<g>
								<polygon class="st10" points="237.9,98.2 189.6,141.9 124.6,137.5 131.3,131.4 135,128.1 172.9,93.8 223.9,97.2 228.8,97.6 
																	"/>
							</g>
							<g>
								<polygon class="st20" points="228.8,97.6 187.3,135.2 131.3,131.4 135,128.1 172.9,93.8 223.9,97.2 								"/>
							</g>
						</g>
						<g>
							<g>
								<polygon class="st13" points="122.5,175 119.9,174.8 123.3,136.6 180.4,113.2 181.4,115.6 125.8,138.4 								"/>
							</g>
							<path class="st13" d="M122.6,160.8l-0.5-0.2c-1.6,0.6-7.3,3.8-8.4,18l11.7,1.8C128.5,166.5,124,161.9,122.6,160.8z"/>
						</g>
					</g>
					<g>
						<g>
							<path class="st21" d="M356.6,75.8c-1.6-3.1-0.4-6.9,2.7-8.5c3.1-1.6,6.9-0.4,8.5,2.7c1.6,3.1,0.4,6.9-2.7,8.5
								C362,80.1,358.2,78.9,356.6,75.8z M366.8,70.5c-1.3-2.6-4.5-3.6-7.1-2.2c-2.6,1.3-3.6,4.5-2.2,7.1c1.3,2.6,4.5,3.6,7.1,2.2
								C367.2,76.2,368.2,73.1,366.8,70.5z"/>
						</g>
						
							<rect x="320" y="87.5" transform="matrix(0.464 0.8858 -0.8858 0.464 256.2888 -246.7103)" class="st5" width="24.1" height="1.8"/>
						<g>
							<g>
								<g>
									<polygon class="st21" points="304.5,118.4 299.5,123.4 305.4,119.5 310.6,115.2 309.7,114.1 									"/>
								</g>
								<g>
									<g>
										
											<rect x="300.4" y="95.2" transform="matrix(0.7707 -0.6372 0.6372 0.7707 14.4297 234.6531)" class="st10" width="65.7" height="4.1"/>
									</g>
								</g>
								<g>
									<g>
										<path class="st5" d="M316.8,116c-1.7,1.4-4.1,1.1-5.5-0.5c-1.4-1.7-1.1-4.1,0.5-5.5c1.7-1.4,4.1-1.1,5.5,0.5
											C318.6,112.1,318.4,114.6,316.8,116z"/>
									</g>
								</g>
								<g>
									<g>
										<g>
											<path class="st21" d="M315.7,114.7c-0.9,0.8-2.3,0.6-3.1-0.3c-0.8-0.9-0.6-2.3,0.3-3.1c0.9-0.8,2.3-0.6,3.1,0.3
												C316.8,112.5,316.6,113.9,315.7,114.7z"/>
										</g>
									</g>
								</g>
							</g>
							<g>
								<polygon class="st21" points="292.1,94.6 285.1,95.9 291.7,93.3 298.2,91.4 298.6,92.8 								"/>
							</g>
							<g>
								<g>
									<g>
										
											<rect x="293" y="80.9" transform="matrix(0.9627 -0.2707 0.2707 0.9627 -10.3029 91.3027)" class="st10" width="65.7" height="4.1"/>
									</g>
								</g>
							</g>
							<g>
								
									<rect x="359.8" y="70.4" transform="matrix(0.8858 -0.464 0.464 0.8858 8.6844 177.6962)" class="st10" width="11.2" height="1.6"/>
							</g>
							<path class="st21" d="M326.8,91.1L326.8,91.1c-0.3-0.6-0.1-1.3,0.5-1.6l8.1-4.2c0.6-0.3,1.3-0.1,1.6,0.5l0,0
								c0.3,0.6,0.1,1.3-0.5,1.6l-8.1,4.2C327.8,91.9,327.1,91.7,326.8,91.1z"/>
						</g>
						<g>
							<path class="st5" d="M360.3,78.8c-2.1,1.1-4.8,0.3-5.9-1.8c-1.1-2.1-0.3-4.8,1.8-5.9c2.1-1.1,4.8-0.3,5.9,1.8
								C363.3,75.1,362.5,77.7,360.3,78.8z"/>
						</g>
						<g>
							<path class="st21" d="M359.4,77.1c-1.2,0.6-2.7,0.2-3.3-1c-0.6-1.2-0.2-2.7,1-3.3c1.2-0.6,2.7-0.2,3.3,1
								C361.1,75,360.6,76.5,359.4,77.1z"/>
						</g>
						<g>
							<path class="st5" d="M368.9,70.2l-0.7-1.3c-0.4-0.8-0.1-1.7,0.7-2.1l13.6-7.1c0.8-0.4,1.7-0.1,2.1,0.7l0.7,1.3
								c0.4,0.8,0.1,1.7-0.7,2.1l-13.6,7.1C370.3,71.3,369.3,71,368.9,70.2z"/>
						</g>
					</g>
					<g>
						<path class="st21" d="M232,269.3c0,0-8.1-19.6-24.2-21.4s-47.4,16.6-101.3,16.6l-10.6,16H232V269.3z"/>
						<path class="st5" d="M232,269.3c0,0,1.3-17.2-7.2-21.6c-10.6-5.4-49.9,6.2-97-26.5l-14.6,28.7c0,0,17.3,11.1,47.1,14.2
							C198.5,268.2,214.1,245.6,232,269.3z"/>
						<path class="st21" d="M232,269.3c0,0,8.1-19.6,24.2-21.4s47.4,16.6,101.3,16.6l10.6,16H232V269.3z"/>
						<path class="st5" d="M232,267c0,0,3.9-19.6,19.9-21.7c16-2.1,52.5,12.7,62.7,13.8c10.2,1.1,40.5,2,40.5,2l5.6,8.3
							c0,0-35-0.3-45.7-1.5c-13.1-1.5-41.5-17.9-60.9-15.1c-19.3,2.7-21.5,16.7-21.5,16.7L232,267z"/>
						<g>
							<rect x="89.4" y="280.6" class="st22" width="287.9" height="8"/>
							<path class="st22" d="M242.2,295.1h-20.4c-5.8,0-10.6-4.7-10.6-10.6l0,0h41.5l0,0C252.8,290.4,248,295.1,242.2,295.1z"/>
							<path class="st23" d="M240.4,289.2h-16.8c-4.8,0-8.7-3.9-8.7-8.7l0,0L232,267l17.1,13.5l0,0
								C249.1,285.3,245.2,289.2,240.4,289.2z"/>
							<path class="st13" d="M249.1,280.5c0,1.9-0.6,3.7-1.7,5.1L232,273.5l-15.5,12.2c-1-1.4-1.7-3.2-1.7-5.1L232,267L249.1,280.5z
								"/>
						</g>
					</g>
					<g>
						<g>
							<path class="st24" d="M113.3,66.9c-0.8,1.9-3,2.7-4.9,1.8l-8.5-3.9c-0.3-0.1-0.4-0.4-0.3-0.7c0.1-0.3,0.4-0.4,0.7-0.3
								l8.5,3.9c1.3,0.6,2.9,0,3.5-1.3c0.6-1.3,0-2.9-1.3-3.5l-9.8-4.5c-0.9-0.4-2,0-2.4,0.9c-0.4,0.9,0,2,0.9,2.4l8.1,3.7
								c0.5,0.2,1.2,0,1.4-0.5c0.2-0.5,0-1.2-0.5-1.4l-6-2.7c-0.3-0.1-0.4-0.4-0.3-0.7c0.1-0.3,0.4-0.4,0.7-0.3l6,2.7
								c1.1,0.5,1.5,1.8,1.1,2.8c-0.5,1.1-1.8,1.5-2.8,1.1l-8.1-3.7c-1.5-0.7-2.1-2.4-1.4-3.8c0.7-1.5,2.4-2.1,3.8-1.4l9.8,4.5
								C113.3,62.8,114.2,65,113.3,66.9z"/>
						</g>
						<g>
							<path class="st24" d="M100,140.7c0.2-0.1,0.4-0.2,0.6-0.3c2-1,3-2.3,2.8-3.5c-0.2-1.5-2-2.6-4.7-3.1c0.3-2.7-0.3-4.8-1.7-5.4
								c-1.4-0.6-3.2,0.5-5,2.7c-2.3-1.5-4.4-2-5.5-1c-1,0.8-1.1,2.4-0.4,4.5c0.1,0.2,0.1,0.4,0.2,0.6c-2.3,1-3.6,2.4-3.4,3.8
								c0.1,1.1,1,1.9,2.5,2.5c0.6,0.2,1.4,0.4,2.2,0.6c-0.3,2.7,0.3,4.8,1.7,5.4c1.4,0.6,3.3-0.5,5-2.7c0.7,0.4,1.3,0.8,2,1.1
								c1.5,0.6,2.8,0.6,3.6-0.1C100.9,144.9,100.9,143,100,140.7z M100.6,135.3c1.1,0.5,1.8,1,1.9,1.7c0.1,0.8-0.8,1.7-2.3,2.5
								c-0.2,0.1-0.3,0.2-0.5,0.3c-0.4-0.8-0.9-1.7-1.5-2.6c0.2-0.8,0.4-1.6,0.5-2.4C99.4,134.9,100,135.1,100.6,135.3z M93.5,141.4
								c-0.6,0.1-1.2,0.1-1.7,0.1c-0.4-0.4-0.8-0.8-1.2-1.3c-0.4-0.5-0.8-1-1.2-1.6c0.2-0.6,0.4-1.2,0.7-1.9
								c0.3-0.6,0.5-1.2,0.8-1.8c0.6-0.1,1.3-0.2,2-0.3c0.6-0.1,1.2-0.1,1.7-0.1c0.4,0.4,0.8,0.8,1.2,1.3c0.4,0.5,0.9,1,1.2,1.6
								c-0.2,0.6-0.4,1.2-0.7,1.9c-0.3,0.6-0.5,1.2-0.8,1.8C94.9,141.2,94.2,141.3,93.5,141.4z M94.9,142.2
								c-0.3,0.5-0.5,0.9-0.8,1.3c-0.4-0.3-0.9-0.7-1.3-1.1c0.3,0,0.6,0,0.9-0.1C94.1,142.3,94.5,142.3,94.9,142.2z M90.4,141.5
								c-0.6,0-1.2-0.1-1.7-0.1c0.1-0.5,0.2-1,0.3-1.5c0.3,0.3,0.5,0.7,0.8,1C90,141.1,90.2,141.3,90.4,141.5z M88.7,137.6
								c-0.4-0.6-0.7-1.2-1-1.8c0.6-0.2,1.2-0.4,1.9-0.6c-0.2,0.4-0.3,0.8-0.5,1.2C88.9,136.8,88.8,137.2,88.7,137.6z M91.5,133.8
								c0.3-0.5,0.5-0.9,0.8-1.3c0.4,0.3,0.9,0.7,1.3,1.1c-0.3,0-0.6,0-0.9,0.1C92.3,133.7,91.9,133.8,91.5,133.8z M95.9,134.5
								c0.6,0,1.1,0.1,1.7,0.1c-0.1,0.5-0.2,1-0.3,1.5c-0.3-0.3-0.5-0.7-0.8-1C96.3,135,96.1,134.7,95.9,134.5z M97.7,138.4
								c0.4,0.6,0.7,1.2,1,1.8c-0.6,0.2-1.2,0.4-1.9,0.6c0.2-0.4,0.3-0.8,0.5-1.2C97.4,139.2,97.5,138.8,97.7,138.4z M96.6,129.4
								c0.9,0.3,1.3,2,1.1,4.3c-0.9-0.1-1.8-0.1-2.8-0.1c-0.7-0.7-1.4-1.3-2.1-1.8C94.3,129.9,95.7,129,96.6,129.4z M87.1,130.9
								c0.5-0.4,1.4-0.4,2.5,0.1c0.5,0.2,1.1,0.5,1.8,0.9c-0.4,0.6-0.9,1.4-1.3,2.1c-1.1,0.2-2,0.5-2.9,0.8
								c-0.1-0.2-0.1-0.4-0.2-0.6C86.5,132.7,86.5,131.4,87.1,130.9z M83.9,139c-0.1-0.9,1-1.9,2.8-2.8c0.4,0.9,0.9,1.7,1.5,2.6
								c-0.2,0.8-0.4,1.6-0.6,2.4C85.5,140.8,84,139.9,83.9,139z M89.7,146.7c-0.9-0.3-1.3-2-1.1-4.3c0.9,0.1,1.8,0.1,2.8,0.1
								c0.7,0.7,1.4,1.3,2.1,1.8C92,146.1,90.6,147,89.7,146.7z M99.2,145.1c-0.7,0.6-2.3,0.2-4.3-1c0.4-0.6,0.9-1.4,1.3-2.1
								c1-0.2,2-0.5,2.9-0.8C99.8,143,99.9,144.5,99.2,145.1z"/>
							<path class="st24" d="M93.9,136.2c-1-0.4-2.1,0.1-2.5,1.1c-0.4,1,0.1,2.1,1.1,2.5c1,0.4,2.1-0.1,2.5-1.1
								C95.4,137.7,94.9,136.6,93.9,136.2z"/>
						</g>
						<g>
							<path class="st24" d="M370.8,223c-0.8,2.6,0.5,5.2,2.8,6.4l-0.8,2.6c-1.2,0-2.3,0.8-2.7,1.9l5.7,1.7c0.3-1.2-0.2-2.4-1.2-3.1
								l0.8-2.6c2.6,0.3,5.1-1.3,5.8-3.8l2-6.8l-10.4-3.1L370.8,223z"/>
							<path class="st24" d="M376.2,236.2l-6.8-2c-0.3-0.1-0.6,0.1-0.7,0.4c-0.1,0.3,0.1,0.6,0.4,0.7l6.8,2c0.3,0.1,0.6-0.1,0.7-0.4
								C376.7,236.6,376.5,236.3,376.2,236.2z"/>
							<path class="st24" d="M367.4,219c-0.5,1.6,0.4,3.3,2,3.7l0.6,0.2l0.3-1.1l-0.6-0.2c-1-0.3-1.5-1.3-1.2-2.3
								c0.3-1,1.3-1.5,2.3-1.2l0.6,0.2l0.3-1.1l-0.6-0.2C369.6,216.5,367.9,217.4,367.4,219z"/>
							<path class="st24" d="M384.1,220.8l-0.6-0.2l-0.3,1.1l0.6,0.2c1,0.3,1.5,1.3,1.2,2.3c-0.3,1-1.3,1.5-2.3,1.2l-0.6-0.2
								l-0.3,1.1l0.6,0.2c1.6,0.5,3.3-0.4,3.7-2C386.6,222.9,385.7,221.3,384.1,220.8z"/>
						</g>
						<g>
							<path class="st24" d="M373.8,110.5l-2-3.4l-5.2,3l2,3.4c-0.8,1.6-0.8,3.5,0.1,5.1c1.5,2.6,4.8,3.5,7.3,2s3.5-4.8,2-7.3
								C377.2,111.6,375.6,110.6,373.8,110.5z M375.3,119.1c-1.8,1-4.1,0.4-5.1-1.4c0,0,0,0,0,0l6.5-3.7c0,0,0,0,0,0
								C377.7,115.8,377.1,118.1,375.3,119.1z"/>
							<path class="st24" d="M366.3,109.2l5.1-2.9c0.5-0.3,0.7-0.9,0.4-1.4c-0.3-0.5-0.9-0.7-1.4-0.4l-5.1,2.9
								c-0.5,0.3-0.7,0.9-0.4,1.5C365.1,109.3,365.8,109.5,366.3,109.2z"/>
						</g>
						<g>
							<path class="st24" d="M271.9,78.4c1.3-1.5,1.4-3.8,0-5.3c-0.4-0.5-1-0.9-1.5-1.1l-0.3-1.7c-0.2-1-1-1.8-2-1.9l-6.7-0.5
								c-1-0.1-1.9,0.5-2.3,1.5l-0.6,1.8c-0.6,0.2-1.1,0.4-1.6,0.8c-1.5,1.3-1.8,3.6-0.7,5.2l2.5-2.1l0.6,0.6
								c-2,2.2-2.2,5.4-0.6,7.8l-1.2,1c-0.3,0.3-0.3,0.7-0.1,1c0.3,0.3,0.7,0.3,1,0.1l1.2-1c2.2,2,5.4,2.2,7.9,0.6l1.2,1.3
								c0.3,0.3,0.7,0.3,1,0.1c0.3-0.3,0.3-0.7,0.1-1l-1.2-1.3c2-2.2,2.2-5.4,0.6-7.9l0.7-0.6L271.9,78.4z M268.3,79l-4.1,2.1
								c-0.1,0.1-0.2,0.1-0.4,0.1c-0.2,0-0.3-0.1-0.5-0.2l-2.9-3c-0.3-0.3-0.3-0.7,0-1c0.3-0.3,0.7-0.3,1,0l2.5,2.6l3.6-1.9
								c0.3-0.2,0.8,0,0.9,0.3C268.8,78.4,268.7,78.9,268.3,79z M266.7,72.4l2.1,2.5l-0.7,0.6c-0.9-0.8-1.9-1.3-3-1.5l0.1-0.9
								c0-0.5-0.3-0.9-0.8-0.9c-0.5,0-0.9,0.3-0.9,0.8l-0.1,0.9c-1.1,0.1-2.2,0.4-3.2,1.1l-0.6-0.6l2.5-2.1c-0.8-0.7-1.7-1-2.7-1
								l0.4-1.4c0.2-0.6,0.7-0.9,1.3-0.9l6.7,0.5c0.6,0,1.1,0.5,1.2,1.1l0.2,1.3C268.5,71.6,267.6,71.8,266.7,72.4z"/>
							<g>
								<path class="st24" d="M272.8,70.3c-0.5-0.3-1,0.4-0.5,0.8c1.3,0.9,2.1,2.3,2,3.9c0,0.6,0.9,0.7,0.9,0.1
									C275.3,73.1,274.4,71.3,272.8,70.3z"/>
								<path class="st24" d="M274.6,69.1c-0.5-0.3-1,0.4-0.5,0.8c1.3,0.9,2.1,2.3,2,3.9c0,0.6,0.9,0.7,0.9,0.1
									C277.1,71.9,276.2,70.1,274.6,69.1z"/>
							</g>
							<g>
								<path class="st24" d="M256.2,69.1c0.5-0.3,1,0.6,0.4,0.8c-1.4,0.7-2.4,2-2.5,3.6c-0.1,0.6-1,0.5-0.9-0.1
									C253.4,71.5,254.5,69.9,256.2,69.1z"/>
								<path class="st24" d="M254.6,67.7c0.5-0.3,1,0.6,0.4,0.8c-1.4,0.7-2.4,2-2.5,3.6c-0.1,0.6-1,0.5-0.9-0.1
									C251.7,70.1,252.9,68.5,254.6,67.7z"/>
							</g>
						</g>
						<g>
							<g>
								<path class="st24" d="M170.9,71.5l0.3,1.5l-3.8,0.8l0.3,1.3l3.4-0.8l0.3,1.5l-3.4,0.8l0.3,1.4l3.9-0.9l0.3,1.5l-5.8,1.3
									l-1.6-7.2L170.9,71.5z"/>
								<path class="st24" d="M176.8,72.4l0.3,1.2l-4.6,1l-0.3-1.2L176.8,72.4z M177.3,74.6l0.3,1.2l-4.6,1l-0.3-1.2L177.3,74.6z"/>
								<path class="st24" d="M187.6,71.7l0.8,3.5l-1.8,0.4l-0.7-3c-0.1-0.6-0.6-0.9-1.1-0.8c-0.6,0.2-0.9,0.8-0.8,1.5l0.6,2.7
									l-1.8,0.4l-0.7-3c-0.1-0.6-0.6-0.9-1.1-0.8c-0.6,0.2-0.9,0.8-0.8,1.5l0.6,2.7l-1.8,0.4l-1.2-5.5l1.8-0.4l0.2,0.9
									c0.2-0.7,0.8-1.2,1.6-1.4c0.9-0.2,1.7,0.1,2.1,0.8c0.2-0.9,0.8-1.5,1.7-1.7C186.3,69.7,187.3,70.4,187.6,71.7z"/>
								<path class="st24" d="M191.2,70.2c-0.7,0.1-1,0.8-0.8,1.6c0.2,0.8,0.7,1.2,1.4,1.1c0.5-0.1,0.8-0.4,0.9-0.9l1.5,0.5
									c-0.3,0.9-1,1.6-2.2,1.9c-1.7,0.4-3.1-0.5-3.5-2.2c-0.4-1.7,0.5-3.1,2.2-3.5c1.1-0.2,2.1,0,2.8,0.8l-1.2,1.1
									C192.1,70.3,191.6,70.1,191.2,70.2z"/>
							</g>
							<g>
								<path class="st24" d="M195.7,66.3c0-0.2-0.2-0.3-0.5-0.2c-0.3,0.1-0.7,0.4-1,0.8l-0.6-0.7c0.4-0.5,1-0.9,1.6-1
									c0.8-0.2,1.5,0.1,1.7,0.8c0.1,0.4-0.1,1-0.5,1.5l-0.7,1l1.8-0.4l0.2,0.9l-3.1,0.7l-0.2-0.7l1.2-1.9
									C195.6,66.8,195.7,66.5,195.7,66.3z"/>
							</g>
						</g>
						<g>
							<path class="st24" d="M131,189.1c-2.2,1.2-3.6,3.6-3.8,6.1c-0.2,2.5,0.8,5,2.6,6.8c1.1,1.1,2.4,1.9,3.8,2.5
								c3.8,1.6,8.9,1.9,12.4-0.6c1.1-0.8,2.2-2,2.1-3.5c-0.1-1.6-1.5-1.9-2.7-2.5c-1.1-0.5-1.8-1.6-2.4-2.6
								c-1.3-2.3-2.5-4.8-4.7-6.2c-1.4-0.9-3.1-1.2-4.8-0.9C132.6,188.4,131.8,188.7,131,189.1z M137.4,204.3
								c-0.8,0.3-1.7,0-2.1-0.8c-0.3-0.8,0-1.7,0.8-2.1c0.8-0.3,1.7,0,2.1,0.8C138.6,203,138.2,203.9,137.4,204.3z M143.1,199.6
								c0.2,0.6-0.1,1.3-0.7,1.5c-0.6,0.2-1.3-0.1-1.5-0.7c-0.2-0.6,0.1-1.3,0.7-1.5C142.2,198.7,142.9,199,143.1,199.6z
								 M133.8,199.9c0.3,0.8,0,1.7-0.8,2.1c-0.8,0.3-1.7,0-2.1-0.8c-0.3-0.8,0-1.7,0.8-2.1C132.5,198.7,133.4,199.1,133.8,199.9z
								 M130.5,197.9c-0.8,0.3-1.7,0-2.1-0.8c-0.3-0.8,0-1.7,0.8-2.1c0.8-0.3,1.7,0,2.1,0.8C131.7,196.7,131.3,197.6,130.5,197.9z
								 M137.6,192.3c0.3,0.8,0,1.7-0.8,2.1c-0.8,0.3-1.7,0-2.1-0.8c-0.3-0.8,0-1.7,0.8-2.1C136.3,191.2,137.3,191.5,137.6,192.3z
								 M133,191.5c0.3,0.8,0,1.7-0.8,2.1c-0.8,0.3-1.7,0-2.1-0.8c-0.3-0.8,0-1.7,0.8-2.1C131.7,190.4,132.7,190.7,133,191.5z"/>
							<path class="st24" d="M121.4,205.1C121.4,205.1,121.4,205.1,121.4,205.1C121.4,205.1,121.4,205.1,121.4,205.1
								c0,0.1,0.1,0.1,0.1,0.1c0,0,0,0,0,0c0,0,0.1,0.1,0.1,0.1c0,0,0.1,0,0.1,0c0,0,0.1,0,0.1,0c0,0,0.1,0,0.1,0.1c0,0,0,0,0,0
								c2.3,1.1,11.5,4.1,17.3,5.7l0,0c0.1,0,0.3,0.1,0.4,0.1c0,0,0,0,0,0c0.4,0.1,0.9,0.2,1.4,0.4c0.3,0.1,0.6,0.1,0.9,0.2
								c0.1,0,0.2,0,0.3,0.1c0.3,0.1,0.6,0.1,0.8,0.2c0.2,0,0.3,0,0.5,0.1c0,0,0,0,0,0c0.2,0.4,0.5,0.8,1.1,0.9c0.1,0,0.2,0,0.3,0
								c0.4,0,0.8-0.2,1.3-0.2c0.7-0.1,1.2,0.1,1.7,0.4c0,0,0.1,0,0.1,0.1c0.1,0.1,0.1,0.1,0.2,0.2c-0.1-0.6-0.4-1.2-0.8-1.8
								c-0.4-0.5-1-1-1.7-1.3c-0.5-0.2-1-0.2-1.4,0c-0.1,0-0.2,0.1-0.3,0.2c-0.3-0.1-0.8-0.3-1.3-0.5c-0.9-0.3-1.9-0.7-2.6-0.9
								C133.6,207.4,121.5,204.5,121.4,205.1z"/>
						</g>
					</g>
					<polygon class="st5" points="78.2,39 76.2,41.2 76.9,44.1 74.2,42.9 71.7,44.5 72,41.5 69.8,39.6 72.7,39 73.8,36.3 75.3,38.8 
											"/>
					<polygon class="st5" points="150.7,163.4 148.7,165.6 149.4,168.5 146.7,167.3 144.2,168.8 144.5,165.9 142.2,164 145.1,163.4 
						146.2,160.6 147.7,163.2 					"/>
					<polygon class="st5" points="229.9,76.6 227.1,77.2 225.9,79.9 224.4,77.3 221.5,77.1 223.5,74.9 222.9,72 225.5,73.2 
						228.1,71.7 227.7,74.7 					"/>
					<polygon class="st5" points="384,42.8 381.1,43.4 379.9,46.1 378.5,43.6 375.5,43.3 377.5,41.1 376.9,38.3 379.5,39.5 
						382.1,38 381.7,40.9 					"/>
					<polygon class="st5" points="353.9,142.3 351,142.9 349.8,145.6 348.4,143 345.4,142.7 347.4,140.6 346.8,137.7 349.4,138.9 
						352,137.4 351.6,140.3 					"/>
					<polygon class="st5" points="386,258 383.1,258.6 381.9,261.3 380.5,258.7 377.6,258.5 379.6,256.3 378.9,253.4 381.6,254.6 
						384.1,253.1 383.8,256.1 					"/>
					<polygon class="st5" points="53.8,143 50.9,143.6 49.8,146.3 48.3,143.7 45.4,143.4 47.4,141.3 46.7,138.4 49.4,139.6 
						51.9,138.1 51.6,141 					"/>
					<g>
						<path class="st16" d="M277.5,123.1l-5.5,1l-4.4-3.4c-2.6-2.1-6.1-2.9-9.3-1.9c-3.8,1.2-8.2,5-10.3,15.5
							c-4.2,21,15.4,24.2,15.4,24.2s18.7,6.4,25-14.1c3.1-10.3,1.1-15.7-1.7-18.6C284.3,123.4,280.8,122.5,277.5,123.1z"/>
						<path class="st17" d="M269.3,159.4c-3.4-0.1-5.9-0.9-5.9-0.9s-19.6-3.2-15.3-24.2c2.1-10.5,6.5-14.3,10.3-15.5
							c3.2-1,6.7-0.2,9.3,1.9l1.6,1.2c-3.7,1.4-7.7,5.4-9.7,15.3C256.9,150.5,263.9,156.7,269.3,159.4z"/>
						<g>
							<path class="st10" d="M281.1,116.7c-6.6,0.3-11.8,5-12.7,11.6c-0.3,2.1,2.9,2.8,3.2,0.7c0.7-5.1,4.4-8.8,9.6-9
								C283.4,119.9,283.3,116.6,281.1,116.7z"/>
							<path class="st25" d="M268.6,112.6c3.1,5.2,0.7,12.4,0.7,12.4s-7.5-1.3-10.6-6.5c-3.1-5.2-0.7-12.4-0.7-12.4
								S265.5,107.4,268.6,112.6z"/>
						</g>
					</g>
					<g>
						<g>
							<path class="st22" d="M322.4,167.5c-3.2,0.8-13.7,6.3-19.3,9.7c-29,17.4-80.2,51-78.7,53.6c1.5,2.6,55.3-26.9,84.3-44.3
								c5.6-3.4,15.4-9.9,17.7-12.5L322.4,167.5z"/>
							<path class="st5" d="M308.6,186.5c5.6-3.4,15.4-9.9,17.7-12.5l-3.9-6.5c-3.2,0.8-13.7,6.3-19.3,9.7c-0.6,0.4-1.3,0.8-1.9,1.2
								l5.6,9.3C307.3,187.3,308,186.9,308.6,186.5z"/>
							<path class="st23" d="M229.6,229.4c-3.1,1.3-5,1.9-5.3,1.4c-1.5-2.6,49.7-36.2,78.7-53.6c5.6-3.4,16.2-8.9,19.3-9.7l1.6,2.6
								c-3.2,0.8-13.7,6.3-19.3,9.7C280.7,194.2,241.8,219.5,229.6,229.4z"/>
							<path class="st21" d="M323.9,170.1c-3.2,0.8-13.7,6.3-19.3,9.7c-0.6,0.4-1.3,0.8-1.9,1.2l-1.6-2.6c0.6-0.4,1.3-0.8,1.9-1.2
								c5.6-3.4,16.2-8.9,19.3-9.7L323.9,170.1z"/>
						</g>
						<path class="st10" d="M322,172c-0.9-1.6-1.1-3.6-0.4-5.7c0.8-2.2,2.8-3.9,5-5c3.2-1.6,6.8-2,10.1-1.6c3.3,0.4,6.4,1.6,9.1,3.2
							c-0.4,0-0.9,0.1-1.3,0.2c-0.2,0-0.4,0.1-0.5,0.1c-3.1,0.6-5.7,1.9-7.4,4.8c-1.1,1.8-1.9,3.7-3.4,5.3c-0.4,0.4-0.7,0.7-1.2,1
							C328.3,176.9,323.8,175.3,322,172z"/>
					</g>
					<g>
						<path class="st14" d="M41.5,35.8l20.8,39c0.6,1.1,0.2,2.5-0.9,3.1L55.5,81c-1.1,0.6-2.5,0.2-3.1-0.9L31.6,41
							c-0.6-1.1-0.2-2.5,0.9-3.1l5.8-3.1C39.5,34.2,40.9,34.7,41.5,35.8z"/>
						<path class="st13" d="M32.6,37.9c-1.1,0.6-1.5,2-0.9,3.1l20.8,39c0.6,1.1,2,1.5,3.1,0.9l2.9-1.6l-22.9-43L32.6,37.9z"/>
						<g>
							<path class="st14" d="M30.6,27.2L30.6,27.2c-0.9,0.5-1.4,1.4-1.2,2.4l0.2,1.8c0.2,1.5,0.6,2.9,1.3,4.3l1.4,2.7l3.3-1.7
								l3.3-1.7l-1.4-2.7c-0.7-1.3-1.7-2.5-2.8-3.5l-1.3-1.2C32.5,26.8,31.5,26.7,30.6,27.2z"/>
							<path class="st13" d="M32.6,27.1c-0.1,0.2-0.1,0.5,0,0.7l0.2,1.8c0.2,1.5,0.6,2.9,1.4,4.3l1.4,2.7l-3.3,1.7l-1.4-2.7
								c-0.7-1.3-1.2-2.8-1.4-4.3l-0.2-1.8c-0.1-1,0.4-1.9,1.2-2.4l0,0C31.2,26.8,32,26.8,32.6,27.1z"/>
						</g>
						<g>
							<g>
								
									<rect x="32" y="39.2" transform="matrix(0.8826 -0.4701 0.4701 0.8826 -14.5614 22.4244)" class="st10" width="11.2" height="2.3"/>
								
									<rect x="34.2" y="43.3" transform="matrix(0.8826 -0.4701 0.4701 0.8826 -16.2301 23.9309)" class="st10" width="11.2" height="2.3"/>
								<path class="st10" d="M49.2,56c2,3.8,2.5,7.4,1.1,8.2c-1.4,0.7-4.1-1.7-6.1-5.5c-2-3.8-2.5-7.4-1.1-8.2
									C44.4,49.8,47.2,52.3,49.2,56z"/>
							</g>
							<g>
								
									<rect x="48.4" y="69.9" transform="matrix(0.8826 -0.4701 0.4701 0.8826 -27.0595 33.7027)" class="st10" width="11.2" height="2.3"/>
								
									<rect x="50.5" y="74" transform="matrix(0.8826 -0.4701 0.4701 0.8826 -28.7278 35.2083)" class="st10" width="11.2" height="2.3"/>
							</g>
						</g>
					</g>
					<g>
						<path class="st25" d="M227.6,196.5l-29.4,33c-0.8,0.9-2.3,1-3.2,0.2l-5-4.4c-0.9-0.8-1-2.3-0.2-3.2l29.4-33
							c0.8-0.9,2.3-1,3.2-0.2l5,4.4C228.4,194.1,228.5,195.6,227.6,196.5z"/>
						<path class="st11" d="M222.5,188.9c-0.9-0.8-2.4-0.8-3.2,0.2l-29.4,33c-0.8,0.9-0.8,2.4,0.2,3.2l2.5,2.2l32.4-36.4
							L222.5,188.9z"/>
						<g>
							<path class="st25" d="M231.9,183.3L231.9,183.3c-0.7-0.7-1.8-0.8-2.7-0.3l-1.6,0.8c-1.3,0.7-2.5,1.6-3.5,2.8l-2,2.3l2.8,2.4
								l2.8,2.4l2-2.3c1-1.1,1.8-2.4,2.3-3.8l0.6-1.7C232.9,185,232.6,184,231.9,183.3z"/>
							<path class="st11" d="M232.7,185.2c-0.2,0-0.5,0.1-0.7,0.2l-1.6,0.8c-1.3,0.7-2.5,1.6-3.5,2.8l-2,2.3l-2.8-2.5l2-2.3
								c1-1.1,2.2-2.1,3.5-2.8l1.6-0.8c0.9-0.5,1.9-0.3,2.7,0.3l0,0C232.4,183.8,232.7,184.5,232.7,185.2z"/>
						</g>
						<g>
							<g>
								
									<rect x="220.8" y="188.9" transform="matrix(0.6643 -0.7475 0.7475 0.6643 -70.8545 231.1979)" class="st10" width="2.3" height="11.2"/>
								
									<rect x="217.8" y="192.4" transform="matrix(0.6643 -0.7475 0.7475 0.6643 -74.4795 230.0587)" class="st10" width="2.3" height="11.2"/>
								<path class="st10" d="M211.3,210.8c-2.8,3.2-6.1,5-7.3,3.9c-1.2-1,0.2-4.5,3-7.7c2.8-3.2,6.1-5,7.3-3.9
									C215.5,204.1,214.1,207.6,211.3,210.8z"/>
							</g>
							<g>
								
									<rect x="197.8" y="214.9" transform="matrix(0.6643 -0.7474 0.7474 0.6643 -98.0121 222.6523)" class="st10" width="2.3" height="11.2"/>
								
									<rect x="194.7" y="218.3" transform="matrix(0.6644 -0.7474 0.7474 0.6644 -101.6369 221.5044)" class="st10" width="2.3" height="11.2"/>
							</g>
						</g>
					</g>
					<g>
						<path class="st17" d="M206.7,176.9l-42.5,12.2c-1.2,0.3-2.5-0.3-2.8-1.6l-1.8-6.4c-0.4-1.2,0.3-2.5,1.6-2.8l42.5-12.2
							c1.2-0.3,2.5,0.3,2.8,1.6l1.8,6.4C208.6,175.3,207.9,176.5,206.7,176.9z"/>
						<path class="st16" d="M206.4,167.7c-0.3-1.2-1.6-1.9-2.8-1.6l-42.5,12.2c-1.2,0.3-1.9,1.6-1.6,2.8l0.9,3.2l46.8-13.5
							L206.4,167.7z"/>
						<g>
							<path class="st17" d="M217.3,168L217.3,168c-0.3-0.9-1.1-1.6-2.1-1.7l-1.8-0.2c-1.5-0.1-3,0-4.5,0.4l-2.9,0.8l1,3.5l1,3.5
								l2.9-0.8c1.4-0.4,2.8-1.1,4-2l1.4-1.1C217.3,169.9,217.6,168.9,217.3,168z"/>
							<path class="st16" d="M217,170c-0.2-0.1-0.5-0.2-0.7-0.2l-1.8-0.1c-1.5-0.1-3,0-4.5,0.4l-2.9,0.8l-1-3.5l2.9-0.8
								c1.4-0.4,3-0.6,4.5-0.4l1.8,0.2c1,0.1,1.8,0.8,2.1,1.7l0,0C217.5,168.7,217.4,169.4,217,170z"/>
						</g>
						<g>
							<g>
								
									<rect x="201.8" y="166.5" transform="matrix(0.961 -0.2765 0.2765 0.961 -39.6764 62.8339)" class="st10" width="2.3" height="11.2"/>
								
									<rect x="197.4" y="167.8" transform="matrix(0.961 -0.2765 0.2765 0.961 -40.2047 61.6516)" class="st10" width="2.3" height="11.2"/>
								<path class="st10" d="M185.3,180.2c-4.1,1.2-7.8,0.9-8.2-0.6c-0.4-1.5,2.6-3.7,6.7-4.9c4.1-1.2,7.8-0.9,8.2,0.6
									C192.4,176.8,189.4,179,185.3,180.2z"/>
							</g>
							<g>
								
									<rect x="168.5" y="176.1" transform="matrix(0.961 -0.2765 0.2765 0.961 -43.631 53.9714)" class="st10" width="2.3" height="11.2"/>
								
									<rect x="164" y="177.4" transform="matrix(0.961 -0.2765 0.2765 0.961 -44.1593 52.7892)" class="st10" width="2.3" height="11.2"/>
							</g>
						</g>
					</g>
				</g>
			</g>
		</g>
		<g class="st26">
			<g class="st27">
				
					<image style="display:inline;overflow:visible;" width="669" height="455" xlink:href="BA672DBD.png"  transform="matrix(1 0 0 1 -220.8764 -35.4824)">
				</image>
			</g>
			<g>
				<g class="st4">
					<g class="st3">
						<rect x="-195.2" y="-9.4" class="st5" width="596.3" height="381.7"/>
						<linearGradient id="SVGID_6_" gradientUnits="userSpaceOnUse" x1="-0.8317" y1="173.0446" x2="401.0999" y2="173.0446">
							<stop  offset="0" style="stop-color:#8EE5B6"/>
							<stop  offset="1" style="stop-color:#00C4D8"/>
						</linearGradient>
						<path class="st28" d="M401.1-9.4v364.9c-27.9-6.1-54.5-22.7-67.5-48.1c-8.2-16-11.6-35.8-25.9-46.7c-12-9.1-28.9-9.2-43.4-5
							c-14.5,4.2-27.6,12.1-41.5,18.1c-21.7,9.3-46.1,13.7-69,8.1c-22.9-5.6-43.7-22.6-49.9-45.3c-6.7-24.6,3-54.6-13.7-73.9
							c-18.7-21.6-56.8-13.1-77.5-32.8C-0.5,117.3-2.5,96.8,0.2,78.8c2.7-18,9.3-35.5,9.9-53.8C10.5,13,7.5,0.1,0.6-9.4H401.1z"/>
						<linearGradient id="SVGID_7_" gradientUnits="userSpaceOnUse" x1="219.9084" y1="151.3152" x2="115.8023" y2="269.9815">
							<stop  offset="0" style="stop-color:#A7EBEB"/>
							<stop  offset="1" style="stop-color:#A7EBEB;stop-opacity:0"/>
						</linearGradient>
						<path class="st29" d="M391.9,318.5c-24.8-1.5-50.7-16.4-56.6-40.6c-5.2-21.5,5.4-47-7.7-64.8c-10.1-13.7-30.8-15.7-46.5-9.1
							c-15.8,6.6-27.7,19.6-39.2,32.2c-11.5,12.6-23.5,25.6-39.3,32c-16.4,6.6-35.8,5-50.9-4.2c-15.1-9.2-25.5-25.7-27.2-43.3
							c-1.6-17,4.3-33.7,6.1-50.6c1.8-17-2.2-36.9-17.3-45c-12.8-6.9-28.5-2.6-42.8,0.6c-14.3,3.2-31.5,4.3-41.1-6.6
							c-11.1-12.5-5.2-32.1,2.5-47C45.6,45.9,63.6,19.2,64.6-9.4h-64C7.5,0.1,10.5,13,10.1,25C9.5,43.2,2.9,60.7,0.2,78.8
							c-2.7,18-0.7,38.6,12.5,51.1c20.7,19.6,58.9,11.2,77.5,32.8c16.7,19.3,7.1,49.3,13.7,73.9c6.2,22.7,27,39.7,49.9,45.3
							c22.9,5.6,47.3,1.2,69-8.1c13.9-5.9,27-13.9,41.5-18.1c14.5-4.2,31.3-4.1,43.4,5c14.3,10.9,17.7,30.6,25.9,46.7
							c13,25.4,39.6,42,67.5,48.1v-37C398.1,318.7,395,318.7,391.9,318.5z M296.3,232.1c-6.6,4-22.2,3.7-22.2-7
							c0-9,13.5-15,21.1-14.8C309.3,210.6,305,226.8,296.3,232.1z M322.9,228.9c-0.4,1.2-1.3,2.2-2.5,2.6c-1.3,0.5-2.7,0.2-3.9-0.5
							c-2-1-3.5-3-4-5.2c-0.5-2.3,0.2-5.8,2.6-6.7c1.7-0.7,4.1,0,5.5,1.1c1.5,1.2,2.3,3.1,2.6,5
							C323.3,226.4,323.3,227.7,322.9,228.9z"/>
						<g>
							<g>
								<g>
									<text transform="matrix(1 0 0 1 -167.4117 28.5651)"><tspan x="0" y="0" class="st10" style="font-family:'Montserrat-Bold'; font-size:14.5603px;">YOUR</tspan><tspan x="35.2" y="0" class="st10 st8" style="font-size:14.5603px;">LOGO</tspan></text>
								</g>
								<g>
									<g>
										<text transform="matrix(1 0 0 1 136.6996 27.4669)" class="st5 st8 st30">Home</text>
									</g>
									<g>
										<text transform="matrix(1 0 0 1 194.6498 27.4669)" class="st5 st8 st30">About</text>
									</g>
									<g>
										<text transform="matrix(1 0 0 1 257.1498 27.4669)" class="st5 st8 st30">Blog</text>
									</g>
									<g>
										<text transform="matrix(1 0 0 1 306.8842 27.4669)" class="st5 st8 st30">Contact</text>
									</g>
								</g>
							</g>
						</g>
						<g>
							<g>
								<g>
									<g>
										
											<text transform="matrix(1 0 0 1 -167.2437 150.0079)" class="st11" style="font-family:'Montserrat-Black'; font-size:32.0326px;">BACK TO</text>
									</g>
									<g>
										
											<text transform="matrix(1 0 0 1 -167.2437 186.8644)" class="st11" style="font-family:'Montserrat-Black'; font-size:36.4007px;">SCHOOL</text>
									</g>
								</g>
							</g>
							<g>
								<rect x="-167.4" y="232.9" style="fill:none;" width="131.5" height="26"/>
								<text transform="matrix(1 0 0 1 -167.4127 238.1071)"><tspan x="0" y="0" class="st8" style="fill:#CBD0E3; font-size:7.2801px;">Lorem ipsum dolor sit amet, consec</tspan><tspan x="119.9" y="0" class="st8" style="fill:#CBD0E3; font-size:7.2801px;">-</tspan><tspan x="0" y="8.7" class="st8" style="fill:#CBD0E3; font-size:7.2801px;">tetuer adipiscing elit, sed diam </tspan><tspan x="0" y="17.5" class="st8" style="fill:#CBD0E3; font-size:7.2801px;">nonummy nibh euismod</tspan></text>
							</g>
							<g>
								<path class="st10" d="M-108.9,220.5h-49.9c-4.7,0-8.6-3.8-8.6-8.6v0c0-4.7,3.8-8.6,8.6-8.6h49.9c4.7,0,8.6,3.8,8.6,8.6v0
									C-100.4,216.6-104.2,220.5-108.9,220.5z"/>
								
									<text transform="matrix(1 0 0 1 -156.8375 213.9684)" class="st5" style="font-family:'Montserrat-Bold'; font-size:7.2801px;">READ MORE</text>
							</g>
							<g>
								<g>
									<g>
										<circle class="st11" cx="-164.3" cy="277.8" r="3.1"/>
									</g>
									<g class="st12">
										<path class="st11" d="M-149.4,277.8c0,1.7-1.4,3.1-3.1,3.1c-1.7,0-3.1-1.4-3.1-3.1s1.4-3.1,3.1-3.1
											C-150.8,274.7-149.4,276.1-149.4,277.8z"/>
									</g>
									<g class="st12">
										<circle class="st11" cx="-140.6" cy="277.8" r="3.1"/>
									</g>
								</g>
							</g>
						</g>
					</g>
				</g>
				<g>
					<g>
						<path class="st13" d="M330.3,226.8l43.3-68c1.3-2,4-2.6,6-1.3l4.5,2.8c2,1.3,2.6,4,1.3,6l-43.3,68l-7.5,5.1l-7.1,4.8l1.4-8.4
							L330.3,226.8z"/>
						<path class="st14" d="M336.2,230.6l45.7-71.7l2.2,1.4c2,1.3,2.6,4,1.3,6l-43.3,68L336.2,230.6z"/>
						<polygon class="st15" points="330.3,226.8 342.1,234.3 334.6,239.4 327.5,244.2 328.9,235.8 						"/>
						<polygon class="st10" points="328.9,235.8 334.6,239.4 327.5,244.2 						"/>
						<path class="st16" d="M369.2,165.8l4.4-7c1.3-2,4-2.6,6-1.3l4.5,2.8c2,1.3,2.6,4,1.3,6l-4.4,7L369.2,165.8z"/>
						
							<rect x="366.8" y="169.2" transform="matrix(-0.8434 -0.5373 0.5373 -0.8434 596.8194 517.166)" class="st10" width="14" height="4.9"/>
						<path class="st17" d="M375.1,169.5l6.8-10.7l2.2,1.4c2,1.3,2.6,4,1.3,6l-4.4,7L375.1,169.5z"/>
					</g>
					<g>
						<path class="st18" d="M54.2,101.8l76.5-25.5c2.3-0.8,4.8,0.5,5.5,2.8l1.7,5c0.8,2.3-0.5,4.8-2.8,5.5l-76.5,25.5l-9.1-0.8
							l-8.5-0.7l6.4-5.7L54.2,101.8z"/>
						<path class="st19" d="M56.4,108.4l80.6-26.9l0.8,2.5c0.8,2.3-0.5,4.8-2.8,5.5l-76.5,25.5L56.4,108.4z"/>
						<polygon class="st15" points="54.2,101.8 58.7,115.1 49.6,114.3 41.1,113.5 47.4,107.8 						"/>
						<polygon class="st10" points="47.4,107.8 49.6,114.3 41.1,113.5 						"/>
						<path class="st13" d="M122.9,78.9l7.8-2.6c2.3-0.8,4.8,0.5,5.5,2.8l1.7,5c0.8,2.3-0.5,4.8-2.8,5.5l-7.8,2.6L122.9,78.9z"/>
						
							<rect x="115.8" y="83.9" transform="matrix(-0.3162 -0.9487 0.9487 -0.3162 79.705 230.0805)" class="st10" width="14" height="4.9"/>
						<path class="st14" d="M125.1,85.5l12-4l0.8,2.5c0.8,2.3-0.5,4.8-2.8,5.5l-7.8,2.6L125.1,85.5z"/>
					</g>
					<g>
						<g>
							<path class="st10" d="M207.1,106.9l-53.6,18.3l9.5,27.3c19.8,2.8,39.7-4.1,53.5-18.6L207.1,106.9z"/>
							<g>
								<polygon class="st10" points="238,98.1 189.7,141.8 124.8,137.4 131.5,131.3 135.2,128 173,93.7 224,97.1 228.9,97.5 
																	"/>
							</g>
							<g>
								<polygon class="st20" points="228.9,97.5 187.4,135 131.5,131.3 135.2,128 173,93.7 224,97.1 								"/>
							</g>
						</g>
						<g>
							<g>
								<polygon class="st13" points="122.7,174.8 120.1,174.6 123.5,136.5 180.5,113.1 181.5,115.5 126,138.3 								"/>
							</g>
							<path class="st13" d="M122.8,160.6l-0.5-0.2c-1.6,0.6-7.3,3.8-8.4,17.9l11.7,1.8C128.6,166.4,124.2,161.7,122.8,160.6z"/>
						</g>
					</g>
					<g>
						<g>
							<path class="st21" d="M356.5,75.8c-1.6-3.1-0.4-6.9,2.6-8.5c3.1-1.6,6.9-0.4,8.5,2.6c1.6,3.1,0.4,6.9-2.6,8.5
								C361.9,80,358.1,78.8,356.5,75.8z M366.7,70.4c-1.3-2.6-4.5-3.6-7.1-2.2c-2.6,1.3-3.6,4.5-2.2,7.1c1.3,2.6,4.5,3.6,7.1,2.2
								C367.1,76.2,368.1,73,366.7,70.4z"/>
						</g>
						
							<rect x="319.9" y="87.4" transform="matrix(0.464 0.8858 -0.8858 0.464 256.1971 -246.7074)" class="st5" width="24" height="1.8"/>
						<g>
							<g>
								<g>
									<polygon class="st21" points="304.5,118.3 299.5,123.3 305.4,119.3 310.6,115.1 309.7,114 									"/>
								</g>
								<g>
									<g>
										
											<rect x="300.4" y="95.1" transform="matrix(0.7707 -0.6372 0.6372 0.7707 14.4724 234.6019)" class="st10" width="65.6" height="4.1"/>
									</g>
								</g>
								<g>
									<g>
										<path class="st5" d="M316.7,115.9c-1.7,1.4-4.1,1.1-5.5-0.5c-1.4-1.7-1.1-4.1,0.5-5.5c1.7-1.4,4.1-1.1,5.5,0.5
											C318.6,112,318.4,114.5,316.7,115.9z"/>
									</g>
								</g>
								<g>
									<g>
										<g>
											<path class="st21" d="M315.7,114.6c-0.9,0.8-2.3,0.6-3.1-0.3c-0.8-0.9-0.6-2.3,0.3-3.1c0.9-0.8,2.3-0.6,3.1,0.3
												C316.7,112.4,316.6,113.8,315.7,114.6z"/>
										</g>
									</g>
								</g>
							</g>
							<g>
								<polygon class="st21" points="292.1,94.5 285.1,95.8 291.7,93.2 298.2,91.4 298.6,92.7 								"/>
							</g>
							<g>
								<g>
									<g>
										
											<rect x="293" y="80.9" transform="matrix(0.9627 -0.2707 0.2707 0.9627 -10.286 91.2891)" class="st10" width="65.6" height="4.1"/>
									</g>
								</g>
							</g>
							<g>
								
									<rect x="359.8" y="70.3" transform="matrix(0.8858 -0.464 0.464 0.8858 8.6993 177.6492)" class="st10" width="11.2" height="1.6"/>
							</g>
							<path class="st21" d="M326.8,91.1L326.8,91.1c-0.3-0.6-0.1-1.3,0.5-1.6l8.1-4.2c0.6-0.3,1.3-0.1,1.6,0.5l0,0
								c0.3,0.6,0.1,1.3-0.5,1.6l-8.1,4.2C327.8,91.9,327.1,91.6,326.8,91.1z"/>
						</g>
						<g>
							<path class="st5" d="M360.2,78.7c-2.1,1.1-4.7,0.3-5.9-1.8c-1.1-2.1-0.3-4.7,1.8-5.9c2.1-1.1,4.7-0.3,5.9,1.8
								C363.2,75,362.4,77.6,360.2,78.7z"/>
						</g>
						<g>
							<path class="st21" d="M359.4,77c-1.2,0.6-2.7,0.2-3.3-1c-0.6-1.2-0.2-2.7,1-3.3c1.2-0.6,2.7-0.2,3.3,1
								C361,74.9,360.5,76.4,359.4,77z"/>
						</g>
						<g>
							<path class="st5" d="M368.8,70.2l-0.7-1.3c-0.4-0.8-0.1-1.7,0.7-2.1l13.6-7.1c0.8-0.4,1.7-0.1,2.1,0.7l0.7,1.3
								c0.4,0.8,0.1,1.7-0.7,2.1L371,70.8C370.2,71.2,369.2,70.9,368.8,70.2z"/>
						</g>
					</g>
					<g>
						<path class="st21" d="M232.1,269c0,0-8.1-19.6-24.1-21.4c-16-1.8-47.3,16.6-101.2,16.6l-10.6,16h135.9V269z"/>
						<path class="st5" d="M232.1,269c0,0,1.3-17.2-7.2-21.5c-10.6-5.4-49.9,6.2-96.9-26.5l-14.6,28.6c0,0,17.3,11.1,47.1,14.2
							C198.6,267.9,214.2,245.4,232.1,269z"/>
						<path class="st21" d="M232.1,269c0,0,8.1-19.6,24.1-21.4c16-1.8,47.3,16.6,101.2,16.6l10.6,16H232.1V269z"/>
						<path class="st5" d="M232.1,266.7c0,0,3.9-19.6,19.9-21.7c16-2.1,52.4,12.6,62.6,13.7c10.2,1.1,40.4,2,40.4,2l5.6,8.3
							c0,0-35-0.3-45.6-1.5c-13.1-1.5-41.5-17.8-60.8-15.1c-19.3,2.7-21.5,16.6-21.5,16.6L232.1,266.7z"/>
						<g>
							<rect x="89.6" y="280.3" class="st22" width="287.6" height="8"/>
							<path class="st22" d="M242.3,294.8h-20.4c-5.8,0-10.6-4.7-10.6-10.6l0,0h41.5l0,0C252.8,290.1,248.1,294.8,242.3,294.8z"/>
							<path class="st23" d="M240.5,288.9h-16.8c-4.8,0-8.7-3.9-8.7-8.7l0,0l17.1-13.5l17.1,13.5l0,0
								C249.2,285,245.3,288.9,240.5,288.9z"/>
							<path class="st13" d="M249.2,280.2c0,1.9-0.6,3.7-1.7,5.1l-15.4-12.2l-15.4,12.2c-1-1.4-1.7-3.2-1.7-5.1l17.1-13.5
								L249.2,280.2z"/>
						</g>
					</g>
					<g>
						<g>
							<path class="st31" d="M113.5,66.8c-0.8,1.8-3,2.7-4.9,1.8l-8.5-3.9c-0.3-0.1-0.4-0.4-0.3-0.7c0.1-0.3,0.4-0.4,0.7-0.3
								l8.5,3.9c1.3,0.6,2.9,0,3.5-1.3c0.6-1.3,0-2.9-1.3-3.5l-9.8-4.5c-0.9-0.4-2,0-2.4,0.9c-0.4,0.9,0,2,0.9,2.4l8.1,3.7
								c0.5,0.2,1.2,0,1.4-0.5c0.2-0.5,0-1.2-0.5-1.4l-6-2.7c-0.3-0.1-0.4-0.4-0.3-0.7c0.1-0.3,0.4-0.4,0.7-0.3l6,2.7
								c1.1,0.5,1.5,1.7,1.1,2.8c-0.5,1.1-1.7,1.5-2.8,1.1l-8.1-3.7c-1.4-0.7-2.1-2.4-1.4-3.8c0.7-1.4,2.4-2.1,3.8-1.4l9.8,4.5
								C113.6,62.8,114.4,65,113.5,66.8z"/>
						</g>
						<g>
							<path class="st31" d="M100.2,140.6c0.2-0.1,0.4-0.2,0.6-0.3c2-1,3-2.3,2.8-3.5c-0.2-1.5-2-2.6-4.7-3.1
								c0.3-2.7-0.3-4.8-1.7-5.3c-1.4-0.6-3.2,0.5-4.9,2.7c-2.3-1.5-4.4-1.9-5.5-1c-1,0.8-1.1,2.4-0.4,4.5c0.1,0.2,0.1,0.4,0.2,0.6
								c-2.3,1-3.6,2.4-3.4,3.8c0.1,1.1,1,1.9,2.5,2.5c0.6,0.2,1.4,0.4,2.2,0.6c-0.3,2.7,0.3,4.8,1.7,5.3c1.4,0.6,3.2-0.5,4.9-2.7
								c0.7,0.4,1.3,0.8,2,1.1c1.5,0.6,2.7,0.6,3.6-0.1C101.2,144.8,101.2,142.9,100.2,140.6z M100.8,135.2c1.1,0.5,1.8,1,1.9,1.7
								c0.1,0.8-0.8,1.7-2.3,2.5c-0.2,0.1-0.3,0.2-0.5,0.3c-0.4-0.8-0.9-1.7-1.5-2.6c0.2-0.8,0.4-1.6,0.5-2.4
								C99.6,134.8,100.2,135,100.8,135.2z M93.8,141.2c-0.6,0.1-1.2,0.1-1.7,0.1c-0.4-0.4-0.8-0.8-1.2-1.3c-0.4-0.5-0.8-1-1.2-1.6
								c0.2-0.6,0.4-1.2,0.7-1.9c0.3-0.6,0.5-1.2,0.8-1.8c0.6-0.1,1.3-0.2,2-0.3c0.6-0.1,1.2-0.1,1.7-0.1c0.4,0.4,0.8,0.8,1.2,1.3
								c0.4,0.5,0.9,1,1.2,1.6c-0.2,0.6-0.4,1.2-0.7,1.9c-0.3,0.6-0.5,1.2-0.8,1.8C95.1,141.1,94.4,141.2,93.8,141.2z M95.1,142.1
								c-0.3,0.5-0.5,0.9-0.8,1.3c-0.4-0.3-0.9-0.7-1.3-1.1c0.3,0,0.6,0,0.9-0.1C94.3,142.2,94.7,142.1,95.1,142.1z M90.7,141.4
								c-0.6,0-1.1-0.1-1.7-0.1c0.1-0.5,0.2-1,0.3-1.5c0.3,0.3,0.5,0.7,0.8,1C90.3,140.9,90.5,141.1,90.7,141.4z M88.9,137.4
								c-0.4-0.6-0.7-1.2-1-1.8c0.6-0.2,1.2-0.4,1.9-0.6c-0.2,0.4-0.3,0.8-0.5,1.2C89.2,136.7,89,137.1,88.9,137.4z M91.7,133.7
								c0.3-0.5,0.5-0.9,0.8-1.3c0.4,0.3,0.9,0.7,1.3,1.1c-0.3,0-0.6,0-0.9,0.1C92.5,133.6,92.1,133.6,91.7,133.7z M96.2,134.4
								c0.6,0,1.1,0.1,1.7,0.1c-0.1,0.5-0.2,1-0.3,1.5c-0.3-0.3-0.5-0.7-0.8-1C96.6,134.8,96.4,134.6,96.2,134.4z M97.9,138.3
								c0.4,0.6,0.7,1.2,1,1.8c-0.6,0.2-1.2,0.4-1.9,0.6c0.2-0.4,0.3-0.8,0.5-1.2C97.6,139.1,97.8,138.7,97.9,138.3z M96.9,129.2
								c0.9,0.3,1.3,2,1.1,4.3c-0.9-0.1-1.8-0.1-2.8-0.1c-0.7-0.7-1.4-1.3-2.1-1.8C94.6,129.8,96,128.9,96.9,129.2z M87.4,130.8
								c0.5-0.4,1.4-0.4,2.5,0.1c0.5,0.2,1.1,0.5,1.8,0.9c-0.4,0.6-0.9,1.4-1.3,2.1c-1.1,0.2-2,0.5-2.9,0.8
								c-0.1-0.2-0.1-0.4-0.2-0.6C86.7,132.6,86.8,131.3,87.4,130.8z M84.2,138.9c-0.1-0.9,1-1.9,2.8-2.8c0.4,0.8,0.9,1.7,1.5,2.6
								c-0.2,0.8-0.4,1.6-0.5,2.4C85.7,140.7,84.3,139.8,84.2,138.9z M90,146.5c-0.9-0.3-1.3-2-1.1-4.3c0.9,0.1,1.8,0.1,2.8,0.1
								c0.7,0.7,1.4,1.3,2.1,1.8C92.3,146,90.8,146.9,90,146.5z M99.4,145c-0.7,0.6-2.3,0.2-4.3-1c0.4-0.6,0.9-1.4,1.3-2.1
								c1-0.2,2-0.5,2.9-0.8C100.1,142.9,100.1,144.4,99.4,145z"/>
							<path class="st31" d="M94.1,136.1c-1-0.4-2.1,0.1-2.5,1.1c-0.4,1,0.1,2.1,1.1,2.5c1,0.4,2.1-0.1,2.5-1.1
								C95.6,137.6,95.1,136.5,94.1,136.1z"/>
						</g>
						<g>
							<path class="st31" d="M370.7,222.7c-0.8,2.6,0.5,5.2,2.8,6.4l-0.8,2.6c-1.2,0-2.3,0.8-2.7,1.9l5.7,1.7
								c0.3-1.2-0.2-2.4-1.2-3.1l0.8-2.6c2.6,0.3,5-1.3,5.8-3.8l2-6.8l-10.4-3.1L370.7,222.7z"/>
							<path class="st31" d="M376.1,235.9l-6.8-2c-0.3-0.1-0.6,0.1-0.7,0.4c-0.1,0.3,0.1,0.6,0.4,0.7l6.8,2c0.3,0.1,0.6-0.1,0.7-0.4
								C376.6,236.3,376.4,236,376.1,235.9z"/>
							<path class="st31" d="M367.3,218.8c-0.5,1.6,0.4,3.3,2,3.7l0.6,0.2l0.3-1.1l-0.6-0.2c-1-0.3-1.5-1.3-1.2-2.3
								c0.3-1,1.3-1.5,2.3-1.2l0.6,0.2l0.3-1.1l-0.6-0.2C369.5,216.3,367.8,217.2,367.3,218.8z"/>
							<path class="st31" d="M384,220.6l-0.6-0.2l-0.3,1.1l0.6,0.2c1,0.3,1.5,1.3,1.2,2.3c-0.3,1-1.3,1.5-2.3,1.2L382,225l-0.3,1.1
								l0.6,0.2c1.6,0.5,3.3-0.4,3.7-2C386.5,222.7,385.6,221,384,220.6z"/>
						</g>
						<g>
							<path class="st31" d="M373.7,110.4l-1.9-3.4l-5.2,2.9l1.9,3.4c-0.8,1.6-0.8,3.5,0.1,5.1c1.5,2.6,4.8,3.5,7.3,2s3.5-4.8,2-7.3
								C377.1,111.5,375.5,110.5,373.7,110.4z M375.2,119c-1.8,1-4.1,0.4-5.1-1.4c0,0,0,0,0,0l6.5-3.7c0,0,0,0,0,0
								C377.6,115.7,377,118,375.2,119z"/>
							<path class="st31" d="M366.2,109.1l5.1-2.9c0.5-0.3,0.7-0.9,0.4-1.4c-0.3-0.5-0.9-0.7-1.4-0.4l-5.1,2.9
								c-0.5,0.3-0.7,0.9-0.4,1.4C365,109.2,365.7,109.4,366.2,109.1z"/>
						</g>
						<g>
							<path class="st31" d="M272,78.3c1.3-1.5,1.4-3.7,0-5.3c-0.4-0.5-1-0.9-1.5-1.1l-0.3-1.7c-0.2-1-1-1.8-2-1.9l-6.7-0.5
								c-1-0.1-1.9,0.5-2.2,1.5l-0.6,1.8c-0.6,0.2-1.1,0.4-1.6,0.8c-1.5,1.3-1.8,3.6-0.7,5.2l2.5-2.1l0.6,0.6
								c-2,2.2-2.2,5.4-0.6,7.8l-1.2,1c-0.3,0.3-0.3,0.7-0.1,1c0.3,0.3,0.7,0.3,1,0.1l1.2-1c2.2,2,5.4,2.2,7.8,0.6l1.2,1.3
								c0.3,0.3,0.7,0.3,1,0.1c0.3-0.3,0.3-0.7,0.1-1l-1.1-1.3c2-2.2,2.2-5.4,0.6-7.9l0.7-0.6L272,78.3z M268.3,79l-4.1,2.1
								c-0.1,0.1-0.2,0.1-0.4,0.1c-0.2,0-0.3-0.1-0.5-0.2l-2.9-3c-0.3-0.3-0.3-0.7,0-1c0.3-0.3,0.7-0.3,1,0l2.5,2.6l3.6-1.9
								c0.3-0.2,0.8,0,0.9,0.3C268.8,78.4,268.7,78.8,268.3,79z M266.8,72.3l2.1,2.5l-0.7,0.6c-0.9-0.8-1.9-1.3-3-1.5l0.1-0.9
								c0-0.5-0.3-0.9-0.8-0.9c-0.5,0-0.9,0.3-0.9,0.8l-0.1,0.9c-1.1,0.1-2.2,0.4-3.2,1.1l-0.6-0.6l2.5-2.1c-0.8-0.7-1.7-1-2.7-1
								l0.4-1.3c0.2-0.6,0.7-0.9,1.3-0.9l6.7,0.5c0.6,0,1.1,0.5,1.2,1.1l0.2,1.3C268.6,71.5,267.6,71.8,266.8,72.3z"/>
							<g>
								<path class="st31" d="M272.9,70.2c-0.5-0.3-1,0.4-0.5,0.8c1.3,0.9,2.1,2.3,2,3.9c0,0.6,0.9,0.7,0.9,0.1
									C275.3,73,274.4,71.3,272.9,70.2z"/>
								<path class="st31" d="M274.7,69c-0.5-0.3-1,0.4-0.5,0.8c1.3,0.9,2.1,2.3,2,3.9c0,0.6,0.9,0.7,0.9,0.1
									C277.1,71.9,276.3,70.1,274.7,69z"/>
							</g>
							<g>
								<path class="st31" d="M256.3,69c0.5-0.3,0.9,0.6,0.4,0.8c-1.4,0.7-2.4,2-2.5,3.6c-0.1,0.6-1,0.5-0.9-0.1
									C253.4,71.5,254.5,69.8,256.3,69z"/>
								<path class="st31" d="M254.6,67.6c0.5-0.3,0.9,0.6,0.4,0.8c-1.4,0.7-2.4,2-2.5,3.6c-0.1,0.6-1,0.5-0.9-0.1
									C251.8,70,252.9,68.4,254.6,67.6z"/>
							</g>
						</g>
						<g>
							<g>
								<path class="st31" d="M171.1,71.4l0.3,1.5l-3.8,0.8l0.3,1.3l3.4-0.8l0.3,1.5l-3.4,0.8l0.3,1.3l3.9-0.9l0.3,1.5l-5.8,1.3
									l-1.6-7.2L171.1,71.4z"/>
								<path class="st31" d="M177,72.4l0.3,1.2l-4.6,1l-0.3-1.2L177,72.4z M177.5,74.6l0.3,1.2l-4.6,1l-0.3-1.2L177.5,74.6z"/>
								<path class="st31" d="M187.7,71.6l0.8,3.5l-1.8,0.4l-0.7-3c-0.1-0.6-0.6-0.9-1.1-0.8c-0.6,0.2-0.9,0.8-0.8,1.5l0.6,2.7
									l-1.8,0.4l-0.7-3c-0.1-0.6-0.6-0.9-1.1-0.8c-0.6,0.2-0.9,0.8-0.8,1.5l0.6,2.7l-1.8,0.4l-1.2-5.5l1.8-0.4l0.2,0.9
									c0.2-0.7,0.8-1.2,1.6-1.4c0.9-0.2,1.7,0.1,2.1,0.8c0.2-0.9,0.8-1.5,1.7-1.7C186.5,69.7,187.4,70.3,187.7,71.6z"/>
								<path class="st31" d="M191.3,70.2c-0.7,0.1-1,0.8-0.8,1.6c0.2,0.8,0.7,1.2,1.4,1.1c0.5-0.1,0.8-0.4,0.9-0.9l1.5,0.5
									c-0.3,0.9-1,1.6-2.2,1.9c-1.7,0.4-3.1-0.5-3.5-2.2c-0.4-1.7,0.5-3.1,2.2-3.5c1.1-0.2,2.1,0,2.8,0.8l-1.1,1.1
									C192.2,70.2,191.8,70.1,191.3,70.2z"/>
							</g>
							<g>
								<path class="st31" d="M195.8,66.3c0-0.2-0.2-0.3-0.5-0.2c-0.3,0.1-0.7,0.4-1,0.8l-0.6-0.7c0.4-0.5,1-0.9,1.6-1
									c0.8-0.2,1.5,0.1,1.7,0.8c0.1,0.4-0.1,1-0.5,1.5l-0.7,1l1.8-0.4l0.2,0.9l-3.1,0.7l-0.2-0.7l1.2-1.9
									C195.7,66.8,195.8,66.5,195.8,66.3z"/>
							</g>
						</g>
						<g>
							<path class="st31" d="M131.2,188.9c-2.2,1.2-3.6,3.6-3.8,6.1c-0.2,2.5,0.8,5,2.6,6.8c1.1,1.1,2.4,1.9,3.8,2.5
								c3.8,1.6,8.9,1.9,12.4-0.6c1.1-0.8,2.2-2,2.1-3.5c-0.1-1.6-1.5-1.9-2.7-2.5c-1.1-0.5-1.8-1.6-2.4-2.6
								c-1.3-2.3-2.5-4.8-4.7-6.2c-1.4-0.9-3.1-1.2-4.8-0.9C132.8,188.2,132,188.5,131.2,188.9z M137.6,204.1
								c-0.8,0.3-1.7,0-2.1-0.8c-0.3-0.8,0-1.7,0.8-2.1c0.8-0.3,1.7,0,2.1,0.8C138.8,202.8,138.4,203.7,137.6,204.1z M143.2,199.4
								c0.2,0.6-0.1,1.3-0.7,1.5c-0.6,0.2-1.3-0.1-1.5-0.7c-0.2-0.6,0.1-1.3,0.7-1.5C142.4,198.5,143,198.8,143.2,199.4z
								 M133.9,199.7c0.3,0.8,0,1.7-0.8,2.1c-0.8,0.3-1.7,0-2.1-0.8c-0.3-0.8,0-1.7,0.8-2.1C132.7,198.5,133.6,198.9,133.9,199.7z
								 M130.7,197.7c-0.8,0.3-1.7,0-2.1-0.8c-0.3-0.8,0-1.7,0.8-2.1c0.8-0.3,1.7,0,2.1,0.8C131.8,196.5,131.5,197.4,130.7,197.7z
								 M137.8,192.1c0.3,0.8,0,1.7-0.8,2.1c-0.8,0.3-1.7,0-2.1-0.8c-0.3-0.8,0-1.7,0.8-2.1C136.5,191,137.5,191.3,137.8,192.1z
								 M133.2,191.3c0.3,0.8,0,1.7-0.8,2.1c-0.8,0.3-1.7,0-2.1-0.8c-0.3-0.8,0-1.7,0.8-2.1C131.9,190.2,132.9,190.5,133.2,191.3z"
								/>
							<path class="st31" d="M121.6,204.8C121.6,204.9,121.6,204.9,121.6,204.8C121.6,204.9,121.6,204.9,121.6,204.8
								c0,0.1,0.1,0.1,0.1,0.1c0,0,0,0,0,0c0,0,0.1,0.1,0.1,0.1c0,0,0.1,0,0.1,0c0,0,0.1,0,0.1,0c0,0,0.1,0,0.1,0.1c0,0,0,0,0,0
								c2.3,1.1,11.5,4.1,17.3,5.7l0,0c0.1,0,0.3,0.1,0.4,0.1c0,0,0,0,0,0c0.4,0.1,0.9,0.2,1.4,0.4c0.3,0.1,0.6,0.1,0.9,0.2
								c0.1,0,0.2,0,0.3,0.1c0.3,0.1,0.6,0.1,0.8,0.2c0.2,0,0.3,0,0.5,0.1c0,0,0,0,0,0c0.2,0.4,0.5,0.8,1.1,0.9c0.1,0,0.2,0,0.3,0
								c0.4,0,0.8-0.2,1.3-0.2c0.7-0.1,1.2,0.1,1.7,0.4c0,0,0.1,0,0.1,0.1c0.1,0.1,0.1,0.1,0.2,0.2c-0.1-0.6-0.4-1.2-0.8-1.8
								c-0.4-0.5-1-1-1.6-1.3c-0.5-0.2-1-0.2-1.4,0c-0.1,0-0.2,0.1-0.3,0.2c-0.3-0.1-0.8-0.3-1.3-0.5c-0.9-0.3-1.9-0.7-2.6-0.9
								C133.8,207.1,121.7,204.3,121.6,204.8z"/>
						</g>
					</g>
					<polygon class="st5" points="78.5,39 76.5,41.2 77.2,44.1 74.5,42.9 72,44.4 72.3,41.5 70,39.6 72.9,39 74,36.3 75.5,38.8 
											"/>
					<polygon class="st5" points="150.8,163.3 148.9,165.5 149.6,168.3 146.9,167.1 144.3,168.7 144.6,165.7 142.4,163.8 
						145.3,163.2 146.4,160.5 147.9,163 					"/>
					<polygon class="st5" points="230,76.5 227.1,77.1 226,79.8 224.5,77.3 221.6,77 223.6,74.8 222.9,72 225.6,73.2 228.1,71.7 
						227.8,74.6 					"/>
					<polygon class="st5" points="383.8,42.8 381,43.4 379.8,46.1 378.3,43.5 375.4,43.3 377.4,41.1 376.8,38.2 379.4,39.5 382,38 
						381.6,40.9 					"/>
					<polygon class="st5" points="353.8,142.1 350.9,142.7 349.7,145.4 348.3,142.9 345.4,142.6 347.4,140.4 346.7,137.6 
						349.4,138.8 351.9,137.3 351.6,140.2 					"/>
					<polygon class="st5" points="385.9,257.7 383,258.3 381.8,261 380.4,258.5 377.5,258.2 379.5,256 378.8,253.1 381.5,254.4 
						384,252.9 383.7,255.8 					"/>
					<polygon class="st5" points="54.1,142.8 51.2,143.4 50,146.1 48.6,143.6 45.7,143.3 47.7,141.1 47,138.3 49.7,139.5 52.2,138 
						51.9,140.9 					"/>
					<g>
						<path class="st16" d="M277.6,122.9l-5.5,1l-4.4-3.4c-2.6-2.1-6.1-2.9-9.3-1.9c-3.8,1.2-8.2,5-10.3,15.5
							c-4.2,21,15.3,24.2,15.3,24.2s18.7,6.4,25-14.1c3.1-10.3,1.1-15.7-1.7-18.6C284.3,123.3,280.8,122.4,277.6,122.9z"/>
						<path class="st17" d="M269.3,159.2c-3.4-0.1-5.9-0.9-5.9-0.9s-19.5-3.2-15.3-24.2c2.1-10.5,6.5-14.3,10.3-15.5
							c3.2-1,6.7-0.2,9.3,1.9l1.6,1.2c-3.7,1.4-7.7,5.4-9.7,15.3C256.9,150.4,263.9,156.5,269.3,159.2z"/>
						<g>
							<path class="st10" d="M281.1,116.6c-6.6,0.3-11.8,5-12.7,11.6c-0.3,2.1,2.9,2.8,3.2,0.7c0.7-5.1,4.4-8.8,9.6-9
								C283.4,119.8,283.3,116.5,281.1,116.6z"/>
							<path class="st25" d="M268.6,112.5c3.1,5.2,0.7,12.4,0.7,12.4s-7.5-1.3-10.6-6.5c-3.1-5.2-0.7-12.4-0.7-12.4
								S265.5,107.3,268.6,112.5z"/>
						</g>
					</g>
					<g>
						<g>
							<path class="st22" d="M322.3,167.4c-3.2,0.8-13.7,6.3-19.3,9.7c-29,17.4-80.1,50.9-78.6,53.5c1.5,2.6,55.2-26.8,84.2-44.2
								c5.6-3.4,15.4-9.9,17.6-12.5L322.3,167.4z"/>
							<path class="st5" d="M308.6,186.3c5.6-3.4,15.4-9.9,17.6-12.5l-3.9-6.5c-3.2,0.8-13.7,6.3-19.3,9.7c-0.6,0.4-1.3,0.8-1.9,1.2
								l5.6,9.2C307.3,187.1,307.9,186.7,308.6,186.3z"/>
							<path class="st23" d="M229.7,229.2c-3.1,1.3-5,1.9-5.3,1.4c-1.5-2.6,49.6-36.1,78.6-53.5c5.6-3.4,16.1-8.9,19.3-9.7l1.6,2.6
								c-3.2,0.8-13.7,6.3-19.3,9.7C280.7,194,241.9,219.2,229.7,229.2z"/>
							<path class="st21" d="M323.9,170c-3.2,0.8-13.7,6.3-19.3,9.7c-0.6,0.4-1.3,0.8-1.9,1.2l-1.6-2.6c0.6-0.4,1.3-0.8,1.9-1.2
								c5.6-3.4,16.1-8.9,19.3-9.7L323.9,170z"/>
						</g>
						<path class="st10" d="M321.9,171.8c-0.9-1.6-1.1-3.6-0.4-5.7c0.8-2.2,2.8-3.9,5-5c3.2-1.6,6.8-2,10.1-1.6
							c3.3,0.4,6.4,1.6,9.1,3.2c-0.4,0-0.9,0.1-1.3,0.2c-0.2,0-0.4,0.1-0.5,0.1c-3.1,0.6-5.7,1.9-7.4,4.8c-1.1,1.8-1.9,3.7-3.4,5.3
							c-0.3,0.4-0.7,0.7-1.2,1C328.2,176.8,323.7,175.2,321.9,171.8z"/>
					</g>
					<g>
						<path class="st14" d="M41.8,35.8l20.8,39c0.6,1.1,0.2,2.5-0.9,3.1l-5.8,3.1c-1.1,0.6-2.5,0.2-3.1-0.9L31.9,41
							c-0.6-1.1-0.2-2.5,0.9-3.1l5.8-3.1C39.8,34.2,41.2,34.6,41.8,35.8z"/>
						<path class="st13" d="M32.9,37.9c-1.1,0.6-1.5,2-0.9,3.1l20.7,39c0.6,1.1,2,1.5,3.1,0.9l2.9-1.6l-22.9-43L32.9,37.9z"/>
						<g>
							<path class="st14" d="M30.9,27.2L30.9,27.2c-0.9,0.5-1.4,1.4-1.2,2.4l0.2,1.8c0.2,1.5,0.6,2.9,1.3,4.3l1.4,2.7l3.2-1.7
								l3.2-1.7l-1.4-2.7c-0.7-1.3-1.7-2.5-2.8-3.5l-1.3-1.2C32.8,26.8,31.8,26.7,30.9,27.2z"/>
							<path class="st13" d="M32.9,27.1c-0.1,0.2-0.1,0.5,0,0.7l0.2,1.8c0.2,1.5,0.6,2.9,1.3,4.3l1.4,2.7l-3.3,1.7l-1.4-2.7
								c-0.7-1.3-1.2-2.8-1.3-4.3l-0.2-1.8c-0.1-1,0.4-1.9,1.2-2.4l0,0C31.6,26.8,32.3,26.8,32.9,27.1z"/>
						</g>
						<g>
							<g>
								
									<rect x="32.3" y="39.2" transform="matrix(0.8826 -0.4701 0.4701 0.8826 -14.5178 22.5649)" class="st10" width="11.2" height="2.3"/>
								
									<rect x="34.5" y="43.3" transform="matrix(0.8826 -0.4701 0.4701 0.8826 -16.1845 24.0696)" class="st10" width="11.2" height="2.3"/>
								<path class="st10" d="M49.5,56c2,3.8,2.5,7.4,1.1,8.2c-1.4,0.7-4.1-1.7-6.1-5.5c-2-3.8-2.5-7.4-1.1-8.2
									C44.7,49.8,47.4,52.2,49.5,56z"/>
							</g>
							<g>
								
									<rect x="48.6" y="69.8" transform="matrix(0.8826 -0.4701 0.4701 0.8826 -27.001 33.8298)" class="st10" width="11.2" height="2.3"/>
								
									<rect x="50.8" y="73.9" transform="matrix(0.8826 -0.4701 0.4701 0.8826 -28.6674 35.3335)" class="st10" width="11.2" height="2.3"/>
							</g>
						</g>
					</g>
					<g>
						<path class="st25" d="M227.7,196.3l-29.3,33c-0.8,0.9-2.3,1-3.2,0.2l-4.9-4.4c-0.9-0.8-1-2.3-0.2-3.2l29.3-33
							c0.8-0.9,2.3-1,3.2-0.2l4.9,4.4C228.5,193.9,228.5,195.4,227.7,196.3z"/>
						<path class="st11" d="M222.6,188.7c-0.9-0.8-2.4-0.8-3.2,0.2l-29.3,33c-0.8,0.9-0.8,2.4,0.2,3.2l2.5,2.2l32.3-36.4
							L222.6,188.7z"/>
						<g>
							<path class="st25" d="M232,183.1L232,183.1c-0.7-0.7-1.8-0.8-2.7-0.3l-1.6,0.8c-1.3,0.7-2.5,1.6-3.5,2.7l-2,2.3l2.7,2.4
								l2.7,2.4l2-2.3c1-1.1,1.8-2.4,2.3-3.8l0.6-1.7C233,184.8,232.7,183.8,232,183.1z"/>
							<path class="st11" d="M232.8,185c-0.2,0-0.5,0.1-0.7,0.2l-1.6,0.8c-1.3,0.7-2.5,1.6-3.5,2.7l-2,2.3l-2.8-2.4l2-2.3
								c1-1.1,2.2-2.1,3.5-2.7l1.6-0.8c0.9-0.5,1.9-0.3,2.7,0.3l0,0C232.5,183.6,232.8,184.3,232.8,185z"/>
						</g>
						<g>
							<g>
								
									<rect x="220.9" y="188.7" transform="matrix(0.6643 -0.7475 0.7475 0.6643 -70.6764 231.1926)" class="st10" width="2.3" height="11.2"/>
								
									<rect x="217.8" y="192.2" transform="matrix(0.6643 -0.7475 0.7475 0.6643 -74.2971 230.0547)" class="st10" width="2.3" height="11.2"/>
								<path class="st10" d="M211.4,210.5c-2.8,3.2-6.1,4.9-7.3,3.9c-1.2-1,0.2-4.5,3-7.7c2.8-3.2,6.1-4.9,7.3-3.9
									C215.6,203.9,214.2,207.3,211.4,210.5z"/>
							</g>
							<g>
								
									<rect x="197.9" y="214.6" transform="matrix(0.6643 -0.7474 0.7474 0.6643 -97.8016 222.6572)" class="st10" width="2.3" height="11.2"/>
								
									<rect x="194.8" y="218.1" transform="matrix(0.6644 -0.7474 0.7474 0.6644 -101.422 221.5107)" class="st10" width="2.3" height="11.2"/>
							</g>
						</g>
					</g>
					<g>
						<path class="st17" d="M206.8,176.7l-42.4,12.2c-1.2,0.3-2.5-0.3-2.8-1.6l-1.8-6.4c-0.3-1.2,0.3-2.5,1.5-2.8l42.4-12.2
							c1.2-0.3,2.5,0.3,2.8,1.6l1.8,6.4C208.7,175.1,208,176.3,206.8,176.7z"/>
						<path class="st16" d="M206.5,167.5c-0.3-1.2-1.6-1.9-2.8-1.6l-42.4,12.2c-1.2,0.3-1.9,1.6-1.6,2.8l0.9,3.2l46.8-13.5
							L206.5,167.5z"/>
						<g>
							<path class="st17" d="M217.4,167.8L217.4,167.8c-0.3-0.9-1.1-1.6-2.1-1.7l-1.8-0.2c-1.5-0.1-3,0-4.5,0.4l-2.9,0.8l1,3.5
								l1,3.5l2.9-0.8c1.4-0.4,2.8-1.1,4-2l1.4-1.1C217.4,169.8,217.7,168.8,217.4,167.8z"/>
							<path class="st16" d="M217.1,169.8c-0.2-0.1-0.5-0.2-0.7-0.2l-1.8-0.1c-1.5-0.1-3,0-4.5,0.4l-2.9,0.8l-1-3.5l2.9-0.8
								c1.4-0.4,3-0.6,4.5-0.4l1.8,0.2c1,0.1,1.8,0.8,2.1,1.7l0,0C217.6,168.5,217.5,169.3,217.1,169.8z"/>
						</g>
						<g>
							<g>
								
									<rect x="201.9" y="166.4" transform="matrix(0.961 -0.2765 0.2765 0.961 -39.6241 62.8564)" class="st10" width="2.3" height="11.2"/>
								
									<rect x="197.5" y="167.6" transform="matrix(0.961 -0.2765 0.2765 0.961 -40.1518 61.6755)" class="st10" width="2.3" height="11.2"/>
								<path class="st10" d="M185.4,180c-4.1,1.2-7.8,0.9-8.2-0.6c-0.4-1.5,2.6-3.7,6.7-4.9c4.1-1.2,7.8-0.9,8.2,0.6
									C192.5,176.6,189.5,178.8,185.4,180z"/>
							</g>
							<g>
								
									<rect x="168.6" y="175.9" transform="matrix(0.961 -0.2765 0.2765 0.961 -43.574 54.0044)" class="st10" width="2.3" height="11.2"/>
								
									<rect x="164.1" y="177.2" transform="matrix(0.961 -0.2765 0.2765 0.961 -44.1016 52.8237)" class="st10" width="2.3" height="11.2"/>
							</g>
						</g>
					</g>
				</g>
			</g>
		</g>
	</g>
</g>
</svg>
