<?xml version="1.0" encoding="utf-8"?>
<!-- Generator: Adobe Illustrator 23.0.0, SVG Export Plug-In . SVG Version: 6.00 Build 0)  -->
<svg version="1.1" id="Слой_1" xmlns="http://www.w3.org/2000/svg" xmlns:xlink="http://www.w3.org/1999/xlink" x="0px" y="0px"
	 viewBox="0 0 664.4 500" style="enable-background:new 0 0 664.4 500;" xml:space="preserve">
<style type="text/css">
	.st0{fill:url(#SVGID_1_);}
	.st1{fill:url(#SVGID_2_);}
	.st2{fill:#539DA5;}
	.st3{fill:url(#SVGID_3_);}
	.st4{fill:url(#SVGID_4_);}
	.st5{fill:url(#SVGID_5_);}
	.st6{fill:url(#SVGID_6_);}
	.st7{fill:url(#SVGID_7_);}
	.st8{fill:#FFFFFF;}
	.st9{fill:url(#SVGID_8_);}
	.st10{fill:url(#SVGID_9_);}
	.st11{fill:url(#SVGID_10_);}
	.st12{fill:url(#SVGID_11_);}
	.st13{fill:#1487E3;}
	.st14{fill:#FF7E55;}
	.st15{fill:#424773;}
	.st16{fill:#292C47;}
	.st17{fill:#EEA886;}
	.st18{fill:#754836;}
	.st19{fill:#E2D2CA;}
	.st20{fill:#FFCB55;}
	.st21{fill:#6AAFE8;}
	.st22{fill:url(#SVGID_12_);}
	.st23{fill:url(#SVGID_13_);}
	.st24{fill:#0B949B;}
	.st25{fill:#E0E0E0;}
	.st26{fill:#78C2FF;}
	.st27{fill:#FF8761;}
	.st28{opacity:0.76;}
	.st29{fill:#83C1C9;}
	.st30{fill:#B8E3EC;}
	.st31{fill:#1F4D57;}
	.st32{fill:#24778A;}
	.st33{fill:#414773;}
	.st34{fill:#2D314F;}
	.st35{fill:#2B3B57;}
	.st36{fill:#FFC655;}
	.st37{fill:#353A3D;}
	.st38{fill:#D4D8E8;}
	.st39{fill:#E55353;}
	.st40{fill:#6069A8;}
	.st41{fill:#202338;}
	.st42{fill:#464240;}
	.st43{fill:#EB4747;}
	.st44{fill:#325BB3;}
	.st45{fill:#A77860;}
	.st46{fill:#5E5853;}
	.st47{fill:#91887F;}
	.st48{fill:#EDDAD3;}
	.st49{fill:#6E6760;}
	.st50{fill:#807066;}
	.st51{fill:#91D0D8;}
</style>
<g>
	<g>
		<g>
			<linearGradient id="SVGID_1_" gradientUnits="userSpaceOnUse" x1="176.0152" y1="264.5784" x2="476.4441" y2="264.5784">
				<stop  offset="0" style="stop-color:#81D3B9"/>
				<stop  offset="1" style="stop-color:#18A3B2"/>
			</linearGradient>
			<path class="st0" d="M184.2,364.7h270.4V173.9c0-5.2-4.2-9.5-9.5-9.5H193.6c-5.2,0-9.5,4.2-9.5,9.5V364.7z"/>
		</g>
		<g>
			<linearGradient id="SVGID_2_" gradientUnits="userSpaceOnUse" x1="193.7325" y1="251.2791" x2="444.5625" y2="251.2791">
				<stop  offset="0" style="stop-color:#404B61"/>
				<stop  offset="0.486" style="stop-color:#3C4860"/>
				<stop  offset="1" style="stop-color:#2F3E5C"/>
			</linearGradient>
			<polygon class="st1" points="193.7,328.3 444.6,328.3 444.6,174.2 193.7,174.2 			"/>
		</g>
		<g>
			<path class="st2" d="M167.4,174.9h-63.8l0.1-0.6c1-5.3,5.7-9.1,11-9.1c0.8,0,1.5,0.1,2.3,0.2c3.3-6.3,9.8-10.2,16.9-10.2
				c6.1,0,11.9,2.9,15.5,7.9c1.3-0.4,2.7-0.6,4.1-0.6c6.9,0,12.8,5,13.8,11.8L167.4,174.9z M104.8,174h61.5
				c-1.2-6-6.6-10.5-12.8-10.5c-1.4,0-2.8,0.2-4.1,0.7l-0.3,0.1l-0.2-0.3c-3.4-4.8-9-7.7-14.9-7.7c-6.9,0-13.2,3.8-16.3,10l-0.2,0.3
				l-0.4-0.1c-0.8-0.2-1.6-0.3-2.4-0.3C110,166.3,105.9,169.5,104.8,174z"/>
		</g>
		<g>
			<path class="st2" d="M401.7,96.4l-0.2-0.1c-22.6-11.6-19.6-33.9-19.6-34.2l0.1-0.4h0.4c14.4,0,18.9-4.6,19-4.7l0.4-0.4l0.3,0.4
				c0,0,4.6,4.7,19,4.7h0.4l0.1,0.4c0,0.2,3.1,22.6-19.6,34.2L401.7,96.4z M382.8,62.7c-0.3,3-1.2,22.2,18.9,32.7
				c20.1-10.4,19.2-29.6,18.9-32.7c-12.5-0.1-17.6-3.6-18.9-4.7C400.4,59.1,395.3,62.6,382.8,62.7z"/>
		</g>
		<g>
			<g>
				<linearGradient id="SVGID_3_" gradientUnits="userSpaceOnUse" x1="524.7351" y1="343.8921" x2="589.2735" y2="343.8921">
					<stop  offset="0" style="stop-color:#3076A1"/>
					<stop  offset="1" style="stop-color:#639C38"/>
				</linearGradient>
				<path class="st3" d="M525.6,393.9c-3.4-15.6,4-19.5,11.1-23.2c5.8-3.1,11.3-6,11-15.2c-0.4-12.2,7.9-16.6,15.2-20.5
					c5.4-2.9,10.6-5.7,11.3-11.2c1.8-13.3,14.1-29.9,14.3-30l0.8,0.6c-0.1,0.2-12.3,16.5-14.1,29.6c-0.8,6-6.2,8.9-11.8,11.9
					c-7.4,4-15.1,8.1-14.7,19.6c0.3,9.8-5.7,13-11.5,16c-7.1,3.8-13.8,7.3-10.6,22.2L525.6,393.9z"/>
			</g>
			<g>
				<linearGradient id="SVGID_4_" gradientUnits="userSpaceOnUse" x1="519.129" y1="334.4833" x2="603.3926" y2="334.4833">
					<stop  offset="0" style="stop-color:#3076A1"/>
					<stop  offset="1" style="stop-color:#639C38"/>
				</linearGradient>
				<path class="st4" d="M529.3,390c-0.2,0-0.3,0-0.5,0c-3.1-0.2-6.1-2.6-9.5-7.4l-0.2-0.3l0.2-0.3c0.1-0.1,5.5-6.7,3.5-19.2
					c-0.5-2.9-1.1-5.1-1.6-6.9c-0.7-2.6-1.2-4.3-0.4-5.7c1-1.7,3.8-2.7,11.6-4.5c8.3-2,11.1-11.4,13.6-19.7
					c2.3-7.8,4.5-15.2,11-14.9c6,0.2,15-9.1,23-17.3c7.4-7.6,14.4-14.8,18.9-14.7c1.1,0,2,0.5,2.7,1.3c4,4.7,0.3,12-3.3,18.9
					c-3.1,5.9-6,11.6-4.1,15.3c2.3,4.7,2.7,8.9,0.9,12.2c-2,3.9-6.8,6.4-14.1,7.5c-6.7,1-7.4,8.3-8.2,16c-0.9,9-1.9,19.3-13.2,20.3
					c-8.4,0.7-14,6.6-19,11.8C536.8,386.4,533.3,390,529.3,390z M520.3,382.3c3.1,4.3,5.9,6.5,8.6,6.7c3.7,0.3,7.2-3.3,11.1-7.4
					c5.1-5.3,10.9-11.3,19.6-12.1c10.5-0.9,11.4-10.3,12.3-19.4c0.8-8.1,1.6-15.8,9-16.9c7-1,11.5-3.4,13.4-7c1.6-3,1.2-6.9-1-11.3
					c-2.1-4.1,0.9-10,4.1-16.1c3.5-6.7,7-13.6,3.4-17.9c-0.5-0.6-1.2-1-2-1c-4-0.1-10.9,6.9-18.2,14.4c-8.4,8.7-17.1,17.6-23.5,17.6
					c-0.1,0-0.2,0-0.2,0c-5.8-0.2-7.7,6.5-10,14.3c-2.5,8.5-5.4,18.2-14.3,20.3c-7.1,1.7-10.2,2.6-11,4.1c-0.6,1-0.2,2.5,0.5,5
					c0.5,1.8,1.1,4.1,1.6,7C525.7,374.3,521.4,380.9,520.3,382.3z"/>
			</g>
			<g>
				<linearGradient id="SVGID_5_" gradientUnits="userSpaceOnUse" x1="499.7692" y1="321.7351" x2="554.1218" y2="321.7351">
					<stop  offset="0" style="stop-color:#3076A1"/>
					<stop  offset="1" style="stop-color:#639C38"/>
				</linearGradient>
				<path class="st5" d="M529.7,386.7c-0.1,0-0.2,0-0.3,0c-5.1-0.5-8.9-11.5-12.7-22.2c-1.8-5.1-3.5-9.9-5.1-12.9
					c-1.3-2.4-2.9-4.9-4.4-7.3c-4.2-6.4-8.5-13-7.1-18.9c0.7-3.1,2.9-5.6,6.7-7.8c8.3-4.8,7-7.5,4.2-13.4c-2-4.3-4.9-10.3-5-19.6
					c0-4-0.1-7.5-0.2-10.5c-0.3-9.8-0.4-14.8,1.7-16.6c0.9-0.7,2.1-0.9,3.8-0.6c3,0.6,4.3,3,5.6,5.5c1.7,3.3,3.7,6.9,9.7,8.2
					c5.6,1.2,11,2.8,12.4,6.5c1,2.6,0.1,6-3,10.5c-0.7,1.1-1,2-0.8,2.8c0.5,1.8,3.3,3.1,6.5,4.6c4.6,2.1,10.3,4.8,11.9,10.3
					c1.3,4.4-0.2,10-4.6,17c-10.4,16.5-10,27.6-9.6,37.5c0.3,7.3,0.5,14.2-3.9,21.9C533.6,385.1,531.7,386.7,529.7,386.7z
					 M509.8,257.7c-0.7,0-1.3,0.2-1.7,0.5c-1.8,1.5-1.6,6.6-1.4,15.8c0.1,3.1,0.2,6.5,0.2,10.6c0.1,9.1,2.9,15,4.9,19.2
					c2.8,5.9,4.4,9.4-4.6,14.6c-3.5,2-5.6,4.4-6.3,7.2c-1.3,5.4,2.9,11.9,6.9,18.1c1.6,2.4,3.2,4.9,4.5,7.4c1.7,3.1,3.4,8,5.2,13.1
					c3.5,9.9,7.4,21.2,11.9,21.6c1.7,0.2,3.5-1.4,5.3-4.6c4.3-7.5,4-13.9,3.7-21.4c-0.4-10-0.8-21.3,9.8-38c4.2-6.7,5.7-12,4.5-16.2
					c-1.5-5.1-6.8-7.6-11.4-9.7c-3.4-1.6-6.4-3-7-5.2c-0.3-1.1,0-2.3,0.9-3.6c2.9-4.2,3.8-7.3,2.9-9.6c-1.3-3.3-6.7-4.8-11.8-5.9
					c-6.4-1.3-8.6-5.4-10.3-8.7c-1.3-2.4-2.4-4.6-5-5C510.7,257.8,510.2,257.7,509.8,257.7z"/>
			</g>
			<g>
				<linearGradient id="SVGID_6_" gradientUnits="userSpaceOnUse" x1="514.8763" y1="333.4883" x2="531.3555" y2="333.4883">
					<stop  offset="0" style="stop-color:#3076A1"/>
					<stop  offset="1" style="stop-color:#639C38"/>
				</linearGradient>
				<path class="st6" d="M529.8,392.6l-0.9-0.3c5.1-16.1-4.1-52.2-6.9-61c-1.4-4.3-0.1-10.8,1.1-17.1c1.6-8.1,3.2-16.5-0.9-19.7
					c-7.7-5.9-7.3-19.6-7.3-20.2l1,0c0,0.1-0.4,13.8,6.9,19.4c4.6,3.5,2.9,12.2,1.3,20.6c-1.2,6.2-2.4,12.6-1.1,16.7
					C526.3,341.9,534.9,376.6,529.8,392.6z"/>
			</g>
			<linearGradient id="SVGID_7_" gradientUnits="userSpaceOnUse" x1="477.5784" y1="336.7546" x2="530.7799" y2="336.7546">
				<stop  offset="0" style="stop-color:#3076A1"/>
				<stop  offset="1" style="stop-color:#639C38"/>
			</linearGradient>
			<path class="st7" d="M491.3,288.1c-2.1-5.4-10.4-4.6-9.6,3c0.8,7.6,6.1,15.7-2,28.7c-8.1,12.9,10.4,15.5,17,23.6
				c6.6,8.1,8.9,19.3,14.5,26.4c5.6,7.1,9.4,24.1,13.9,17.8c4.6-6.3,0.3-14.6,0.8-26c0.5-11.4,10.7-18.6,0.5-26
				c-10.2-7.4-20.4-9.6-17-26.2C510.7,302,497.9,304.8,491.3,288.1z"/>
			<g>
				<path class="st8" d="M532.4,389c-0.1-0.3-5.7-33.8-18.3-42.9c-12.9-9.3-15.2-18-19.7-38.3l0.9-0.2c4.4,20.1,6.7,28.6,19.3,37.8
					c12.9,9.4,18.5,42.2,18.7,43.5L532.4,389z"/>
			</g>
			<linearGradient id="SVGID_8_" gradientUnits="userSpaceOnUse" x1="513.2006" y1="457.2947" x2="557.9615" y2="283.2246">
				<stop  offset="0" style="stop-color:#3076A1"/>
				<stop  offset="1" style="stop-color:#639C38"/>
			</linearGradient>
			<path class="st9" d="M521,387.8c0,0,3.8-9.3-3.1-22.5c-6.8-13.2-12.4-11.2,4.1-21.3c16.5-10.1,0.1-42.1,14.1-46.2
				c14-4.1,26.2-55.8,36.8-49.2c10.7,6.6-3.6,32,4.1,39.6c7.6,7.6,8.6,17.3-7.1,25.1c-15.7,7.8,11.2,37.8-10.1,46.9
				C538.5,369.4,544.6,405.2,521,387.8z"/>
			<g>
				<path class="st8" d="M527.5,397.6c0-0.1-2.3-12,4.9-27.4c7.4-15.6,10.9-32.7,9.4-45.7c-0.8-7,3.7-9.8,8.1-12.5
					c4.3-2.6,8.7-5.3,8.5-12.3c-0.2-6.3,2.4-21,2.5-21.6l0.9,0.2c0,0.2-2.7,15.2-2.5,21.4c0.3,7.5-4.4,10.4-8.9,13.1
					c-4.3,2.6-8.4,5.1-7.6,11.5c1.5,13.2-2.1,30.5-9.5,46.3c-7.1,15-4.9,26.6-4.9,26.8L527.5,397.6z"/>
			</g>
			<path class="st8" d="M544.7,332c4.8-4.4,11.1-5.1,9.8,1.5c-1.3,6.6-5.8,8.5-3.6,12.6c2.3,4.1,6,8.3-0.4,13.4
				c-6.4,5.1-10,5.7-11.9,15.3c-1.9,9.6-1.5,16.2-9.8,16.6c-8.3,0.4-5.1-11.7-2.4-17.1c0,0,4-6.2,1.3-14.4c-2.6-8.2-7.7-12.6,3-15.4
				C541.5,341.7,541.5,335,544.7,332z"/>
			<g>
				<linearGradient id="SVGID_9_" gradientUnits="userSpaceOnUse" x1="529.4708" y1="367.0611" x2="549.1387" y2="367.0611">
					<stop  offset="0" style="stop-color:#3076A1"/>
					<stop  offset="1" style="stop-color:#639C38"/>
				</linearGradient>
				<path class="st10" d="M529.5,397.5c0-1.2-0.6-28.9,4.6-33.5c5.3-4.8,6.3-13.2,6.4-17.8c0.2-6,7.9-9.5,8.2-9.7l0.4,0.9
					c-0.1,0-7.5,3.5-7.7,8.8c-0.2,5.8-1.5,13.7-6.8,18.4c-4.9,4.4-4.3,32.5-4.3,32.8L529.5,397.5z"/>
			</g>
			<linearGradient id="SVGID_10_" gradientUnits="userSpaceOnUse" x1="512.5821" y1="402.522" x2="548.9434" y2="402.522">
				<stop  offset="0" style="stop-color:#FF9340"/>
				<stop  offset="1" style="stop-color:#FFCE45"/>
			</linearGradient>
			<polygon class="st11" points="548.9,386.2 540.4,418.8 521.2,418.8 512.6,386.2 			"/>
			<linearGradient id="SVGID_11_" gradientUnits="userSpaceOnUse" x1="512.5821" y1="402.522" x2="548.9434" y2="402.522">
				<stop  offset="0" style="stop-color:#C97332"/>
				<stop  offset="1" style="stop-color:#FFCE45"/>
			</linearGradient>
			<path class="st12" d="M548.9,386.2c0,0-18.9,3.5-18.9,32.6h-8.9l-8.6-32.6H548.9z"/>
		</g>
		<g>
			<rect x="185.4" y="301.1" class="st13" width="25.3" height="2.9"/>
		</g>
		<g>
			<polygon class="st2" points="180.1,222.2 139.8,222.2 139.8,170.6 140.7,170.6 140.7,221.2 180.1,221.2 			"/>
		</g>
		<g>
			<polygon class="st2" points="350.8,188.2 349.9,188.2 349.9,135 401.2,135 401.2,90.2 402.2,90.2 402.2,135.9 350.8,135.9 			"/>
		</g>
		<g>
			<polygon class="st2" points="516.7,247.4 463.3,247.4 463.3,246.5 515.7,246.5 515.7,215.5 516.7,215.5 			"/>
		</g>
		<g>
			<path class="st14" d="M117.4,290.5c0,0-1.1,16,2,18c2,1.2,9.8,5.3,9.6,6c-0.2,0.8-4.4,6.8-4.4,6.8s-15-9.9-15.5-13
				c-0.5-3,0.7-23.5,2.8-24.4c1.5-0.7,2.4-0.1,4.3,1.3C118.9,287.2,117.4,290.5,117.4,290.5z"/>
		</g>
		<g>
			<g>
				<g>
					<path class="st15" d="M115.6,407.3c0,0-0.5,3.2-0.5,3.7c-0.1,0.5-5.2-0.3-5.2-0.3l-0.4-3.9C109.5,406.9,115,406.8,115.6,407.3z
						"/>
				</g>
			</g>
		</g>
		<g>
			<g>
				<g>
					<path class="st16" d="M115.2,410.6c0,0,1.6,2,3.2,2.8c1.6,0.9,4.1,1.2,5,2.1c0.7,0.6,2.5,3.4-4.1,3.3
						c-6.5-0.1-9.7,0.4-10.4-0.7c-0.7-1.1,1-7.8,1-7.8S111.4,410.9,115.2,410.6z"/>
				</g>
			</g>
		</g>
		<g>
			<g>
				<g>
					<path class="st15" d="M141.4,407.3c0,0-0.5,3.2-0.5,3.7c-0.1,0.5-5.2-0.3-5.2-0.3l-0.4-3.9
						C135.2,406.9,140.7,406.8,141.4,407.3z"/>
				</g>
			</g>
		</g>
		<g>
			<g>
				<g>
					<path class="st16" d="M140.9,410.6c0,0,1.6,2,3.2,2.8c1.6,0.9,7.4,1.6,8.3,2.4c0.7,0.6,1.8,3.2-7.4,3
						c-6.5-0.2-9.7,0.4-10.4-0.7c-0.7-1.1,1-7.8,1-7.8S137.1,411,140.9,410.6z"/>
				</g>
			</g>
		</g>
		<g>
			<g>
				<g>
					<path class="st16" d="M117.5,323.9c0,0-4.8,7.7-4.5,14.6c0.4,6.9-0.4,14.4-1.2,21.6c-0.8,8.1-3,24.9-3.1,29.2
						c-0.1,4.3,0.2,20.6,0.2,20.6l8.4-0.1c0,0,3-32.9,4.4-36.3c1.4-3.4,7.4-28.1,7.6-30.8C129.5,340,117.5,323.9,117.5,323.9z"/>
				</g>
			</g>
		</g>
		<g>
			<g>
				<g>
					<path class="st16" d="M142.9,324.9c0,0,1.9,18.9,2.4,23.1c0.5,4.2,0.2,22.7,0.4,25.3c0.2,2.7-1.6,30.7-2.1,36.1l-9.2-0.1
						c0,0-0.6-22.7-0.6-33.8c0-11-2.8-23.9-6.1-31.2c-3.2-7.3-10.7-7.5-12.7-21C115,323.5,140.2,320.6,142.9,324.9z"/>
				</g>
			</g>
		</g>
		<g>
			<g>
				<g>
					<path class="st17" d="M122.6,259.1c0,0,5.8-3.8,9.8,0.3c4,4.1,6,13.8,3.1,15.7c-2.9,1.9-7.8,2.4-10.2-0.2
						c-2.3-2.6-4.8-6.6-5.4-9.5C119.3,262.5,121.1,260.3,122.6,259.1z"/>
				</g>
			</g>
		</g>
		<g>
			<g>
				<g>
					<path class="st17" d="M133.6,275.8c0,0-0.1,4,0.4,4.9c0.4,0.9-8.4,0.9-8.4,0.9s-0.7-4.7-2.1-8.7
						C122.1,268.9,133.6,275.8,133.6,275.8z"/>
				</g>
			</g>
		</g>
		<g>
			<g>
				<g>
					<path class="st18" d="M123.7,272.8c0,0,0.8,0.8,3.2-0.1c2.3-1,4.5-4.9,5.5-5.5c0.9-0.6,0.8-1.2,0.8-1.2l0.9,0.8l1.1-0.2
						c0,0-1.7-2.7-0.5-4.2c1.2-1.5-3.7-9-10.9-4.4c0,0-5.6,3.1-4.6,6.4C120.1,267.8,121.9,271.5,123.7,272.8z"/>
				</g>
			</g>
		</g>
		<g>
			<g>
				<g>
					<path class="st19" d="M134.5,280.6c0,0,0-1.6-0.8-1.8c-0.7-0.2-8.2-0.9-9.2-0.5v1.9C124.5,280.2,126.3,281.3,134.5,280.6z"/>
				</g>
			</g>
		</g>
		<g>
			<g>
				<g>
					<path class="st17" d="M132.6,264.9c-0.3-0.5-2.1-1.8-2.3,0c-0.1,1.9,1.8,3.9,2.5,3.5C133.7,268,133.3,266.2,132.6,264.9z"/>
				</g>
			</g>
		</g>
		<g>
			<g>
				<g>
					<path class="st18" d="M120.9,260.1c0,0-8.2,2.2,2.4,12.4L120.9,260.1z"/>
				</g>
			</g>
		</g>
		<g>
			<g>
				<path class="st17" d="M194.5,303.9l-8.4-0.1c0.7-0.4,1.9-1.2,1.6-1.5c-0.4-0.5-2.7,0.6-3.7,0.7c-0.9,0.1-2.4,0-3.5,0.4l-2.7,1.1
					l2.4,2.2c0,0,4.4,0.6,5.7,0.7c2.1,0.1,8.5-2.3,8.6-2.7C194.8,304.1,194.5,303.9,194.5,303.9z"/>
			</g>
		</g>
		<g>
			<g>
				<g>
					<path class="st14" d="M145.4,282.9c-5.3-0.9-11-2.3-11-2.3l-9.9-0.4c0,0-9.1,2-12.7,3.6c-0.3,0.2-0.3,8.1-1.3,10.2l3,6.3
						c0,0,1.7,12.5,2.1,18c0.2,2.5-3.5,23.8-3.5,23.8s4,1.2,10.8,1.9c6.8,0.7,23.7-0.3,23.8-1.1c0.1-0.8-3.3-29.8-3.4-31.3
						c-0.2-2.3,0.7-13,0.7-13c1.3,1.7,8.7,8.2,12.3,10.2c2.6,1.5,8.9,0.6,10.7,0.4c4-0.4,15.1-1.2,15.3-1.6c0.2-0.2-0.6-4.3-1.1-4.4
						c-0.4-0.1-14.7-0.8-18.3-0.7c-1.5,0.1-6.2-5.2-6.2-5.2S148.4,284.2,145.4,282.9z"/>
				</g>
			</g>
		</g>
		<g>
			<polygon class="st20" points="84.3,242.7 110.6,242.7 110.6,261.7 110.6,265.7 106.5,261.7 84.3,261.7 			"/>
		</g>
		<g>
			<g>
				<g>
					<path class="st2" d="M507.5,182.1H482v-25.5h25.5V182.1z M482.8,181.2h23.8v-23.8h-23.8V181.2z"/>
				</g>
				<g>
					<path class="st2" d="M571.1,165.9h-58.4v-6.2h58.4V165.9z M513.5,165h56.7v-4.5h-56.7V165z"/>
				</g>
				<g>
					<path class="st2" d="M571.1,194.9H482v-6.2h89.1V194.9z M482.8,194.1h87.4v-4.5h-87.4V194.1z"/>
				</g>
				<g>
					<path class="st2" d="M538.7,206.9H482v-6.2h56.7V206.9z M482.8,206h55v-4.5h-55V206z"/>
				</g>
				<g>
					<path class="st2" d="M552.2,177.8h-39.6v-6.2h39.6V177.8z M513.5,176.9h37.9v-4.5h-37.9V176.9z"/>
				</g>
			</g>
			<g>
				<path class="st2" d="M581.2,220.5H471.8v-77.5h109.4V220.5z M472.7,219.6h107.7v-75.8H472.7V219.6z"/>
			</g>
		</g>
		<g>
			<polygon class="st2" points="433.3,108.2 425.1,108.2 425.1,107.3 432.3,107.3 432.3,100 433.3,100 			"/>
		</g>
		<g>
			<polygon class="st21" points="378.2,108.2 370,108.2 370,100 371,100 371,107.3 378.2,107.3 			"/>
		</g>
		<g>
			<polygon class="st2" points="371,53.2 370.1,53.2 370.1,45 378.2,45 378.2,46 371,46 			"/>
		</g>
		<g>
			<polygon class="st2" points="433.3,53.2 432.3,53.2 432.3,46 425.1,46 425.1,45 433.3,45 			"/>
		</g>
		<g>
			<rect x="432.3" y="65.4" class="st2" width="1" height="22.4"/>
		</g>
		<g>
			<rect x="370" y="65.4" class="st2" width="1" height="22.4"/>
		</g>
		<g>
			<path class="st2" d="M140.3,171.1c-1.9,0-3.5-1.6-3.5-3.5c0-1.9,1.6-3.5,3.5-3.5c1.9,0,3.5,1.6,3.5,3.5
				C143.8,169.5,142.2,171.1,140.3,171.1z M140.3,165c-1.4,0-2.5,1.1-2.5,2.5c0,1.4,1.1,2.5,2.5,2.5c1.4,0,2.5-1.1,2.5-2.5
				C142.8,166.1,141.7,165,140.3,165z"/>
		</g>
		<g>
			<path class="st2" d="M401.7,90.7c-1.9,0-3.5-1.6-3.5-3.5c0-1.9,1.6-3.5,3.5-3.5c1.9,0,3.5,1.6,3.5,3.5
				C405.2,89.2,403.6,90.7,401.7,90.7z M401.7,84.7c-1.4,0-2.5,1.1-2.5,2.5c0,1.4,1.1,2.5,2.5,2.5c1.4,0,2.5-1.1,2.5-2.5
				C404.3,85.8,403.1,84.7,401.7,84.7z"/>
		</g>
		<g>
			<path class="st2" d="M516.2,216.1c-1.9,0-3.5-1.6-3.5-3.5c0-1.9,1.6-3.5,3.5-3.5c1.9,0,3.5,1.6,3.5,3.5
				C519.7,214.5,518.1,216.1,516.2,216.1z M516.2,210c-1.4,0-2.5,1.1-2.5,2.5c0,1.4,1.1,2.5,2.5,2.5c1.4,0,2.5-1.1,2.5-2.5
				C518.7,211.2,517.6,210,516.2,210z"/>
		</g>
		<g>
			<path class="st2" d="M163.5,73.8h-24v-24h24V73.8z M140.4,72.8h22.1V50.7h-22.1V72.8z"/>
		</g>
		<g>
			<rect x="151" y="56.3" class="st2" width="1" height="11.2"/>
		</g>
		<g>
			<rect x="145.9" y="61.4" class="st2" width="11.2" height="1"/>
		</g>
		<g>
			<path class="st2" d="M529.9,102.8h-34.4V78.3h34.4V102.8z M496.5,101.8h32.5V79.2h-32.5V101.8z"/>
		</g>
		<g>
			<polygon class="st2" points="512.7,93.1 495.7,79.1 496.3,78.4 512.7,91.9 529.1,78.4 529.7,79.1 			"/>
		</g>
		<g>
			
				<rect x="522.8" y="86.9" transform="matrix(0.7255 -0.6882 0.6882 0.7255 77.6716 386.3778)" class="st2" width="1" height="17.9"/>
		</g>
		<g>
			
				<rect x="493.2" y="95.3" transform="matrix(0.6877 -0.726 0.726 0.6877 87.2808 394.5086)" class="st2" width="17.9" height="1"/>
		</g>
		<g>
			<path class="st2" d="M223.5,127.4l-0.4-0.9c-0.3,0-0.6-0.1-0.9-0.2l-0.7,0.7l-2.1-1.5l0.4-0.9c-0.2-0.3-0.4-0.5-0.5-0.8l-1,0
				l-0.4-2.6l0.9-0.4c0-0.3,0.1-0.6,0.2-0.9l-0.7-0.7l1.5-2.1l0.9,0.4c0.3-0.2,0.5-0.4,0.8-0.5l0-1l2.6-0.4l0.4,0.9
				c0.3,0,0.6,0.1,0.9,0.2l0.7-0.7l2.1,1.5l-0.4,0.9c0.2,0.3,0.4,0.5,0.5,0.8l1,0l0.4,2.6l-0.9,0.4c0,0.3-0.1,0.6-0.2,0.9l0.7,0.7
				l-1.5,2.1l-0.9-0.4c-0.3,0.2-0.5,0.4-0.8,0.5l0,1L223.5,127.4z M222,125.5l0.2,0.1c0.4,0.1,0.8,0.2,1.2,0.3l0.2,0l0.3,0.8
				l1.4-0.2l0-0.9l0.2-0.1c0.4-0.2,0.7-0.4,1-0.6l0.2-0.1l0.8,0.3l0.8-1.2l-0.6-0.6l0.1-0.2c0.1-0.4,0.2-0.8,0.3-1.2l0-0.2l0.8-0.3
				l-0.2-1.4l-0.9,0l-0.1-0.2c-0.2-0.4-0.4-0.7-0.6-1l-0.1-0.2l0.3-0.8l-1.2-0.8l-0.6,0.6l-0.2-0.1c-0.4-0.1-0.8-0.2-1.2-0.3l-0.2,0
				l-0.3-0.8l-1.4,0.2l0,0.9l-0.2,0.1c-0.4,0.2-0.7,0.4-1,0.6l-0.2,0.1l-0.8-0.3l-0.8,1.2l0.6,0.6l-0.1,0.2
				c-0.1,0.4-0.2,0.8-0.3,1.2l0,0.2l-0.8,0.3l0.2,1.4l0.9,0l0.1,0.2c0.2,0.4,0.4,0.7,0.6,1l0.1,0.2l-0.3,0.8l1.2,0.8L222,125.5z
				 M223.8,124.3c-0.6,0-1.1-0.2-1.6-0.5c-1.3-0.9-1.6-2.7-0.7-3.9c0.9-1.3,2.7-1.6,3.9-0.7c0.6,0.4,1,1.1,1.1,1.8
				c0.1,0.7,0,1.5-0.5,2.1c-0.4,0.6-1.1,1-1.8,1.1C224.1,124.3,223.9,124.3,223.8,124.3z M223.8,119.3c-0.7,0-1.3,0.3-1.7,0.9
				c-0.3,0.5-0.5,1-0.4,1.6c0.1,0.6,0.4,1,0.9,1.4l0,0c0.5,0.3,1,0.5,1.6,0.4c0.6-0.1,1-0.4,1.4-0.9c0.3-0.5,0.5-1,0.4-1.6
				c-0.1-0.6-0.4-1-0.9-1.4C224.6,119.5,224.2,119.3,223.8,119.3z"/>
		</g>
		<g>
			<path class="st2" d="M203.6,130.4l-0.8-2.1c-0.9-0.1-1.7-0.3-2.5-0.6l-1.6,1.5l-4.4-3.1l0.9-2c-0.5-0.7-1-1.4-1.4-2.2l-2.2-0.1
				l-0.9-5.4l2.1-0.8c0.1-0.9,0.3-1.7,0.6-2.5l-1.5-1.6l3.1-4.4l2,0.9c0.7-0.5,1.4-1,2.2-1.4l0.1-2.2l5.3-0.9l0.8,2.1
				c0.9,0.1,1.7,0.3,2.5,0.6l1.6-1.5l4.4,3.1l-0.9,2c0.5,0.7,1,1.4,1.4,2.2l2.2,0.1l0.9,5.4l-2.1,0.8c-0.1,0.9-0.3,1.7-0.6,2.5
				l1.5,1.6l-3.1,4.4l-2-0.9c-0.7,0.5-1.4,1-2.2,1.4l-0.1,2.2L203.6,130.4z M200.1,126.7l0.3,0.1c0.9,0.3,1.9,0.6,2.8,0.6l0.3,0
				l0.7,1.9l3.8-0.6l0.1-2l0.3-0.1c0.9-0.4,1.7-0.9,2.5-1.5l0.2-0.2l1.9,0.8l2.2-3.1l-1.4-1.5l0.1-0.3c0.3-0.9,0.6-1.9,0.6-2.8
				l0-0.3l1.9-0.7l-0.6-3.8l-2-0.1l-0.1-0.3c-0.4-0.9-0.9-1.7-1.5-2.5l-0.2-0.2l0.8-1.9l-3.1-2.2l-1.5,1.4l-0.3-0.1
				c-0.9-0.3-1.9-0.6-2.8-0.6l-0.3,0l-0.7-1.9l-3.8,0.6l-0.1,2l-0.3,0.1c-0.9,0.4-1.7,0.9-2.5,1.5l-0.2,0.2l-1.9-0.8l-2.2,3.1
				l1.4,1.5l-0.1,0.3c-0.3,0.9-0.6,1.9-0.6,2.8l0,0.3l-1.9,0.7l0.6,3.8l2,0.1l0.1,0.3c0.4,0.9,0.9,1.7,1.5,2.5l0.2,0.2l-0.8,1.9
				l3.1,2.2L200.1,126.7z M204.1,123.2c-1.2,0-2.5-0.4-3.6-1.1c-2.8-2-3.4-5.8-1.4-8.6c2-2.8,5.8-3.4,8.6-1.4c2.8,2,3.4,5.8,1.5,8.6
				C207.9,122.3,206,123.2,204.1,123.2z M204.1,111.8c-1.6,0-3.2,0.8-4.3,2.2c-0.8,1.1-1.1,2.5-0.9,3.9c0.2,1.4,1,2.6,2.1,3.4
				c2.3,1.7,5.6,1.1,7.3-1.2c0.8-1.1,1.1-2.5,0.9-3.9c-0.2-1.4-1-2.6-2.1-3.4C206.2,112.1,205.2,111.8,204.1,111.8z"/>
		</g>
		<g>
			<g>
				<g>
					<path class="st2" d="M78.8,135.4c-9.8,0-17.8-8-17.8-17.8h1c0,9.3,7.6,16.8,16.8,16.8c9.3,0,16.8-7.6,16.8-16.8
						c0-9.3-7.6-16.8-16.8-16.8v-1c9.8,0,17.8,8,17.8,17.8C96.6,127.5,88.6,135.4,78.8,135.4z M78.8,133c-8.4,0-15.3-6.9-15.3-15.3
						c0-8.4,6.9-15.3,15.3-15.3s15.3,6.9,15.3,15.3h-1c0-7.9-6.4-14.4-14.4-14.4c-7.9,0-14.4,6.4-14.4,14.4
						c0,7.9,6.4,14.4,14.4,14.4V133z"/>
				</g>
			</g>
		</g>
		<g>
			<polygon class="st2" points="76.7,123.5 70.2,117.1 70.9,116.5 76.7,122.2 86.8,112.1 87.4,112.8 			"/>
		</g>
		<linearGradient id="SVGID_12_" gradientUnits="userSpaceOnUse" x1="319.4283" y1="325.123" x2="319.4283" y2="491.6994">
			<stop  offset="0" style="stop-color:#9FDDBE"/>
			<stop  offset="1" style="stop-color:#18A3B2"/>
		</linearGradient>
		<polygon class="st22" points="454.6,335.8 319.4,335.8 184.3,335.8 154.7,446.4 320.3,446.4 484.2,446.4 		"/>
		<path class="st8" d="M194.5,355.2h16.6c0.7,0,1.2,0.5,1.1,1.1l-1.6,7.2c-0.1,0.4-0.6,0.8-1.1,0.8h-16.9c-0.7,0-1.2-0.6-1.1-1.2
			l1.9-7.2C193.5,355.5,194,355.2,194.5,355.2z"/>
		<polygon class="st8" points="218.7,355.2 231.3,355.2 229.6,364.3 216.8,364.3 		"/>
		<polygon class="st8" points="237.6,355.2 250.1,355.2 248.8,364.3 236,364.3 		"/>
		<polygon class="st8" points="256.4,355.2 268.9,355.2 268,364.3 255.2,364.3 		"/>
		<polygon class="st8" points="275.2,355.2 287.8,355.2 287.2,364.3 274.4,364.3 		"/>
		<polygon class="st8" points="294.1,355.2 306.6,355.2 306.4,364.3 293.6,364.3 		"/>
		<polygon class="st8" points="444.8,355.2 425.9,355.2 428,364.3 447.2,364.3 		"/>
		<polygon class="st8" points="419.7,355.2 407.1,355.2 408.8,364.3 421.6,364.3 		"/>
		<polygon class="st8" points="400.8,355.2 388.3,355.2 389.6,364.3 402.4,364.3 		"/>
		<polygon class="st8" points="382,355.2 369.4,355.2 370.4,364.3 383.2,364.3 		"/>
		<polygon class="st8" points="363.2,355.2 350.6,355.2 351.2,364.3 364,364.3 		"/>
		<polygon class="st8" points="344.3,355.2 331.8,355.2 332,364.3 344.8,364.3 		"/>
		<polygon class="st8" points="312.9,355.2 325.4,355.2 325.7,364.3 312.9,364.3 		"/>
		<polygon class="st8" points="189,371.1 215.2,371.1 213.7,380.5 187,380.5 		"/>
		<polygon class="st8" points="448.9,371.1 416.4,371.1 418.3,380.5 451.3,380.5 		"/>
		<polygon class="st8" points="409.9,371.1 397,371.1 398.4,380.5 411.7,380.5 		"/>
		<polygon class="st8" points="390.5,371.1 377.5,371.1 378.6,380.5 391.8,380.5 		"/>
		<polygon class="st8" points="371,371.1 358.1,371.1 358.8,380.5 372,380.5 		"/>
		<polygon class="st8" points="351.6,371.1 338.6,371.1 339,380.5 352.2,380.5 		"/>
		<polygon class="st8" points="185.1,387.9 211.9,387.9 209.9,397.2 182.6,397.2 		"/>
		<polygon class="st8" points="218.6,387.9 232,387.9 230.4,397.2 216.7,397.2 		"/>
		<polygon class="st8" points="238.7,387.9 252.1,387.9 339.3,387.9 339.6,397.2 237.2,397.2 		"/>
		<polygon class="st8" points="346,387.9 359.4,387.9 360.1,397.2 346.5,397.2 		"/>
		<polygon class="st8" points="366.1,387.9 379.5,387.9 380.6,397.2 367,397.2 		"/>
		<polygon class="st8" points="386.2,387.9 399.6,387.9 401.1,397.2 387.4,397.2 		"/>
		<polygon class="st8" points="406.3,387.9 419.8,387.9 421.6,397.2 407.9,397.2 		"/>
		<polygon class="st8" points="426.5,387.9 453.3,387.9 455.7,397.2 428.4,397.2 		"/>
		<polygon class="st8" points="332.1,371.1 319.3,371.1 319.3,380.5 332.4,380.5 		"/>
		<polygon class="st8" points="312.7,371.1 299.7,371.1 299.3,380.5 312.6,380.5 		"/>
		<polygon class="st8" points="293.2,371.1 280.2,371.1 279.5,380.5 292.7,380.5 		"/>
		<polygon class="st8" points="273.8,371.1 260.8,371.1 259.7,380.5 272.9,380.5 		"/>
		<polygon class="st8" points="254.3,371.1 241.3,371.1 239.9,380.5 253.1,380.5 		"/>
		<polygon class="st8" points="234.8,371.1 221.9,371.1 220,380.5 233.2,380.5 		"/>
		<polygon class="st8" points="195.1,349.5 197.2,341.3 203.3,341.3 201.3,349.5 		"/>
		<polygon class="st8" points="209.4,341.3 221.6,341.3 219.9,349.5 207.5,349.5 		"/>
		<polygon class="st8" points="227.7,341.3 239.9,341.3 238.5,349.5 226.1,349.5 		"/>
		<polygon class="st8" points="246,341.3 258.2,341.3 257.1,349.5 244.7,349.5 		"/>
		<polygon class="st8" points="264.3,341.3 276.5,341.3 275.7,349.5 263.3,349.5 		"/>
		<polygon class="st8" points="282.6,341.3 294.8,341.3 294.4,349.5 281.9,349.5 		"/>
		<polygon class="st8" points="300.9,341.3 313.1,341.3 313,349.5 300.6,349.5 		"/>
		<polygon class="st8" points="319.2,341.3 331.4,341.3 331.6,349.5 319.2,349.5 		"/>
		<polygon class="st8" points="337.5,341.3 349.6,341.3 350.2,349.5 337.8,349.5 		"/>
		<polygon class="st8" points="355.7,341.3 367.9,341.3 368.8,349.5 356.4,349.5 		"/>
		<polygon class="st8" points="374,341.3 386.2,341.3 387.4,349.5 375,349.5 		"/>
		<polygon class="st8" points="392.3,341.3 404.5,341.3 406,349.5 393.6,349.5 		"/>
		<polygon class="st8" points="410.6,341.3 422.8,341.3 424.6,349.5 412.2,349.5 		"/>
		<polygon class="st8" points="428.9,341.3 441.1,341.3 443.2,349.5 430.8,349.5 		"/>
		<linearGradient id="SVGID_13_" gradientUnits="userSpaceOnUse" x1="1.9741" y1="450.6831" x2="331.4594" y2="450.6831">
			<stop  offset="0" style="stop-color:#9FDDBE"/>
			<stop  offset="1" style="stop-color:#18A3B2"/>
		</linearGradient>
		<path class="st23" d="M475.6,455H163.3c-4.8,0-8.6-3.9-8.6-8.6l0,0h329.5l0,0C484.2,451.1,480.3,455,475.6,455z"/>
		<path class="st24" d="M357.7,410.7c-0.3-1.9-2-3.4-4-3.4h-34.3h-34.3c-2,0-3.7,1.4-4,3.4l-4.3,26c-0.4,2.5,1.5,4.7,4,4.7h38.6H358
			c2.5,0,4.4-2.2,4-4.7L357.7,410.7z"/>
		<g>
			<g>
				<rect x="210.7" y="187.3" class="st25" width="27.9" height="2.9"/>
			</g>
			<g>
				<rect x="246.4" y="208.9" class="st25" width="20.2" height="2.9"/>
			</g>
			<g>
				<rect x="269.7" y="208.9" class="st13" width="13.4" height="2.9"/>
			</g>
			<g>
				<rect x="211" y="263" class="st13" width="13.4" height="2.9"/>
			</g>
			<g>
				<rect x="285.8" y="208.9" class="st25" width="32.3" height="2.9"/>
			</g>
			<g>
				<rect x="211" y="252.2" class="st25" width="20.8" height="2.9"/>
			</g>
			<g>
				<rect x="239.9" y="273.8" class="st25" width="12.7" height="2.9"/>
			</g>
			<g>
				<rect x="211" y="273.8" class="st13" width="25.1" height="2.9"/>
			</g>
			<g>
				<rect x="211" y="284.6" class="st25" width="13.9" height="2.9"/>
			</g>
			<g>
				<rect x="244" y="187.3" class="st26" width="19.8" height="2.9"/>
			</g>
			<g>
				<rect x="244" y="219.6" class="st13" width="19.8" height="2.9"/>
			</g>
			<g>
				<rect x="234.1" y="230.4" class="st25" width="8.5" height="2.9"/>
			</g>
			<g>
				<rect x="225.7" y="241.3" class="st26" width="19" height="2.9"/>
			</g>
			<g>
				<rect x="247.6" y="241.3" class="st13" width="26.3" height="2.9"/>
			</g>
			<g>
				<rect x="211" y="230.5" class="st13" width="19.8" height="2.9"/>
			</g>
			<g>
				<rect x="211" y="241.3" class="st13" width="11.8" height="2.9"/>
			</g>
			<g>
				<rect x="246.6" y="230.5" class="st27" width="11.1" height="2.9"/>
			</g>
			<g>
				<rect x="211.3" y="295.3" class="st27" width="11.1" height="2.9"/>
			</g>
			<g>
				<rect x="210.9" y="208.9" class="st26" width="19.8" height="2.9"/>
			</g>
			<g>
				<rect x="228.4" y="263" class="st26" width="19.8" height="2.9"/>
			</g>
			<g>
				<rect x="228.7" y="284.6" class="st26" width="19.8" height="2.9"/>
			</g>
			<g>
				<rect x="263.9" y="284.6" class="st26" width="19.8" height="2.9"/>
			</g>
			<g>
				<rect x="210.9" y="219.6" class="st26" width="28.3" height="2.9"/>
			</g>
			<g>
				<rect x="343.4" y="187.3" class="st26" width="19.8" height="2.9"/>
			</g>
			<g>
				<rect x="272.7" y="295.3" class="st26" width="19.8" height="2.9"/>
			</g>
			<g>
				<rect x="369.4" y="187.3" class="st26" width="13.3" height="2.9"/>
			</g>
			<g>
				<rect x="414.3" y="198.1" class="st26" width="13.3" height="2.9"/>
			</g>
			<g>
				<rect x="269.2" y="187.3" class="st13" width="25.3" height="2.9"/>
			</g>
			<g>
				<rect x="367.7" y="198.1" class="st13" width="25.3" height="2.9"/>
			</g>
			<g>
				<rect x="336.7" y="208.9" class="st13" width="25.3" height="2.9"/>
			</g>
			<g>
				<rect x="303.8" y="219.6" class="st13" width="25.3" height="2.9"/>
			</g>
			<g>
				<rect x="365.2" y="208.9" class="st26" width="18" height="2.9"/>
			</g>
			<g>
				<rect x="313.2" y="187.3" class="st27" width="25.3" height="2.9"/>
			</g>
			<g>
				<rect x="284.4" y="219.6" class="st27" width="14.8" height="2.9"/>
			</g>
			<g>
				<rect x="272.7" y="263.2" class="st27" width="14.8" height="2.9"/>
			</g>
			<g>
				<rect x="299.2" y="187.3" class="st25" width="9.3" height="2.9"/>
			</g>
			<g>
				<rect x="269.2" y="219.6" class="st25" width="9.3" height="2.9"/>
			</g>
			<g>
				<rect x="399.1" y="198.1" class="st25" width="9.3" height="2.9"/>
			</g>
			<g>
				<rect x="210.7" y="198.1" class="st13" width="14.5" height="2.9"/>
			</g>
			<g>
				<rect x="249.3" y="252.3" class="st13" width="11.4" height="2.9"/>
			</g>
			<g>
				<rect x="228.7" y="198.1" class="st13" width="4.7" height="2.9"/>
			</g>
			<g>
				<rect x="324.6" y="198.1" class="st25" width="38.6" height="2.9"/>
			</g>
			<g>
				<rect x="287.6" y="284.6" class="st25" width="38.6" height="2.9"/>
			</g>
			<g>
				<rect x="236.8" y="198.1" class="st27" width="4.8" height="2.9"/>
			</g>
			<g>
				<rect x="308.4" y="198.1" class="st13" width="12.6" height="2.9"/>
			</g>
			<g>
				<rect x="321.1" y="208.9" class="st27" width="12.6" height="2.9"/>
			</g>
			<g>
				<rect x="256.1" y="295.3" class="st27" width="12.6" height="2.9"/>
			</g>
			<g>
				<rect x="278.2" y="198.1" class="st13" width="26.9" height="2.9"/>
			</g>
			<g>
				<rect x="253.2" y="263.2" class="st13" width="15.7" height="2.9"/>
			</g>
			<g>
				<rect x="252.2" y="284.6" class="st13" width="7.9" height="2.9"/>
			</g>
			<g>
				<rect x="265.1" y="198.1" class="st26" width="9.3" height="2.9"/>
			</g>
			<g>
				<rect x="234" y="208.9" class="st27" width="9.3" height="2.9"/>
			</g>
			<g>
				<rect x="235.8" y="252.3" class="st27" width="9.3" height="2.9"/>
			</g>
			<g>
				<rect x="245.5" y="198.1" class="st13" width="16.1" height="2.9"/>
			</g>
		</g>
		<g class="st28">
			<path class="st8" d="M481.5,312.3H364.6c-2.2,0-4-1.8-4-4v-81c0-2.2,1.8-4,4-4h116.9c2.2,0,4,1.8,4,4v81
				C485.5,310.5,483.7,312.3,481.5,312.3z"/>
		</g>
		<g>
			<g>
				<path class="st29" d="M472,275.2h-20.1c-0.9,0-1.5-0.7-1.5-1.5v-3.1c0-0.9,0.7-1.5,1.5-1.5H472c0.9,0,1.5,0.7,1.5,1.5v3.1
					C473.5,274.5,472.9,275.2,472,275.2z"/>
			</g>
		</g>
		<g>
			<g>
				<path class="st29" d="M472,286.8h-20.1c-0.9,0-1.5-0.7-1.5-1.5v-3.1c0-0.9,0.7-1.5,1.5-1.5H472c0.9,0,1.5,0.7,1.5,1.5v3.1
					C473.5,286.1,472.9,286.8,472,286.8z"/>
			</g>
		</g>
		<g>
			<g>
				<path class="st29" d="M472,298.4h-20.1c-0.9,0-1.5-0.7-1.5-1.5v-3.1c0-0.9,0.7-1.5,1.5-1.5H472c0.9,0,1.5,0.7,1.5,1.5v3.1
					C473.5,297.7,472.9,298.4,472,298.4z"/>
			</g>
		</g>
		<g>
			<g>
				<g>
					<path class="st30" d="M439.1,255.2c-5.2-14.4-19-23.3-33.5-22.9c-3.5,0.1-7.1,0.8-10.6,2c-10.6,3.8-18.2,12.2-21.3,22.2
						c-2.2,6.9-2.2,14.5,0.4,21.9c0.3,0.7,0.5,1.4,0.8,2.1c1.4,3.2,3.2,6.1,5.3,8.6c9,10.6,24,15.1,37.9,10.1
						C436.2,292.9,445.5,273.2,439.1,255.2z M415.4,291.2c-10.4,3.7-21.6,0.4-28.4-7.6c-1.6-1.9-3-4.1-4-6.4
						c-0.2-0.5-0.4-1.1-0.6-1.6c-2-5.5-2-11.2-0.3-16.4c2.3-7.5,8-13.8,16-16.6c2.6-0.9,5.3-1.4,7.9-1.5
						c10.9-0.3,21.2,6.3,25.1,17.1C435.8,271.6,428.8,286.4,415.4,291.2z"/>
				</g>
			</g>
			<g>
				<g>
					<path class="st31" d="M382,259.1l-8.2-2.6c3.1-10,10.7-18.4,21.3-22.2c3.5-1.3,7.1-1.9,10.6-2l0.3,8.6
						c-2.6,0.1-5.3,0.6-7.9,1.5C390,245.3,384.3,251.7,382,259.1z"/>
				</g>
			</g>
			<g>
				<g>
					<path class="st32" d="M383,277.2l-7.9,3.4c-0.3-0.7-0.6-1.4-0.8-2.1c-2.6-7.3-2.6-15-0.4-21.9l8.2,2.6
						c-1.6,5.2-1.6,10.9,0.3,16.4C382.5,276.1,382.7,276.6,383,277.2z"/>
				</g>
			</g>
			<g>
				<g>
					<path class="st2" d="M380.4,289.2c-2.2-2.5-4-5.4-5.3-8.6l7.9-3.4c1,2.4,2.4,4.5,4,6.4L380.4,289.2z"/>
				</g>
			</g>
		</g>
		<g>
			<g>
				<g>
					<path class="st17" d="M418.2,287.3c0,0-1.7-2.9,1-10.8c2.6-7.6,11.4-6.9,14.2-2c2.8,4.9,1.9,7.9-2.3,13.3
						C427,293.3,419.9,289.8,418.2,287.3z"/>
				</g>
			</g>
			<g>
				<g>
					<path class="st17" d="M438.8,422.1c0,0,0.4,3.2,0.5,3.7c0.1,0.5,4.9-0.3,4.9-0.3l0.4-3.8C444.5,421.6,439.4,421.6,438.8,422.1z
						"/>
				</g>
			</g>
			<g>
				<g>
					<path class="st33" d="M439.2,425.3c0,0-1.5,1.9-3,2.8c-1.5,0.8-3.8,1.2-4.7,2.1c-0.6,0.6-2.3,3.3,3.8,3.3
						c6.1-0.1,9.1,0.4,9.8-0.7c0.7-1-1-7.7-1-7.7S442.7,425.6,439.2,425.3z"/>
				</g>
			</g>
			<g>
				<g>
					<path class="st17" d="M405.3,422.1c0,0,0.4,3.2,0.5,3.7c0.1,0.5,4.9-0.3,4.9-0.3l0.4-3.8C411.1,421.6,405.9,421.6,405.3,422.1z
						"/>
				</g>
			</g>
			<g>
				<g>
					<path class="st33" d="M405.8,425.3c0,0-1.5,1.9-3,2.8c-1.5,0.8-6.9,1.5-7.8,2.4c-0.6,0.6-1.7,3.2,7,2.9
						c6.1-0.2,9.1,0.4,9.8-0.7c0.7-1-1-7.7-1-7.7S408.8,425.5,405.8,425.3z"/>
				</g>
			</g>
			<g>
				<g>
					<path class="st34" d="M437.1,342c0,0,2.5,7.7,2.1,14.3c-0.3,6.6,1.3,13.9,1.9,20.8c0.7,7.7,3.7,26,3.8,30.1
						c0.1,4.1-0.5,17.3-0.5,17.3l-6,0.1c0,0-5-31.9-6.3-35.2c-1.3-3.3-7.8-26.5-8-29.1C424.1,357.7,437.1,342,437.1,342z"/>
				</g>
			</g>
			<g>
				<g>
					<path class="st34" d="M412.3,341.2c0,0-3.6,20.3-4.1,24.4c-0.4,4.1-0.7,19.6-0.9,22.2c-0.2,2.5-1.4,33.2-2.6,36.9h6.7
						c0,0,6.9-22.3,6.9-32.8c0-10.5,4.5-22.9,7.5-29.9c2.9-7,9.6-7.1,11.5-20C437.1,342,414.7,337.1,412.3,341.2z"/>
				</g>
			</g>
			<g>
				<g>
					<path class="st17" d="M420.6,289.4c0,0,0.8,2.2,0,3.8c-0.8,1.6,9.6,0.6,9.6,0.6s-0.5-3.2,0.9-5.9
						C432.5,285.2,420.6,289.4,420.6,289.4z"/>
				</g>
			</g>
			<g>
				<g>
					<path class="st35" d="M437.6,343.6c0,0-3.7,3.8-25.7-0.6l0.3-1.9l24.9,0.9L437.6,343.6z"/>
				</g>
			</g>
			<g>
				<g>
					<path class="st17" d="M419,293.6c0,0-3.8,0.4-4.9,0.6c-1.1,0.2-8.5-1.3-10-1.5c-1.5-0.2-8-4.6-8.2-5.1c-0.2-0.5-3.9-9.9-4.1-12
						c-0.2-2-3.6-1-3.3,0.4c0.5,2.6,1.3,9,1.6,10.8c0.4,2,1.5,6.5,2.2,7.1c0.6,0.6,6.4,5,12.1,6.9c5.7,1.9,10,4.6,10,4.6h28
						c0,0,10.9-15.6,11.1-17.9c0.2-2.3-7.6-18-9.2-19.9c-1.6-2-3.8,0.6-3.8,0.6s4.7,13.8,5.3,15.7c0.6,2-5.5,10.6-7.1,10.6
						c-1.7,0-6-0.5-7.9-0.6c-1.9-0.1-3.9-0.9-3.9-0.9L419,293.6z"/>
				</g>
			</g>
			<g>
				<g>
					<path class="st36" d="M406.9,304c0,0,3.4,2.3,3.7,6.2c0.3,3.9,1.6,10.1,2.2,12.2c0.6,2.1-0.5,17.5-0.7,18.6
						c-0.2,1.1,21.7,3.7,25,1.1c0,0,0.9-14.3,1.3-18.4c0.4-4.1,2.3-13.9,2.9-15.3c0.6-1.3,8.2-12,8.5-13.4c0,0-3.9-6.3-6.7-6.3
						c0,0-4.5,5.2-5.9,5.5c-1.5,0.2-10.4-1.4-10.4-1.4c0,0-1,1.3-6.2-0.2c0,0-6.2,0.7-7.2,0.8c-1.2,0.2-9.7-1.1-9.7-1.1
						s-3.4,5.7-2.8,8.6L406.9,304z"/>
				</g>
			</g>
			<g>
				<g>
					<path class="st17" d="M392,276.9c0,0-0.8-3.6,0.2-4.7c0.5-0.6,1.8-2.2,1.9-2.4c0.1-0.2,1.5-1,1.5-1.4s-1.3-0.8-2.5,0.2
						c-1.2,1.1-1.9,1.3-2.3,1.2c-0.5-0.1-1.1-4-1.2-4.9c-0.1-1-0.4-3.5-1-3.3c-0.6,0.2-0.6,1.3-0.6,1.3s-0.7-1.9-1.2-1.5
						c-0.5,0.4-0.4,1.3-0.4,1.3s-0.9-1.1-1.1-0.3c-0.2,0.8,0,1.5,0,1.5s-0.9-0.5-1,0.7c-0.1,1.2,0.3,4.8,0.9,6
						c0.6,1.3,3,4.6,3.3,5.9C388.8,277.8,392,276.9,392,276.9z"/>
				</g>
			</g>
			<g>
				<g>
					<path class="st17" d="M441.3,270.5c0,0-2.6-4.4-3.5-4.8c-0.9-0.4-2.1-0.6-3.2-1.4c-1.1-0.8-2.5-1.4-2.5-1.7
						c0.1-0.3,1.4-0.2,2.8,0.4c1.4,0.6,2,0.3,2.1,0c0.1-0.3-0.7-2.5-1.2-3c-0.4-0.5-3.4-3.5-2.9-4c0.5-0.4,2.4,1.2,2.7,1.5
						c0,0-1.5-3.2-0.9-3.4c0.6-0.2,1.7,1,1.7,1s-0.1-2.8,2.8,1.7c0,0-0.6-1.5,0.3-1c0.9,0.5,1.8,3.3,2.1,4.7c0.3,1.4,1.6,5.9,2.7,7
						C445.4,268.7,441.3,270.5,441.3,270.5z"/>
				</g>
			</g>
			<g>
				<g>
					<path class="st37" d="M431.1,287.8c0,0-1.4,0.1-4.3-0.9c-2.9-1-3.1-6.1-3.8-5.5c-1.3,1.2-2.5,0.4-3-0.3c0,0,1.4-1.9,0.8-2.8
						c-0.7-0.9-1.7-1.6-1.7-1.6s2.1-9.9,11.4-5.4C441.4,276.6,431.1,287.8,431.1,287.8z"/>
				</g>
			</g>
			<g>
				<g>
					<path class="st38" d="M420.6,293.1l0.3-1.4c0,0,6-0.1,9.2,0.4l0.3,1.7C430.5,293.8,426.3,295.6,420.6,293.1z"/>
				</g>
			</g>
			<g>
				<g>
					<path class="st17" d="M422.1,280.2c0.5-0.9,2.5-1.5,2.8,1c0.2,2-3.6,4.1-3.6,2.3C421.2,281.7,421.7,280.8,422.1,280.2z"/>
				</g>
			</g>
			<g>
				<g>
					<path class="st39" d="M391.8,276.1c0,0-2.2,0.1-3.2,1c0,0-0.1,0.6,0.2,1.1c0,0,1.9-0.9,3.3-1
						C392.1,277.1,392.1,276.3,391.8,276.1z"/>
				</g>
			</g>
			<g>
				<g>
					<path class="st37" d="M389.3,276.6c-0.2,0.5,0,1,0.5,1.2c0.5,0.2,1,0,1.2-0.5c0.2-0.5,0-1-0.5-1.2
						C390,275.9,389.5,276.2,389.3,276.6z"/>
				</g>
			</g>
		</g>
		<g>
			<g>
				<g>
					<path class="st40" d="M336.4,200.1c0,0,3.1,5.2,4.4,6.1c1.8,1.2,0.7,2.3-0.2,2.3c-0.8,0-5.1,0.3-6.1-0.8
						c-0.9-1.1-1.4-4.3-2.3-5.1c-0.9-0.8-1.8-4.2,0.4-5C334.6,196.9,336.4,200.1,336.4,200.1z"/>
				</g>
			</g>
		</g>
		<g>
			<g>
				<g>
					<path class="st41" d="M335.1,197.8c0,0,3.5,6.1,4.1,7c0.6,0.9-1.1,0.9-2.2,0.5c-1.1-0.4-3.8-4.8-4.2-5.6c-0.5-1-0.1-2-0.1-2
						L335.1,197.8z"/>
				</g>
			</g>
		</g>
		<g>
			<g>
				<g>
					<polygon class="st40" points="331.5,201.1 332.3,207.3 332.7,207.3 332.6,202.8 					"/>
				</g>
			</g>
		</g>
		<g>
			<g>
				<g>
					<path class="st40" d="M305.9,200.1c0,0,3.1,5.2,4.4,6.1c1.8,1.2,0.7,2.3-0.2,2.3c-0.8,0-5.1,0.3-6.1-0.8
						c-0.9-1.1-1.4-4.3-2.3-5.1c-0.9-0.8-1.8-4.3,0.4-5C304.1,197,305.9,200.1,305.9,200.1z"/>
				</g>
			</g>
		</g>
		<g>
			<g>
				<g>
					<path class="st41" d="M304.7,197.8c0,0,3.3,6.1,4,7c0.6,0.9-1.1,0.9-2.2,0.5c-1.1-0.4-3.8-4.8-4.2-5.6c-0.5-1-0.1-2-0.1-2
						L304.7,197.8z"/>
				</g>
			</g>
		</g>
		<g>
			<g>
				<g>
					<polygon class="st40" points="300.9,201.1 301.8,207.3 302.2,207.3 302.1,202.8 					"/>
				</g>
			</g>
		</g>
		<g>
			<g>
				<g>
					<path class="st41" d="M292.2,152.6l27.9,12.7c0,0,3.1,1,3.5,4.5c1.1,10.8,9.2,27.9,9.2,27.9c2.6,1.3,2.4,0.2,2.4,0.2
						c-1.6-5.2-3.6-26.8-4.3-35.5c-0.2-1.8-0.2-3.1-0.3-3.5c0-0.3-0.3-0.6-0.8-1c-3.8-3.1-19.6-9.5-19.6-9.5
						C298.3,147.9,292.2,152.6,292.2,152.6z"/>
				</g>
			</g>
		</g>
		<g>
			<g>
				<g>
					<path class="st41" d="M286.9,158c0.9,7.5,11.6,6.7,11.6,6.7h13c0,0-3.4,7.6-4.7,14c-1.4,6.8-4.7,18.9-4.7,18.9s0.2,0.4,2.6,0.2
						c0,0,10.2-20.4,14.1-25.5c0.8-1.1,3.3-7.1,3.7-10.7c0.1-1.2,0.1-2.1-0.4-2.5c-0.5-0.4-1.5-1.1-2.9-2
						c-4.1-2.6-11.2-6.5-15.1-7.4c-5.3-1.2-13.7-3.4-13.7-3.4S286.1,150.5,286.9,158z"/>
				</g>
			</g>
		</g>
		<g>
			<path class="st42" d="M295.8,100c0,0-2-3.7-1-7.6c1-3.9,4.6-7.9,10-6.1c5.4,1.8,9.7,6,6.5,10.8c-3.2,4.8,2.9,7,1.3,9.3
				c-1.6,2.3-1,4.7-0.3,5.2c0.7,0.5,2.8,2.4,2.6,4.7c-0.2,2.2-10.4-6.6-10.4-6.6S298.9,98.6,295.8,100z"/>
		</g>
		<g>
			<path class="st43" d="M312.1,147.3c0,0-0.8,3.9-21.6-1C290.5,146.3,297.5,144,312.1,147.3z"/>
		</g>
		<g>
			<g>
				<path class="st44" d="M290.3,147.4c-0.3,0.6-0.6,1.2-1,1.8c7.6,0.2,15.2,0.4,22.8,0.7c-1.2-4-0.8-9.5-0.6-13.6
					c0.3-5.1,3.1-8.6,2.8-13.7c1.5,0.2,1.8,0.3,3.3,0.5c-2.3-6.6-3.1-9.8-10.3-12.3c-2.3-0.8-3.9-1-6.4-0.8
					c-8.3,0.7-10.8,0.8-14.9,8.3c6.4,1,5.3,3.3,7.3,9.6c0.9,3.1,1.9,6.5,1.4,9.8C294.2,140.9,290.3,144.5,290.3,147.4z"/>
			</g>
		</g>
		<g>
			<g>
				<path class="st17" d="M303.5,112.3c-3.4-0.6-2.7-2.5-2.7-2.5s0.2-1.1,0.2-2.4c0-0.3,0-0.7,0-1.1c0-0.6,0-1.1-0.1-1.7
					c-0.3-2.3,6.2-0.9,6.2-0.9s-0.4,4.6,0.5,6C308.6,111.1,306.9,113,303.5,112.3z"/>
			</g>
		</g>
		<g>
			<g>
				<path class="st17" d="M297,109.8c0,0,6.8,7.9,9.4,9.7c0,0,2.9-2.6,1.1-9.6C307.5,110,304.2,108.3,297,109.8z"/>
			</g>
		</g>
		<g>
			<path class="st17" d="M297.2,90.8c0,0-3.6,6.9,0,13.3c3.5,6.5,10.5-2.8,10.9-3.9c0.4-1.1,2.8-7.3-1.9-9.2
				C301.5,89.2,298.2,88.9,297.2,90.8z"/>
		</g>
		<g>
			<path class="st42" d="M298.4,93.2c0,0-2.4,3.2-2.7,5.6c0,0-1-4.5,1.8-8.8c2.8-4.3,9.8-0.2,10.7,1.5c0.9,1.7,3.7,3.2-0.9,10.7
				C307.2,102.2,298.9,96.4,298.4,93.2z"/>
		</g>
		<g>
			<path class="st45" d="M304.1,104.8c0,0-0.6,1.3-3,2.6c0-0.3,0-0.7,0-1.1C301.1,106.3,302.7,106.1,304.1,104.8z"/>
		</g>
		<g>
			<path class="st17" d="M268.2,141.2c0,0-1.7,0.8-2.5,0.4c-0.8-0.3-2-0.4-2.4-0.4c-0.5,0-2.2-0.6-2.1,0.1c0,0.6,2.7,1.1,3.2,1.3
				c0.5,0.2-1.6,1.4-1.8,1.9c-0.2,0.5,2.2,4,3.6,3c1.4-1,2.1-2.9,2.4-3.1c0.3-0.1,1-0.7,1-0.7L268.2,141.2z"/>
		</g>
		<g>
			<path class="st17" d="M262.8,144.2c0,0-4,3.3-4,3.7c-0.1,0.4,0.1,0.7,0.5,0.4c0.4-0.3,3.9-3.1,3.9-3.1s-4,4.7-4.1,5
				c-0.1,0.2,0.3,0.6,0.5,0.5c0.2-0.1,4.4-4.6,4.4-4.6s-3.7,4.4-3.7,4.7c0,0.3,0.4,0.6,0.7,0.3c0.3-0.3,4-4.2,4-4.2
				s-2.5,3.4-2.3,3.7c0.1,0.2,0.4,0.6,1-0.3c0.6-0.9,2.3-2.8,2.3-2.8L262.8,144.2z"/>
		</g>
		<g>
			<g>
				<path class="st14" d="M310.2,164.7h-11.7c0,0-10.8,0.9-11.6-6.7c-0.9-7.5,3.5-11.7,3.5-11.7s5.7,1.5,10.6,2.7
					c2.5-0.5,5.5-0.9,9-0.8c0,0,21,6.9,20.4,10.6C330.5,158.8,321.7,154.1,310.2,164.7z"/>
			</g>
		</g>
		<g>
			<polygon class="st46" points="302.6,151.6 324.9,151.3 313.6,157 			"/>
		</g>
		<g>
			<path class="st44" d="M309.5,148.8c0,0-5,1.9-11.1,0.2l-0.3-2.3l12.6,0.7L309.5,148.8z"/>
		</g>
		<g>
			<polygon class="st47" points="313.6,157 302.6,152.7 302.6,151.6 314.5,155.9 			"/>
		</g>
		<g>
			<g>
				<path class="st48" d="M309.5,149.9c-0.1,0.8,0.8,1.4,1.5,1.1l1.3-0.6c0.4-0.2,0.6-0.6,0.5-1c-0.5-3.4-1.7-16.5,0-18.7
					c0.6-0.8,1-1.6,1.2-2.2c1.1,2.9,2.5,6.6,3.1,8.6l10.5,14l3.5,0.9c-4.4-10.6-7.9-16.2-7.9-16.2c-0.7-1.8-2.7-7.4-4.4-12.4
					c-1.1-3.1-2.1-6-2.7-7.6c-0.3-0.8-0.8-1.5-1.5-1.9c-1.6-1-4.3-2.5-6.8-3.7c0,0,0,0,0,0c-0.1,0-0.2-0.1-0.2-0.1c0,0,0,0,0,0
					c0,0,0,0,0,0C312.2,117.1,310.4,137,309.5,149.9C309.5,149.8,309.5,149.8,309.5,149.9z"/>
			</g>
			<g>
				<path class="st48" d="M292.1,110.6c-1.5,0.2-5.2,3.8-7.2,7.5c-2.3,4.2-4.5,8.9-6.3,10.4c-3.2,2.9-12,13-12.4,12.7
					c-0.2-0.1,2.4,3,2.8,3.2c0.2,0.1,14.5-12.4,15.9-14.3c1.3-1.8,4.8-9.3,5.9-9.2c0,0,0,0,0,0c0,0,0,0,0,0c0.1,0.2,1.4,2.9,2.6,7
					c0,0.1,0,0.1,0.1,0.2c0.8,2.8,0.8,5.9,0.3,9.3c-0.3,2.6-2.3,6.8-3.4,8.9c-0.1,0.2-0.1,0.7,0,1.1v0c0.1,0.2,0.2,0.4,0.4,0.4
					l4.2,1.6l1,0.4c0.7,0.3,1.5,0.1,2-0.3c0.5-0.3,0.8-0.8,0.9-1.5c0.9-7.2,2.1-14.6,3.1-17.4c4.2-12.2-1.6-21.3-1.6-21.3
					S293.4,110.1,292.1,110.6z"/>
			</g>
		</g>
		<g>
			<polygon class="st49" points="313.6,157 320.3,138.9 341.6,139.3 335.3,155.9 			"/>
		</g>
		<g>
			<path class="st50" d="M327.1,146.9c-0.7,1.3-0.5,2.7,0.4,3.2c0.9,0.4,2.1-0.2,2.8-1.5c0.7-1.3,0.5-2.7-0.4-3.2
				C329,144.9,327.7,145.6,327.1,146.9z"/>
		</g>
		<g>
			<path class="st42" d="M304.6,97.6c0,0,1.4,2.1,0.1,4c-1.3,1.8,0.3,3.6,0.6,5.6c0.3,1.9-5.3,7.1,0.9,9.7c6.2,2.6,8.1-1.7,6.6-4.1
				c-1.6-2.4-2.7-4.3-2.8-7.6C309.8,101.8,308.7,96.5,304.6,97.6z"/>
		</g>
		<g>
			<polygon class="st51" points="259.9,72.1 286.2,72.1 286.2,91.1 286.2,95.1 282.2,91.1 259.9,91.1 			"/>
		</g>
	</g>
</g>
</svg>
