<?xml version="1.0" encoding="utf-8"?>
<!-- Generator: Adobe Illustrator 23.0.0, SVG Export Plug-In . SVG Version: 6.00 Build 0)  -->
<svg version="1.1" id="Слой_1" xmlns="http://www.w3.org/2000/svg" xmlns:xlink="http://www.w3.org/1999/xlink" x="0px" y="0px"
	 viewBox="0 0 569 420" style="enable-background:new 0 0 569 420;" xml:space="preserve">
<style type="text/css">
	.st0{fill:url(#SVGID_1_);}
	.st1{fill:url(#SVGID_2_);}
	.st2{fill:#539DA5;}
	.st3{fill:url(#SVGID_3_);}
	.st4{fill:url(#SVGID_4_);}
	.st5{fill:url(#SVGID_5_);}
	.st6{fill:url(#SVGID_6_);}
	.st7{fill:url(#SVGID_7_);}
	.st8{fill:#FFFFFF;}
	.st9{fill:url(#SVGID_8_);}
	.st10{fill:url(#SVGID_9_);}
	.st11{fill:url(#SVGID_10_);}
	.st12{fill:url(#SVGID_11_);}
	.st13{fill:#1487E3;}
	.st14{fill:#FF7E55;}
	.st15{fill:#424773;}
	.st16{fill:#292C47;}
	.st17{fill:#EEA886;}
	.st18{fill:#754836;}
	.st19{fill:#E2D2CA;}
	.st20{fill:#FFCB55;}
	.st21{fill:#6AAFE8;}
	.st22{fill:url(#SVGID_12_);}
	.st23{fill:url(#SVGID_13_);}
	.st24{fill:#0B949B;}
	.st25{fill:#E0E0E0;}
	.st26{fill:#78C2FF;}
	.st27{fill:#FF8761;}
	.st28{opacity:0.76;}
	.st29{fill:#83C1C9;}
	.st30{fill:#B8E3EC;}
	.st31{fill:#1F4D57;}
	.st32{fill:#24778A;}
	.st33{fill:#414773;}
	.st34{fill:#2D314F;}
	.st35{fill:#2B3B57;}
	.st36{fill:#FFC655;}
	.st37{fill:#353A3D;}
	.st38{fill:#D4D8E8;}
	.st39{fill:#E55353;}
	.st40{fill:#6069A8;}
	.st41{fill:#202338;}
	.st42{fill:#464240;}
	.st43{fill:#EB4747;}
	.st44{fill:#325BB3;}
	.st45{fill:#A77860;}
	.st46{fill:#5E5853;}
	.st47{fill:#91887F;}
	.st48{fill:#EDDAD3;}
	.st49{fill:#6E6760;}
	.st50{fill:#807066;}
	.st51{fill:#91D0D8;}
</style>
<g>
	<g>
		<g>
			
				<linearGradient id="SVGID_1_" gradientUnits="userSpaceOnUse" x1="132.0152" y1="197.45" x2="432.4441" y2="197.45" gradientTransform="matrix(1 0 0 -1 0 422)">
				<stop  offset="0" style="stop-color:#81D3B9"/>
				<stop  offset="1" style="stop-color:#18A3B2"/>
			</linearGradient>
			<path class="st0" d="M140.2,324.7h270.4V133.9c0-5.2-4.2-9.5-9.5-9.5H149.6c-5.2,0-9.5,4.2-9.5,9.5L140.2,324.7L140.2,324.7z"/>
		</g>
		<g>
			
				<linearGradient id="SVGID_2_" gradientUnits="userSpaceOnUse" x1="149.7" y1="210.75" x2="400.6" y2="210.75" gradientTransform="matrix(1 0 0 -1 0 422)">
				<stop  offset="0" style="stop-color:#404B61"/>
				<stop  offset="0.486" style="stop-color:#3C4860"/>
				<stop  offset="1" style="stop-color:#2F3E5C"/>
			</linearGradient>
			<polygon class="st1" points="149.7,288.3 400.6,288.3 400.6,134.2 149.7,134.2 			"/>
		</g>
		<g>
			<path class="st2" d="M123.4,134.9H59.6l0.1-0.6c1-5.3,5.7-9.1,11-9.1c0.8,0,1.5,0.1,2.3,0.2c3.3-6.3,9.8-10.2,16.9-10.2
				c6.1,0,11.9,2.9,15.5,7.9c1.3-0.4,2.7-0.6,4.1-0.6c6.9,0,12.8,5,13.8,11.8L123.4,134.9z M60.8,134h61.5
				c-1.2-6-6.6-10.5-12.8-10.5c-1.4,0-2.8,0.2-4.1,0.7l-0.3,0.1l-0.2-0.3c-3.4-4.8-9-7.7-14.9-7.7c-6.9,0-13.2,3.8-16.3,10l-0.2,0.3
				l-0.4-0.1c-0.8-0.2-1.6-0.3-2.4-0.3C66,126.3,61.9,129.5,60.8,134z"/>
		</g>
		<g>
			<path class="st2" d="M357.7,56.4l-0.2-0.1c-22.6-11.6-19.6-33.9-19.6-34.2l0.1-0.4h0.4c14.4,0,18.9-4.6,19-4.7l0.4-0.4l0.3,0.4
				c0,0,4.6,4.7,19,4.7h0.4l0.1,0.4c0,0.2,3.1,22.6-19.6,34.2L357.7,56.4z M338.8,22.7c-0.3,3-1.2,22.2,18.9,32.7
				c20.1-10.4,19.2-29.6,18.9-32.7c-12.5-0.1-17.6-3.6-18.9-4.7C356.4,19.1,351.3,22.6,338.8,22.7z"/>
		</g>
		<g>
			<g>
				
					<linearGradient id="SVGID_3_" gradientUnits="userSpaceOnUse" x1="480.7476" y1="118.15" x2="545.2999" y2="118.15" gradientTransform="matrix(1 0 0 -1 0 422)">
					<stop  offset="0" style="stop-color:#3076A1"/>
					<stop  offset="1" style="stop-color:#639C38"/>
				</linearGradient>
				<path class="st3" d="M481.6,353.9c-3.4-15.6,4-19.5,11.1-23.2c5.8-3.1,11.3-6,11-15.2c-0.4-12.2,7.9-16.6,15.2-20.5
					c5.4-2.9,10.6-5.7,11.3-11.2c1.8-13.3,14.1-29.9,14.3-30l0.8,0.6c-0.1,0.2-12.3,16.5-14.1,29.6c-0.8,6-6.2,8.9-11.8,11.9
					c-7.4,4-15.1,8.1-14.7,19.6c0.3,9.8-5.7,13-11.5,16c-7.1,3.8-13.8,7.3-10.6,22.2L481.6,353.9z"/>
			</g>
			<g>
				
					<linearGradient id="SVGID_4_" gradientUnits="userSpaceOnUse" x1="475.1" y1="127.4505" x2="559.3325" y2="127.4505" gradientTransform="matrix(1 0 0 -1 0 422)">
					<stop  offset="0" style="stop-color:#3076A1"/>
					<stop  offset="1" style="stop-color:#639C38"/>
				</linearGradient>
				<path class="st4" d="M485.3,350c-0.2,0-0.3,0-0.5,0c-3.1-0.2-6.1-2.6-9.5-7.4l-0.2-0.3l0.2-0.3c0.1-0.1,5.5-6.7,3.5-19.2
					c-0.5-2.9-1.1-5.1-1.6-6.9c-0.7-2.6-1.2-4.3-0.4-5.7c1-1.7,3.8-2.7,11.6-4.5c8.3-2,11.1-11.4,13.6-19.7
					c2.3-7.8,4.5-15.2,11-14.9c6,0.2,15-9.1,23-17.3c7.4-7.6,14.4-14.8,18.9-14.7c1.1,0,2,0.5,2.7,1.3c4,4.7,0.3,12-3.3,18.9
					c-3.1,5.9-6,11.6-4.1,15.3c2.3,4.7,2.7,8.9,0.9,12.2c-2,3.9-6.8,6.4-14.1,7.5c-6.7,1-7.4,8.3-8.2,16c-0.9,9-1.9,19.3-13.2,20.3
					c-8.4,0.7-14,6.6-19,11.8C492.8,346.4,489.3,350,485.3,350z M476.3,342.3c3.1,4.3,5.9,6.5,8.6,6.7c3.7,0.3,7.2-3.3,11.1-7.4
					c5.1-5.3,10.9-11.3,19.6-12.1c10.5-0.9,11.4-10.3,12.3-19.4c0.8-8.1,1.6-15.8,9-16.9c7-1,11.5-3.4,13.4-7c1.6-3,1.2-6.9-1-11.3
					c-2.1-4.1,0.9-10,4.1-16.1c3.5-6.7,7-13.6,3.4-17.9c-0.5-0.6-1.2-1-2-1c-4-0.1-10.9,6.9-18.2,14.4c-8.4,8.7-17.1,17.6-23.5,17.6
					c-0.1,0-0.2,0-0.2,0c-5.8-0.2-7.7,6.5-10,14.3c-2.5,8.5-5.4,18.2-14.3,20.3c-7.1,1.7-10.2,2.6-11,4.1c-0.6,1-0.2,2.5,0.5,5
					c0.5,1.8,1.1,4.1,1.6,7C481.7,334.3,477.4,340.9,476.3,342.3z"/>
			</g>
			<g>
				
					<linearGradient id="SVGID_5_" gradientUnits="userSpaceOnUse" x1="455.7692" y1="140.2675" x2="510.1218" y2="140.2675" gradientTransform="matrix(1 0 0 -1 0 422)">
					<stop  offset="0" style="stop-color:#3076A1"/>
					<stop  offset="1" style="stop-color:#639C38"/>
				</linearGradient>
				<path class="st5" d="M485.7,346.7c-0.1,0-0.2,0-0.3,0c-5.1-0.5-8.9-11.5-12.7-22.2c-1.8-5.1-3.5-9.9-5.1-12.9
					c-1.3-2.4-2.9-4.9-4.4-7.3c-4.2-6.4-8.5-13-7.1-18.9c0.7-3.1,2.9-5.6,6.7-7.8c8.3-4.8,7-7.5,4.2-13.4c-2-4.3-4.9-10.3-5-19.6
					c0-4-0.1-7.5-0.2-10.5c-0.3-9.8-0.4-14.8,1.7-16.6c0.9-0.7,2.1-0.9,3.8-0.6c3,0.6,4.3,3,5.6,5.5c1.7,3.3,3.7,6.9,9.7,8.2
					c5.6,1.2,11,2.8,12.4,6.5c1,2.6,0.1,6-3,10.5c-0.7,1.1-1,2-0.8,2.8c0.5,1.8,3.3,3.1,6.5,4.6c4.6,2.1,10.3,4.8,11.9,10.3
					c1.3,4.4-0.2,10-4.6,17c-10.4,16.5-10,27.6-9.6,37.5c0.3,7.3,0.5,14.2-3.9,21.9C489.6,345.1,487.7,346.7,485.7,346.7z
					 M465.8,217.7c-0.7,0-1.3,0.2-1.7,0.5c-1.8,1.5-1.6,6.6-1.4,15.8c0.1,3.1,0.2,6.5,0.2,10.6c0.1,9.1,2.9,15,4.9,19.2
					c2.8,5.9,4.4,9.4-4.6,14.6c-3.5,2-5.6,4.4-6.3,7.2c-1.3,5.4,2.9,11.9,6.9,18.1c1.6,2.4,3.2,4.9,4.5,7.4c1.7,3.1,3.4,8,5.2,13.1
					c3.5,9.9,7.4,21.2,11.9,21.6c1.7,0.2,3.5-1.4,5.3-4.6c4.3-7.5,4-13.9,3.7-21.4c-0.4-10-0.8-21.3,9.8-38c4.2-6.7,5.7-12,4.5-16.2
					c-1.5-5.1-6.8-7.6-11.4-9.7c-3.4-1.6-6.4-3-7-5.2c-0.3-1.1,0-2.3,0.9-3.6c2.9-4.2,3.8-7.3,2.9-9.6c-1.3-3.3-6.7-4.8-11.8-5.9
					c-6.4-1.3-8.6-5.4-10.3-8.7c-1.3-2.4-2.4-4.6-5-5C466.7,217.8,466.2,217.7,465.8,217.7z"/>
			</g>
			<g>
				
					<linearGradient id="SVGID_6_" gradientUnits="userSpaceOnUse" x1="470.8763" y1="128.55" x2="487.359" y2="128.55" gradientTransform="matrix(1 0 0 -1 0 422)">
					<stop  offset="0" style="stop-color:#3076A1"/>
					<stop  offset="1" style="stop-color:#639C38"/>
				</linearGradient>
				<path class="st6" d="M485.8,352.6l-0.9-0.3c5.1-16.1-4.1-52.2-6.9-61c-1.4-4.3-0.1-10.8,1.1-17.1c1.6-8.1,3.2-16.5-0.9-19.7
					c-7.7-5.9-7.3-19.6-7.3-20.2h1c0,0.1-0.4,13.8,6.9,19.4c4.6,3.5,2.9,12.2,1.3,20.6c-1.2,6.2-2.4,12.6-1.1,16.7
					C482.3,301.9,490.9,336.6,485.8,352.6z"/>
			</g>
			
				<linearGradient id="SVGID_7_" gradientUnits="userSpaceOnUse" x1="433.5784" y1="125.2025" x2="486.8084" y2="125.2025" gradientTransform="matrix(1 0 0 -1 0 422)">
				<stop  offset="0" style="stop-color:#3076A1"/>
				<stop  offset="1" style="stop-color:#639C38"/>
			</linearGradient>
			<path class="st7" d="M447.3,248.1c-2.1-5.4-10.4-4.6-9.6,3s6.1,15.7-2,28.7c-8.1,12.9,10.4,15.5,17,23.6s8.9,19.3,14.5,26.4
				s9.4,24.1,13.9,17.8c4.6-6.3,0.3-14.6,0.8-26s10.7-18.6,0.5-26s-20.4-9.6-17-26.2C466.7,262,453.9,264.8,447.3,248.1z"/>
			<g>
				<path class="st8" d="M488.4,349c-0.1-0.3-5.7-33.8-18.3-42.9c-12.9-9.3-15.2-18-19.7-38.3l0.9-0.2c4.4,20.1,6.7,28.6,19.3,37.8
					c12.9,9.4,18.5,42.2,18.7,43.5L488.4,349z"/>
			</g>
			
				<linearGradient id="SVGID_8_" gradientUnits="userSpaceOnUse" x1="469.1564" y1="4.7167" x2="513.9172" y2="178.7868" gradientTransform="matrix(1 0 0 -1 0 422)">
				<stop  offset="0" style="stop-color:#3076A1"/>
				<stop  offset="1" style="stop-color:#639C38"/>
			</linearGradient>
			<path class="st9" d="M477,347.8c0,0,3.8-9.3-3.1-22.5c-6.8-13.2-12.4-11.2,4.1-21.3c16.5-10.1,0.1-42.1,14.1-46.2
				s26.2-55.8,36.8-49.2c10.7,6.6-3.6,32,4.1,39.6c7.6,7.6,8.6,17.3-7.1,25.1c-15.7,7.8,11.2,37.8-10.1,46.9
				C494.5,329.4,500.6,365.2,477,347.8z"/>
			<g>
				<path class="st8" d="M483.5,357.6c0-0.1-2.3-12,4.9-27.4c7.4-15.6,10.9-32.7,9.4-45.7c-0.8-7,3.7-9.8,8.1-12.5
					c4.3-2.6,8.7-5.3,8.5-12.3c-0.2-6.3,2.4-21,2.5-21.6l0.9,0.2c0,0.2-2.7,15.2-2.5,21.4c0.3,7.5-4.4,10.4-8.9,13.1
					c-4.3,2.6-8.4,5.1-7.6,11.5c1.5,13.2-2.1,30.5-9.5,46.3c-7.1,15-4.9,26.6-4.9,26.8L483.5,357.6z"/>
			</g>
			<path class="st8" d="M500.7,292c4.8-4.4,11.1-5.1,9.8,1.5s-5.8,8.5-3.6,12.6c2.3,4.1,6,8.3-0.4,13.4s-10,5.7-11.9,15.3
				c-1.9,9.6-1.5,16.2-9.8,16.6s-5.1-11.7-2.4-17.1c0,0,4-6.2,1.3-14.4c-2.6-8.2-7.7-12.6,3-15.4C497.5,301.7,497.5,295,500.7,292z"
				/>
			<g>
				
					<linearGradient id="SVGID_9_" gradientUnits="userSpaceOnUse" x1="485.4789" y1="95" x2="505.1468" y2="95" gradientTransform="matrix(1 0 0 -1 0 422)">
					<stop  offset="0" style="stop-color:#3076A1"/>
					<stop  offset="1" style="stop-color:#639C38"/>
				</linearGradient>
				<path class="st10" d="M485.5,357.5c0-1.2-0.6-28.9,4.6-33.5c5.3-4.8,6.3-13.2,6.4-17.8c0.2-6,7.9-9.5,8.2-9.7l0.4,0.9
					c-0.1,0-7.5,3.5-7.7,8.8c-0.2,5.8-1.5,13.7-6.8,18.4c-4.9,4.4-4.3,32.5-4.3,32.8L485.5,357.5z"/>
			</g>
			
				<linearGradient id="SVGID_10_" gradientUnits="userSpaceOnUse" x1="468.6" y1="59.5" x2="504.9613" y2="59.5" gradientTransform="matrix(1 0 0 -1 0 422)">
				<stop  offset="0" style="stop-color:#FF9340"/>
				<stop  offset="1" style="stop-color:#FFCE45"/>
			</linearGradient>
			<polygon class="st11" points="504.9,346.2 496.4,378.8 477.2,378.8 468.6,346.2 			"/>
			
				<linearGradient id="SVGID_11_" gradientUnits="userSpaceOnUse" x1="468.5821" y1="59.5" x2="504.9434" y2="59.5" gradientTransform="matrix(1 0 0 -1 0 422)">
				<stop  offset="0" style="stop-color:#C97332"/>
				<stop  offset="1" style="stop-color:#FFCE45"/>
			</linearGradient>
			<path class="st12" d="M504.9,346.2c0,0-18.9,3.5-18.9,32.6h-8.9l-8.6-32.6H504.9z"/>
		</g>
		<g>
			<rect x="141.4" y="261.1" class="st13" width="25.3" height="2.9"/>
		</g>
		<g>
			<polygon class="st2" points="136.1,182.2 95.8,182.2 95.8,130.6 96.7,130.6 96.7,181.2 136.1,181.2 			"/>
		</g>
		<g>
			<polygon class="st2" points="306.8,148.2 305.9,148.2 305.9,95 357.2,95 357.2,50.2 358.2,50.2 358.2,95.9 306.8,95.9 			"/>
		</g>
		<g>
			<polygon class="st2" points="472.7,207.4 419.3,207.4 419.3,206.5 471.7,206.5 471.7,175.5 472.7,175.5 			"/>
		</g>
		<g>
			<path class="st14" d="M73.4,250.5c0,0-1.1,16,2,18c2,1.2,9.8,5.3,9.6,6c-0.2,0.8-4.4,6.8-4.4,6.8s-15-9.9-15.5-13
				c-0.5-3,0.7-23.5,2.8-24.4c1.5-0.7,2.4-0.1,4.3,1.3C74.9,247.2,73.4,250.5,73.4,250.5z"/>
		</g>
		<g>
			<g>
				<g>
					<path class="st15" d="M71.6,367.3c0,0-0.5,3.2-0.5,3.7c-0.1,0.5-5.2-0.3-5.2-0.3l-0.4-3.9C65.5,366.9,71,366.8,71.6,367.3z"/>
				</g>
			</g>
		</g>
		<g>
			<g>
				<g>
					<path class="st16" d="M71.2,370.6c0,0,1.6,2,3.2,2.8c1.6,0.9,4.1,1.2,5,2.1c0.7,0.6,2.5,3.4-4.1,3.3c-6.5-0.1-9.7,0.4-10.4-0.7
						c-0.7-1.1,1-7.8,1-7.8S67.4,370.9,71.2,370.6z"/>
				</g>
			</g>
		</g>
		<g>
			<g>
				<g>
					<path class="st15" d="M97.4,367.3c0,0-0.5,3.2-0.5,3.7c-0.1,0.5-5.2-0.3-5.2-0.3l-0.4-3.9C91.2,366.9,96.7,366.8,97.4,367.3z"
						/>
				</g>
			</g>
		</g>
		<g>
			<g>
				<g>
					<path class="st16" d="M96.9,370.6c0,0,1.6,2,3.2,2.8c1.6,0.9,7.4,1.6,8.3,2.4c0.7,0.6,1.8,3.2-7.4,3c-6.5-0.2-9.7,0.4-10.4-0.7
						s1-7.8,1-7.8S93.1,371,96.9,370.6z"/>
				</g>
			</g>
		</g>
		<g>
			<g>
				<g>
					<path class="st16" d="M73.5,283.9c0,0-4.8,7.7-4.5,14.6c0.4,6.9-0.4,14.4-1.2,21.6c-0.8,8.1-3,24.9-3.1,29.2
						c-0.1,4.3,0.2,20.6,0.2,20.6l8.4-0.1c0,0,3-32.9,4.4-36.3s7.4-28.1,7.6-30.8C85.5,300,73.5,283.9,73.5,283.9z"/>
				</g>
			</g>
		</g>
		<g>
			<g>
				<g>
					<path class="st16" d="M98.9,284.9c0,0,1.9,18.9,2.4,23.1s0.2,22.7,0.4,25.3c0.2,2.7-1.6,30.7-2.1,36.1l-9.2-0.1
						c0,0-0.6-22.7-0.6-33.8c0-11-2.8-23.9-6.1-31.2c-3.2-7.3-10.7-7.5-12.7-21C71,283.5,96.2,280.6,98.9,284.9z"/>
				</g>
			</g>
		</g>
		<g>
			<g>
				<g>
					<path class="st17" d="M78.6,219.1c0,0,5.8-3.8,9.8,0.3c4,4.1,6,13.8,3.1,15.7c-2.9,1.9-7.8,2.4-10.2-0.2
						c-2.3-2.6-4.8-6.6-5.4-9.5S77.1,220.3,78.6,219.1z"/>
				</g>
			</g>
		</g>
		<g>
			<g>
				<g>
					<path class="st17" d="M89.6,235.8c0,0-0.1,4,0.4,4.9c0.4,0.9-8.4,0.9-8.4,0.9s-0.7-4.7-2.1-8.7
						C78.1,228.9,89.6,235.8,89.6,235.8z"/>
				</g>
			</g>
		</g>
		<g>
			<g>
				<g>
					<path class="st18" d="M79.7,232.8c0,0,0.8,0.8,3.2-0.1c2.3-1,4.5-4.9,5.5-5.5c0.9-0.6,0.8-1.2,0.8-1.2l0.9,0.8l1.1-0.2
						c0,0-1.7-2.7-0.5-4.2s-3.7-9-10.9-4.4c0,0-5.6,3.1-4.6,6.4C76.1,227.8,77.9,231.5,79.7,232.8z"/>
				</g>
			</g>
		</g>
		<g>
			<g>
				<g>
					<path class="st19" d="M90.5,240.6c0,0,0-1.6-0.8-1.8c-0.7-0.2-8.2-0.9-9.2-0.5v1.9C80.5,240.2,82.3,241.3,90.5,240.6z"/>
				</g>
			</g>
		</g>
		<g>
			<g>
				<g>
					<path class="st17" d="M88.6,224.9c-0.3-0.5-2.1-1.8-2.3,0c-0.1,1.9,1.8,3.9,2.5,3.5C89.7,228,89.3,226.2,88.6,224.9z"/>
				</g>
			</g>
		</g>
		<g>
			<g>
				<g>
					<path class="st18" d="M76.9,220.1c0,0-8.2,2.2,2.4,12.4L76.9,220.1z"/>
				</g>
			</g>
		</g>
		<g>
			<g>
				<path class="st17" d="M150.5,263.9l-8.4-0.1c0.7-0.4,1.9-1.2,1.6-1.5c-0.4-0.5-2.7,0.6-3.7,0.7c-0.9,0.1-2.4,0-3.5,0.4l-2.7,1.1
					l2.4,2.2c0,0,4.4,0.6,5.7,0.7c2.1,0.1,8.5-2.3,8.6-2.7C150.8,264.1,150.5,263.9,150.5,263.9z"/>
			</g>
		</g>
		<g>
			<g>
				<g>
					<path class="st14" d="M101.4,242.9c-5.3-0.9-11-2.3-11-2.3l-9.9-0.4c0,0-9.1,2-12.7,3.6c-0.3,0.2-0.3,8.1-1.3,10.2l3,6.3
						c0,0,1.7,12.5,2.1,18c0.2,2.5-3.5,23.8-3.5,23.8s4,1.2,10.8,1.9c6.8,0.7,23.7-0.3,23.8-1.1c0.1-0.8-3.3-29.8-3.4-31.3
						c-0.2-2.3,0.7-13,0.7-13c1.3,1.7,8.7,8.2,12.3,10.2c2.6,1.5,8.9,0.6,10.7,0.4c4-0.4,15.1-1.2,15.3-1.6c0.2-0.2-0.6-4.3-1.1-4.4
						c-0.4-0.1-14.7-0.8-18.3-0.7c-1.5,0.1-6.2-5.2-6.2-5.2S104.4,244.2,101.4,242.9z"/>
				</g>
			</g>
		</g>
		<g>
			<polygon class="st20" points="40.3,202.7 66.6,202.7 66.6,221.7 66.6,225.7 62.5,221.7 40.3,221.7 			"/>
		</g>
		<g>
			<g>
				<g>
					<path class="st2" d="M463.5,142.1H438v-25.5h25.5V142.1z M438.8,141.2h23.8v-23.8h-23.8V141.2z"/>
				</g>
				<g>
					<path class="st2" d="M527.1,125.9h-58.4v-6.2h58.4V125.9z M469.5,125h56.7v-4.5h-56.7V125z"/>
				</g>
				<g>
					<path class="st2" d="M527.1,154.9H438v-6.2h89.1V154.9z M438.8,154.1h87.4v-4.5h-87.4L438.8,154.1L438.8,154.1z"/>
				</g>
				<g>
					<path class="st2" d="M494.7,166.9H438v-6.2h56.7V166.9z M438.8,166h55v-4.5h-55V166z"/>
				</g>
				<g>
					<path class="st2" d="M508.2,137.8h-39.6v-6.2h39.6V137.8z M469.5,136.9h37.9v-4.5h-37.9V136.9z"/>
				</g>
			</g>
			<g>
				<path class="st2" d="M537.2,180.5H427.8V103h109.4V180.5z M428.7,179.6h107.7v-75.8H428.7V179.6z"/>
			</g>
		</g>
		<g>
			<polygon class="st2" points="389.3,68.2 381.1,68.2 381.1,67.3 388.3,67.3 388.3,60 389.3,60 			"/>
		</g>
		<g>
			<polygon class="st21" points="334.2,68.2 326,68.2 326,60 327,60 327,67.3 334.2,67.3 			"/>
		</g>
		<g>
			<polygon class="st2" points="327,13.2 326.1,13.2 326.1,5 334.2,5 334.2,6 327,6 			"/>
		</g>
		<g>
			<polygon class="st2" points="389.3,13.2 388.3,13.2 388.3,6 381.1,6 381.1,5 389.3,5 			"/>
		</g>
		<g>
			<rect x="388.3" y="25.4" class="st2" width="1" height="22.4"/>
		</g>
		<g>
			<rect x="326" y="25.4" class="st2" width="1" height="22.4"/>
		</g>
		<g>
			<path class="st2" d="M96.3,131.1c-1.9,0-3.5-1.6-3.5-3.5s1.6-3.5,3.5-3.5s3.5,1.6,3.5,3.5S98.2,131.1,96.3,131.1z M96.3,125
				c-1.4,0-2.5,1.1-2.5,2.5s1.1,2.5,2.5,2.5s2.5-1.1,2.5-2.5S97.7,125,96.3,125z"/>
		</g>
		<g>
			<path class="st2" d="M357.7,50.7c-1.9,0-3.5-1.6-3.5-3.5s1.6-3.5,3.5-3.5s3.5,1.6,3.5,3.5C361.2,49.2,359.6,50.7,357.7,50.7z
				 M357.7,44.7c-1.4,0-2.5,1.1-2.5,2.5s1.1,2.5,2.5,2.5s2.5-1.1,2.5-2.5C360.3,45.8,359.1,44.7,357.7,44.7z"/>
		</g>
		<g>
			<path class="st2" d="M472.2,176.1c-1.9,0-3.5-1.6-3.5-3.5s1.6-3.5,3.5-3.5s3.5,1.6,3.5,3.5S474.1,176.1,472.2,176.1z M472.2,170
				c-1.4,0-2.5,1.1-2.5,2.5s1.1,2.5,2.5,2.5s2.5-1.1,2.5-2.5C474.7,171.2,473.6,170,472.2,170z"/>
		</g>
		<g>
			<path class="st2" d="M119.5,33.8h-24v-24h24V33.8z M96.4,32.8h22.1V10.7H96.4V32.8z"/>
		</g>
		<g>
			<rect x="107" y="16.3" class="st2" width="1" height="11.2"/>
		</g>
		<g>
			<rect x="101.9" y="21.4" class="st2" width="11.2" height="1"/>
		</g>
		<g>
			<path class="st2" d="M485.9,62.8h-34.4V38.3h34.4V62.8z M452.5,61.8H485V39.2h-32.5V61.8z"/>
		</g>
		<g>
			<polygon class="st2" points="468.7,53.1 451.7,39.1 452.3,38.4 468.7,51.9 485.1,38.4 485.7,39.1 			"/>
		</g>
		<g>
			
				<rect x="478.8" y="46.8" transform="matrix(0.7255 -0.6882 0.6882 0.7255 93.17 345.1637)" class="st2" width="1" height="17.9"/>
		</g>
		<g>
			
				<rect x="449.2" y="55.3" transform="matrix(0.6877 -0.726 0.726 0.6877 102.5526 350.0587)" class="st2" width="17.9" height="1"/>
		</g>
		<g>
			<path class="st2" d="M179.5,87.4l-0.4-0.9c-0.3,0-0.6-0.1-0.9-0.2l-0.7,0.7l-2.1-1.5l0.4-0.9c-0.2-0.3-0.4-0.5-0.5-0.8h-1
				l-0.4-2.6l0.9-0.4c0-0.3,0.1-0.6,0.2-0.9l-0.7-0.7l1.5-2.1l0.9,0.4c0.3-0.2,0.5-0.4,0.8-0.5v-1l2.6-0.4l0.4,0.9
				c0.3,0,0.6,0.1,0.9,0.2l0.7-0.7l2.1,1.5l-0.4,0.9c0.2,0.3,0.4,0.5,0.5,0.8h1l0.4,2.6l-0.9,0.4c0,0.3-0.1,0.6-0.2,0.9l0.7,0.7
				l-1.5,2.1l-0.9-0.4c-0.3,0.2-0.5,0.4-0.8,0.5v1L179.5,87.4z M178,85.5l0.2,0.1c0.4,0.1,0.8,0.2,1.2,0.3h0.2l0.3,0.8l1.4-0.2v-0.9
				l0.2-0.1c0.4-0.2,0.7-0.4,1-0.6l0.2-0.1l0.8,0.3l0.8-1.2l-0.6-0.6l0.1-0.2c0.1-0.4,0.2-0.8,0.3-1.2v-0.2l0.8-0.3l-0.2-1.4h-0.9
				l-0.1-0.2c-0.2-0.4-0.4-0.7-0.6-1l-0.1-0.2l0.3-0.8l-1.2-0.8l-0.6,0.6l-0.2-0.1c-0.4-0.1-0.8-0.2-1.2-0.3h-0.2l-0.3-0.8l-1.4,0.2
				v0.9l-0.2,0.1c-0.4,0.2-0.7,0.4-1,0.6l-0.2,0.1L176,78l-0.8,1.2l0.6,0.6l-0.1,0.2c-0.1,0.4-0.2,0.8-0.3,1.2v0.2l-0.8,0.3l0.2,1.4
				h0.9l0.1,0.2c0.2,0.4,0.4,0.7,0.6,1l0.1,0.2l-0.3,0.8l1.2,0.8L178,85.5z M179.8,84.3c-0.6,0-1.1-0.2-1.6-0.5
				c-1.3-0.9-1.6-2.7-0.7-3.9c0.9-1.3,2.7-1.6,3.9-0.7c0.6,0.4,1,1.1,1.1,1.8c0.1,0.7,0,1.5-0.5,2.1c-0.4,0.6-1.1,1-1.8,1.1
				C180.1,84.3,179.9,84.3,179.8,84.3z M179.8,79.3c-0.7,0-1.3,0.3-1.7,0.9c-0.3,0.5-0.5,1-0.4,1.6s0.4,1,0.9,1.4l0,0
				c0.5,0.3,1,0.5,1.6,0.4s1-0.4,1.4-0.9c0.3-0.5,0.5-1,0.4-1.6s-0.4-1-0.9-1.4C180.6,79.5,180.2,79.3,179.8,79.3z"/>
		</g>
		<g>
			<path class="st2" d="M159.6,90.4l-0.8-2.1c-0.9-0.1-1.7-0.3-2.5-0.6l-1.6,1.5l-4.4-3.1l0.9-2c-0.5-0.7-1-1.4-1.4-2.2l-2.2-0.1
				l-0.9-5.4l2.1-0.8c0.1-0.9,0.3-1.7,0.6-2.5l-1.5-1.6l3.1-4.4l2,0.9c0.7-0.5,1.4-1,2.2-1.4l0.1-2.2l5.3-0.9l0.8,2.1
				c0.9,0.1,1.7,0.3,2.5,0.6l1.6-1.5l4.4,3.1l-0.9,2c0.5,0.7,1,1.4,1.4,2.2l2.2,0.1l0.9,5.4l-2.1,0.8c-0.1,0.9-0.3,1.7-0.6,2.5
				l1.5,1.6l-3.1,4.4l-2-0.9c-0.7,0.5-1.4,1-2.2,1.4l-0.1,2.2L159.6,90.4z M156.1,86.7l0.3,0.1c0.9,0.3,1.9,0.6,2.8,0.6h0.3l0.7,1.9
				l3.8-0.6l0.1-2l0.3-0.1c0.9-0.4,1.7-0.9,2.5-1.5l0.2-0.2l1.9,0.8l2.2-3.1l-1.4-1.5l0.1-0.3c0.3-0.9,0.6-1.9,0.6-2.8v-0.3l1.9-0.7
				l-0.6-3.8l-2-0.1l-0.1-0.3c-0.4-0.9-0.9-1.7-1.5-2.5l-0.2-0.2l0.8-1.9l-3.1-2.2l-1.5,1.4l-0.3-0.1c-0.9-0.3-1.9-0.6-2.8-0.6h-0.3
				l-0.7-1.9l-3.8,0.6l-0.1,2l-0.3,0.1c-0.9,0.4-1.7,0.9-2.5,1.5l-0.2,0.2l-1.9-0.8l-2.2,3.1l1.4,1.5l-0.1,0.3
				c-0.3,0.9-0.6,1.9-0.6,2.8v0.3l-1.9,0.7l0.6,3.8l2,0.1l0.1,0.3c0.4,0.9,0.9,1.7,1.5,2.5l0.2,0.2l-0.8,1.9l3.1,2.2L156.1,86.7z
				 M160.1,83.2c-1.2,0-2.5-0.4-3.6-1.1c-2.8-2-3.4-5.8-1.4-8.6c2-2.8,5.8-3.4,8.6-1.4s3.4,5.8,1.5,8.6
				C163.9,82.3,162,83.2,160.1,83.2z M160.1,71.8c-1.6,0-3.2,0.8-4.3,2.2c-0.8,1.1-1.1,2.5-0.9,3.9c0.2,1.4,1,2.6,2.1,3.4
				c2.3,1.7,5.6,1.1,7.3-1.2c0.8-1.1,1.1-2.5,0.9-3.9c-0.2-1.4-1-2.6-2.1-3.4C162.2,72.1,161.2,71.8,160.1,71.8z"/>
		</g>
		<g>
			<g>
				<g>
					<path class="st2" d="M34.8,95.4c-9.8,0-17.8-8-17.8-17.8h1c0,9.3,7.6,16.8,16.8,16.8c9.3,0,16.8-7.6,16.8-16.8
						c0-9.3-7.6-16.8-16.8-16.8v-1c9.8,0,17.8,8,17.8,17.8C52.6,87.5,44.6,95.4,34.8,95.4z M34.8,93c-8.4,0-15.3-6.9-15.3-15.3
						s6.9-15.3,15.3-15.3s15.3,6.9,15.3,15.3h-1c0-7.9-6.4-14.4-14.4-14.4c-7.9,0-14.4,6.4-14.4,14.4c0,7.9,6.4,14.4,14.4,14.4
						L34.8,93L34.8,93z"/>
				</g>
			</g>
		</g>
		<g>
			<polygon class="st2" points="32.7,83.5 26.2,77.1 26.9,76.5 32.7,82.2 42.8,72.1 43.4,72.8 			"/>
		</g>
		
			<linearGradient id="SVGID_12_" gradientUnits="userSpaceOnUse" x1="275.45" y1="136.877" x2="275.45" y2="-29.6994" gradientTransform="matrix(1 0 0 -1 0 422)">
			<stop  offset="0" style="stop-color:#9FDDBE"/>
			<stop  offset="1" style="stop-color:#18A3B2"/>
		</linearGradient>
		<polygon class="st22" points="410.6,295.8 275.4,295.8 140.3,295.8 110.7,406.4 276.3,406.4 440.2,406.4 		"/>
		<path class="st8" d="M150.5,315.2h16.6c0.7,0,1.2,0.5,1.1,1.1l-1.6,7.2c-0.1,0.4-0.6,0.8-1.1,0.8h-16.9c-0.7,0-1.2-0.6-1.1-1.2
			l1.9-7.2C149.5,315.5,150,315.2,150.5,315.2z"/>
		<polygon class="st8" points="174.7,315.2 187.3,315.2 185.6,324.3 172.8,324.3 		"/>
		<polygon class="st8" points="193.6,315.2 206.1,315.2 204.8,324.3 192,324.3 		"/>
		<polygon class="st8" points="212.4,315.2 224.9,315.2 224,324.3 211.2,324.3 		"/>
		<polygon class="st8" points="231.2,315.2 243.8,315.2 243.2,324.3 230.4,324.3 		"/>
		<polygon class="st8" points="250.1,315.2 262.6,315.2 262.4,324.3 249.6,324.3 		"/>
		<polygon class="st8" points="400.8,315.2 381.9,315.2 384,324.3 403.2,324.3 		"/>
		<polygon class="st8" points="375.7,315.2 363.1,315.2 364.8,324.3 377.6,324.3 		"/>
		<polygon class="st8" points="356.8,315.2 344.3,315.2 345.6,324.3 358.4,324.3 		"/>
		<polygon class="st8" points="338,315.2 325.4,315.2 326.4,324.3 339.2,324.3 		"/>
		<polygon class="st8" points="319.2,315.2 306.6,315.2 307.2,324.3 320,324.3 		"/>
		<polygon class="st8" points="300.3,315.2 287.8,315.2 288,324.3 300.8,324.3 		"/>
		<polygon class="st8" points="268.9,315.2 281.4,315.2 281.7,324.3 268.9,324.3 		"/>
		<polygon class="st8" points="145,331.1 171.2,331.1 169.7,340.5 143,340.5 		"/>
		<polygon class="st8" points="404.9,331.1 372.4,331.1 374.3,340.5 407.3,340.5 		"/>
		<polygon class="st8" points="365.9,331.1 353,331.1 354.4,340.5 367.7,340.5 		"/>
		<polygon class="st8" points="346.5,331.1 333.5,331.1 334.6,340.5 347.8,340.5 		"/>
		<polygon class="st8" points="327,331.1 314.1,331.1 314.8,340.5 328,340.5 		"/>
		<polygon class="st8" points="307.6,331.1 294.6,331.1 295,340.5 308.2,340.5 		"/>
		<polygon class="st8" points="141.1,347.9 167.9,347.9 165.9,357.2 138.6,357.2 		"/>
		<polygon class="st8" points="174.6,347.9 188,347.9 186.4,357.2 172.7,357.2 		"/>
		<polygon class="st8" points="194.7,347.9 208.1,347.9 295.3,347.9 295.6,357.2 193.2,357.2 		"/>
		<polygon class="st8" points="302,347.9 315.4,347.9 316.1,357.2 302.5,357.2 		"/>
		<polygon class="st8" points="322.1,347.9 335.5,347.9 336.6,357.2 323,357.2 		"/>
		<polygon class="st8" points="342.2,347.9 355.6,347.9 357.1,357.2 343.4,357.2 		"/>
		<polygon class="st8" points="362.3,347.9 375.8,347.9 377.6,357.2 363.9,357.2 		"/>
		<polygon class="st8" points="382.5,347.9 409.3,347.9 411.7,357.2 384.4,357.2 		"/>
		<polygon class="st8" points="288.1,331.1 275.3,331.1 275.3,340.5 288.4,340.5 		"/>
		<polygon class="st8" points="268.7,331.1 255.7,331.1 255.3,340.5 268.6,340.5 		"/>
		<polygon class="st8" points="249.2,331.1 236.2,331.1 235.5,340.5 248.7,340.5 		"/>
		<polygon class="st8" points="229.8,331.1 216.8,331.1 215.7,340.5 228.9,340.5 		"/>
		<polygon class="st8" points="210.3,331.1 197.3,331.1 195.9,340.5 209.1,340.5 		"/>
		<polygon class="st8" points="190.8,331.1 177.9,331.1 176,340.5 189.2,340.5 		"/>
		<polygon class="st8" points="151.1,309.5 153.2,301.3 159.3,301.3 157.3,309.5 		"/>
		<polygon class="st8" points="165.4,301.3 177.6,301.3 175.9,309.5 163.5,309.5 		"/>
		<polygon class="st8" points="183.7,301.3 195.9,301.3 194.5,309.5 182.1,309.5 		"/>
		<polygon class="st8" points="202,301.3 214.2,301.3 213.1,309.5 200.7,309.5 		"/>
		<polygon class="st8" points="220.3,301.3 232.5,301.3 231.7,309.5 219.3,309.5 		"/>
		<polygon class="st8" points="238.6,301.3 250.8,301.3 250.4,309.5 237.9,309.5 		"/>
		<polygon class="st8" points="256.9,301.3 269.1,301.3 269,309.5 256.6,309.5 		"/>
		<polygon class="st8" points="275.2,301.3 287.4,301.3 287.6,309.5 275.2,309.5 		"/>
		<polygon class="st8" points="293.5,301.3 305.6,301.3 306.2,309.5 293.8,309.5 		"/>
		<polygon class="st8" points="311.7,301.3 323.9,301.3 324.8,309.5 312.4,309.5 		"/>
		<polygon class="st8" points="330,301.3 342.2,301.3 343.4,309.5 331,309.5 		"/>
		<polygon class="st8" points="348.3,301.3 360.5,301.3 362,309.5 349.6,309.5 		"/>
		<polygon class="st8" points="366.6,301.3 378.8,301.3 380.6,309.5 368.2,309.5 		"/>
		<polygon class="st8" points="384.9,301.3 397.1,301.3 399.2,309.5 386.8,309.5 		"/>
		
			<linearGradient id="SVGID_13_" gradientUnits="userSpaceOnUse" x1="-42.0259" y1="11.3" x2="287.4741" y2="11.3" gradientTransform="matrix(1 0 0 -1 0 422)">
			<stop  offset="0" style="stop-color:#9FDDBE"/>
			<stop  offset="1" style="stop-color:#18A3B2"/>
		</linearGradient>
		<path class="st23" d="M431.6,415H119.3c-4.8,0-8.6-3.9-8.6-8.6l0,0h329.5l0,0C440.2,411.1,436.3,415,431.6,415z"/>
		<path class="st24" d="M313.7,370.7c-0.3-1.9-2-3.4-4-3.4h-34.3h-34.3c-2,0-3.7,1.4-4,3.4l-4.3,26c-0.4,2.5,1.5,4.7,4,4.7h38.6H314
			c2.5,0,4.4-2.2,4-4.7L313.7,370.7z"/>
		<g>
			<g>
				<rect x="166.7" y="147.3" class="st25" width="27.9" height="2.9"/>
			</g>
			<g>
				<rect x="202.4" y="168.9" class="st25" width="20.2" height="2.9"/>
			</g>
			<g>
				<rect x="225.7" y="168.9" class="st13" width="13.4" height="2.9"/>
			</g>
			<g>
				<rect x="167" y="223" class="st13" width="13.4" height="2.9"/>
			</g>
			<g>
				<rect x="241.8" y="168.9" class="st25" width="32.3" height="2.9"/>
			</g>
			<g>
				<rect x="167" y="212.2" class="st25" width="20.8" height="2.9"/>
			</g>
			<g>
				<rect x="195.9" y="233.8" class="st25" width="12.7" height="2.9"/>
			</g>
			<g>
				<rect x="167" y="233.8" class="st13" width="25.1" height="2.9"/>
			</g>
			<g>
				<rect x="167" y="244.6" class="st25" width="13.9" height="2.9"/>
			</g>
			<g>
				<rect x="200" y="147.3" class="st26" width="19.8" height="2.9"/>
			</g>
			<g>
				<rect x="200" y="179.6" class="st13" width="19.8" height="2.9"/>
			</g>
			<g>
				<rect x="190.1" y="190.4" class="st25" width="8.5" height="2.9"/>
			</g>
			<g>
				<rect x="181.7" y="201.3" class="st26" width="19" height="2.9"/>
			</g>
			<g>
				<rect x="203.6" y="201.3" class="st13" width="26.3" height="2.9"/>
			</g>
			<g>
				<rect x="167" y="190.5" class="st13" width="19.8" height="2.9"/>
			</g>
			<g>
				<rect x="167" y="201.3" class="st13" width="11.8" height="2.9"/>
			</g>
			<g>
				<rect x="202.6" y="190.5" class="st27" width="11.1" height="2.9"/>
			</g>
			<g>
				<rect x="167.3" y="255.3" class="st27" width="11.1" height="2.9"/>
			</g>
			<g>
				<rect x="166.9" y="168.9" class="st26" width="19.8" height="2.9"/>
			</g>
			<g>
				<rect x="184.4" y="223" class="st26" width="19.8" height="2.9"/>
			</g>
			<g>
				<rect x="184.7" y="244.6" class="st26" width="19.8" height="2.9"/>
			</g>
			<g>
				<rect x="219.9" y="244.6" class="st26" width="19.8" height="2.9"/>
			</g>
			<g>
				<rect x="166.9" y="179.6" class="st26" width="28.3" height="2.9"/>
			</g>
			<g>
				<rect x="299.4" y="147.3" class="st26" width="19.8" height="2.9"/>
			</g>
			<g>
				<rect x="228.7" y="255.3" class="st26" width="19.8" height="2.9"/>
			</g>
			<g>
				<rect x="325.4" y="147.3" class="st26" width="13.3" height="2.9"/>
			</g>
			<g>
				<rect x="370.3" y="158.1" class="st26" width="13.3" height="2.9"/>
			</g>
			<g>
				<rect x="225.2" y="147.3" class="st13" width="25.3" height="2.9"/>
			</g>
			<g>
				<rect x="323.7" y="158.1" class="st13" width="25.3" height="2.9"/>
			</g>
			<g>
				<rect x="292.7" y="168.9" class="st13" width="25.3" height="2.9"/>
			</g>
			<g>
				<rect x="259.8" y="179.6" class="st13" width="25.3" height="2.9"/>
			</g>
			<g>
				<rect x="321.2" y="168.9" class="st26" width="18" height="2.9"/>
			</g>
			<g>
				<rect x="269.2" y="147.3" class="st27" width="25.3" height="2.9"/>
			</g>
			<g>
				<rect x="240.4" y="179.6" class="st27" width="14.8" height="2.9"/>
			</g>
			<g>
				<rect x="228.7" y="223.2" class="st27" width="14.8" height="2.9"/>
			</g>
			<g>
				<rect x="255.2" y="147.3" class="st25" width="9.3" height="2.9"/>
			</g>
			<g>
				<rect x="225.2" y="179.6" class="st25" width="9.3" height="2.9"/>
			</g>
			<g>
				<rect x="355.1" y="158.1" class="st25" width="9.3" height="2.9"/>
			</g>
			<g>
				<rect x="166.7" y="158.1" class="st13" width="14.5" height="2.9"/>
			</g>
			<g>
				<rect x="205.3" y="212.3" class="st13" width="11.4" height="2.9"/>
			</g>
			<g>
				<rect x="184.7" y="158.1" class="st13" width="4.7" height="2.9"/>
			</g>
			<g>
				<rect x="280.6" y="158.1" class="st25" width="38.6" height="2.9"/>
			</g>
			<g>
				<rect x="243.6" y="244.6" class="st25" width="38.6" height="2.9"/>
			</g>
			<g>
				<rect x="192.8" y="158.1" class="st27" width="4.8" height="2.9"/>
			</g>
			<g>
				<rect x="264.4" y="158.1" class="st13" width="12.6" height="2.9"/>
			</g>
			<g>
				<rect x="277.1" y="168.9" class="st27" width="12.6" height="2.9"/>
			</g>
			<g>
				<rect x="212.1" y="255.3" class="st27" width="12.6" height="2.9"/>
			</g>
			<g>
				<rect x="234.2" y="158.1" class="st13" width="26.9" height="2.9"/>
			</g>
			<g>
				<rect x="209.2" y="223.2" class="st13" width="15.7" height="2.9"/>
			</g>
			<g>
				<rect x="208.2" y="244.6" class="st13" width="7.9" height="2.9"/>
			</g>
			<g>
				<rect x="221.1" y="158.1" class="st26" width="9.3" height="2.9"/>
			</g>
			<g>
				<rect x="190" y="168.9" class="st27" width="9.3" height="2.9"/>
			</g>
			<g>
				<rect x="191.8" y="212.3" class="st27" width="9.3" height="2.9"/>
			</g>
			<g>
				<rect x="201.5" y="158.1" class="st13" width="16.1" height="2.9"/>
			</g>
		</g>
		<g class="st28">
			<path class="st8" d="M437.5,272.3H320.6c-2.2,0-4-1.8-4-4v-81c0-2.2,1.8-4,4-4h116.9c2.2,0,4,1.8,4,4v81
				C441.5,270.5,439.7,272.3,437.5,272.3z"/>
		</g>
		<g>
			<g>
				<path class="st29" d="M428,235.2h-20.1c-0.9,0-1.5-0.7-1.5-1.5v-3.1c0-0.9,0.7-1.5,1.5-1.5H428c0.9,0,1.5,0.7,1.5,1.5v3.1
					C429.5,234.5,428.9,235.2,428,235.2z"/>
			</g>
		</g>
		<g>
			<g>
				<path class="st29" d="M428,246.8h-20.1c-0.9,0-1.5-0.7-1.5-1.5v-3.1c0-0.9,0.7-1.5,1.5-1.5H428c0.9,0,1.5,0.7,1.5,1.5v3.1
					C429.5,246.1,428.9,246.8,428,246.8z"/>
			</g>
		</g>
		<g>
			<g>
				<path class="st29" d="M428,258.4h-20.1c-0.9,0-1.5-0.7-1.5-1.5v-3.1c0-0.9,0.7-1.5,1.5-1.5H428c0.9,0,1.5,0.7,1.5,1.5v3.1
					C429.5,257.7,428.9,258.4,428,258.4z"/>
			</g>
		</g>
		<g>
			<g>
				<g>
					<path class="st30" d="M395.1,215.2c-5.2-14.4-19-23.3-33.5-22.9c-3.5,0.1-7.1,0.8-10.6,2c-10.6,3.8-18.2,12.2-21.3,22.2
						c-2.2,6.9-2.2,14.5,0.4,21.9c0.3,0.7,0.5,1.4,0.8,2.1c1.4,3.2,3.2,6.1,5.3,8.6c9,10.6,24,15.1,37.9,10.1
						C392.2,252.9,401.5,233.2,395.1,215.2z M371.4,251.2c-10.4,3.7-21.6,0.4-28.4-7.6c-1.6-1.9-3-4.1-4-6.4
						c-0.2-0.5-0.4-1.1-0.6-1.6c-2-5.5-2-11.2-0.3-16.4c2.3-7.5,8-13.8,16-16.6c2.6-0.9,5.3-1.4,7.9-1.5
						c10.9-0.3,21.2,6.3,25.1,17.1C391.8,231.6,384.8,246.4,371.4,251.2z"/>
				</g>
			</g>
			<g>
				<g>
					<path class="st31" d="M338,219.1l-8.2-2.6c3.1-10,10.7-18.4,21.3-22.2c3.5-1.3,7.1-1.9,10.6-2l0.3,8.6
						c-2.6,0.1-5.3,0.6-7.9,1.5C346,205.3,340.3,211.7,338,219.1z"/>
				</g>
			</g>
			<g>
				<g>
					<path class="st32" d="M339,237.2l-7.9,3.4c-0.3-0.7-0.6-1.4-0.8-2.1c-2.6-7.3-2.6-15-0.4-21.9l8.2,2.6
						c-1.6,5.2-1.6,10.9,0.3,16.4C338.5,236.1,338.7,236.6,339,237.2z"/>
				</g>
			</g>
			<g>
				<g>
					<path class="st2" d="M336.4,249.2c-2.2-2.5-4-5.4-5.3-8.6l7.9-3.4c1,2.4,2.4,4.5,4,6.4L336.4,249.2z"/>
				</g>
			</g>
		</g>
		<g>
			<g>
				<g>
					<path class="st17" d="M374.2,247.3c0,0-1.7-2.9,1-10.8c2.6-7.6,11.4-6.9,14.2-2c2.8,4.9,1.9,7.9-2.3,13.3
						C383,253.3,375.9,249.8,374.2,247.3z"/>
				</g>
			</g>
			<g>
				<g>
					<path class="st17" d="M394.8,382.1c0,0,0.4,3.2,0.5,3.7s4.9-0.3,4.9-0.3l0.4-3.8C400.5,381.6,395.4,381.6,394.8,382.1z"/>
				</g>
			</g>
			<g>
				<g>
					<path class="st33" d="M395.2,385.3c0,0-1.5,1.9-3,2.8c-1.5,0.8-3.8,1.2-4.7,2.1c-0.6,0.6-2.3,3.3,3.8,3.3
						c6.1-0.1,9.1,0.4,9.8-0.7c0.7-1-1-7.7-1-7.7S398.7,385.6,395.2,385.3z"/>
				</g>
			</g>
			<g>
				<g>
					<path class="st17" d="M361.3,382.1c0,0,0.4,3.2,0.5,3.7s4.9-0.3,4.9-0.3l0.4-3.8C367.1,381.6,361.9,381.6,361.3,382.1z"/>
				</g>
			</g>
			<g>
				<g>
					<path class="st33" d="M361.8,385.3c0,0-1.5,1.9-3,2.8c-1.5,0.8-6.9,1.5-7.8,2.4c-0.6,0.6-1.7,3.2,7,2.9
						c6.1-0.2,9.1,0.4,9.8-0.7c0.7-1-1-7.7-1-7.7S364.8,385.5,361.8,385.3z"/>
				</g>
			</g>
			<g>
				<g>
					<path class="st34" d="M393.1,302c0,0,2.5,7.7,2.1,14.3c-0.3,6.6,1.3,13.9,1.9,20.8c0.7,7.7,3.7,26,3.8,30.1
						c0.1,4.1-0.5,17.3-0.5,17.3l-6,0.1c0,0-5-31.9-6.3-35.2c-1.3-3.3-7.8-26.5-8-29.1C380.1,317.7,393.1,302,393.1,302z"/>
				</g>
			</g>
			<g>
				<g>
					<path class="st34" d="M368.3,301.2c0,0-3.6,20.3-4.1,24.4c-0.4,4.1-0.7,19.6-0.9,22.2c-0.2,2.5-1.4,33.2-2.6,36.9h6.7
						c0,0,6.9-22.3,6.9-32.8s4.5-22.9,7.5-29.9c2.9-7,9.6-7.1,11.5-20C393.1,302,370.7,297.1,368.3,301.2z"/>
				</g>
			</g>
			<g>
				<g>
					<path class="st17" d="M376.6,249.4c0,0,0.8,2.2,0,3.8c-0.8,1.6,9.6,0.6,9.6,0.6s-0.5-3.2,0.9-5.9S376.6,249.4,376.6,249.4z"/>
				</g>
			</g>
			<g>
				<g>
					<path class="st35" d="M393.6,303.6c0,0-3.7,3.8-25.7-0.6l0.3-1.9l24.9,0.9L393.6,303.6z"/>
				</g>
			</g>
			<g>
				<g>
					<path class="st17" d="M375,253.6c0,0-3.8,0.4-4.9,0.6s-8.5-1.3-10-1.5s-8-4.6-8.2-5.1s-3.9-9.9-4.1-12c-0.2-2-3.6-1-3.3,0.4
						c0.5,2.6,1.3,9,1.6,10.8c0.4,2,1.5,6.5,2.2,7.1c0.6,0.6,6.4,5,12.1,6.9s10,4.6,10,4.6h28c0,0,10.9-15.6,11.1-17.9
						s-7.6-18-9.2-19.9c-1.6-2-3.8,0.6-3.8,0.6s4.7,13.8,5.3,15.7c0.6,2-5.5,10.6-7.1,10.6c-1.7,0-6-0.5-7.9-0.6s-3.9-0.9-3.9-0.9
						L375,253.6z"/>
				</g>
			</g>
			<g>
				<g>
					<path class="st36" d="M362.9,264c0,0,3.4,2.3,3.7,6.2c0.3,3.9,1.6,10.1,2.2,12.2s-0.5,17.5-0.7,18.6s21.7,3.7,25,1.1
						c0,0,0.9-14.3,1.3-18.4s2.3-13.9,2.9-15.3c0.6-1.3,8.2-12,8.5-13.4c0,0-3.9-6.3-6.7-6.3c0,0-4.5,5.2-5.9,5.5
						c-1.5,0.2-10.4-1.4-10.4-1.4s-1,1.3-6.2-0.2c0,0-6.2,0.7-7.2,0.8c-1.2,0.2-9.7-1.1-9.7-1.1s-3.4,5.7-2.8,8.6L362.9,264z"/>
				</g>
			</g>
			<g>
				<g>
					<path class="st17" d="M348,236.9c0,0-0.8-3.6,0.2-4.7c0.5-0.6,1.8-2.2,1.9-2.4c0.1-0.2,1.5-1,1.5-1.4s-1.3-0.8-2.5,0.2
						c-1.2,1.1-1.9,1.3-2.3,1.2c-0.5-0.1-1.1-4-1.2-4.9c-0.1-1-0.4-3.5-1-3.3s-0.6,1.3-0.6,1.3s-0.7-1.9-1.2-1.5s-0.4,1.3-0.4,1.3
						s-0.9-1.1-1.1-0.3c-0.2,0.8,0,1.5,0,1.5s-0.9-0.5-1,0.7s0.3,4.8,0.9,6c0.6,1.3,3,4.6,3.3,5.9C344.8,237.8,348,236.9,348,236.9z
						"/>
				</g>
			</g>
			<g>
				<g>
					<path class="st17" d="M397.3,230.5c0,0-2.6-4.4-3.5-4.8s-2.1-0.6-3.2-1.4s-2.5-1.4-2.5-1.7c0.1-0.3,1.4-0.2,2.8,0.4
						s2,0.3,2.1,0s-0.7-2.5-1.2-3c-0.4-0.5-3.4-3.5-2.9-4c0.5-0.4,2.4,1.2,2.7,1.5c0,0-1.5-3.2-0.9-3.4s1.7,1,1.7,1
						s-0.1-2.8,2.8,1.7c0,0-0.6-1.5,0.3-1s1.8,3.3,2.1,4.7c0.3,1.4,1.6,5.9,2.7,7C401.4,228.7,397.3,230.5,397.3,230.5z"/>
				</g>
			</g>
			<g>
				<g>
					<path class="st37" d="M387.1,247.8c0,0-1.4,0.1-4.3-0.9s-3.1-6.1-3.8-5.5c-1.3,1.2-2.5,0.4-3-0.3c0,0,1.4-1.9,0.8-2.8
						c-0.7-0.9-1.7-1.6-1.7-1.6s2.1-9.9,11.4-5.4C397.4,236.6,387.1,247.8,387.1,247.8z"/>
				</g>
			</g>
			<g>
				<g>
					<path class="st38" d="M376.6,253.1l0.3-1.4c0,0,6-0.1,9.2,0.4l0.3,1.7C386.5,253.8,382.3,255.6,376.6,253.1z"/>
				</g>
			</g>
			<g>
				<g>
					<path class="st17" d="M378.1,240.2c0.5-0.9,2.5-1.5,2.8,1c0.2,2-3.6,4.1-3.6,2.3C377.2,241.7,377.7,240.8,378.1,240.2z"/>
				</g>
			</g>
			<g>
				<g>
					<path class="st39" d="M347.8,236.1c0,0-2.2,0.1-3.2,1c0,0-0.1,0.6,0.2,1.1c0,0,1.9-0.9,3.3-1
						C348.1,237.1,348.1,236.3,347.8,236.1z"/>
				</g>
			</g>
			<g>
				<g>
					<path class="st37" d="M345.3,236.6c-0.2,0.5,0,1,0.5,1.2s1,0,1.2-0.5s0-1-0.5-1.2S345.5,236.2,345.3,236.6z"/>
				</g>
			</g>
		</g>
		<g>
			<g>
				<g>
					<path class="st40" d="M292.4,160.1c0,0,3.1,5.2,4.4,6.1c1.8,1.2,0.7,2.3-0.2,2.3c-0.8,0-5.1,0.3-6.1-0.8
						c-0.9-1.1-1.4-4.3-2.3-5.1s-1.8-4.2,0.4-5C290.6,156.9,292.4,160.1,292.4,160.1z"/>
				</g>
			</g>
		</g>
		<g>
			<g>
				<g>
					<path class="st41" d="M291.1,157.8c0,0,3.5,6.1,4.1,7s-1.1,0.9-2.2,0.5s-3.8-4.8-4.2-5.6c-0.5-1-0.1-2-0.1-2L291.1,157.8z"/>
				</g>
			</g>
		</g>
		<g>
			<g>
				<g>
					<polygon class="st40" points="287.5,161.1 288.3,167.3 288.7,167.3 288.6,162.8 					"/>
				</g>
			</g>
		</g>
		<g>
			<g>
				<g>
					<path class="st40" d="M261.9,160.1c0,0,3.1,5.2,4.4,6.1c1.8,1.2,0.7,2.3-0.2,2.3c-0.8,0-5.1,0.3-6.1-0.8
						c-0.9-1.1-1.4-4.3-2.3-5.1s-1.8-4.3,0.4-5C260.1,157,261.9,160.1,261.9,160.1z"/>
				</g>
			</g>
		</g>
		<g>
			<g>
				<g>
					<path class="st41" d="M260.7,157.8c0,0,3.3,6.1,4,7c0.6,0.9-1.1,0.9-2.2,0.5s-3.8-4.8-4.2-5.6c-0.5-1-0.1-2-0.1-2L260.7,157.8z
						"/>
				</g>
			</g>
		</g>
		<g>
			<g>
				<g>
					<polygon class="st40" points="256.9,161.1 257.8,167.3 258.2,167.3 258.1,162.8 					"/>
				</g>
			</g>
		</g>
		<g>
			<g>
				<g>
					<path class="st41" d="M248.2,112.6l27.9,12.7c0,0,3.1,1,3.5,4.5c1.1,10.8,9.2,27.9,9.2,27.9c2.6,1.3,2.4,0.2,2.4,0.2
						c-1.6-5.2-3.6-26.8-4.3-35.5c-0.2-1.8-0.2-3.1-0.3-3.5c0-0.3-0.3-0.6-0.8-1c-3.8-3.1-19.6-9.5-19.6-9.5
						C254.3,107.9,248.2,112.6,248.2,112.6z"/>
				</g>
			</g>
		</g>
		<g>
			<g>
				<g>
					<path class="st41" d="M242.9,118c0.9,7.5,11.6,6.7,11.6,6.7h13c0,0-3.4,7.6-4.7,14c-1.4,6.8-4.7,18.9-4.7,18.9s0.2,0.4,2.6,0.2
						c0,0,10.2-20.4,14.1-25.5c0.8-1.1,3.3-7.1,3.7-10.7c0.1-1.2,0.1-2.1-0.4-2.5s-1.5-1.1-2.9-2c-4.1-2.6-11.2-6.5-15.1-7.4
						c-5.3-1.2-13.7-3.4-13.7-3.4S242.1,110.5,242.9,118z"/>
				</g>
			</g>
		</g>
		<g>
			<path class="st42" d="M251.8,60c0,0-2-3.7-1-7.6s4.6-7.9,10-6.1s9.7,6,6.5,10.8s2.9,7,1.3,9.3s-1,4.7-0.3,5.2s2.8,2.4,2.6,4.7
				c-0.2,2.2-10.4-6.6-10.4-6.6S254.9,58.6,251.8,60z"/>
		</g>
		<g>
			<path class="st43" d="M268.1,107.3c0,0-0.8,3.9-21.6-1C246.5,106.3,253.5,104,268.1,107.3z"/>
		</g>
		<g>
			<g>
				<path class="st44" d="M246.3,107.4c-0.3,0.6-0.6,1.2-1,1.8c7.6,0.2,15.2,0.4,22.8,0.7c-1.2-4-0.8-9.5-0.6-13.6
					c0.3-5.1,3.1-8.6,2.8-13.7c1.5,0.2,1.8,0.3,3.3,0.5c-2.3-6.6-3.1-9.8-10.3-12.3c-2.3-0.8-3.9-1-6.4-0.8
					c-8.3,0.7-10.8,0.8-14.9,8.3c6.4,1,5.3,3.3,7.3,9.6c0.9,3.1,1.9,6.5,1.4,9.8C250.2,100.9,246.3,104.5,246.3,107.4z"/>
			</g>
		</g>
		<g>
			<g>
				<path class="st17" d="M259.5,72.3c-3.4-0.6-2.7-2.5-2.7-2.5s0.2-1.1,0.2-2.4c0-0.3,0-0.7,0-1.1c0-0.6,0-1.1-0.1-1.7
					c-0.3-2.3,6.2-0.9,6.2-0.9s-0.4,4.6,0.5,6C264.6,71.1,262.9,73,259.5,72.3z"/>
			</g>
		</g>
		<g>
			<g>
				<path class="st17" d="M253,69.8c0,0,6.8,7.9,9.4,9.7c0,0,2.9-2.6,1.1-9.6C263.5,70,260.2,68.3,253,69.8z"/>
			</g>
		</g>
		<g>
			<path class="st17" d="M253.2,50.8c0,0-3.6,6.9,0,13.3c3.5,6.5,10.5-2.8,10.9-3.9s2.8-7.3-1.9-9.2
				C257.5,49.2,254.2,48.9,253.2,50.8z"/>
		</g>
		<g>
			<path class="st42" d="M254.4,53.2c0,0-2.4,3.2-2.7,5.6c0,0-1-4.5,1.8-8.8s9.8-0.2,10.7,1.5c0.9,1.7,3.7,3.2-0.9,10.7
				C263.2,62.2,254.9,56.4,254.4,53.2z"/>
		</g>
		<g>
			<path class="st45" d="M260.1,64.8c0,0-0.6,1.3-3,2.6c0-0.3,0-0.7,0-1.1C257.1,66.3,258.7,66.1,260.1,64.8z"/>
		</g>
		<g>
			<path class="st17" d="M224.2,101.2c0,0-1.7,0.8-2.5,0.4c-0.8-0.3-2-0.4-2.4-0.4c-0.5,0-2.2-0.6-2.1,0.1c0,0.6,2.7,1.1,3.2,1.3
				s-1.6,1.4-1.8,1.9c-0.2,0.5,2.2,4,3.6,3s2.1-2.9,2.4-3.1c0.3-0.1,1-0.7,1-0.7L224.2,101.2z"/>
		</g>
		<g>
			<path class="st17" d="M218.8,104.2c0,0-4,3.3-4,3.7c-0.1,0.4,0.1,0.7,0.5,0.4s3.9-3.1,3.9-3.1s-4,4.7-4.1,5
				c-0.1,0.2,0.3,0.6,0.5,0.5s4.4-4.6,4.4-4.6s-3.7,4.4-3.7,4.7s0.4,0.6,0.7,0.3c0.3-0.3,4-4.2,4-4.2s-2.5,3.4-2.3,3.7
				c0.1,0.2,0.4,0.6,1-0.3c0.6-0.9,2.3-2.8,2.3-2.8L218.8,104.2z"/>
		</g>
		<g>
			<g>
				<path class="st14" d="M266.2,124.7h-11.7c0,0-10.8,0.9-11.6-6.7c-0.9-7.5,3.5-11.7,3.5-11.7s5.7,1.5,10.6,2.7
					c2.5-0.5,5.5-0.9,9-0.8c0,0,21,6.9,20.4,10.6C286.5,118.8,277.7,114.1,266.2,124.7z"/>
			</g>
		</g>
		<g>
			<polygon class="st46" points="258.6,111.6 280.9,111.3 269.6,117 			"/>
		</g>
		<g>
			<path class="st44" d="M265.5,108.8c0,0-5,1.9-11.1,0.2l-0.3-2.3l12.6,0.7L265.5,108.8z"/>
		</g>
		<g>
			<polygon class="st47" points="269.6,117 258.6,112.7 258.6,111.6 270.5,115.9 			"/>
		</g>
		<g>
			<g>
				<path class="st48" d="M265.5,109.9c-0.1,0.8,0.8,1.4,1.5,1.1l1.3-0.6c0.4-0.2,0.6-0.6,0.5-1c-0.5-3.4-1.7-16.5,0-18.7
					c0.6-0.8,1-1.6,1.2-2.2c1.1,2.9,2.5,6.6,3.1,8.6l10.5,14l3.5,0.9c-4.4-10.6-7.9-16.2-7.9-16.2c-0.7-1.8-2.7-7.4-4.4-12.4
					c-1.1-3.1-2.1-6-2.7-7.6c-0.3-0.8-0.8-1.5-1.5-1.9c-1.6-1-4.3-2.5-6.8-3.7l0,0c-0.1,0-0.2-0.1-0.2-0.1l0,0l0,0
					C268.2,77.1,266.4,97,265.5,109.9C265.5,109.8,265.5,109.8,265.5,109.9z"/>
			</g>
			<g>
				<path class="st48" d="M248.1,70.6c-1.5,0.2-5.2,3.8-7.2,7.5c-2.3,4.2-4.5,8.9-6.3,10.4c-3.2,2.9-12,13-12.4,12.7
					c-0.2-0.1,2.4,3,2.8,3.2c0.2,0.1,14.5-12.4,15.9-14.3c1.3-1.8,4.8-9.3,5.9-9.2l0,0l0,0c0.1,0.2,1.4,2.9,2.6,7
					c0,0.1,0,0.1,0.1,0.2c0.8,2.8,0.8,5.9,0.3,9.3c-0.3,2.6-2.3,6.8-3.4,8.9c-0.1,0.2-0.1,0.7,0,1.1l0,0c0.1,0.2,0.2,0.4,0.4,0.4
					l4.2,1.6l1,0.4c0.7,0.3,1.5,0.1,2-0.3c0.5-0.3,0.8-0.8,0.9-1.5c0.9-7.2,2.1-14.6,3.1-17.4c4.2-12.2-1.6-21.3-1.6-21.3
					S249.4,70.1,248.1,70.6z"/>
			</g>
		</g>
		<g>
			<polygon class="st49" points="269.6,117 276.3,98.9 297.6,99.3 291.3,115.9 			"/>
		</g>
		<g>
			<path class="st50" d="M283.1,106.9c-0.7,1.3-0.5,2.7,0.4,3.2c0.9,0.4,2.1-0.2,2.8-1.5c0.7-1.3,0.5-2.7-0.4-3.2
				S283.7,105.6,283.1,106.9z"/>
		</g>
		<g>
			<path class="st42" d="M260.6,57.6c0,0,1.4,2.1,0.1,4c-1.3,1.8,0.3,3.6,0.6,5.6c0.3,1.9-5.3,7.1,0.9,9.7c6.2,2.6,8.1-1.7,6.6-4.1
				c-1.6-2.4-2.7-4.3-2.8-7.6C265.8,61.8,264.7,56.5,260.6,57.6z"/>
		</g>
		<g>
			<polygon class="st51" points="215.9,32.1 242.2,32.1 242.2,51.1 242.2,55.1 238.2,51.1 215.9,51.1 			"/>
		</g>
	</g>
</g>
</svg>
