<?xml version="1.0" encoding="utf-8"?>
<!-- Generator: Adobe Illustrator 23.0.0, SVG Export Plug-In . SVG Version: 6.00 Build 0)  -->
<svg version="1.1" id="Capa_1" xmlns="http://www.w3.org/2000/svg" xmlns:xlink="http://www.w3.org/1999/xlink" x="0px" y="0px"
	 viewBox="0 0 200 200.87" style="enable-background:new 0 0 200 200.87;" xml:space="preserve">
<g>
	<path d="M100.25,0h0.34c21.5,0.41,42.88,7.45,59.93,20.64c19.43,14.79,33.14,36.9,37.58,60.94c1.25,5.91,1.43,11.97,1.9,17.98v0.98
		c-0.37,19.58-5.95,39.17-16.99,55.44c-13.52,20.35-34.74,35.45-58.45,41.4c-10,2.33-20.24,4.12-30.54,3.28
		c-14.16-1.54-28.29-4.98-40.86-11.83C28,175.67,9.12,151.24,2.69,123.59C1.27,117.92,0.65,112.1,0,106.3v-8.99
		c0.68-30.33,16.15-59.8,40.65-77.68C57.71,6.82,78.98,0.21,100.25,0 M57.52,57.44C46.84,67.72,40.24,82.12,39.39,96.92
		c-0.73,11.71,1.96,23.62,7.81,33.8c8.52,15.03,23.73,26.07,40.7,29.36c5.58,1.57,11.41,1.83,17.16,1.33
		c9.84-1.65,19.77-4.41,28.04-10.2c2.43-1.66,3.36-5.32,1.52-7.75c-1.68-2.37-3.46-5.2-6.53-5.81c-2.63-0.46-4.72,1.44-6.9,2.54
		c-14.45,8.08-33.34,7.03-46.87-2.48c-13.19-8.97-20.96-25.36-19.25-41.24c1.14-12.16,7.49-23.73,17.16-31.19
		c9.41-7.38,21.87-10.78,33.72-9.12c10.92,0.96,21.87,5.35,29.41,13.5c7.24,7.8,10.42,18.95,9.05,29.44
		c-1.05,5.87-3.86,11.99-9.38,14.86c-2.23,1.11-5.3,2.31-7.44,0.38c-1.77-2.9-0.08-6.33,0.23-9.4c1.53-9.02,3.81-17.91,5.02-26.97
		c0.79-3.44-2.39-6.72-5.78-6.5c-3.67-0.04-7.35-0.09-11.01,0.04c-1.64-0.2-2.34,1.49-3.22,2.52c-2.29-1.98-4.92-3.66-7.92-4.27
		c-7.16-1.34-14.8-0.58-21.27,2.88c-16.24,8.17-23.22,29.76-16.51,46.3c3.16,7.91,11.46,12.93,19.86,12.92
		c7.49,0.37,14.39-3.68,19.38-8.99c1.07,2.34,2.37,4.77,4.73,6.03c4.27,2.26,9.29,1.77,13.95,1.82c9.86,0.02,20.22-3.23,26.85-10.84
		c4.94-5.47,7.13-12.73,8.56-19.8c1.6-17.49-5.73-35.95-19.8-46.72c-11.46-8.99-26.17-13.24-40.63-13.12
		C84.32,40.03,68.68,46.4,57.52,57.44 M98.02,86.97c3.98-1.02,8.62,1.09,9.97,5.09c2.78,8.63-2.17,19.31-10.97,22.12
		c-4.16,1.41-9.3-0.86-10.56-5.19C83.68,100.3,88.64,88.97,98.02,86.97L98.02,86.97z"/>
</g>
</svg>
