<?xml version="1.0" encoding="utf-8"?>
<!-- Generator: Adobe Illustrator 23.0.0, SVG Export Plug-In . SVG Version: 6.00 Build 0)  -->
<svg version="1.1" id="Capa_1" xmlns="http://www.w3.org/2000/svg" xmlns:xlink="http://www.w3.org/1999/xlink" x="0px" y="0px"
	 viewBox="0 0 201.8 201.72" style="enable-background:new 0 0 201.8 201.72;" xml:space="preserve">
<g>
	<path d="M83.88,2.53c21.11-3.73,43.45-0.6,62.56,9.18c19.3,9.71,35.25,25.89,44.71,45.31c10.74,21.7,13.01,47.34,6.64,70.66
		c-6.08,22.47-20.33,42.61-39.5,55.82c-16.83,11.73-37.38,18.1-57.91,17.73c-22.21-0.03-44.24-8.02-61.51-21.94
		C21.15,165.12,8.5,144.73,3.75,122.54C-1.42,98.66,2.28,72.9,14.47,51.67C28.83,26.1,54.93,7.46,83.88,2.53 M74.89,49.28
		c-6.25,0.89-12.42,3.46-16.84,8.07c-4.6,5.06-7.3,11.73-7.76,18.53c-1.2,13.58-0.63,27.23-0.6,40.85
		c0.36,7.87,0.38,16.23,4.45,23.26c4.55,8.35,13.98,13.07,23.24,13.7c16.67,1.15,33.41,1.05,50.08-0.02
		c8.54-0.62,17.36-4.37,22.1-11.81c4.29-6.17,5.46-13.82,5.51-21.18c0.94-15.14,0.35-30.32-0.37-45.46
		c-0.74-9.48-6.29-18.55-14.83-22.91c-9.34-5-20.27-3.41-30.44-3.99C97.92,48.35,86.35,47.94,74.89,49.28 M74.89,59.24
		c12.09-1.6,24.35-0.78,36.52-0.98c8.12,0.4,16.85-0.67,24.35,3.11c5.96,3.04,8.93,9.78,9.22,16.21
		c0.67,14.36,1.05,28.76,0.15,43.12c-0.02,6.32-0.96,13.32-5.73,17.93c-4.68,4.71-11.7,5.52-18.01,5.49
		c-14.29,0.72-28.63,0.66-42.9-0.32c-6.07-0.35-12.52-3.01-15.61-8.51c-3.21-5.28-2.86-11.65-3.27-17.58
		c-0.29-12.05-0.34-24.11,0.12-36.16c0.33-5.09,0.6-10.53,3.62-14.87C65.96,62.74,70.27,60.1,74.89,59.24 M127.79,67.27
		c-3.8,1.6-5.02,7.14-2.06,10.08c3.2,4.37,11.35,1.95,11.32-3.62C137.86,68.93,132.03,64.75,127.79,67.27 M97.95,74.35
		c-12.59,1.91-22.77,13.62-22.75,26.38c-0.49,11.48,7.21,22.63,18.06,26.36c9.82,3.62,21.67,0.91,28.79-6.81
		c4.68-4.62,7.28-11.09,7.7-17.6c0.42-9.17-4-18.48-11.6-23.69C112.38,74.81,104.95,73.26,97.95,74.35 M98.93,84.23
		c9.43-2.15,19.46,4.92,20.69,14.49c1.77,9.74-6.33,19.66-16.2,20.01c-9.1,0.68-17.85-6.89-18.3-16.03
		C84.25,94.21,90.6,85.87,98.93,84.23L98.93,84.23z"/>
</g>
</svg>
