<?xml version="1.0" encoding="utf-8"?>
<!-- Generator: Adobe Illustrator 23.0.0, SVG Export Plug-In . SVG Version: 6.00 Build 0)  -->
<svg version="1.1" id="Capa_1" xmlns="http://www.w3.org/2000/svg" xmlns:xlink="http://www.w3.org/1999/xlink" x="0px" y="0px"
	 viewBox="0 0 200 200.86" style="enable-background:new 0 0 200 200.86;" xml:space="preserve">
<g>
	<path d="M100.25,0h0.3c14.64,0.46,29.32,3.43,42.51,9.95c24.67,11.69,44,33.99,52.13,60.04c3.15,9.58,4.34,19.62,4.81,29.65v0.84
		c-0.4,13.22-2.69,26.47-7.95,38.67c-11.41,27.58-35.84,49.35-64.58,57.44c-11.22,2.97-22.84,5.02-34.48,4.01
		c-12.31-1.6-24.65-4.26-35.86-9.78c-23.45-10.98-42.14-31.52-51.01-55.83C2.63,125.78,0.9,116.02,0,106.25v-8.87
		c0.41-13.23,3.36-26.39,8.85-38.44C18.86,36.7,37.3,18.38,59.65,8.6C72.38,2.84,86.34,0.32,100.25,0 M63.33,47.61
		c-5.01,1.72-8.39,7.09-7.7,12.36c0.46,6.06,6.29,11.02,12.34,10.55c7.14-0.14,12.81-7.74,10.84-14.63
		C77.4,49.3,69.62,45.05,63.33,47.61 M109.55,88.43c-0.04-3.06-0.03-6.12,0-9.17c-6.48-0.04-12.96-0.04-19.44,0
		c0.03,21.74,0.08,43.49-0.02,65.24c6.79,0.09,13.59,0.03,20.38,0.03c0-11.88-0.07-23.75,0.03-35.63c0.28-4.38,1.52-9.46,5.63-11.79
		c4.18-2.25,10.08-2.3,13.6,1.21c3.27,3.73,3.07,9.01,3.4,13.65c0,10.85,0.02,21.71-0.02,32.56c6.75,0,13.51,0.06,20.26-0.04
		c-0.04-12.5,0.02-25.01-0.03-37.52c-0.29-7.71-0.92-16.12-5.96-22.38c-4.42-5.35-11.73-6.89-18.35-6.97
		C121.24,77.59,113.41,81.52,109.55,88.43 M57.16,79.26c0.05,21.75,0.03,43.5,0.01,65.25c6.8,0.05,13.6,0.05,20.4,0
		c-0.03-21.75-0.04-43.5,0-65.25C70.76,79.22,63.96,79.22,57.16,79.26L57.16,79.26z"/>
</g>
</svg>
