<?xml version="1.0" encoding="utf-8"?>
<!-- Generator: Adobe Illustrator 23.0.0, SVG Export Plug-In . SVG Version: 6.00 Build 0)  -->
<svg version="1.1" id="Capa_1" xmlns="http://www.w3.org/2000/svg" xmlns:xlink="http://www.w3.org/1999/xlink" x="0px" y="0px"
	 viewBox="0 0 512 482" style="enable-background:new 0 0 512 482;" xml:space="preserve">
<style type="text/css">
	.st0{fill:#FFFFFF;}
</style>
<path class="st0" d="M416.5,0H96C71.2,0,51,19,51,42.4v397.3C51,463,71.2,482,96,482h320.5c24.8,0,45-19,45-42.4V42.4
	C461.5,19,441.3,0,416.5,0z M431.5,439.6c0,7.8-6.7,14.1-15,14.1H96c-8.3,0-15-6.3-15-14.1V42.4c0-7.8,6.7-14.1,15-14.1h320.5
	c8.3,0,15,6.3,15,14.1V439.6L431.5,439.6z"/>
<path class="st0" d="M361.5,188.5H223.8c-8.3,0-15,6.7-15,15s6.7,15,15,15h137.8c8.3,0,15-6.7,15-15S369.8,188.5,361.5,188.5z"/>
<path class="st0" d="M185.4,203.5c0,13.5-10.9,24.5-24.5,24.5c-13.5,0-24.5-11-24.5-24.5s10.9-24.5,24.5-24.5
	C174.4,179,185.4,190,185.4,203.5z"/>
<path class="st0" d="M361.5,264.5H223.8c-8.3,0-15,6.7-15,15s6.7,15,15,15h137.8c8.3,0,15-6.7,15-15S369.8,264.5,361.5,264.5z"/>
<path class="st0" d="M185.4,279.5c0,13.5-10.9,24.5-24.5,24.5c-13.5,0-24.5-11-24.5-24.5s10.9-24.5,24.5-24.5
	C174.4,255,185.4,266,185.4,279.5z"/>
<path class="st0" d="M361.5,340.5H223.8c-8.3,0-15,6.7-15,15s6.7,15,15,15h137.8c8.3,0,15-6.7,15-15S369.8,340.5,361.5,340.5z"/>
<path class="st0" d="M185.4,355.5c0,13.5-10.9,24.5-24.5,24.5c-13.5,0-24.5-11-24.5-24.5s10.9-24.5,24.5-24.5
	C174.4,331,185.4,342,185.4,355.5z"/>
<path class="st0" d="M360.5,111.5H222.8c-8.3,0-15,6.7-15,15s6.7,15,15,15h137.8c8.3,0,15-6.7,15-15S368.8,111.5,360.5,111.5z"/>
<path class="st0" d="M184.4,126.5c0,13.5-10.9,24.5-24.5,24.5c-13.5,0-24.5-11-24.5-24.5s10.9-24.5,24.5-24.5
	C173.4,102,184.4,113,184.4,126.5z"/>
<path class="st0" d="M409.6,8.8H102.8C79,8.8,59.7,27.1,59.7,49.6v383c0,22.5,19.3,40.9,43.1,40.9h306.8c23.8,0,43.1-18.4,43.1-40.9
	V49.5C452.7,27,433.4,8.8,409.6,8.8z M424,432.5c0,7.5-6.4,13.7-14.4,13.7H102.8c-7.9,0-14.4-6.1-14.4-13.7v-383
	c0-7.5,6.4-13.7,14.4-13.7h306.8c7.9,0,14.4,6.1,14.4,13.7L424,432.5L424,432.5z"/>
</svg>
