<?xml version="1.0" encoding="utf-8"?>
<!-- Generator: Adobe Illustrator 23.0.0, SVG Export Plug-In . SVG Version: 6.00 Build 0)  -->
<svg version="1.1" xmlns="http://www.w3.org/2000/svg" xmlns:xlink="http://www.w3.org/1999/xlink" x="0px" y="0px"
	 viewBox="0 0 728.36 371.28" style="enable-background:new 0 0 728.36 371.28;" xml:space="preserve">
<style type="text/css">
	.st0{display:none;}
	.st1{display:inline;}
	.st2{fill:url(#SVGID_1_);}
	.st3{fill:url(#SVGID_2_);}
	.st4{fill:url(#SVGID_3_);}
	.st5{fill:#FFFFFF;}
</style>
<g id="Capa_1" class="st0">
	<g class="st1">
		<linearGradient id="SVGID_1_" gradientUnits="userSpaceOnUse" x1="49.9677" y1="178.6401" x2="155.6053" y2="178.6401">
			<stop  offset="0" style="stop-color:#6BBDB3"/>
			<stop  offset="0.0237" style="stop-color:#65BCB4"/>
			<stop  offset="0.1513" style="stop-color:#4CB3B8"/>
			<stop  offset="0.2931" style="stop-color:#39ADBA"/>
			<stop  offset="0.455" style="stop-color:#2BA9BC"/>
			<stop  offset="0.6542" style="stop-color:#23A6BC"/>
			<stop  offset="1" style="stop-color:#21A5BD"/>
		</linearGradient>
		<path class="st2" d="M49.97-126.81c15.73-3.57,31.23,10.82,38.99,29.01s9.58,39.5,11.66,60.13s4.81,42,13.97,59.04
			c5.61,10.43,13.34,18.63,19.25,28.77c9.76,16.73,14.11,38.64,11.82,59.45c-2.79,25.29-14.6,47.11-21.92,70.8
			c-2.89,9.34-5.12,19.4-4.1,29.38c2.68,26.38,25.8,40.99,33.34,65.72c6.79,22.24-0.53,47.66-10.79,67.52
			c-10.26,19.86-23.59,37.32-30.82,59.33c-5.02,15.3-7.29,33.12-16.69,44.38c-7.97,9.55-19.62,12.42-27.69,21.83
			c-7.55,8.81-6.39,17.23-16.48,15.97"/>
	</g>
</g>
<g id="Capa_2">
	<g>
		
			<linearGradient id="SVGID_2_" gradientUnits="userSpaceOnUse" x1="10.3944" y1="187.3787" x2="738.1783" y2="187.3787" gradientTransform="matrix(-1.012 -0.1993 -0.1972 1.0014 781.8361 71.7886)">
			<stop  offset="0" style="stop-color:#21A5BD"/>
			<stop  offset="0.1778" style="stop-color:#27A7BC"/>
			<stop  offset="0.4039" style="stop-color:#35ACBB"/>
			<stop  offset="0.6559" style="stop-color:#4FB4B7"/>
			<stop  offset="0.9251" style="stop-color:#72C0B2"/>
			<stop  offset="1" style="stop-color:#7EC3AF"/>
		</linearGradient>
		<path class="st3" d="M647.77,371.25c33.45-1.91,75.76-27.93,76.21-65.44c1.18-97.26-44.58-74.03-30.82-136.49
			c6.71-30.45,41.29-37.16,34.26-109.42C720.66-9.58,543.47,0.61,534.51,0.43c-28.93-0.57-79.72,4.16-107.63,7.21
			C368.69,14,310.28,33.8,252.04,38.56C201.31,42.7,135.91,32.67,94.32,25.6c-35.85-6.09-69.03,4.3-82.45,33.27
			c-16.61,35.84-10.67,60.52,4.39,86.45c9.23,15.89,32.8,26.25,25.16,63.1c-6.58,31.74-41.03,42.19-34.66,103.35
			c4.03,38.61,79.73,58.83,158.4,59.49c65.66,0.55,133.08-14.05,165.54-28.45c38.73-17.19,82.87-22.72,124.94-25.41
			c46.94-3,92.9,11.29,135.16,31.98C612.5,360,623.6,371.67,647.77,371.25"/>
	</g>
	<linearGradient id="SVGID_3_" gradientUnits="userSpaceOnUse" x1="77.6392" y1="11.5314" x2="77.6392" y2="11.5314">
		<stop  offset="0" style="stop-color:#8ACBAD"/>
		<stop  offset="1" style="stop-color:#21A5BD"/>
	</linearGradient>
	<path class="st4" d="M77.64,11.53"/>
	<g>
		<path class="st5" d="M633.65,346.52c31.25-1.58,70.28-24.27,69.93-57.14c-0.92-85.23-43.24-65-31.66-119.69
			c5.64-26.67,37.85-32.45,29.77-95.79c-7.77-60.91-173.3-52.46-181.68-52.64c-27.07-0.58-74.48,3.43-100.53,6.02
			c-54.29,5.42-108.51,22.6-162.9,26.61c-47.37,3.49-108.75-5.48-147.8-11.79c-33.66-5.44-64.48,3.58-76.43,28.93
			c-14.79,31.36-8.72,53.01,5.9,75.77c8.96,13.95,31.23,23.09,24.85,55.36c-5.5,27.8-37.5,36.86-30.27,90.48
			c4.57,33.85,75.8,51.77,149.4,52.57c61.43,0.67,124.19-11.94,154.25-24.48c35.87-14.96,77.04-19.68,116.34-21.92
			c43.85-2.5,87.13,10.15,127.09,28.39C600.43,336.56,611.05,346.82,633.65,346.52"/>
	</g>
</g>
</svg>
