<?xml version="1.0" encoding="utf-8"?>
<!-- Generator: Adobe Illustrator 23.0.0, SVG Export Plug-In . SVG Version: 6.00 Build 0)  -->
<svg version="1.1" id="Capa_1" xmlns="http://www.w3.org/2000/svg" xmlns:xlink="http://www.w3.org/1999/xlink" x="0px" y="0px"
	 viewBox="0 0 401.93 364.92" style="enable-background:new 0 0 401.93 364.92;" xml:space="preserve">
<style type="text/css">
	.st0{fill:url(#SVGID_1_);}
</style>
<linearGradient id="SVGID_1_" gradientUnits="userSpaceOnUse" x1="0" y1="182.4621" x2="401.9316" y2="182.4621">
	<stop  offset="0" style="stop-color:#8DD2AF"/>
	<stop  offset="1" style="stop-color:#1CA9C3"/>
</linearGradient>
<path class="st0" d="M401.93,0v364.92c-27.94-6.1-54.51-22.67-67.55-48.09c-8.21-16.02-11.56-35.79-25.9-46.67
	c-12.03-9.11-28.86-9.2-43.36-5.01c-14.5,4.19-27.59,12.11-41.47,18.05c-21.65,9.29-46.1,13.73-68.97,8.1
	c-22.89-5.62-43.68-22.58-49.87-45.33c-6.68-24.61,2.96-54.63-13.75-73.92c-18.67-21.58-56.81-13.13-77.52-32.78
	C0.32,126.73-1.66,106.22,1.06,88.18c2.72-18.04,9.26-35.53,9.86-53.77C11.31,22.41,8.29,9.49,1.42,0H401.93z"/>
</svg>
