<?xml version="1.0" encoding="utf-8"?>
<!-- Generator: Adobe Illustrator 23.0.0, SVG Export Plug-In . SVG Version: 6.00 Build 0)  -->
<svg version="1.1" id="Capa_1" xmlns="http://www.w3.org/2000/svg" xmlns:xlink="http://www.w3.org/1999/xlink" x="0px" y="0px"
	 viewBox="0 0 401.9 357.9" style="enable-background:new 0 0 401.9 357.9;" xml:space="preserve">
<style type="text/css">
	.st0{clip-path:url(#SVGID_2_);fill:url(#SVGID_3_);}
</style>
<g>
	<defs>
		<rect id="SVGID_1_" x="0" width="401.9" height="357.9"/>
	</defs>
	<clipPath id="SVGID_2_">
		<use xlink:href="#SVGID_1_"  style="overflow:visible;"/>
	</clipPath>
	
		<linearGradient id="SVGID_3_" gradientUnits="userSpaceOnUse" x1="3.259545e-03" y1="176.52" x2="401.93" y2="176.52" gradientTransform="matrix(1 0 0 -1 0 351.96)">
		<stop  offset="0" style="stop-color:#8DD2AF"/>
		<stop  offset="1" style="stop-color:#1CA9C3"/>
	</linearGradient>
	<path class="st0" d="M401.9-7v364.9c-27.9-6.1-54.5-22.7-67.5-48.1c-8.2-16-11.6-35.8-25.9-46.7c-12-9.1-28.9-9.2-43.4-5
		s-27.6,12.1-41.5,18c-21.6,9.3-46.1,13.7-69,8.1c-22.9-5.6-43.7-22.6-49.9-45.3c-6.7-24.6,3-54.6-13.8-73.9
		c-18.7-21.6-56.8-13.1-77.5-32.8C0.3,119.7-1.7,99.2,1.1,81.2s9.3-35.5,9.9-53.8C11.3,15.4,8.3,2.5,1.4-7H401.9z"/>
</g>
</svg>
