<?xml version="1.0" encoding="utf-8"?>
<!-- Generator: Adobe Illustrator 23.0.0, SVG Export Plug-In . SVG Version: 6.00 Build 0)  -->
<svg version="1.1" xmlns="http://www.w3.org/2000/svg" xmlns:xlink="http://www.w3.org/1999/xlink" x="0px" y="0px"
	 viewBox="0 0 500 500" style="enable-background:new 0 0 500 500;" xml:space="preserve">
<style type="text/css">
	.st0{display:none;}
	.st1{display:inline;fill:#020202;}
	.st2{display:inline;fill:#FAF8F8;}
	.st3{display:inline;fill:#FFFFFF;}
	.st4{fill:#F5DC17;}
	.st5{fill:none;stroke:#FFFFFF;stroke-width:4;stroke-linecap:round;stroke-linejoin:round;stroke-miterlimit:10;}
	.st6{fill:#DACCC8;}
	.st7{fill:#EFE8E9;}
	.st8{fill:#FFFFFF;}
	.st9{fill:none;stroke:#EFE8E9;stroke-width:8;stroke-linecap:round;stroke-linejoin:round;stroke-miterlimit:10;}
	.st10{fill:#F7F3F4;}
	.st11{opacity:0.3;fill:#EFE8E9;}
	.st12{fill:none;stroke:#FFFFFF;stroke-miterlimit:10;}
	.st13{fill:#BCE0C1;}
	.st14{fill:#94C19B;}
	.st15{fill:none;stroke:#F5DC17;stroke-miterlimit:10;stroke-dasharray:4.0333,2.0167;}
	.st16{fill:none;stroke:#5E7969;stroke-miterlimit:10;}
	.st17{clip-path:url(#SVGID_2_);fill:none;stroke:#5E7969;stroke-miterlimit:10;}
	.st18{clip-path:url(#SVGID_4_);fill:#94C19B;}
	.st19{clip-path:url(#SVGID_4_);fill:none;stroke:#5E7969;stroke-miterlimit:10;}
	.st20{fill:none;stroke:#F5DC17;stroke-miterlimit:10;stroke-dasharray:4,2;}
	.st21{fill:none;stroke:#E0DFDB;stroke-miterlimit:10;stroke-dasharray:4,2;}
	.st22{fill:#B3C3F7;}
	.st23{fill:none;stroke:#EFE8E9;stroke-width:4;stroke-linecap:round;stroke-linejoin:round;stroke-miterlimit:10;}
	.st24{fill:#849CF1;}
	.st25{fill:#F2C7BF;}
	.st26{fill:#212121;}
	.st27{fill:#E89E91;}
	.st28{fill:#A2B7F3;}
	.st29{fill:none;stroke:#F5DC17;stroke-width:4;stroke-linecap:round;stroke-linejoin:round;stroke-miterlimit:10;}
	.st30{fill:none;stroke:#E15938;stroke-width:4;stroke-linecap:round;stroke-linejoin:round;stroke-miterlimit:10;}
	.st31{display:none;fill:#EFE8E9;}
	.st32{fill:#E15938;}
	.st33{fill:#D0391A;}
	.st34{fill:#E4B719;}
	.st35{fill:none;stroke:#E7DDDD;stroke-width:3;stroke-linecap:round;stroke-linejoin:round;stroke-miterlimit:10;}
</style>
<g id="Capa_3" class="st0">
	<rect x="-6.64" y="-5.95" class="st1" width="512.88" height="512.88"/>
</g>
<g id="BACKGROUND" class="st0">
	<rect class="st2" width="500" height="500"/>
	<path class="st3" d="M109.46,77.91C164.95,32.72,239.6,10.53,310.18,22.3c70.58,11.77,135.33,58.66,164.8,123.87
		c17.74,39.24,22.69,83.3,20.64,126.32c-2.16,45.28-12.21,91.06-35.99,129.65c-23.79,38.59-62.55,69.31-107.27,76.75
		c-35.69,5.94-72.01-2.92-107.1-11.71c-53.32-13.36-107.76-27.2-153.8-57.23c-44.46-29-77.14-75.2-86.26-127.99
		c-7.69-44.52,21.77-101.03,44.98-137.2C66.31,119.58,86.25,96.8,109.46,77.91z"/>
</g>
<g id="OBJECTS">
	<g>
		<g>
			<path class="st4" d="M423.36,34.82h-75.69c-19.63,0-35.54,15.91-35.54,35.54v0c0,19.63,15.91,35.54,35.54,35.54h75.69
				c19.63,0,35.54-15.91,35.54-35.54v0C458.9,50.73,442.99,34.82,423.36,34.82z"/>
			<polygon class="st4" points="443.02,99.96 403.77,127.42 403.77,99.96 			"/>
		</g>
		<line class="st5" x1="332.89" y1="55.57" x2="436.09" y2="55.57"/>
		<line class="st5" x1="332.89" y1="70.73" x2="436.09" y2="70.73"/>
		<line class="st5" x1="392.37" y1="85.89" x2="436.09" y2="85.89"/>
	</g>
	<g>
		<g>
			<path class="st6" d="M93.92,184.43h344.21c8.92,0,15.55,7.23,14.82,16.14l-15.26,185.54c-0.73,8.92-8.55,16.14-17.47,16.14H76.01
				c-8.92,0-15.55-7.23-14.82-16.14l15.26-185.54C77.19,191.66,85.01,184.43,93.92,184.43z"/>
			<path class="st7" d="M445.03,199.64l-15.41,187.41c-0.69,8.4-8.06,15.21-16.46,15.21H67.09c-8.4,0-14.65-6.81-13.96-15.21
				l11.4-138.65l4.01-48.76c0.08-0.94,0.24-1.88,0.49-2.77c1.88-7.08,8.52-12.43,15.97-12.43h346.08
				C439.47,184.44,445.72,191.24,445.03,199.64z"/>
			<path class="st6" d="M93.94,197.95h326.27c6.64,0,11.58,5.28,11.04,11.8l-14.01,167.19c-0.55,6.52-6.37,11.8-13.01,11.8H77.95
				c-6.64,0-11.58-5.28-11.04-11.8l14.01-167.19C81.48,203.23,87.3,197.95,93.94,197.95z"/>
			<path class="st8" d="M431.06,214.2l-13.35,158.27l-0.4,4.77c-0.53,6.36-6.25,11.51-12.76,11.51H84.49
				c-6.51,0-11.36-5.15-10.82-11.51L87.41,214.2c0.54-6.35,6.25-11.5,12.77-11.5h320.05C426.75,202.7,431.59,207.85,431.06,214.2z"
				/>
			<g>
				<line class="st9" x1="267.89" y1="223.31" x2="112.45" y2="223.31"/>
				<line class="st9" x1="265.92" y1="247.85" x2="110.48" y2="247.85"/>
				<line class="st9" x1="263.94" y1="272.39" x2="108.5" y2="272.39"/>
				<line class="st9" x1="261.96" y1="296.92" x2="106.52" y2="296.92"/>
				<line class="st9" x1="259.98" y1="321.46" x2="104.54" y2="321.46"/>
				<line class="st9" x1="258" y1="346" x2="102.56" y2="346"/>
				<line class="st9" x1="256.03" y1="370.54" x2="100.59" y2="370.54"/>
				<path class="st10" d="M399.86,307.27H282.79c-4.26,0-7.6-4.4-7.21-9.51l5.61-74.03c0.34-4.49,3.47-7.92,7.21-7.92h117.07
					c4.26,0,7.6,4.4,7.21,9.51l-5.61,74.03C406.73,303.83,403.61,307.27,399.86,307.27z"/>
				<path class="st10" d="M398.44,372.68H279.4c-3.64,0-6.51-3.72-6.25-8.09l2.64-43.99c0.24-3.94,2.96-7,6.25-7h119.04
					c3.64,0,6.51,3.72,6.25,8.09l-2.64,43.99C404.45,369.62,401.72,372.68,398.44,372.68z"/>
			</g>
		</g>
	</g>
	<g>
		<path class="st11" d="M275.78,184.44v56.73c0,3.99-3.24,7.23-7.23,7.23H64.53l4.01-48.76c0.08-0.94,0.24-1.88,0.49-2.77
			c1.88-7.08,8.52-12.43,15.97-12.43H275.78z"/>
		<g>
			<g>
				<g>
					<path class="st8" d="M52.44,214.43c-3.71,0-6.73-3.02-6.73-6.73V89.29h193.04c3.71,0,6.73,3.02,6.73,6.73V207.7
						c0,3.71-3.02,6.73-6.73,6.73H52.44z"/>
					<path class="st7" d="M238.76,89.79c3.44,0,6.23,2.79,6.23,6.23V207.7c0,3.44-2.79,6.23-6.23,6.23H52.44
						c-3.44,0-6.23-2.79-6.23-6.23V89.79H238.76 M238.76,88.79H45.21V207.7c0,3.99,3.24,7.23,7.23,7.23h186.31
						c3.99,0,7.23-3.24,7.23-7.23V96.02C245.99,92.02,242.75,88.79,238.76,88.79L238.76,88.79z"/>
				</g>
				<path class="st4" d="M108.49,73.46H50.41c-2.87,0-5.2,2.33-5.2,5.2v10.13h74.71l-6.87-12.62
					C112.14,74.5,110.39,73.46,108.49,73.46z"/>
				<g>
					<circle class="st12" cx="62.67" cy="81.12" r="3.7"/>
					<path class="st12" d="M81.91,81.12c0,2.04-1.66,3.7-3.7,3.7c-2.04,0-3.7-1.66-3.7-3.7c0-2.04,1.66-3.7,3.7-3.7
						C80.25,77.42,81.91,79.08,81.91,81.12z"/>
					<circle class="st12" cx="93.76" cy="81.12" r="3.7"/>
				</g>
			</g>
			<g>
				<g>
					<path class="st13" d="M180.89,143.95c1.3-2.49,4.37-3.45,6.86-2.16c2.49,1.3,3.45,4.37,2.16,6.86
						c-1.3,2.49-4.37,3.45-6.86,2.16C180.55,149.51,179.59,146.44,180.89,143.95z"/>
					<path class="st13" d="M193.9,120.99c-0.78,1.49-0.2,3.34,1.29,4.11c1.49,0.78,3.34,0.2,4.11-1.29c0.78-1.49,0.2-3.34-1.29-4.11
						C196.52,118.91,194.67,119.49,193.9,120.99z"/>
					<path class="st14" d="M165.53,121.15c-1.83,3.51-0.47,7.84,3.04,9.67c3.51,1.83,7.84,0.47,9.67-3.04
						c1.83-3.51,0.47-7.84-3.04-9.67C171.69,116.28,167.36,117.65,165.53,121.15z"/>
					<path class="st14" d="M207.24,136.58c0,1.37-1.11,2.47-2.47,2.47s-2.47-1.11-2.47-2.47c0-1.37,1.11-2.47,2.47-2.47
						S207.24,135.21,207.24,136.58z"/>
					<path class="st14" d="M184.03,110.18c0-1.06-0.86-1.91-1.91-1.91s-1.91,0.86-1.91,1.91c0,1.06,0.86,1.91,1.91,1.91
						S184.03,111.24,184.03,110.18z"/>
					<path class="st13" d="M188.13,130.51c0-1.06-0.86-1.91-1.91-1.91c-1.06,0-1.91,0.86-1.91,1.91s0.86,1.91,1.91,1.91
						C187.27,132.42,188.13,131.56,188.13,130.51z"/>
					<path class="st13" d="M210.25,122.4c0-1.06-0.86-1.91-1.91-1.91c-1.06,0-1.91,0.86-1.91,1.91s0.86,1.91,1.91,1.91
						C209.39,124.31,210.25,123.45,210.25,122.4z"/>
					<path class="st14" d="M171.89,143.96c0-0.54-0.44-0.97-0.97-0.97c-0.54,0-0.97,0.44-0.97,0.97c0,0.54,0.44,0.97,0.97,0.97
						C171.45,144.94,171.89,144.5,171.89,143.96z"/>
				</g>
				<g>
					
						<ellipse transform="matrix(0.6618 -0.7497 0.7497 0.6618 -34.8591 183.7401)" class="st15" cx="186.22" cy="130.51" rx="30.82" ry="30.82"/>
				</g>
				<g>
					<path class="st14" d="M137.12,121.44c-5.09,18.45-16.87,27.57-35.47,27.57c0,0-0.32-13.74,8.76-24.18L137.12,121.44z"/>
					<line class="st16" x1="101.65" y1="149.01" x2="128.98" y2="123.06"/>
					<path class="st13" d="M140.9,129.41c-0.51-2.51-2.12-5.94-3.84-8.04l-26.72,3.29C116.96,129.26,127.63,132.3,140.9,129.41z"/>
					<g>
						<line class="st16" x1="101.65" y1="185.19" x2="101.65" y2="148.48"/>
						<path class="st16" d="M101.65,178.39c-0.74,3.22-2.91,6.09-5.8,7.69c-2.55,1.41-5.51,1.83-8.22,2.9
							c-2.71,1.07-5.37,3.14-5.69,6.04"/>
						<path class="st16" d="M101.76,184.99c-0.8,1.92-0.51,4.26,0.75,5.93c0.69,0.91,1.63,1.62,2.31,2.53
							c0.69,0.92,1.09,2.2,0.54,3.2"/>
						<path class="st16" d="M101.58,185.12c1.36,1.31,3.29,1.82,5.16,2.09c1.87,0.27,3.79,0.35,5.55,1.03
							c1.76,0.67,3.39,2.11,3.64,3.98"/>
						<path class="st16" d="M93.27,186.9c-0.13,0.73-0.26,1.45-0.4,2.18c-0.21,1.18-0.44,2.38-1.02,3.43
							c-0.59,1.05-1.61,1.93-2.81,2.01"/>
						<path class="st16" d="M101.65,175.94c0.56,2.32,2.65,3.86,4.96,4.47c2.31,0.61,4.73,0.5,7.1,0.79
							c3.21,0.39,6.33,1.51,9.06,3.26c1.67,1.07,3.19,2.38,4.9,3.39c1.71,1.01,3.69,1.74,5.66,1.5"/>
						<path class="st16" d="M112.72,194.8c-1.37-0.78-2.36-2.19-2.65-3.74c-0.21-1.12-0.07-2.3-0.44-3.38"/>
						<path class="st16" d="M118.78,182.54c1.04,0.35,1.26,1.77,0.94,2.83c-0.32,1.05-0.98,2.02-1.02,3.12
							c-0.04,1.19,0.64,2.27,1.35,3.22c0.71,0.95,1.5,1.92,1.71,3.08c0.22,1.17-0.4,2.59-1.58,2.78"/>
						<path class="st16" d="M74.16,185.74c1.91,1.24,4.46,1.05,6.57,0.2c2.12-0.85,3.95-2.26,5.9-3.44
							c1.95-1.18,4.17-2.14,6.44-1.93c1.38,0.13,2.68,0.68,4.05,0.89c1.37,0.2,3.16-0.22,3.98-1.34"/>
						<path class="st16" d="M116.81,177.34c-1.02-0.76-2.5-0.55-3.63,0.05c-1.13,0.59-2.06,1.5-3.15,2.16
							c-1.09,0.66-2.66,1.32-3.8,0.75"/>
						<path class="st16" d="M79.86,179.44c1.47-1.15,3.55-1.48,5.31-0.83c1.78,0.65,3.08,2.39,4.97,2.29"/>
					</g>
					<g>
						<defs>
							<path id="SVGID_1_" d="M140.9,129.41c-0.51-2.51-2.12-5.94-3.84-8.04l-26.72,3.29C116.96,129.26,127.63,132.3,140.9,129.41z"
								/>
						</defs>
						<clipPath id="SVGID_2_">
							<use xlink:href="#SVGID_1_"  style="overflow:visible;"/>
						</clipPath>
						<line class="st17" x1="142.1" y1="130.54" x2="124.95" y2="121.02"/>
					</g>
					<g>
						<defs>
							<path id="SVGID_3_" d="M101.65,149.01c-7-26.54-21.5-29.83-45.4-22.65C69.3,160.85,101.65,149.01,101.65,149.01z"/>
						</defs>
						<clipPath id="SVGID_4_">
							<use xlink:href="#SVGID_3_"  style="overflow:visible;"/>
						</clipPath>
						<path class="st18" d="M101.65,149.01c-7-26.54-21.5-29.83-45.4-22.65C69.3,160.85,101.65,149.01,101.65,149.01z"/>
						<line class="st19" x1="56.24" y1="126.36" x2="101.65" y2="149.01"/>
					</g>
				</g>
				<circle class="st20" cx="130.12" cy="128.44" r="12.63"/>
				<line class="st21" x1="142.75" y1="128.44" x2="155.4" y2="130.51"/>
				<g>
					<path class="st22" d="M126.61,165.93c0,3.14-2.55,5.69-5.69,5.69s-5.69-2.55-5.69-5.69c0-3.14,5.69-11.08,5.69-11.08
						S126.61,162.79,126.61,165.93z"/>
					<path class="st22" d="M97.49,113.87c0,2.59-2.1,4.7-4.7,4.7s-4.7-2.1-4.7-4.7c0-2.59,4.7-9.14,4.7-9.14
						S97.49,111.27,97.49,113.87z"/>
					<path class="st22" d="M85.81,166.97c0,2.14-1.73,3.87-3.87,3.87c-2.14,0-3.87-1.73-3.87-3.87c0-2.14,3.87-7.53,3.87-7.53
						S85.81,164.83,85.81,166.97z"/>
				</g>
				<g>
					<line class="st23" x1="150.74" y1="170.69" x2="218.84" y2="170.69"/>
					<line class="st23" x1="150.74" y1="181.47" x2="218.84" y2="181.47"/>
					<line class="st23" x1="150.74" y1="192.25" x2="192.05" y2="192.25"/>
					<line class="st23" x1="150.74" y1="203.02" x2="176.22" y2="203.02"/>
				</g>
			</g>
		</g>
	</g>
	<g>
		<path class="st24" d="M269.23,303.94L269.23,303.94c4,14.8,20.83,21.88,34.22,14.44c35.21-19.56,61.94-54.1,76.23-89.82
			c4.15-10.38-0.38-22.2-10.41-27.13l0,0c-8.65-4.25-19.07-2.2-25.45,5.02l-69.21,75.43C269.16,287.82,267.13,296.15,269.23,303.94z
			"/>
		<g>
			<g>
				<path class="st25" d="M186.79,212.74c0.37,0.47,0.73,0.95,1.12,1.45c2.84,3.71,6.36,8.31,11.42,12.92
					c6.59,6.03,15.77,12.12,29.38,16.41l5.37-13.5l-8.81-30.78L186.79,212.74z"/>
				<path class="st26" d="M201.46,188.99l5.29,53.79c0.19,1.9,1.88,3.29,3.78,3.11l0,0c1.95-0.18,3.36-1.94,3.11-3.88l-6.53-52.28
					L201.46,188.99z"/>
				<path class="st27" d="M187.9,214.18c2.84,3.71,6.36,8.31,11.42,12.92c1.68-0.35,3.13-1.52,3.75-3.25
					c0.26-0.73,0.33-1.49,0.25-2.23c0-0.14-0.03-0.26-0.05-0.39c-0.02-0.11-0.04-0.23-0.1-0.33c-0.42-1.68-1.7-3.12-3.51-3.62
					l-10.19-2.93C188.96,214.22,188.43,214.17,187.9,214.18z"/>
				<path class="st27" d="M185.71,208.65c-0.24,1.73,0.45,3.52,1.96,4.64l8.57,6.27c2.2,1.61,5.31,1.18,6.99-0.97
					c0.48-0.62,0.78-1.32,0.94-2.05c0.04-0.14,0.06-0.26,0.07-0.38c0.01-0.1,0.03-0.22,0.02-0.33c0.13-1.74-0.64-3.51-2.2-4.55
					l-8.76-5.98c-1.25-0.83-2.78-1.04-4.14-0.63c-0.19,0.06-0.39,0.13-0.59,0.21c-0.7,0.28-1.35,0.75-1.85,1.38
					C186.17,206.99,185.83,207.81,185.71,208.65z"/>
				<path class="st25" d="M206.78,199.65c0.15,0.61,0.19,1.26,0.09,1.91c-0.03,0.18-0.06,0.34-0.1,0.51
					c-0.43,1.77-1.77,3.13-3.44,3.62c-0.64,0.2-1.32,0.27-2.02,0.19l-4.37-0.46l-6.17-0.67c-0.88-0.1-1.68-0.42-2.34-0.9
					c-0.94-0.67-1.61-1.66-1.89-2.79c-0.15-0.61-0.18-1.26-0.08-1.91c0.36-2.4,2.41-4.13,4.79-4.15l0.01,0
					c0.13,0,0.26,0.01,0.39,0.02l10.58,0.79c0.1,0,0.21,0.02,0.31,0.04C204.67,196.12,206.3,197.69,206.78,199.65z"/>
				<path class="st25" d="M181.67,219c0.32,1.72,1.54,3.2,3.32,3.79l10.11,3.25c2.6,0.83,5.41-0.55,6.33-3.12
					c0.26-0.74,0.33-1.5,0.25-2.24c-0.01-0.15-0.03-0.27-0.05-0.39c-0.02-0.1-0.04-0.22-0.08-0.32c-0.42-1.7-1.71-3.13-3.51-3.63
					l-10.19-2.93c-1.45-0.4-2.97-0.12-4.13,0.71c-0.17,0.11-0.33,0.25-0.49,0.38c-0.58,0.48-1.04,1.13-1.32,1.89
					C181.58,217.29,181.51,218.18,181.67,219z"/>
				<path class="st27" d="M183.7,214.14c0.41,0.84,1.07,1.58,1.95,2.08l9.19,5.28c2.29,1.33,5.91,1.17,7.42-2.06
					c-0.42-1.7-2.44-2.58-4.24-3.08l-10.19-2.93C186.38,213.03,184.87,213.31,183.7,214.14z"/>
				<path class="st25" d="M183.45,208.25c-0.24,1.73,0.45,3.52,1.96,4.64l8.57,6.27c2.2,1.61,5.31,1.18,6.99-0.97
					c0.48-0.62,0.78-1.32,0.94-2.05c0.04-0.14,0.06-0.26,0.07-0.38c0.01-0.1,0.03-0.22,0.02-0.33c0.13-1.74-0.64-3.51-2.2-4.55
					l-8.76-5.98c-1.25-0.83-2.78-1.04-4.14-0.63c-0.19,0.06-0.39,0.13-0.59,0.21c-0.7,0.28-1.35,0.75-1.85,1.38
					C183.9,206.6,183.56,207.42,183.45,208.25z"/>
				<path class="st27" d="M186.91,204.27c0.12,0.93,0.52,1.83,1.2,2.59l7.06,7.91c1.76,1.98,5.24,2.97,7.69,0.37
					c0.13-1.74-1.5-3.22-3.06-4.26l-8.76-5.98C189.8,204.07,188.28,203.86,186.91,204.27z"/>
				<path class="st27" d="M192.92,203.06c-0.29,1.34-0.02,2.81,0.88,3.99l4.53,5.73c1.65,2.18,4.74,2.64,6.95,1.07
					c0.97-0.71,1.62-1.66,1.92-2.74c0.04-0.1,0.07-0.22,0.09-0.32c0.32-1.46,0-3.02-1.01-4.27l-4.79-5.54
					c-0.8-0.97-1.91-1.57-3.07-1.74c-1.2-0.2-2.45,0.08-3.52,0.81C193.85,200.8,193.17,201.87,192.92,203.06z"/>
				<path class="st25" d="M205.11,210.33c-0.02,0.1-0.03,0.22-0.06,0.33c-0.02,0.13-0.07,0.26-0.09,0.38l-0.01,0
					c-0.26,0.94-0.79,1.8-1.6,2.48c-2.08,1.76-5.2,1.53-7.02-0.52l-7.08-7.9c-0.34-0.39-0.61-0.81-0.81-1.26
					c-0.38-0.84-0.5-1.77-0.38-2.66c0.16-1.2,0.75-2.32,1.75-3.14c0.58-0.46,1.2-0.77,1.88-0.95c0.51-0.13,1.05-0.17,1.57-0.13
					c1.16,0.07,2.32,0.58,3.19,1.49l6.88,7.23l0.44,0.46C204.87,207.32,205.3,208.85,205.11,210.33z"/>
				<path class="st27" d="M203.3,205.59l0.44,0.46c1.1,1.16,1.53,2.69,1.34,4.17c-0.02,0.1-0.03,0.22-0.06,0.33
					c-0.02,0.13-0.07,0.26-0.09,0.38l-0.01,0c-2.1,0.66-4.48-0.15-5.73-2.1l-2.27-3.53l-4.91-7.66c-0.14-0.21-0.26-0.44-0.35-0.66
					c-0.31-0.68-0.44-1.4-0.43-2.12l0.01,0c0.13,0,0.26,0.01,0.39,0.02l10.58,0.79c0.1,0,0.21,0.02,0.31,0.04l4.22,6.23
					C206.32,203.73,204.97,205.09,203.3,205.59z"/>
				<path class="st25" d="M212.32,194.71c0.21,0.85,0.2,1.76-0.07,2.65c-0.79,2.63-3.53,4.14-6.17,3.44l-3.31-0.88l-6.94-1.87
					c-1.04-0.28-1.92-0.88-2.54-1.66c-0.46-0.55-0.78-1.2-0.95-1.9c-0.21-0.85-0.19-1.76,0.1-2.65c0.77-2.42,3.28-3.86,5.76-3.29
					l3.35,0.79l3.55,0.82l3.44,0.81C210.49,191.42,211.88,192.91,212.32,194.71z"/>
				<path class="st27" d="M198.23,196.82c-0.49,1.28-0.45,2.77,0.26,4.08l3.6,6.36c1.29,2.41,4.28,3.34,6.71,2.12
					c1.07-0.56,1.86-1.4,2.31-2.41c0.06-0.09,0.1-0.2,0.14-0.3c0.54-1.4,0.47-2.99-0.34-4.38l-3.88-6.2
					c-0.64-1.08-1.64-1.84-2.77-2.19c-1.15-0.38-2.44-0.3-3.6,0.27C199.5,194.73,198.67,195.69,198.23,196.82z"/>
				<path class="st25" d="M193.71,194.13c-0.39,1.32-0.23,2.8,0.57,4.05l5.79,8.9c1.48,2.3,4.53,3,6.85,1.59
					c1.03-0.64,1.74-1.54,2.12-2.58c0.05-0.09,0.08-0.21,0.11-0.31c0.43-1.44,0.23-3.01-0.68-4.34l-6.06-8.72
					c-0.72-1.03-1.78-1.71-2.93-1.96c-1.18-0.29-2.45-0.11-3.57,0.54C194.81,191.95,194.05,192.97,193.71,194.13z"/>
				<g>
					<g>
						<path class="st27" d="M228.01,227.72l-7.55-26.05l-13.95-8.92l-1.51,9.82l4.37,5.12
							C209.38,207.69,202.91,228.92,228.01,227.72z"/>
						<path class="st27" d="M206.51,192.76l-8.95,3.49c-1.94,0.76-2.92,2.94-2.19,4.89l0,0c0.65,1.74,2.45,2.76,4.27,2.42l5.36-0.99
							L206.51,192.76z"/>
					</g>
					<g>
						<path class="st27" d="M205.11,190.17l0.27,8.76l-2.59,0.99l-3.41,1.29c-0.18,0.07-0.37,0.13-0.54,0.18
							c-1.91,0.47-3.91-0.35-4.94-2.07c-0.55-0.91-0.73-1.94-0.59-2.92c0.17-1.29,0.9-2.48,2.08-3.22l6.17-3.83L205.11,190.17z"/>
						<path class="st26" d="M207.52,194.26l-10.29-80.47c-0.08-0.76-0.64-1.39-1.39-1.54l0,0c-1.15-0.24-2.21,0.71-2.11,1.88
							l7.95,82.27L207.52,194.26z"/>
						<path class="st25" d="M234.06,230.01l-8.81-30.78l-16.43-10.58l-1.82,11.59l5.14,6.06
							C212.15,206.29,204.43,231.32,234.06,230.01z"/>
						<path class="st25" d="M208.83,188.65l-10.57,4.08c-2.3,0.89-3.46,3.45-2.61,5.77l0,0c0.76,2.05,2.88,3.27,5.03,2.88l6.33-1.14
							L208.83,188.65z"/>
					</g>
				</g>
			</g>
			<path class="st25" d="M225.49,240.7c15.28,32.03,34.75,54.37,46.22,68.78c3.81,4.79,9.06,7.38,14.43,7.93
				c2.59,0.26,5.22,0.05,7.73-0.61c5.86-1.55,11.12-5.59,13.93-11.88c2.66-5.94,2.39-12.57-0.34-18.11c-1.48-3-3.68-5.67-6.51-7.75
				l-19.8-14.52l-47.1-34.52L225.49,240.7z"/>
		</g>
		<g>
			<g>
				<polygon class="st25" points="376.33,192.38 345.12,201.97 338.19,189.39 327.98,170.87 323.93,163.54 351.09,111.39 				"/>
				<path class="st27" d="M349.66,163.99c0,0,2.84,14.34-12.31,24.02l-7.95-14.41L349.66,163.99z"/>
				<path d="M320.89,114.1c-27.41-4.72-16.31-36.02,7.3-23.93c16.89,8.65,29.47-11.37,46.97-1.45c22.94,13.01,0.63,37.44,0.63,37.44
					L320.89,114.1z"/>
				<path class="st25" d="M357.58,162.31l-32.53,18.4c-8.14,4.6-18.41-0.15-20.11-9.36c-2.37-12.55-4-29.48,0.16-43.59
					c2.46-8.33,7.59-15.28,14.3-20.08c3.01-2.17,6.35-3.9,9.92-5.1l0.04-0.02l2.02-0.62l0.2-0.07c1.02-0.28,2.04-0.49,3.08-0.67
					c2.47-0.45,5-0.68,7.57-0.62c2.46,0.04,4.83,0.5,7.02,1.3c9.18,3.36,15.27,12.84,13.79,23.18l-1.3,8.88L357.58,162.31z"/>
				<path d="M323.93,104.87c20.83-15.3,42.66-7.87,54.55,1.94c8.37,6.9,15.5,18.03,9.37,27.67c-5.58,8.77-19.49,10.34-21.3,26.5
					l-18.67-43.77L323.93,104.87z"/>
				<path class="st25" d="M350.77,138.45c34.45-25.87,38.85,19.92,1.46,17.46L350.77,138.45z"/>
				<path class="st25" d="M304.09,131.68c-1.88,7.02-6.54,9.02-9.71,9.48c-2.03,0.3-3.5,2.1-3.39,4.15l0,0
					c0.14,2.71,1.86,5.08,4.39,6.05l8.95,3.44c4.89,0.95,9.53-2.52,10.01-7.48l1.62-16.81L304.09,131.68z"/>
				<path d="M302.74,154.18c20.56-8.68,50.77-5.12,50.77-5.12s0.03,9.49-3.38,17.45C346.72,174.48,301.46,208.2,302.74,154.18z"/>
				<path class="st28" d="M413.32,271.15c-6.62,31.46-14.72,58.14-14.72,58.14l-65.63,3.91l14.08-59.31
					c-14.04-13.11-14.92-29.03-12.03-42.89c2.62-12.62,8.36-23.51,10.1-29.02l26.05-25.5c1.39-1.38,33.17,0.73,42.78,45.56
					C417.62,239.12,416.5,256.07,413.32,271.15z"/>
				<polygon class="st24" points="367.85,216.66 384.5,291.24 361.93,331.47 398.6,329.29 418.12,264.95 418.12,221 				"/>
				<polygon points="346.05,109.75 343.21,154.95 352.37,159.22 362.25,123.92 				"/>
				<path d="M311.13,141.55c-0.78,3.2-0.23,6.09,1.23,6.45c1.46,0.36,3.28-1.95,4.06-5.16c0.78-3.2,0.23-6.09-1.23-6.45
					C313.73,136.04,311.91,138.35,311.13,141.55z"/>
				<path d="M319.53,127.46c6.31,3.11,8.3-0.1,3.83-3.21C318.55,120.91,311.68,123.59,319.53,127.46z"/>
				<path class="st8" d="M324.17,157.6c-0.65,8.27-7.19,8.98-10.13,2.05L324.17,157.6z"/>
				<path d="M417.71,372.46l-0.4,4.77c-0.53,6.36-6.25,11.51-12.76,11.51h-92.24c6.93-36.25,20.48-55.55,20.48-55.55l65.62-3.9
					C409.58,340.3,415.05,357.4,417.71,372.46z"/>
			</g>
		</g>
		<g>
			<path class="st28" d="M426,309.93L426,309.93c14.04,2.57,27.19-9,25.41-23.17c-4.6-36.41-32.05-71.48-53.15-92.68
				c-8.44-8.47-22.43-7.84-31.1,0.4l0,0c-7.48,7.1-9.27,18.33-4.39,27.41l48.81,78.23C414.79,305.28,420.03,308.84,426,309.93z"/>
		</g>
		<g>
			<path class="st25" d="M409.38,280.73l-47.92,43.56l0.56,17.57c0,0,48.56-8.42,80.13-35.18
				C463.85,288.28,436.7,256.17,409.38,280.73z"/>
			<g>
				<polygon class="st25" points="362.5,341.75 310.06,352.26 352.68,314.61 373.56,333.32 				"/>
				<path class="st25" d="M350.42,322.27l4.78-6.5c1.41-1.92,0.63-4.66-1.58-5.54l-0.68-0.27c-4.19-1.68-8.91,0.61-10.19,4.93l0,0
					c-0.86,2.9,0.07,6.04,2.37,8l0,0C346.72,324.26,349.16,323.98,350.42,322.27z"/>
				<path class="st25" d="M338.55,331.54l-28.49,20.71l-1.02-0.42c-4.01-1.65-8.53-1.46-12.37,0.54c-0.62,0.31-1.36,0.18-1.82-0.29
					c-0.07-0.08-0.13-0.16-0.19-0.25c-1.54-2.38-1.15-5.45,0.8-7.35c0.32-0.32,0.7-0.59,1.11-0.84l1.95-0.98l0.2-0.1
					c3.37-1.68,7.33-1.6,10.62,0.22l28.3-10.88L338.55,331.54z"/>
				<path class="st27" d="M330.58,341.79l-14.98,7.5c-6.41-3.14-10.93-2.24-14.76-0.25c-0.62,0.31-1.36,0.18-1.82-0.29
					c-0.07-0.07-0.13-0.16-0.19-0.25c-1.19-1.82-1.23-4.05-0.3-5.83l0.2-0.1c3.37-1.68,7.33-1.6,10.62,0.22l7.35,2.99L330.58,341.79
					z"/>
				<path class="st25" d="M316.68,345.78l-1.02-0.42c-4-1.65-8.52-1.45-12.37,0.54l0,0c-0.71,0.37-1.58,0.14-2.02-0.53l0,0
					c-1.81-2.78-0.94-6.5,1.9-8.2l2.15-1.07c3.37-1.67,7.34-1.59,10.63,0.22l0,0l29.21-11.24L316.68,345.78z"/>
			</g>
		</g>
		<polygon class="st28" points="344.76,214.18 334.09,188.8 369.71,165.55 376.33,177.75 		"/>
		<path d="M351.95,126.62c-16.3,0-26.47-6.69-14.19-18.96C346.31,99.12,363.81,106.79,351.95,126.62z"/>
	</g>
	<path class="st20" d="M45.21,171.62C0,214.18,32.11,293.95,96.36,293.75"/>
	<g>
		<path class="st11" d="M259.44,270.52h-68.12l-6.87-12.62c-0.91-1.67-2.66-2.71-4.56-2.71h-58.08c-2.87,0-5.2,2.33-5.2,5.2v10.13
			v72.72c0,3.99,3.24,7.23,7.23,7.23h135.6c3.99,0,7.23-3.24,7.23-7.23v-65.49C266.67,273.76,263.44,270.52,259.44,270.52z"/>
		<g>
			<g>
				<g>
					<path class="st8" d="M103.59,333.23c-3.71,0-6.73-3.02-6.73-6.73v-72.22h142.33c3.71,0,6.73,3.02,6.73,6.73v65.49
						c0,3.71-3.02,6.73-6.73,6.73H103.59z"/>
					<path class="st7" d="M239.19,254.78c3.44,0,6.23,2.79,6.23,6.23v65.49c0,3.44-2.79,6.23-6.23,6.23h-135.6
						c-3.44,0-6.23-2.79-6.23-6.23v-71.72H239.19 M239.19,253.78H96.36v72.72c0,3.99,3.24,7.23,7.23,7.23h135.6
						c3.99,0,7.23-3.24,7.23-7.23v-65.49C246.42,257.02,243.18,253.78,239.19,253.78L239.19,253.78z"/>
				</g>
				<path class="st14" d="M159.64,238.45h-58.08c-2.87,0-5.2,2.33-5.2,5.2v10.13h74.71l-6.87-12.62
					C163.29,239.49,161.54,238.45,159.64,238.45z"/>
				<g>
					<circle class="st12" cx="113.82" cy="246.11" r="3.7"/>
					<path class="st12" d="M133.06,246.11c0,2.04-1.66,3.7-3.7,3.7c-2.04,0-3.7-1.66-3.7-3.7c0-2.04,1.66-3.7,3.7-3.7
						C131.41,242.41,133.06,244.07,133.06,246.11z"/>
					<circle class="st12" cx="144.91" cy="246.11" r="3.7"/>
				</g>
			</g>
			<g>
				<line class="st23" x1="171.07" y1="271.83" x2="171.07" y2="312.69"/>
				<line class="st23" x1="180.84" y1="274.75" x2="180.84" y2="309.77"/>
				<line class="st23" x1="190.61" y1="283.25" x2="190.61" y2="301.26"/>
				<line class="st23" x1="117.52" y1="271.83" x2="117.52" y2="312.69"/>
				<line class="st23" x1="126.82" y1="274.75" x2="126.82" y2="309.77"/>
				<line class="st23" x1="136.12" y1="283.25" x2="136.12" y2="301.26"/>
				<line class="st23" x1="223.81" y1="312.69" x2="223.81" y2="271.83"/>
				<line class="st23" x1="214.51" y1="309.77" x2="214.51" y2="274.75"/>
				<line class="st23" x1="205.2" y1="301.27" x2="205.2" y2="283.26"/>
				<line class="st23" x1="161.3" y1="309.48" x2="161.3" y2="274.46"/>
				<line class="st23" x1="151.53" y1="301.98" x2="151.53" y2="282.04"/>
				<path class="st29" d="M116.13,271.83c27.47,0,27.47,40.86,54.94,40.86c27.47,0,27.47-40.86,54.94-40.86"/>
				<path class="st30" d="M226.02,312.69c-27.47,0-27.47-40.86-54.94-40.86c-27.47,0-27.47,40.86-54.94,40.86"/>
				<path class="st13" d="M147.56,267.42c0,1.46-1.18,2.64-2.64,2.64c-1.46,0-2.64-1.18-2.64-2.64c0-1.46,1.18-2.64,2.64-2.64
					C146.38,264.78,147.56,265.96,147.56,267.42z"/>
				<path class="st13" d="M197.54,317.51c0,1.46-1.18,2.64-2.64,2.64s-2.64-1.18-2.64-2.64c0-1.46,1.18-2.64,2.64-2.64
					S197.54,316.05,197.54,317.51z"/>
				<path class="st13" d="M209.15,267.42c0,1.46-1.18,2.64-2.64,2.64c-1.46,0-2.64-1.18-2.64-2.64c0-1.46,1.18-2.64,2.64-2.64
					C207.97,264.78,209.15,265.96,209.15,267.42z"/>
				<path class="st14" d="M112.27,295.72c0,1.46-1.18,2.64-2.64,2.64c-1.46,0-2.64-1.18-2.64-2.64s1.18-2.64,2.64-2.64
					C111.09,293.08,112.27,294.26,112.27,295.72z"/>
				<path class="st14" d="M147.55,317.51c0,1.46-1.18,2.64-2.64,2.64s-2.64-1.18-2.64-2.64c0-1.46,1.18-2.64,2.64-2.64
					S147.55,316.05,147.55,317.51z"/>
				<path class="st14" d="M236.71,291.97c0,1.46-1.18,2.64-2.64,2.64c-1.46,0-2.64-1.18-2.64-2.64c0-1.46,1.18-2.64,2.64-2.64
					C235.52,289.33,236.71,290.51,236.71,291.97z"/>
			</g>
		</g>
	</g>
	<g>
		<ellipse class="st31" cx="356.62" cy="452.9" rx="133.42" ry="7.72"/>
		<g>
			<g>
				<g>
					<path class="st32" d="M399.74,355.29v44.47H279.65c-8.13,0-15.11-4.9-18.16-11.92c-1.04-2.4-1.62-5.06-1.62-7.86v-4.91
						c0-10.92,8.86-19.78,19.78-19.78H399.74z"/>
					<path class="st33" d="M362.27,387.84v11.92h-82.62c-8.13,0-15.11-4.9-18.16-11.92H362.27z"/>
					<path class="st33" d="M342.09,377.52c0,4.59,1.86,8.74,4.86,11.74c3,3.01,7.16,4.87,11.74,4.87h92.9v5.63h-92.83
						c-6.15,0-11.71-2.49-15.73-6.51c-4.03-4.03-6.51-9.59-6.51-15.73c0-12.28,9.96-22.23,22.24-22.23h92.83v5.63h-92.9
						C349.52,360.92,342.09,368.35,342.09,377.52z"/>
					<path class="st8" d="M446.78,360.92h-89.92c-8.16,0-14.77,6.61-14.77,14.77v3.67c0,8.16,6.61,14.77,14.77,14.77h89.92V360.92z"
						/>
				</g>
				<g>
					<line class="st23" x1="353.56" y1="367.21" x2="384.76" y2="367.21"/>
					<line class="st23" x1="391.21" y1="367.21" x2="398.2" y2="367.21"/>
					<line class="st23" x1="441.95" y1="373.67" x2="373.82" y2="373.67"/>
					<line class="st23" x1="441.95" y1="380.3" x2="363.78" y2="380.3"/>
					<line class="st23" x1="366.83" y1="373.67" x2="356.07" y2="373.67"/>
					<line class="st23" x1="346.92" y1="380.3" x2="350.87" y2="380.3"/>
					<line class="st23" x1="358.04" y1="387.83" x2="393.12" y2="387.83"/>
					<line class="st23" x1="437.65" y1="367.21" x2="421.87" y2="367.21"/>
					<line class="st23" x1="409.99" y1="387.83" x2="419.4" y2="387.83"/>
				</g>
				<path class="st4" d="M285.7,393.26c4.03,4.01,9.59,6.51,15.72,6.51H290.1c-6.14,0-11.69-2.5-15.72-6.51
					c-1.59-1.58-2.93-3.41-3.98-5.42c-1.62-3.08-2.53-6.59-2.53-10.31c0-12.29,9.96-22.23,22.23-22.23h11.32
					c-12.27,0-22.23,9.94-22.23,22.23c0,3.72,0.91,7.23,2.53,10.31C282.77,389.85,284.12,391.68,285.7,393.26z"/>
				<path class="st4" d="M330.59,393.26c4.03,4.01,9.59,6.51,15.73,6.51h-22.05c-6.14,0-11.71-2.5-15.73-6.51
					c-1.58-1.58-2.93-3.41-3.98-5.42c-1.62-3.08-2.54-6.59-2.54-10.31c0-12.29,9.96-22.23,22.25-22.23h22.05
					c-12.28,0-22.24,9.94-22.24,22.23c0,3.72,0.91,7.23,2.53,10.31C327.66,389.85,329.01,391.68,330.59,393.26z"/>
				<path class="st34" d="M285.7,393.26c4.03,4.01,9.59,6.51,15.72,6.51H290.1c-6.14,0-11.69-2.5-15.72-6.51
					c-1.59-1.58-2.93-3.41-3.98-5.42h11.32C282.77,389.85,284.12,391.68,285.7,393.26z"/>
				<path class="st34" d="M346.32,399.77h-22.05c-6.14,0-11.71-2.5-15.73-6.51c-1.58-1.58-2.93-3.41-3.98-5.42h22.05
					c1.05,2.01,2.4,3.84,3.98,5.42C334.62,397.27,340.18,399.77,346.32,399.77z"/>
			</g>
			<g>
				<rect x="312.69" y="399.73" class="st34" width="167.24" height="53.18"/>
				<rect x="319.35" y="406.46" class="st7" width="160.59" height="39.72"/>
				<path class="st4" d="M383.7,399.73H277.45c-14.13,0-25.59,11.46-25.59,25.59v2c0,14.13,11.46,25.59,25.59,25.59H383.7V399.73z"
					/>
				<path class="st8" d="M383.7,406.46H278.38c-10.97,0-19.86,8.89-19.86,19.86l0,0c0,10.97,8.89,19.86,19.86,19.86H383.7V406.46z"
					/>
				<g>
					<line class="st23" x1="311.24" y1="415.54" x2="402" y2="415.54"/>
					<line class="st23" x1="281.96" y1="424.31" x2="338.32" y2="424.31"/>
					<line class="st23" x1="295.28" y1="434.78" x2="368.61" y2="434.78"/>
					<line class="st23" x1="365.21" y1="424.31" x2="400.3" y2="424.31"/>
					<line class="st23" x1="295.28" y1="415.54" x2="274.53" y2="415.54"/>
					<line class="st23" x1="285.05" y1="434.78" x2="270.19" y2="434.78"/>
					<line class="st23" x1="274.53" y1="424.31" x2="267.73" y2="424.31"/>
					<line class="st23" x1="344.18" y1="424.31" x2="351.13" y2="424.31"/>
				</g>
			</g>
		</g>
	</g>
	<path class="st35" d="M265.12,157.6c0,2.9-2.35,5.26-5.26,5.26c-2.9,0-5.26-2.35-5.26-5.26c0-2.9,2.35-5.26,5.26-5.26
		C262.77,152.34,265.12,154.69,265.12,157.6z"/>
	<path class="st35" d="M475.06,196.96c0-2.83-2.3-5.13-5.13-5.13s-5.13,2.3-5.13,5.13s2.3,5.13,5.13,5.13
		S475.06,199.79,475.06,196.96z"/>
	<path class="st35" d="M53.1,242.41c0,2.38-1.93,4.32-4.32,4.32s-4.32-1.93-4.32-4.32c0-2.38,1.93-4.32,4.32-4.32
		S53.1,240.03,53.1,242.41z"/>
	<path class="st35" d="M208.67,415.54c0,2.42-1.96,4.39-4.39,4.39s-4.39-1.96-4.39-4.39s1.96-4.39,4.39-4.39
		S208.67,413.12,208.67,415.54z"/>
	<path class="st35" d="M407.72,159.13c-1.23-1.26-0.17-3.6,1.49-4.19s3.49-0.01,5.13,0.65c1.64,0.65,3.37,1.39,5.1,1.09
		c1.74-0.3,3.31-2.18,2.57-3.79"/>
	<path class="st35" d="M277.98,121.95c-2.82-0.08-4.8-2.88-5.61-5.59c-0.81-2.7-0.97-5.66-2.44-8.07c-1.47-2.41-5.05-3.9-7.13-1.99"
		/>
	<path class="st35" d="M19.07,102.32c-1.26,3.38,0.38,9.67,3.6,11.29c1.58,0.8,3.39,1,5.12,1.38c1.73,0.38,3.53,1.01,4.64,2.4
		c1.11,1.39,1.19,3.71-0.24,4.76"/>
	<path class="st35" d="M116.4,431.25c0.5,3.41,5.16,3.3,7.95,1.26c1.43-1.04,2.2-2.72,3.02-4.28c0.83-1.56,1.89-3.16,3.55-3.75
		c1.66-0.59,3.95,0.47,3.91,2.23"/>
	<path class="st35" d="M464.19,319.74c-2.22-2.19-2.65-5.97-0.98-8.61c0.94-1.49,2.41-2.56,3.74-3.72c1.33-1.16,2.6-2.56,2.93-4.29
		c0.33-1.73-0.69-3.82-2.44-4.05"/>
	<path class="st35" d="M163.5,77.47c-0.44-2.93,2.22-5.92,5.19-5.82c1.64,0.06,3.13,0.89,4.6,1.59c1.48,0.7,3.14,1.31,4.72,0.89
		c1.58-0.42,2.84-2.3,2.04-3.73"/>
</g>
</svg>
