<svg id="Capa_1" enable-background="new 0 0 512 512" height="512" viewBox="0 0 512 512" width="512" xmlns="http://www.w3.org/2000/svg"><g><g><path d="m496.149 110.832-36.507 36.76-19.494 4.818-35.064-35.064 6.335-18.205 15.825-57.54 62.595-20.88c.25.23.49.47.73.71 26.23 26.231 28.73 66.251 5.58 89.401z" fill="#ca671b"/><path d="m489.839 20.722-78.42 78.42-19.456 5.765-31.419-31.419 4.105-21.116 36.52-36.53c22.94-22.93 62.43-20.68 88.67 4.88z" fill="#ff7c48"/></g><g><path d="m405.726 201.266-245.267 245.256-19.624 1.623-35.326-35.326 6.74-14.507 99.3-146.075 146.07-99.305 21.933-4.011 33.83 33.83z" fill="#edbe00"/><path d="m357.619 152.932-245.37 245.38-12.52 3.126-34.22-34.219-.03-15.677 245.37-245.38 16.745-5.369 32.377 32.377z" fill="#ffd944"/></g><g><path d="m368.218 163.532-245.379 245.37-8.914 5.712-7.064-7.064 5.377-9.248 125.857-139.518 119.523-105.852 7.03-2.744 7.532 7.532z" fill="#323c3c"/><path d="m357.619 152.932-245.38 245.37-9.889 5.758-6.893-6.894 6.172-9.474 245.37-245.38 5.351-3.872 7.234 7.234z" fill="#3f4a4a"/></g><g><path d="m160.459 446.522-111.91 44.69-5.699-.439-9.256-9.255.355-4.906 11.82-37.05 66.48-41.25z" fill="#f2e4ca"/><path d="m112.249 398.312-78.3 78.3-4.886 2.118-9.83-9.83.576-6.428 45.67-110.93z" fill="#fff3e1"/></g><g><path d="m459.642 147.592-53.916 53.674-48.107-48.332 12.651-34.024 41.149-19.768z" fill="#cee1e4"/><path d="m323.095 69.581h76.078v66.143h-76.078z" fill="#dceaec" transform="matrix(.707 -.707 .707 .707 33.171 285.396)"/></g><g><path d="m48.549 491.212-48.549 20.788 16.233-27.845 17.716-7.543z" fill="#323c3c"/><path d="m33.949 476.612-33.949 35.388 19.809-49.528z" fill="#3f4a4a"/></g></g></svg>