<svg id="Capa_1" enable-background="new 0 0 512 512" height="512" viewBox="0 0 512 512" width="512" xmlns="http://www.w3.org/2000/svg"><g><g><path d="m290.137 453.592-5.468 11.536h-19.745l-4.787-11.536v-30h30z" fill="#606074"/></g><g><g><path d="m435.666 231.355-17.36 17.515-9.297-2.566-153.284-95.94-9.499.627-17.75-41.081 17.955-2.344 187.872 117.548z" fill="#c0d9dd"/></g><g><path d="m454.656 313.36-91.01 140.23-6.87 16.98h-23.83l-5.07-16.98 95.75-147.53 8.21-5.19h20.77z" fill="#c0d9dd"/></g><path d="m494.406 268.22c0 23.18-17.33 42.31-39.75 45.14-1.89.24-3.81.36-5.76.36-9.35 0-18.04-2.82-25.27-7.66-12.2-8.16-20.23-22.06-20.23-37.84 0-7.89 2.01-15.32 5.55-21.8 5.18-9.48 13.64-16.91 23.86-20.77 5-1.89 10.43-2.93 16.09-2.93 25.14 0 45.51 20.37 45.51 45.5z" fill="#9ab8c2"/></g><g><path d="m176.274 231.185-8.55 20.62c-8.81 21.26-33.19 31.36-54.45 22.55-.08-.03-.17-.07-.25-.11l-.212-43.33 25.272-15.6 11.148-10.664 27.803 11.554z" fill="#edbe00"/><path d="m138.084 215.315-25.06 58.93c-.13-.05-.25-.1-.37-.16-20.84-9.02-30.65-33.12-21.93-54.18l8.57-20.71 11.28-11.61 26.7 11.094z" fill="#ffd944"/><path d="m263.158 267.28-86.78-36.04-.45-.19-37.843-15.735-6.58-75.459 53.082-34.176 8.961-10.56 48 19.94-1.14 13.816c33.059 37.398 41.829 92.476 22.75 138.404z" fill="#cee1e4"/><path d="m184.684 105.715-46.6 109.6-38.78-16.14-.01.02-81.7-33.95c20.02-48.19 65.122-78.347 113.901-81.635l12.755-8.428 41.031 17.03z" fill="#dceaec"/><path d="m266.016 37.02-25.51 91.89-3.53-1.47-18.94-7.87-33.352-13.855-3.051-55.759 40.213-31.646z" fill="#dceaec"/><path d="m221.849 18.277-37.165 87.438-.238-.105-52.95-22 47.12-83.61z" fill="#f1f6f7"/></g><g><path d="m488.536 512h-144.05l-19.251-27.89 19.251-30.519h85.65c32.25-.001 58.4 26.149 58.4 58.409z" fill="#0d90bc"/><path d="m344.486 453.59v58.41h-144.05c0-16.13 6.54-30.73 17.11-41.3s25.17-17.11 41.3-17.11z" fill="#0fa8dc"/></g></g></svg>