<svg id="Capa_1" enable-background="new 0 0 512 512" height="512" viewBox="0 0 512 512" width="512" xmlns="http://www.w3.org/2000/svg"><g><g><path d="m84.78 298.88v30h-15l-7.5-13.523 7.5-16.477z" fill="#0d90bc"/><path d="m84.78 358.88v30h-15l-7.5-13.523 7.5-16.477z" fill="#0d90bc"/><path d="m84.78 418.88v30h-15l-7.5-13.523 7.5-16.477z" fill="#0d90bc"/><g><path d="m139.56 252.195 14.461 11.996v236.426l-14.461 11.383h-69.78l-40.184-131.035 40.184-128.77 10.709-12.259h50.554z" fill="#f2e4ca"/><path d="m69.78 252.195v259.805h-69.78v-259.805l11.553-12.259h47.49z" fill="#fff3e1"/></g><path d="m84.78 298.88v30h-15l-7.5-13.523 7.5-16.477z" fill="#0d90bc"/><path d="m84.78 358.88v30h-15l-7.5-13.523 7.5-16.477z" fill="#0d90bc"/><path d="m84.78 418.88v30h-15l-7.5-13.523 7.5-16.477z" fill="#0d90bc"/><g><path d="m139.56 188.045 11.142 7.433v49.532l-11.142 7.185h-69.78l-19.078-28.888 19.078-35.262z" fill="#ca671b"/><path d="m0 188.045h69.78v64.15h-69.78z" fill="#ff7c48"/></g><g fill="#0fa8dc"><path d="m54.78 298.88h15v30h-15z"/><path d="m54.78 358.88h15v30h-15z"/><path d="m54.78 418.88h15v30h-15z"/><path d="m54.78 298.88h15v30h-15z"/><path d="m54.78 358.88h15v30h-15z"/><path d="m54.78 418.88h15v30h-15z"/></g></g><g><g><g><path d="m442.22 252.195-40.461 123.773 40.461 136.032h69.78v-259.805l-11.553-12.259h-47.49z" fill="#f2e4ca"/><path d="m372.44 252.195-14.461 11.996v236.426l14.461 11.383h69.78v-259.805l-10.709-12.259h-50.554z" fill="#fff3e1"/></g><path d="m442.22 188.045-25.731 29.975 25.731 34.175h69.78v-64.15z" fill="#ca671b"/><path d="m372.44 188.045-11.142 7.433v49.532l11.142 7.185h69.78v-64.15z" fill="#ff7c48"/></g><path d="m457.22 298.88v30h-15l-7.5-13.523 7.5-16.477z" fill="#0d90bc"/><path d="m427.22 298.88h15v30h-15z" fill="#0fa8dc"/><path d="m457.22 358.88v30h-15l-7.5-13.523 7.5-16.477z" fill="#0d90bc"/><path d="m442.22 358.88v19.95 10.05h-15v-30z" fill="#0fa8dc"/><path d="m457.22 418.88v30h-15l-7.5-13.523 7.5-16.477z" fill="#0d90bc"/><path d="m427.22 418.88h15v30h-15z" fill="#0fa8dc"/></g><g><g><path d="m372.44 118.71v393.29h-68.78l-9.213-10.617h-29.107l-9.34 10.617-47.658-219.164 47.658-174.126 14.957-19.199h90.639z" fill="#f2e4ca"/><path d="m256 118.71v393.29l-8-9.596h-29.617l-10.041 9.596h-68.782v-391.025l14.144-21.464h87.319z" fill="#fff3e1"/></g><g><path d="m404.4 88.84v29.87h-148.4l-39.17-43.07 39.17-75.64z" fill="#ca671b"/><path d="m256 0v118.71h-148.4v-29.87z" fill="#ff7c48"/></g><g><g><g><path d="m182.143 172.836h30.638v30h-30.638z" fill="#0fa8dc"/></g><g><path d="m182.781 232.836h30.638v30h-30.638z" fill="#0fa8dc"/></g><g><path d="m182.143 292.836h30.638v30h-30.638z" fill="#0fa8dc"/></g></g></g><g><g><path d="m298.58 172.836h30.639v30h-30.639z" fill="#0d90bc"/></g><g><path d="m299.219 232.836h30.639v30h-30.639z" fill="#0d90bc"/></g><g><path d="m298.58 292.836h30.639v30h-30.639z" fill="#0d90bc"/></g></g><path d="m303.66 420.28v91.72h-47.66l-23.83-63.12 23.83-76.26c13.16 0 25.08 5.34 33.7 13.96s13.96 20.54 13.96 33.7z" fill="#ca671b"/><path d="m256 372.62v139.38h-47.66v-91.72c0-26.32 21.34-47.66 47.66-47.66z" fill="#ff7c48"/></g></g></svg>