<svg id="Capa_1" enable-background="new 0 0 512 512" height="512" viewBox="0 0 512 512" width="512" xmlns="http://www.w3.org/2000/svg"><g><g><path d="m323.462 44.74v19.283l-3.92 11.357h-19.02l-7.06-15.151v-15.489c0-8.06-6.55-14.61-14.61-14.61h-22.86l-12.277-14.619 12.277-15.511h22.86c24.6 0 44.61 20.14 44.61 44.74z" fill="#007579"/><path d="m188.522 44.74v19.283l3.92 11.357h19.02l7.06-15.15v-15.49c0-8.06 6.55-14.61 14.61-14.61h22.86v-30.13h-22.86c-24.6 0-44.61 20.14-44.61 44.74z" fill="#00959a"/></g><path d="m86.165 512h2.576l20.676-14.957v-129.703l-20.676-14.468h-61.238v101.773c0 32.398 26.264 57.355 58.662 57.355z" fill="#6fbe6b"/><path d="m425.835 512h-2.593l-20.66-14.957v-129.703l20.66-14.468h61.255v101.773c0 32.398-26.264 57.355-58.662 57.355z" fill="#58b354"/><g><path d="m356.419 76.381c-31.675-17.78-65.459-16.661-100.427-16.661l-89.638 248.642 89.638 203.638h167.25v-321.53c0-46.909-25.922-91.129-66.823-114.089z" fill="#6fbe6b"/><path d="m155.565 76.381c-40.902 22.96-66.824 67.18-66.824 114.089v321.53h167.251v-452.28c-34.967 0-68.753-1.119-100.427 16.661z" fill="#85c882"/></g><g><path d="m308.982 153.49v64.53h-52.99l-26.495-29.977 26.495-34.553z" fill="#f2e4ca"/><path d="m203.002 153.49h52.99v64.53h-52.99z" fill="#fff3e1"/></g><g><g><path d="m357.562 352.87v95.97h-101.57l-26.495-41.414 26.495-54.556 10.957-16.423h79.66z" fill="#007579"/><path d="m255.992 352.87v95.97h-101.57v-95.97l10.4-16.423h77.617z" fill="#00959a"/></g><g><g><path d="m221.032 391.596h-30v-38.724l6.005-6.723h17.872l6.123 6.723z" fill="#ffd944"/></g></g></g><g><path d="m357.562 289.01v63.86h-101.57l-26.495-31.93 26.495-31.93z" fill="#f2e4ca"/><path d="m154.422 289.01h101.57v63.86h-101.57z" fill="#fff3e1"/></g></g></svg>