<svg id="Capa_1" enable-background="new 0 0 512 512" height="512" viewBox="0 0 512 512" width="512" xmlns="http://www.w3.org/2000/svg"><g><g><g><path d="m187.38 463.6v14.29l-18.22 6.58h-48.46c-46.13 0-83.69-37.54-83.73-83.67l-.11-163.45 5.42-14.18h17.78l6.8 13.883.11 163.727c.02 29.6 24.13 53.69 53.73 53.69h48.46z" fill="#cee1e4"/></g><path d="m102.76 188.04c0 27.984-23.372 51.39-51.38 51.39-28.01 0-51.38-23.407-51.38-51.39 0-28.37 23-51.38 51.38-51.38s51.38 23.01 51.38 51.38z" fill="#ffd944"/></g><g><path d="m495.482 359.36v152.64h-163.2l-42.429-75.98 42.429-76.66z" fill="#ca671b"/><path d="m169.16 359.36h163.12v152.64h-163.12z" fill="#ff7c48"/></g><g><path d="m376.978 421.01v30h-44.7l-9.798-15 9.798-15z" fill="#f2e4ca"/><path d="m287.65 421.01h44.63v30h-44.63z" fill="#fff3e1"/></g><g><g><path d="m512 179.68c0 99.24-80.45 179.68-179.68 179.68h-.04l-71-179.679 71-179.681h.04c99.23 0 179.68 80.45 179.68 179.68z" fill="#edbe00"/><path d="m332.28 0v359.36c-99.22-.02-179.64-80.45-179.64-179.68 0-99.22 80.42-179.66 179.64-179.68z" fill="#ffd944"/></g><g><path d="m383.7 179.68c0 28.38-23 51.38-51.38 51.38h-.04l-25.67-45.762 25.67-56.998h.04c28.38 0 51.38 23 51.38 51.38z" fill="#dcb000"/><path d="m332.28 128.3v102.76c-28.36-.02-51.34-23.01-51.34-51.38s22.98-51.36 51.34-51.38z" fill="#edbe00"/></g></g></g></svg>