<svg id="Capa_1" enable-background="new 0 0 512.001 512.001" height="512" viewBox="0 0 512.001 512.001" width="512" xmlns="http://www.w3.org/2000/svg"><g><g><g><path d="m469.358 14.321-34.21 72.55-14.9 10.37v349.584l-173.211.005-74.612-202.212 74.612-244.618 212.459.001z" fill="#dceaec"/><path d="m247.037 0v446.83h-124.27l-29.74-18.38-29.11-144 9.68-15.32v-211.92c0-31.06 25.16-57.21 56.22-57.21z" fill="#f1f6f7"/></g><path d="m498.729 38.939v58.298h-78.477v-58.298c0-20.965 16.995-38.938 37.959-38.938h2.558c20.965 0 37.96 17.973 37.96 38.938z" fill="#cee1e4"/></g><g><path d="m360.802 348.081v30h-113.76l-13.852-15 13.852-15z" fill="#ca671b"/><path d="m210.482 348.081h36.56v30h-36.56z" fill="#ff7c48"/></g><g><g><path d="m359.487 77.962v30h-112.45l-15.384-15 15.384-15z" fill="#6fbe6b"/><path d="m204.767 77.962h42.27v30h-42.27z" fill="#85c882"/></g><g><path d="m359.487 136.172v30h-112.45l-15.384-13.979 15.384-16.021z" fill="#6fbe6b"/><path d="m133.937 136.172h113.1v30h-113.1z" fill="#85c882"/></g><g><path d="m359.495 194.382v30h-112.462l-15.385-15 15.385-15z" fill="#6fbe6b"/><path d="m133.945 194.382h113.088v30h-113.088z" fill="#85c882"/></g><g><path d="m134.06 77.96h30.127v30h-30.127z" fill="#85c882"/></g></g><g><path d="m122.762 364.351v147.65l-49.17-51.39-18.1-36.76 18.1-34.1 7.09-22.36 31.66-13.84z" fill="#ca671b"/><path d="m24.422 364.351v147.65l49.17-51.39v-70.86l-7.09-22.36-31.66-13.84z" fill="#ff7c48"/></g><g><path d="m133.902 329.441c0 32.864-27.459 60.31-60.31 60.31l-24.585-65.218 24.585-55.402c33.31 0 60.31 27 60.31 60.31z" fill="#edbe00"/><path d="m73.592 269.131v120.62c-32.845 0-60.32-27.445-60.32-60.31 0-33.31 27-60.31 60.32-60.31z" fill="#ffd944"/></g></g></svg>