<svg id="Capa_1" enable-background="new 0 0 512 512" height="512" viewBox="0 0 512 512" width="512" xmlns="http://www.w3.org/2000/svg"><g><g><path d="m415.78 151.6v360.4h-159.78l-48.143-202.021 48.143-158.379 14.63-26.983h129.192z" fill="#c0d9dd"/><path d="m256 151.6v360.4h-159.78v-360.4l15.333-26.983h125.617z" fill="#cee1e4"/></g><g><path d="m471.3 77.03v74.57h-215.3l-36.933-43.639 36.933-30.931 21-23.902h181.277z" fill="#cee1e4"/><path d="m256 77.03v74.57h-215.3v-74.57l18.768-23.902h174.128z" fill="#dceaec"/></g><g><path d="m512 0v77.03h-256l-41.864-38.515 41.864-38.515z" fill="#dceaec"/><path d="m0 0h256v77.03h-256z" fill="#f1f6f7"/></g><g><path d="m207.857 512h-63.493v-250.452c0-17.533 14.213-31.747 31.747-31.747 17.533 0 31.747 14.213 31.747 31.747v250.452z" fill="#b3d1d6"/><path d="m367.637 512h-63.493v-250.452c0-17.533 14.213-31.747 31.747-31.747 17.533 0 31.747 14.213 31.747 31.747v250.452z" fill="#9ab8c2"/></g></g></svg>