<svg id="Capa_1" enable-background="new 0 0 512 512" height="512" viewBox="0 0 512 512" width="512" xmlns="http://www.w3.org/2000/svg"><g><g><g><path d="m379.275 389.53c-30.64 23.7-66.74 40.26-104.74 47.81v44.66h85.6v30h-201.2v-30h85.6v-40.55c-43.22 3.35-87.12-4.35-126.44-22.64-27.28-12.69-50.35-30.33-71.88-50.6l21.84-36.78 32.85-17.91 7.5-3.96 6.37 6.37-3.1 7.55-33.69 33.69c87.15 76.36 222.53 71.58 304.36-10.25s86.61-217.21 10.25-304.36l-28.94 28.95h-.01l-7.549 5.036-6.3-6.13 3.889-9.676 20.51-30.47 29.46-19.5c17.23 18.22 32.7 37.5 44.65 59.98 56.66 106.6 26.291 245.03-69.03 318.78z" fill="#007579"/><g fill="#00959a"><path d="m103.36 305.872-2.454 7.648-54.69 54.69c-3.71-3.49-7.37-7.06-11-10.69l55.34-55.31 6.734-2.598z"/><path d="m403.655 10.77-49.97 49.97-8.54 5.155-6.3-6.64 3.52-8.885 50.58-50.37c3.631 3.63 7.2 7.07 10.71 10.77z"/></g></g></g><g><g><g><path d="m399.376 138.12-6.42 27.87-81.08 45.47-88.76 18.63 64.65 27.4-4.38 78.89-35.82 28.54c-30.97 3.53-62.76-1.21-91.34-13.64l-6.9-7.79-12.37-61.66 3.72-8.07 54.73-122.08 158.28-90.94c3.47 3.44 6.79 7.04 9.96 10.77 16.309 19.15 28.639 41.77 35.73 66.61z" fill="#0d90bc"/><path d="m406.215 187.3c0 91.93-69.39 167.65-158.65 177.62l17.66-99.52-42.11-35.31 50.69-56.46 57.52 9.89 68.05-45.4c4.451 15.62 6.84 32.13 6.84 49.18z" fill="#6fbe6b"/></g><path d="m156.225 351.28c-16.25-7.07-31.24-16.48-44.55-27.8-3.72-3.18-7.32-6.5-10.77-9.96l9.162-46.435 30.608 6.675z" fill="#6fbe6b"/></g><g><path d="m353.686 60.74-8.72 8.73-204.29 204.29-4.53-3.65-5.75-28.64 2.5-6.51-7.25 2.6-70.42-24.52-5.54-7.06c-.64-6.14-.96-12.38-.96-18.68 0-36.48 10.93-70.41 29.71-98.69l15.18-2.27 25.88 45.57-3.49 22.84 11.72-18.14 60.76-11.21 12.17 13.74-5.25-25.37 30.95-93.95 17.09-10.56c37.51 3.32 71.68 18.22 98.92 41.11 3.919 3.29 7.7 6.74 11.32 10.37z" fill="#0fa8dc"/><g fill="#85c882"><path d="m140.676 273.76-39.77 39.76c-3.61-3.62-7.07-7.39-10.35-11.31-22.35-26.59-37.09-59.78-40.87-96.23l83.21 28.98z"/><path d="m243.445 9.26-42.79 129.88-84.65 15.61-37.57-66.14c31.99-48.24 86.8-80.06 149.03-80.06 5.39 0 10.721.24 15.98.71z"/></g></g></g></g></svg>