<svg id="Capa_1" enable-background="new 0 0 512 512" height="512" viewBox="0 0 512 512" width="512" xmlns="http://www.w3.org/2000/svg"><g><path d="m382.901 331.986-23.546 91.182 23.546 88.832h96.482v-417.947l-13.275-25.784h-43.666l-11.723 25.784-6.991 12.314v203.972l6.991 21.647-6.546-11.097h-13.367z" fill="#c0d9dd"/><path d="m256 331.986-27.818 85.907 27.818 94.107h126.901v-180.014l-5.908-9.632h-17.6l-4.31 9.632 6.315-21.647v-207.782l-6.315-8.504-11.345-25.784h-50.959l-8.961 25.784-9.345 15.245v198.696l9.345 23.992-8.008-9.046h-11.752z" fill="#cee1e4"/><path d="m256 331.986v180.014h-126.901l-24.391-83.85 24.391-96.164 5.908-9.632h17.6l4.31 9.632-6.315-21.647v-207.782l6.315-8.504 11.345-25.784h50.959l8.961 25.784 9.456 12.51v201.627l-9.456 23.796 5.075-9.192h19.494z" fill="#dceaec"/><path d="m129.099 331.986v180.014h-96.482v-417.947l13.275-25.784h43.666l11.723 25.784 6.991 12.314v203.972l-6.991 21.647 6.546-11.097h13.367z" fill="#f1f6f7"/><g><path d="m156.917 94.053v237.933h-55.636v-237.933l9-25.784h37.425z" fill="#3f4a4a"/><path d="m283.818 94.053v237.933h-27.818l-13.909-123.633 13.909-140.08h18.717z" fill="#323c3c"/><path d="m256 68.273v263.713h-27.818v-237.933l10.436-25.78z" fill="#495959"/><path d="m410.719 94.053v237.933h-55.636v-237.933l8.283-25.784h39.656z" fill="#323c3c"/></g><path d="m479.383 0v94.053h-223.383l-40.818-56.261 40.818-37.792z" fill="#edbe00"/><path d="m32.617 0h223.382v94.053h-223.382z" fill="#ffd944"/></g></svg>