<svg id="Capa_1" enable-background="new 0 0 512 512" height="512" viewBox="0 0 512 512" width="512" xmlns="http://www.w3.org/2000/svg"><g><g><path d="m156.116 275.12v46.99h-15.01l-7.495-23.495 7.495-23.495 4.098-6.673h6.882z" fill="#323c3c"/><path d="m141.106 275.12v46.99h-14.99v-46.99l3.75-6.673h7.489z" fill="#3f4a4a"/></g><g><path d="m173.435 0v64.65l-5.7 9.29h-18.547l-8.083-9.29-16.165-32.325 16.165-32.325z" fill="#0d90bc"/><path d="m141.105 0v64.65l-5.37 9.29h-23.05l-3.91-9.29v-64.65z" fill="#0fa8dc"/></g><g><path d="m427.055 482.17v29.83h-285.95l-13.54-14.915 13.54-14.915h145.63v-42.32l6.79-12.76h16.85l6.36 12.76v42.32z" fill="#323c3c"/><path d="m84.945 482.17h56.16v29.83h-56.16z" fill="#3f4a4a"/></g><g><path d="m245.525 386.31v19.92l-11.68 4.78h-92.75l-13.53-15 13.53-15h92.75z" fill="#cee1e4"/><path d="m84.945 381.01h56.15v30h-56.15z" fill="#dceaec"/></g><g><path d="m206.545 76.45v55.15l-9.27 13.15v130.37h-56.17l-16.17-113.23 16.17-97.24h56.17z" fill="#cee1e4"/><path d="m84.945 64.65h56.16v210.47h-56.16z" fill="#dceaec"/></g><g><path d="m396.825 257.11c0 33.01-7.964 68.459-23.474 95.069l-18.047 20.101h-56.57l-14.89-20.1c9.29-21.74 15.69-50.15 15.69-75.28 0-53.31-23.13-101.22-59.92-134.22l-6.52-11.08v-45.96l20.93-4.92c81.591 17.25 142.801 89.67 142.801 176.39z" fill="#0d90bc"/><path d="m233.841 352.179h139.51v87.672h-139.51z" fill="#b3d1d6"/><path d="m261.005 104.65c0 16.12-8.57 30.23-21.39 38.03-6.73 4.09-14.63 6.45-23.08 6.45-24.57 0-44.48-19.91-44.48-44.48 0-24.56 19.91-44.47 44.48-44.47 15.75 0 29.59 8.19 37.49 20.54 4.42 6.91 6.98 15.12 6.98 23.93z" fill="#323c3c"/></g></g></svg>