<svg id="Capa_1" enable-background="new 0 0 512.033 512.033" height="512" viewBox="0 0 512.033 512.033" width="512" xmlns="http://www.w3.org/2000/svg"><g><path d="m155.076 276.04 3.39 24.83-81.19 56.17-22.63-7.496v-105.324c0-21.61 17.52-39.13 39.12-39.13h46.11l12.71 6.42 15.83 44.49z" fill="#6fbe6b"/><path d="m70.866 331.55 16.448 9.493v155.234l-16.448 15.723h-70.85c0-67.501 22.529-132.129 70.85-180.45z" fill="#0fa8dc"/><path d="m356.956 276.04-3.39 24.83 81.19 56.17 22.63-7.496v-105.324c0-21.61-17.52-39.13-39.12-39.13h-46.11l-12.71 6.42-15.83 44.49z" fill="#58b354"/><g><g><path d="m363.512 319.732v-37.656l-6.825-5.939-18.71-10.91-69.441 43.4-12.789 26.19-20.447 45.812 20.447 40.298 20.45 14.08 76.339-50.8 4.12-61.6v-.01z" fill="#905041"/><path d="m147.555 319.64.236-37.564 6.826-5.939 18.71-10.91 69.44 43.4 12.79 26.19v86.11l-20.45 14.08-76.172-50.8-4.117-61.725z" fill="#a55d4e"/></g><g><path d="m255.991 420.863-20.447 46.51 20.447 44.66h100.94l15.2-14.111v-160l-15.2-17.999c0 55.75-45.19 100.94-100.94 100.94z" fill="#dceaec"/><path d="m255.991 420.863v91.17h-100.94l-15.2-14.111v-160l15.2-17.999c-.671 55.744 45.143 100.939 100.94 100.94z" fill="#f1f6f7"/></g></g><path d="m441.166 331.55-16.448 9.493v155.234l16.448 15.723h70.85c0-67.501-22.528-132.129-70.85-180.45z" fill="#0d90bc"/><path d="m356.376 330.75c.29-2.71.48-5.46.55-8.24z" fill="#4d2c21"/><path d="m356.956 276.04v235.96h84.21v-180.45c-24.357-23.85-52.441-42.955-84.21-55.51z" fill="#6fbe6b"/><g><path d="m372.156 129.27v89.31c0 20.91-5.53 40.51-15.2 57.46-19.98 35.05-57.7 58.68-100.94 58.68l-32.702-111.975 32.702-89.675 20.145-17.948h83.493z" fill="#a55d4e"/><path d="m256.016 133.07v201.65c-43.24 0-80.96-23.63-100.94-58.68-9.67-16.95-15.2-36.55-15.2-57.46v-63.22l15.386-24.014 84.535-16.224z" fill="#b36e5a"/></g><g><path d="m372.156 43.04v86.23h-96.32l-19.82 3.8-20.446-48.708 20.447-47.232h18.34c10.6 0 19.18-8.58 19.18-19.18v-17.95h34.67c24.269 0 43.949 18.77 43.949 43.04z" fill="#edbe00"/><path d="m256.016 37.13v95.94l-116.14 22.29v-55.27c0-34.77 28.19-62.96 62.96-62.96z" fill="#ffd944"/></g><path d="m155.076 276.04v235.96h-84.21v-180.45c24.358-23.85 52.441-42.955 84.21-55.51z" fill="#85c882"/></g></svg>