<svg id="Capa_1" enable-background="new 0 0 512 512" height="512" viewBox="0 0 512 512" width="512" xmlns="http://www.w3.org/2000/svg"><g><path d="m441.15 331.55-16.448 9.493v155.234l16.448 15.723h70.85c0-67.501-22.529-132.129-70.85-180.45z" fill="#007579"/><g><path d="m356.949 276.04-3.399 24.83 81.19 56.17 22.63-7.496v-105.324c0-21.61-17.52-39.13-39.12-39.13h-46.101l-12.719 6.42-15.83 44.49z" fill="#58b354"/><path d="m155.06 276.04 3.39 24.83-81.19 56.17-22.63-7.496v-105.324c0-21.61 17.52-39.13 39.12-39.13h46.11l12.71 6.42 15.83 44.49z" fill="#6fbe6b"/></g><path d="m70.85 331.55 16.448 9.493v155.234l-16.448 15.723h-70.85c0-67.501 22.529-132.129 70.85-180.45z" fill="#00959a"/><g><path d="m256 512h100.94l11.081-11.979v-143.319l-11.075-11.334-14.712 29.036h-77.277l-8.957-2.362-26.489 83.043z" fill="#007579"/><path d="m256 512h-100.94l-11.081-11.979v-143.319l11.075-11.334 14.712 29.036h77.277l8.957-2.362z" fill="#00959a"/></g><g><path d="m256 334.724 13.979-30.277 61.021-37.277 25.949 8.87 11.072 11.811v46.873l-11.075 10.644c0 29.814-24.182 53.987-53.996 53.987-20.117 0-37.659-10.995-46.951-27.313l-14.064-18.063z" fill="#dceaec"/><path d="m256 334.724-13.979-30.277-61.021-37.277-25.94 8.87-11.081 11.811v46.873l11.075 10.644c0 29.814 24.182 53.987 53.996 53.987 20.117 0 37.659-10.995 46.951-27.313v-37.318z" fill="#f1f6f7"/></g><g><g><path d="m256 38.564 13.732 3.926 95.745 69.447 6.672 20.319v86.335c0 20.9-5.53 40.51-15.2 57.45-5.64 9.9-12.7 18.89-20.89 26.69-20.83 19.82-49.019 31.99-80.059 31.99l-30.404-148.078z" fill="#f1ba87"/><path d="m256 38.564-13.723 3.926-95.745 69.447-6.672 20.34v86.313c0 20.9 5.53 40.51 15.2 57.45 5.64 9.9 12.7 18.89 20.89 26.69 20.83 19.82 49.01 31.99 80.05 31.99z" fill="#f1d0a4"/></g><g><path d="m256 38.564c.38 31.49 19.548 62.802 45.581 79.518 31.576 20.275 72.93 20.798 105.045 1.438 11.37-51.93-19.871-105.759-72.2-117.37-26.581-5.898-56.239.871-78.426 13.796l-12.191 11.479z" fill="#323c3c"/><path d="m256 34.55c1.425 32.94-18.489 66.054-45.708 83.532-31.576 20.275-72.93 20.798-105.045 1.438-11.37-51.93 19.871-105.759 72.2-117.37 26.581-5.898 56.366.871 78.553 13.796z" fill="#495959"/></g></g><path d="m155.06 276.04v235.96h-84.21v-180.45c24.358-23.85 52.441-42.955 84.21-55.51z" fill="#85c882"/><path d="m356.949 276.04-.009 235.96h84.21v-180.45c-24.358-23.85-52.432-42.955-84.201-55.51z" fill="#6fbe6b"/></g></svg>