<svg id="Capa_1" enable-background="new 0 0 512 512" height="512" viewBox="0 0 512 512" width="512" xmlns="http://www.w3.org/2000/svg"><g><g><path d="m179.019 345.97h65.1l7.5 2.392v23.744l-7.5 3.864h-82.45l-7.699-8.934 13.487-23.319z" fill="#cee1e4"/><path d="m337.687 345.97h-63.68l-8.92 2.392v23.744l8.92 3.864h81.03l7.699-8.934-13.486-23.319z" fill="#c0d9dd"/></g><g><g><g><path d="m274.119 316.19v89.87h-15l-7.5-44.935 7.5-44.935z" fill="#007579"/></g></g><path d="m244.119 316.19h15v89.87h-15z" fill="#00959a"/></g><g><path d="m259.119 0-7.5 24.681 7.5 18.829 2.646 14.64h7.49l4.864-13.623v-44.527z" fill="#007579"/><path d="m259.119 0v43.51l-2.645 14.64h-7.49l-4.865-13.623v-44.527z" fill="#00959a"/></g><g><path d="m229.366 258.946-50.347 87.024-17.35 30-78.7 136.03c-31.66-18.28-42.5-58.13-36.011-69.385l127.159-220.235 17.292-2.378 36.76 23.48z" fill="#f1f6f7"/><path d="m287.549 259.308 50.138 86.662 17.35 30 78.7 136.03c31.66-18.28 42.5-58.13 24.23-89.79l-114.637-198.548-19.244-7.277-36.76 23.48z" fill="#dceaec"/></g><g><path d="m368.879 153.27c0 29.05-11.29 55.47-29.72 75.1-15 15.99-34.74 27.48-56.98 32.23-7.44 1.59-15.15 2.43-23.06 2.43l-31.17-38.924 31.17-30.576c22.24 0 40.26-18.02 40.26-40.26s-18.02-40.26-40.26-40.26l-31.17-36.085 31.17-33.415c60.62 0 109.76 49.14 109.76 109.76z" fill="#ca671b"/><path d="m218.859 153.27c0 22.24 18.02 40.26 40.26 40.26v69.5c-7.91 0-15.62-.84-23.06-2.43-22.24-4.75-41.98-16.24-56.98-32.23-18.43-19.63-29.72-46.05-29.72-75.1 0-60.62 49.14-109.76 109.76-109.76v69.5c-22.24 0-40.26 18.02-40.26 40.26z" fill="#ff7c48"/></g></g></svg>