<svg id="Capa_1" enable-background="new 0 0 512 512" height="512" viewBox="0 0 512 512" width="512" xmlns="http://www.w3.org/2000/svg"><g><g><g><path d="m238.9 360.568-90.966 95.436-23.827-22.095-17.36-206.086 17.36-227.823h104.3v76.925l-8.128 6.149v15.83l8.128 8.021v45.449l-7.618 3.766v21.787l7.618 4.447v45.449l-8.128 5.808v18.622l8.128 5.57v45.448l-7.448 4.75v14.936l7.449 1.867z" fill="#dceaec"/><g><path d="m124.107 0v433.909l14.81 27.814-29.362 24.511-15.058-21.292-25.793-7.05v-436.577l25.793-21.315z" fill="#0d90bc"/><path d="m94.497 0v464.942l6.377 23.079-20.681 18.639-29.196 5.34h-21.25v-512z" fill="#0fa8dc"/></g></g><g><g><path d="m156.797 227.823h71.61v30h-71.61z" fill="#0d90bc"/></g><g><path d="m179.58 152.374h48.826v30h-48.826z" fill="#0d90bc"/></g><g><path d="m156.796 76.925h71.61v30h-71.61z" fill="#0d90bc"/></g><g><path d="m179.623 303.271h48.785v29.939h-48.785z" fill="#0d90bc"/></g></g></g><g><path d="m482.253 61.405v450.595l-40.226-13.413-62.334-69.678 6.904-21.625v-114.902l-54.96 57.039-23.023 3.137-44.41-47.94 5.217-22.358z" fill="#6fbe6b"/><path d="m482.253 512h-432.656l156.409-163.927 63.415-65.813 62.216 67.161-55.763 57.863h110.723z" fill="#85c882"/></g></g></svg>