<svg id="Capa_1" enable-background="new 0 0 512 512" height="512" viewBox="0 0 512 512" width="512" xmlns="http://www.w3.org/2000/svg"><g><path d="m512 323.75v135.12c0 30.54-26.75 53.13-59.73 53.13-1.48 0-4.45 0-4.45 0l-31.182-.532-48.488-16.038v-155.24l22.92-16.44z" fill="#cee1e4"/><g><path d="m447.82 512h-252.7l-50.12-273.617 50.12-238.383h195.95v458.87c0 30.54 25.41 53.13 56.75 53.13z" fill="#dceaec"/><path d="m0 0h195.12v512h-195.12z" fill="#f1f6f7"/></g><g><g fill="#ffd944"><path d="m59.681 216.473h75.763v73.819h-75.763z"/><path d="m59.681 343.622h75.763v73.819h-75.763z"/><path d="m59.681 89.324h75.763v73.819h-75.763z"/></g><g><g><path d="m229.918 111.234h125.538v30h-125.538z" fill="#6fbe6b"/></g><g><path d="m229.918 238.383h125.538v30h-125.538z" fill="#6fbe6b"/></g><g><path d="m229.918 365.532h125.538v30h-125.538z" fill="#6fbe6b"/></g></g></g></g></svg>