<svg id="Capa_1" enable-background="new 0 0 512 512" height="512" viewBox="0 0 512 512" width="512" xmlns="http://www.w3.org/2000/svg"><g><g><path d="m354.391 475.42h-98.38l-17.383-15 17.383-15h83.27l18.767 2.014 8.263 16.405z" fill="#ca671b"/><path d="m157.609 475.42h98.402v-30h-83.292l-18.767 2.014-8.263 16.405z" fill="#ff7c48"/></g><g><path d="m287.811 0v63.6l-5.268 12.677-17.877.009-8.655-12.686-15.922-28.174 15.922-35.426z" fill="#9d5015"/><path d="m224.189 0v63.6l5.268 12.677h17.873l8.681-12.677v-63.6z" fill="#ca671b"/></g><g><path d="m436.421 512h-63.6l-18.43-36.58-15.11-30-27.25-54.08 10.852-19.404h39.319l13.429 19.404z" fill="#9d5015"/><path d="m75.579 512h63.6l18.43-36.58 15.11-30 27.25-54.08-10.852-19.404h-39.319l-13.429 19.404z" fill="#ca671b"/></g><g><path d="m396.78 63.6.021 264.14-9.206 26.834h-110.297l-21.287-26.834-45.724-118.977 45.724-145.163z" fill="#dceaec"/><path d="m115.199 63.6v264.14l9.206 26.834h110.297l21.309-26.834v-264.14z" fill="#f1f6f7"/></g><g><path d="m439.521 327.74v63.6h-183.51l-20.447-26.553 20.447-37.047z" fill="#ca671b"/><path d="m72.479 327.74h183.531v63.6h-183.531z" fill="#ff7c48"/></g></g></svg>