<svg id="Capa_1" enable-background="new 0 0 512 512" height="512" viewBox="0 0 512 512" width="512" xmlns="http://www.w3.org/2000/svg"><g><g><g><path d="m465.745 137.807-126.49 126.49-121.63 7.47 91.411-151.809 156.679-96.342c.01.01.02.02.03.03 31.52 31.522 31.52 82.632 0 114.161z" fill="#007579"/><path d="m465.715 23.617-248.09 248.15 7.47-121.63 126.49-126.49c31.51-31.519 82.6-31.53 114.13-.03z" fill="#00959a"/></g><g><path d="m426.845 84.858-239.103 238.442-3.982 5.851h-14.128l-3.521-5.851 153.478-167.596 96.086-82.046z" fill="#f2e4ca"/><path d="m415.675 73.658-249.564 249.642-4.139 5.851h-13.728l-2.982-5.851 260.403-259.683z" fill="#fff3e1"/></g></g><g><g><path d="m275.775 512h-126.51l-19.973-43.553 19.973-49.106 5.505-15.233h93.447l27.558 15.233z" fill="#dceaec"/><path d="m149.265 419.34v92.66h-126.65l.14-92.66 27.558-15.234h91.443z" fill="#f1f6f7"/></g><g><path d="m149.265 353.301-19.973 25.519 19.973 40.521h126.51l-74.19-66.04-11.581-15h-34.111z" fill="#323c3c"/><path d="m149.265 353.3v66.04h-126.51l74.19-66.04 11.581-15h34.111z" fill="#3f4a4a"/></g><g><path d="m248.835 323.3v30h-99.57l-6.63-15 6.63-15z" fill="#3f4a4a"/><path d="m49.695 323.3h99.57v30h-99.57z" fill="#495959"/></g></g></g></svg>