<svg id="Capa_1" enable-background="new 0 0 512 512" height="512" viewBox="0 0 512 512" width="512" xmlns="http://www.w3.org/2000/svg"><g><g><path d="m435.821 512h-63.851v-76.597l9.285-20.063h46.979l7.587 20.063z" fill="#323c3c"/><path d="m76.179 512h63.851v-76.597l-9.285-20.063h-46.979l-7.587 20.063z" fill="#3f4a4a"/></g><path d="m512 161.05v86.4h-43.55l-7.54 5.51-12.76-14.3v-9.22l-12.33-12.23v-49.53l12.33-6.63z" fill="#dcb000"/><path d="m0 161.05v86.4h43.55l7.54 5.51 12.76-14.3v-9.22l12.33-12.23v-49.53l-12.33-6.63z" fill="#edbe00"/><g><path d="m448.15 74.66v25.91l-12.256 18.09h-74.043l-16.191-18.09-14.958-16.672v-70.58l14.958-13.318h25.21c42.68 0 77.28 31.97 77.28 74.66z" fill="#edbe00"/><path d="m63.85 74.66v25.91l12.256 18.09h74.043l16.191-18.09 14.958-16.672v-70.58l-14.958-13.318h-25.21c-42.68 0-77.28 31.97-77.28 74.66z" fill="#ffd944"/><g><path d="m345.66 0v100.57l-9.085 18.09h-70.468l-10.107-18.09-28.702-52.634 28.702-47.936z" fill="#0d90bc"/><path d="m166.34 0v100.57l13.724 18.09h65.362l10.574-18.09v-100.57z" fill="#0fa8dc"/></g></g><path d="m63.85 100.57v128.87l12.33 14.33h160.78l19.04-22.65v-120.55z" fill="#f1f6f7"/><path d="m448.15 100.57v128.87l-12.33 14.33h-160.78l-19.04-22.65v-120.55z" fill="#dceaec"/><g><g><path d="m446.459 340.277 48.861 19.913v75.21h-239.32l-32.021-37.677 32.021-37.533 35.149-19.913z" fill="#c0d9dd"/><path d="m65.541 340.277-48.861 19.913v75.21h239.32v-75.21l-35.149-19.913z" fill="#cee1e4"/><path d="m256 360.19-33.553-65.762 33.553-73.308 3.085-5.822h10.596l2.629 5.822h146.8c10.28 0 20.09 2.95 29.04 8.32 7.44 4.45 14.28 10.56 20.3 18.01 16.45 20.3 26.87 50.56 26.87 84.37v28.37z" fill="#edbe00"/><path d="m16.68 360.19v-28.37c0-33.81 10.42-64.07 26.87-84.37 6.02-7.45 12.86-13.56 20.3-18.01 8.95-5.37 18.76-8.32 29.04-8.32h146.663l4.085-9.397h10.596l1.766 9.397v139.07z" fill="#ffd944"/></g><g><path d="m119.23 279.43c-29.86 0-54.15 24.29-54.15 54.15 0 29.85 24.29 54.14 54.15 54.14s54.15-24.29 54.15-54.14c0-29.86-24.29-54.15-54.15-54.15z" fill="#3f4a4a"/><path d="m143.38 333.58c0 13.31-10.84 24.14-24.15 24.14s-24.15-10.83-24.15-24.14c0-13.32 10.84-24.15 24.15-24.15s24.15 10.83 24.15 24.15z" fill="#f1f6f7"/></g><g><path d="m394 280.005c-29.86 0-54.15 24.29-54.15 54.15 0 29.85 24.29 54.14 54.15 54.14s54.15-24.29 54.15-54.14c0-29.86-24.29-54.15-54.15-54.15z" fill="#323c3c"/><path d="m418.15 334.155c0 13.31-10.84 24.14-24.15 24.14s-24.15-10.83-24.15-24.14c0-13.32 10.84-24.15 24.15-24.15s24.15 10.83 24.15 24.15z" fill="#dceaec"/></g></g><g><path d="m272.31 100.57v120.55h-16.31l-9.553-60.275 9.553-60.275z" fill="#323c3c"/><path d="m239.69 100.57h16.31v120.55h-16.31z" fill="#3f4a4a"/></g></g></svg>