<svg id="Capa_1" enable-background="new 0 0 512.001 512.001" height="512" viewBox="0 0 512.001 512.001" width="512" xmlns="http://www.w3.org/2000/svg"><g><g><path d="m461.17 323.596-155.58 150.13-49.59-36.7-84.021-178.956 84.021-183.084 45.34-20.83 152.17 108.94-16.49 92.91z" fill="#dceaec"/><path d="m50.83 323.596 155.58 150.13 49.59-36.7v-362.04l-45.375-20.835-152.135 108.945 16.49 92.91z" fill="#f1f6f7"/></g><g><g><g><path d="m114.45 139.354 40.95 40.96 21.22-21.22-40.96-40.96-6.936-3.168-16.851 16.851z" fill="#495959"/></g><g><path d="m137.535 392.654 39.157-39.148-21.22-21.22-39.018 39.018-5.11 8.879 16.851 16.851z" fill="#495959"/></g><g><path d="m72.282 271.262 57.92.007v-30.01h-57.927l-7.144 2.665v23.831z" fill="#495959"/></g></g><g><g><path d="m394.914 139.555-40.783 40.759-21.22-21.22 40.842-40.843 7.054-3.285 16.651 17.085z" fill="#3f4a4a"/></g><g><path d="m373.799 394.456-40.96-40.95 21.22-21.22 40.96 40.96 3.168 6.937-16.851 16.851z" fill="#3f4a4a"/></g><g><path d="m437.248 271.262-57.919.007v-30.01h57.926l7.145 2.665v23.831z" fill="#3f4a4a"/></g></g><g><path d="m271 75.828v57.92l-15 .061-5.212-28.661 5.212-30.15 3.298-6.33h8.192z" fill="#3f4a4a"/><path d="m252.575 68.668 3.425 6.33v58.811l-15-.061v-57.93l2.66-7.15z" fill="#495959"/></g><g><path d="m270.995 435.422v-57.92h-15l-7.5 29.695 7.5 29.211 3.293 6.205 8.197-.031z" fill="#3f4a4a"/><path d="m252.57 442.582 3.425-6.174v-58.906h-15v57.93l2.66 7.15z" fill="#495959"/></g></g><g><g><path d="m512 255.999c0 141.38-114.62 256-256 256l-28.872-34.362 28.872-40.618c46.447-1.254 88.98-19.15 116.95-42.85l21.22-21.22c23.7-27.97 39.06-63.24 42.23-101.95l.62-15 16.208-18.36 48.113-.005z" fill="#9d5015"/><path d="m0 255.999c0 141.38 114.62 256 256 256.002v-74.98c-46.447-1.256-88.98-19.152-116.95-42.852l-21.22-21.22c-23.7-27.97-39.06-63.24-42.23-101.95l-.62-15-11.257-18.362h-54.637z" fill="#ca671b"/></g><g><path d="m437.02 256-.62-15c-3.17-38.69-18.51-73.94-42.19-101.91l-21.21-21.22c-27.98-23.73-63.26-39.1-102-42.27l-15-.62-24.787-38.874 24.787-36.106c141.38 0 256 114.62 256 256z" fill="#ca671b"/><path d="m74.98 256 .62-15c3.17-38.69 18.51-73.94 42.19-101.91l21.21-21.22c27.98-23.73 63.26-39.1 102-42.27l15-.62v-74.98c-141.38 0-256 114.62-256 256z" fill="#ff7c48"/></g></g><g><g><path d="m264.364 275.001-57.39 57.38-21.21-21.21 57.38-57.39 5.021 4.709v11.234l-5.021 5.277 6.809-4.255h13.787z" fill="#ff7c48"/></g><g><path d="m315.375 245.767v30h-59.38l-7.5-42.894 7.5-60.866h15v73.76z" fill="#007579"/><path d="m240.995 172.007h15v103.76h-15z" fill="#00959a"/></g></g></g></svg>