<svg id="Capa_1" enable-background="new 0 0 512 512" height="512" viewBox="0 0 512 512" width="512" xmlns="http://www.w3.org/2000/svg"><g><g><path d="m512 96.86v302.84h-202.89v31.27h-53.11l-28.787-52.906 28.787-48.974 18.447-24.047h150.893l19.11 24.047-19.876-37.615v-181.368l19.876-13.247z" fill="#0d90bc"/><path d="m0 96.86v302.84h202.89v31.27h53.11v-101.88l-18.447-24.047h-150.893l-19.11 24.047 19.876-37.615v-181.368l-19.876-13.247z" fill="#0fa8dc"/></g><path d="m133.237 329.088v156.662l-32.842-28.74-32.845 28.74v-156.662l12.93-24.045h42.893z" fill="#ff7c48"/><g><path d="m444.45 28.63v236.8l-69.15 5.51-78.606 27.346-40.694 30.804-43.847-149.213 43.847-83.627c-.259-38.488 31.34-67.62 70-67.62z" fill="#dceaec"/><path d="m186 26.25c38.66 0 70 31.34 70 70v232.84l-40.66-33.02-78.64-27.51-69.15-5.51v-236.8z" fill="#f1f6f7"/></g><g><path d="m444.45 263.05v66.04h-188.45c0-36.48 29.57-66.04 66.04-66.04z" fill="#cee1e4"/><path d="m67.55 263.05v66.04h188.45c0-36.48-29.57-66.04-66.04-66.04z" fill="#dceaec"/></g></g></svg>