<svg id="Capa_1" enable-background="new 0 0 512.021 512.021" height="512" viewBox="0 0 512.021 512.021" width="512" xmlns="http://www.w3.org/2000/svg"><g><path d="m250.03 294.91-.83 24.64-23 1.92-46.64-32.84-5.59-23.24-7.02-4.347v-35.064l7.02-4.599h.04l19.68-2.21z" fill="#dceaec"/><g><g><g><path d="m188.75 177.81v30.98s-14.632 12.825-14.78 12.59v44.01l-2.108 23.786-55.158 40.074-18.174-9.05-19.46 16.75-62.39-21.67-9.05-26.65c21.19-68.8 84.24-119.24 159.41-121.59z" fill="#f1f6f7"/><path d="m127.34 408.88 10.542 20.029-49.1 45.278-28.372-3.587c-36.97-31.64-60.4-78.64-60.4-131.12 0-17.7 2.67-34.78 7.62-50.85l90.9 31.57 21.026 15.464 18.994 58.465z" fill="#dceaec"/></g><g><path d="m344.97 344.95c-1.54 49.57-24 93.88-58.84 124.37l-29.323 8.911-48.028-44.321 11.625-25.215-9.519-23.618 20.476-63.017 17.84-2.508 38.07-16.461 43.14 9.88z" fill="#cee1e4"/><path d="m220.404 408.695 65.727 60.625c-29.92 26.2-69.38 42.23-112.16 42.68l-24.364-49.596 24.364-53.709 6.274-9.95h31.66z" fill="#dceaec"/></g><path d="m173.97 512c-41.261.666-82.286-14.628-113.56-41.4l81.544-74.919h28.401l3.616 13.014v103.305z" fill="#f1f6f7"/><g><path d="m173.97 265.39s64.988 47.928 75.058 54.038l-28.625 89.267h-46.433l-33.727-65.221z" fill="#007579"/><path d="m173.97 408.695h-46.63l-28.81-88.68 75.44-54.81z" fill="#00959a"/></g></g><g><g><path d="m505.97 184.43 5.4 3.09c-3.14 36.41-17.58 69.59-39.8 96l-6.92-.86-13.92 13.06.05 8.63c-26.655 22.529-60.211 37.465-97.102 40.124-3.094.223-.892-5.775-4.369-9.253l-57.405-158.434 47.576-176.787 1.6 2.62h11.97l1.43-1.966c36.5 3.13 69.74 17.636 96.19 39.956v7.71l14.76 14.75 6.42-1.2c22.06 26.36 36.4 59.4 39.52 95.65l-5.4 5.39z" fill="#ca671b"/><path d="m172.989 184.43-5.4 3.09c3.14 36.41 17.58 69.59 39.8 96l6.92-.86 13.92 13.06-.05 8.63c26.529 22.422 59.92 36.983 96.58 40.081 4.852.41 1.253-6.551 6.211-6.551l8.509-1.721v-336.159l-1.6 2.62h-11.97l-1.43-1.966c-36.5 3.13-69.74 17.636-96.19 39.956v7.71l-14.76 14.75-6.42-1.2c-22.06 26.36-36.4 59.4-39.52 95.65l5.4 5.39z" fill="#ff7c48"/></g><g><g><path d="m511.37 187.52h-83.91c3.37 36.03 18.84 69.49 44.42 95.62-6.42 7.68-13.5 14.8-21.16 21.26-31.28-31.81-49.93-72.82-53.37-116.88h-42.87v156.89c-4.94.42-9.95.64-15 .64l-10.81-172.525 10.81-172.525c5.05 0 10.06.234 15 .654v156.866h42.79c1.46-20.83 5.97-40.45 13.46-58.52 9.05-21.8 22.48-41.44 39.94-58.39 7.66 6.46 14.75 13.57 21.18 21.26-26.51 25.58-41.43 57.71-44.5 95.65h84.02c.42 4.94.64 9.95.64 15s-.22 10.06-.64 15z" fill="#f2e4ca"/></g><g><path d="m167.589 187.52h83.91c-3.37 36.03-18.84 69.49-44.42 95.62 6.42 7.68 13.5 14.8 21.16 21.26 31.28-31.81 49.93-72.82 53.37-116.88h42.87v156.89c4.94.42 9.95.64 15 .64v-345.05c-5.05 0-10.06.234-15 .654v156.866h-42.79c-1.46-20.83-5.97-40.45-13.46-58.52-9.05-21.8-22.48-41.44-39.94-58.39-7.66 6.46-14.75 13.57-21.18 21.26 26.51 25.58 41.43 57.71 44.5 95.65h-84.02c-.42 4.94-.64 9.95-.64 15s.22 10.06.64 15z" fill="#fff3e1"/></g></g></g></g></g></svg>