<svg id="Capa_1" enable-background="new 0 0 512 512" height="512" viewBox="0 0 512 512" width="512" xmlns="http://www.w3.org/2000/svg"><g><path d="m181.096 385.834h-64.967c-31.225 0-56.628-25.408-56.628-56.639v-104.184l6.106-12.479h20.426l3.468 12.479v104.184c0 14.689 11.945 26.639 26.628 26.639l37.212-.004 6.309-7.809h16.596l4.528 7.808 8.355 4.56-.117 21.334z" fill="#dceaec"/><g><path d="m405.01 447.94v18.38l-9.939 3.26h-91.857l-15.395-15 15.395-15h91.857z" fill="#cee1e4"/><path d="m303.214 439.58v30h-92.441l-10.533-7.34v-17.36l9.29-5.3z" fill="#dceaec"/></g><g><g><path d="m210.773 512h-30v-156.171l6.435-15.467h16.587l6.978 15.467z" fill="#f1f6f7"/></g><g><path d="m425.071 512h-30v-156.171l7.056-15.467h16.114l6.83 15.467z" fill="#f1f6f7"/></g></g><g><g><path d="m234.182 288.09-7.554 11.25h-15.319l-7.127-11.216v-63.113l7.656-10.777h16.535l5.809 10.777z" fill="#f1f6f7"/></g><g><path d="m401.663 288.09-4.549 9.832h-19.337l-6.114-9.832v-94.833l5.162-12.385h18.043l6.795 12.388z" fill="#dceaec"/></g></g><g><path d="m420.75 55.17v138.09h-118.12l-47.74-96.5 47.74-96.76h63.21c30.32 0 54.91 24.85 54.91 55.17z" fill="#58b354"/><path d="m302.63 0v193.26h-47.74l-10.22-3.2v-17.87l10.22-10.686-16.86 8.306h-42.26l-10.67-8.306v-106.334c0-30.32 24.58-55.17 54.91-55.17z" fill="#6fbe6b"/></g><g><path d="m452.5 337.22v18.61h-149.87l-29.364-33.87 29.364-33.87h100.74c27.14 0 49.13 21.99 49.13 49.13z" fill="#58b354"/><path d="m302.63 288.09v67.74h-149.29v-18.61c0-27.14 22-49.13 49.13-49.13z" fill="#6fbe6b"/></g><path d="m59.5 161.504h195.39v63.506h-195.39z" fill="#85c882"/></g></svg>