<svg id="Capa_1" enable-background="new 0 0 512.05 512.05" height="512" viewBox="0 0 512.05 512.05" width="512" xmlns="http://www.w3.org/2000/svg"><g><g><path d="m512.025 52.21v459.84l-170.311-.1-32.059-38.056 31.77-36.298.196-333.242 34.644-52.224z" fill="#edbe00"/><path d="m341.425 512h-169.48v-73.24l16.82-28.79h124.44l28.22 27.607z" fill="#ffd944"/></g><g><g><g><path d="m376.265 46.61v345.55c0 25.73-20.12 46.6-44.95 46.6h-96.51l-80.503-202.707 80.503-236.053h96.51c24.83 0 44.95 20.87 44.95 46.61z" fill="#ca671b"/><path d="m46.685 0h188.12v438.76h-188.12z" fill="#ff7c48"/></g><g><path d="m305.825 343.83v30h-71.02l-15.805-17.777 15.805-12.223z" fill="#dceaec"/><path d="m203.195 343.83h31.61v30h-31.61z" fill="#f1f6f7"/></g><g><path d="m302.625 79.93v62.6h-67.82l-31.025-31.3 31.025-31.3z" fill="#f2e4ca"/><path d="m166.995 79.93h67.81v62.6h-67.81z" fill="#fff3e1"/></g></g><g><g><path d="m.025 56.053h93.319v30h-93.319z" fill="#3f4a4a"/></g><g><path d="m.025 356.053h93.319v30h-93.319z" fill="#3f4a4a"/></g><g><path d="m.025 296.053h93.319v30h-93.319z" fill="#3f4a4a"/></g><g><path d="m.025 236.053h93.319v30h-93.319z" fill="#3f4a4a"/></g><g><path d="m.025 176.053h93.319v30h-93.319z" fill="#3f4a4a"/></g><g><path d="m.025 116.053h93.319v30h-93.319z" fill="#3f4a4a"/></g></g></g></g></svg>