<svg id="Capa_1" enable-background="new 0 0 512.004 512.004" height="512" viewBox="0 0 512.004 512.004" width="512" xmlns="http://www.w3.org/2000/svg"><g><g><path d="m482.741 79.172v289.87l-19.442 25.194h-176.17l-31.128-25.194-46.196-127.998 46.196-161.872z" fill="#dceaec"/><path d="m256.001 79.172v289.87l-18.659 25.194h-183.83l-24.251-25.194v-289.87z" fill="#f1f6f7"/></g><g><path d="m436.491 237.58h-134.243l17.952-45.934v-45.935h116.291z" fill="#0d90bc"/><g fill="#ff7c48"><path d="m61.712 368.983v-29.957c0-44.08 35.734-79.813 79.813-79.813h2.216c44.08 0 79.813 35.734 79.813 79.813v30.016l-2.33 13.449h-155.65z"/><circle cx="142.633" cy="218.489" r="40.723"/></g></g><g><path d="m512.001 369.042c.303 34.606-28.139 63.79-62.89 63.79h-193.11l-20.957-27.107 20.957-36.683z" fill="#323c3c"/><path d="m256.001 369.042v63.79h-193.11c-34.814 0-63.108-29.184-62.89-63.79z" fill="#3f4a4a"/></g></g></svg>