<svg id="Capa_1" enable-background="new 0 0 512 512" height="512" viewBox="0 0 512 512" width="512" xmlns="http://www.w3.org/2000/svg"><g><g><g><path d="m372.64 395.37c0 64.42-52.22 116.63-116.64 116.63l-42.574-114.721 42.574-118.549c64.42 0 116.64 52.22 116.64 116.64z" fill="#edbe00"/><path d="m256 278.73v233.27c-64.42 0-116.64-52.21-116.64-116.63s52.22-116.64 116.64-116.64z" fill="#ffd944"/></g><g><path d="m271 382.28v30h-15l-10.055-15 10.055-15z" fill="#dceaec"/><path d="m241 382.28h15v30h-15z" fill="#f1f6f7"/></g></g><g><g><path d="m394.71 77.84v114.79l-73.67 46.74-19.785-19.999v-133.787l19.785-7.744 9.771-25.478h51.575z" fill="#0d90bc"/><path d="m117.29 77.84v114.79l73.67 46.74 19.785-19.999v-133.787l-19.785-7.744-9.771-25.478h-51.575z" fill="#0fa8dc"/><g><path d="m321.04 77.84v161.53l-65.04 39.36-30.83-109.432 30.83-91.458 10.532-25.478h41.872z" fill="#dceaec"/><path d="m190.96 77.84v161.53l65.04 39.36v-200.89l-11.936-25.478h-42.523z" fill="#f1f6f7"/></g></g><g><path d="m394.71 0v77.84h-138.71l-30.83-38.92 30.83-38.92z" fill="#007579"/><path d="m117.29 0h138.71v77.84h-138.71z" fill="#00959a"/></g></g></g></svg>