<svg id="Capa_1" enable-background="new 0 0 512 512" height="512" viewBox="0 0 512 512" width="512" xmlns="http://www.w3.org/2000/svg"><g><path d="m512 169.975v172.05l-4.049 28.439-69.54 61.28-21.041 4.901h-161.37l-63.34-167.56 63.34-193.73h161.37l23.97 10.6 59.75 55.12s10.91 25.6 10.91 28.9z" fill="#007579"/><g><path d="m0 169.975v172.05l4.049 28.439 69.54 61.28 21.041 4.901h161.37v-361.29h-161.37l-23.97 10.6-59.75 55.12s-10.91 25.6-10.91 28.9z" fill="#00959a"/><g fill="#f1f6f7"><path d="m0 75.355v94.62c52.26 0 94.62-42.35 94.63-94.62z"/><path d="m0 342.025v94.62h94.63c0-52.26-42.37-94.62-94.63-94.62z"/></g></g><g><path d="m435.65 254.945v30h-179.65l-17.383-15 17.383-15z" fill="#dceaec"/><path d="m76.35 254.945h179.65v30h-179.65z" fill="#f1f6f7"/></g><g><path d="m329.52 357.235v30h-73.52l-19.936-15 19.936-15z" fill="#9ab8c2"/><path d="m182.48 357.235h73.52v30h-73.52z" fill="#b3d1d6"/></g><g><path d="m349.33 141.075v63.94h-93.33l-27.596-31.97 27.596-31.97z" fill="#edbe00"/><path d="m162.67 141.075h93.33v63.94h-93.33z" fill="#ffd944"/></g><g fill="#dceaec"><path d="m512 75.355v94.62c-52.26 0-94.62-42.35-94.63-94.62z"/><path d="m512 342.025v94.62h-94.63c0-52.26 42.37-94.62 94.63-94.62z"/></g></g></svg>