<svg id="Capa_1" enable-background="new 0 0 512 512" height="512" viewBox="0 0 512 512" width="512" xmlns="http://www.w3.org/2000/svg"><g><g><path d="m258.87 155.21 72.13 33.32 41.43-23.11-23.387 33.239v48.68l8.157 28.731 1.03 15.19 69.11 46.68h20.23v-146.44c0-104.487-87.165-191.5-191.57-191.5l-25.468 50.404 25.468 33.496c0 .46-.01.92 0 1.38z" fill="#323c3c"/><path d="m253.13 155.21-72.13 33.32-41.43-23.11 23.387 33.239v48.68l-8.157 28.731-1.03 15.19-69.11 46.68h-20.23v-146.44c0-104.487 87.165-191.5 191.57-191.5v83.9c0 .46.01.92 0 1.38z" fill="#495959"/></g><g><path d="m127.28 394.47 3.955 12.363-108.719 100.39-22.516 4.777v-7.88c0-58.5 19.94-112.21 54.17-154.33l14.2-4.15 58.136 35.529z" fill="#58b354"/><path d="m173.65 422.81 7.35 8.701v69.787l-7.35 10.702h-173.65l127.28-117.53 9.376-7.194 33.681 20.585z" fill="#6fbe6b"/><path d="m178.83 281.85-5.18 18.93 7.35 16.688v96l-7.35 9.342-46.37-28.34-73.11-44.68c3.29-4.07 6.72-8.01 10.26-11.85 24.87-26.91 55.69-48.23 90.37-61.87l9.35-6.09z" fill="#85c882"/></g><g><path d="m384.72 394.47-3.955 12.363 108.719 100.39 22.516 4.777v-7.88c0-58.5-19.94-112.21-54.17-154.33l-14.2-4.15-58.136 35.529z" fill="#4a9f46"/><path d="m338.35 422.81-7.35 8.701v69.787l7.35 10.702h173.65l-127.28-117.53-9.376-7.194-33.681 20.585z" fill="#58b354"/><path d="m333.17 281.85 5.18 18.93-7.35 16.688v96l7.35 9.342 46.37-28.34 73.11-44.68c-3.29-4.07-6.72-8.01-10.26-11.85-24.87-26.91-55.69-48.23-90.37-61.87l-9.35-6.09z" fill="#6fbe6b"/></g><g><path d="m256 334.87-24.698 35.867 24.698 59.249 21.061-1.66 55.837-87.356 5.452-40.19-18.832-7.49-50.364 18.921z" fill="#e2a66f"/><path d="m256 334.87v95.116h-15.936l-62.234-94.796-4.18-34.41 17.56-13.27 49.952 19.436z" fill="#f1ba87"/></g><g><path d="m372.43 165.42v53.09c0 20.94-5.53 40.59-15.23 57.56-5.17 9.08-11.53 17.39-18.85 24.71-.69.7-1.37 1.37-2.07 2.03-20.87 19.86-49.18 32.06-80.28 32.06l-7.255-105.572 7.255-145.398c0 16.69 5.08 32.21 13.7 45.12 14.6 21.95 39.55 36.4 67.89 36.4z" fill="#f1ba87"/><path d="m139.57 165.42v53.09c0 20.94 5.53 40.59 15.23 57.56 5.17 9.08 11.53 17.39 18.85 24.71.69.7 1.37 1.37 2.07 2.03 20.87 19.86 49.18 32.06 80.28 32.06v-250.97c0 16.69-5.08 32.21-13.7 45.12-14.6 21.95-39.55 36.4-67.89 36.4z" fill="#f1d0a4"/></g><g><path d="m256 429.986-23.426 54.971 23.426 27.043h82.35v-211.22z" fill="#dceaec"/><path d="m256 429.986v82.014h-82.35v-211.22z" fill="#f1f6f7"/></g></g></svg>