<svg id="Capa_1" enable-background="new 0 0 512 512" height="512" viewBox="0 0 512 512" width="512" xmlns="http://www.w3.org/2000/svg"><g><g><path d="m383.31 393-9.154 15.974 106.443 98.429 31.401 4.597c0-28.94-5.63-59.32-15.5-87.68-9.86-28.36-23.96-54.69-40.88-75.52l-20.253-7.254-51.125 31.251z" fill="#4a9f46"/><path d="m337.44 421.03-14.695 10.821v64.34l14.695 15.809h174.56l-128.69-119-9.093-14.711-32.346 19.766z" fill="#58b354"/><path d="m331.399 281.974 6.041 18.243-14.695 17.251v87.819l14.695 15.743 45.87-28.03 72.31-44.2c-3.26-4.02-6.64-7.92-10.14-11.72-24.6-26.62-55.188-47.739-89.488-61.229l-14.862-5.871z" fill="#6fbe6b"/></g><g><path d="m128.69 393 9.154 15.974-106.443 98.428-31.401 4.598c0-28.94 5.63-59.32 15.5-87.68 9.86-28.36 23.96-54.69 40.88-75.52l20.253-7.254 51.125 31.251z" fill="#58b354"/><path d="m174.56 421.03 14.695 10.821v64.34l-14.695 15.809h-174.56l128.69-119 9.093-14.711 32.346 19.766z" fill="#6fbe6b"/><path d="m180.57 281.98-6.009 18.348 14.695 17.14v87.819l-14.696 15.743-45.87-28.03-72.31-44.2c3.26-4.02 6.64-7.92 10.14-11.72 24.6-26.62 55.09-47.7 89.39-61.19l14.96-5.91z" fill="#85c882"/></g><g><path d="m269.638 290.404h55.66l12.142 9.813v211.783h-81.44l-33.043-95.213 33.043-82.747z" fill="#dceaec"/><path d="m242.362 290.404h-55.66l-12.141 9.924-.001 211.672h81.44v-177.96z" fill="#f1f6f7"/></g><g><path d="m371.04 145.41v73.54c0 20.71-5.48 40.14-15.07 56.94-5.59 9.81-12.58 18.71-20.69 26.44-20.64 19.63-48.54 31.69-79.28 31.71l-33.043-125.168 33.043-83.672 9.03-31.76 14.15-16.23 14.19 1.23 10.52 2.6 62.05 50.56z" fill="#f1ba87"/><path d="m256 125.2v208.84c-30.76 0-58.75-12.07-79.39-31.71-8.11-7.73-15.11-16.63-20.7-26.44-9.59-16.8-15.06-36.23-15.06-56.94v-77.42l14.7-26.27 74.876-15.686z" fill="#f1d0a4"/></g><g><path d="m321.77 50.79-13.28 43.02-16.866 4.106c-11.03 10.37-25.524 19.534-35.624 27.284l-33.04-63.73 33.04-55.15c16.53 5.64 48.821 22.131 60.241 38.011z" fill="#ca671b"/><path d="m256 6.32v118.88c-46.747 36.19-115.471 30.944-156.7-11.17 2.35-63.38 54.46-114.03 118.4-114.03 13.41 0 26.29 2.23 38.3 6.32z" fill="#ff7c48"/><circle cx="348.843" cy="91.756" fill="#bb5f19" r="57.545"/></g></g></svg>