<svg id="Capa_1" enable-background="new 0 0 512 512" height="512" viewBox="0 0 512 512" width="512" xmlns="http://www.w3.org/2000/svg"><g><g><path d="m255.959 306.662-217.1 205.338c-30.38-31.85-29.05-84.898 2.97-114.588l155.39-146.3h19.909l35.907 33.957z" fill="#dceaec"/><path d="m374.779 171.432-4.282 27.042-55.718 52.638-18.347 4.89-42.999-40.483 2.566-19.747 57.62-54.19 23.72-7.6z" fill="#cee1e4"/><path d="m473.139 512-217.18-205.338-24.106-62.383 24.146-48.507 58.78 55.34 155.39 146.3c32.02 29.69 33.35 82.738 2.97 114.588z" fill="#dceaec"/><path d="m313.621 141.582c10.727 26.66 31.69 46.7 56.882 56.89 78.883 32.007 161.419-44.502 137.137-125.16-16.395-54.46-73.817-85.31-128.26-68.91-57.108 17.203-87.905 81.991-65.759 137.18zm56.422-43.17c2.539-21.16 21.743-36.25 42.897-33.71 21.143 2.54 36.229 21.74 33.69 42.9-2.501 20.868-21.958 36.217-42.877 33.7-10.897-1.31-20.184-7.03-26.282-15.17-5.728-7.67-8.657-17.46-7.428-27.72z" fill="#ca671b"/></g><g><path d="m255.999 195.77-.04 110.89-58.74-55.55-55.72-52.64-4.28-27.04 37.44-37.45 23.72 7.6z" fill="#f1f6f7"/><path d="m132.619 4.402c-54.44-16.4-111.87 14.45-128.26 68.91-24.28 80.66 58.25 157.17 137.14 125.16 25.19-10.19 46.15-30.23 56.88-56.89 22.14-55.19-8.65-119.98-65.76-137.18zm-24.37 136.9c-20.92 2.52-40.38-12.83-42.88-33.7-2.54-21.16 12.55-40.36 33.69-42.9 21.15-2.54 40.36 12.55 42.9 33.71 1.23 10.26-1.7 20.05-7.43 27.72-6.1 8.14-15.39 13.86-26.28 15.17z" fill="#ff7c48"/></g></g></svg>