<svg id="Capa_1" enable-background="new 0 0 512 512" height="512" viewBox="0 0 512 512" width="512" xmlns="http://www.w3.org/2000/svg"><g><g><g><path d="m111.685 83.438h-48.025l-11.426-7.672v-13.617l11.426-8.711h48.025l7.443 4.115v20.256z" fill="#f1f6f7"/></g><g><path d="m217.863 83.438h-29.91l-13.336-6.651v-17.361l13.336-5.988h29.91l13.435 4.115v20.256z" fill="#f1f6f7"/></g><g><path d="m448.34 83.438h-154.203l-12.423-3.247v-24l12.423-2.753h154.203l13.531 4.115v20.256z" fill="#dceaec"/></g><g><path d="m296.97 68.44c0 22.62-18.34 40.97-40.97 40.97l-10.404-40.971 10.404-40.969c22.63 0 40.97 18.34 40.97 40.97z" fill="#ca671b"/><path d="m256 27.47v81.94c-22.63 0-40.97-18.35-40.97-40.97 0-22.63 18.34-40.97 40.97-40.97z" fill="#ff7c48"/></g><circle cx="149.819" cy="68.438" fill="#ffd944" r="40.967"/></g><g><g><g><path d="m330.36 194.92v20.26l-8.351 5.63h-66.009l-7.851-15.003 7.851-14.997h66.443z" fill="#dceaec"/><path d="m256 190.81v30h-14.796l-12.164-7.68v-13.61l12.167-8.71z" fill="#f1f6f7"/></g><g><path d="m448.34 221.362h-49.871l-11.426-7.673v-13.617l11.446-8.71h49.851l7.639 4.114v20.256z" fill="#dceaec"/></g><g><path d="m164.939 220.807h-101.279l-12.946-3.247v-24l12.946-2.753h101.283l13.459 4.115v20.255z" fill="#f1f6f7"/></g><circle cx="203.072" cy="205.807" fill="#6fbe6b" r="40.967"/><circle cx="360.355" cy="206.362" fill="#ca671b" r="40.967"/></g><g><g><path d="m448.34 362.021h-113.243l-10.448-7.673v-13.617l10.448-8.71h113.243l7.489 4.114v20.256z" fill="#dceaec"/></g><g><path d="m258.833 362.021h-195.173l-12.946-3.247v-24l12.946-2.753h195.173l14.337 4.114v20.256z" fill="#f1f6f7"/></g><circle cx="296.967" cy="347.021" fill="#0fa8dc" r="40.967"/></g><path d="m0 449.143v62.857h63.66-63.66v-512h63.66v449.143l-9.554 18.963h-45.446z" fill="#0fa8dc"/><path d="m512 0v512-62.857l-11.596 19.985h-42.383l-9.681-19.985v-449.143z" fill="#0d90bc"/></g><g><path d="m512 449.14v62.86h-256l-32.191-34.532 32.191-28.328z" fill="#323c3c"/><path d="m0 449.14h256v62.86h-256z" fill="#3f4a4a"/></g></g></svg>