<svg id="Capa_1" enable-background="new 0 0 512 512" height="512" viewBox="0 0 512 512" width="512" xmlns="http://www.w3.org/2000/svg"><g><g><g><path d="m357.63 306.83v12.6c15.33.17 18.43.27 21.51.27 33.45 0 65.32-12.57 90.7-36.01 26.79-24.73 42.16-57.91 42.16-91.04v-158.45h-110.82l-11.37 2.79v19.91l11.37 7.27 80.82.03v128.45c0 24.42-12.15 50.21-32.5 69-16.94 15.64-37.52 25.06-68.2 27.48h-16.51z" fill="#dcb000"/></g></g><g><g><path d="m154.37 306.83v12.6c-15.33.17-18.43.27-21.51.27-33.45 0-65.32-12.57-90.7-36.01-26.79-24.73-42.16-57.91-42.16-91.04v-158.45h110.82l11.37 2.79v19.91l-11.37 7.27-80.82.03v128.45c0 24.42 12.15 50.21 32.5 69 16.94 15.64 37.52 25.06 68.2 27.48h16.51z" fill="#edbe00"/></g></g><g><g><path d="m305.59 482-8.206 12.167-35.404-.277-5.98-11.89-20.447-67.936 20.447-53.134 7.33-24.99h25.88l16.38 16.3z" fill="#dcb000"/></g><g><path d="m206.41 482 8.206 12.167 35.404-.277 5.98-11.89v-121.07l-7.33-24.99h-25.88l-16.38 16.3z" fill="#edbe00"/></g><g><g><path d="m256 482-14.83 18.872 14.83 11.128h162.55v-30z" fill="#323c3c"/></g><g><path d="m93.45 482h162.55v30h-162.55z" fill="#3f4a4a"/></g></g></g><g><path d="m256 0-21.468 34.2 21.468 29.97 12.787 24.107h116.234l16.159-24.107v-64.17z" fill="#edbe00"/><path d="m256 125.45-30.66 93.552 30.66 141.928c17.42 0 34.12-3.07 49.59-8.69 19.68-7.16 37.38-18.44 52.04-32.81 4.8-4.71 9.27-9.75 13.39-15.08 3.74-4.84 7.17-9.92 10.28-15.22 12.64-21.54 19.88-46.61 19.88-73.38v-90.3l-16.93-17.769h-116.937z" fill="#edbe00"/><path d="m256 0v64.17l-12.787 24.107h-116.234l-16.159-24.107v-64.17z" fill="#ffd944"/><path d="m256 125.45v235.48c-17.42 0-34.12-3.07-49.59-8.69-19.68-7.16-37.38-18.44-52.04-32.81-4.8-4.71-9.27-9.75-13.39-15.08-3.74-4.84-7.17-9.92-10.28-15.22-12.64-21.54-19.88-46.61-19.88-73.38v-90.3l16.93-17.769h116.936z" fill="#ffd944"/><path d="m256 64.17-19.936 30.64 19.936 30.64h145.18v-61.28z" fill="#dceaec"/><path d="m110.82 64.17h145.18v61.28h-145.18z" fill="#f1f6f7"/></g></g></svg>