<svg id="Capa_1" enable-background="new 0 0 512 512" height="512" viewBox="0 0 512 512" width="512" xmlns="http://www.w3.org/2000/svg"><g><g><g><path d="m333.17 512h-333.17v-30.043l333.174.043z" fill="#edbe00"/></g></g><g><path d="m497.825 198.545-203.39 203.39-35.659 2.75-63.663-63.656 7.133-31.274 43.593-162.259 194.027-75.351-4.197 10.117 25.149 25.149 12.008-2.305 25 24.99c18.899 18.899 18.899 49.549-.001 68.449z" fill="#edbe00"/><path d="m439.865 72.145-237.62 237.61-27.726 8.975-72.681-72.681 8.227-28.474 203.39-203.4c18.9-18.9 49.55-18.9 68.45 0l25 25-2.131 11.938 24 24z" fill="#ffd944"/><path d="m294.435 401.935-47.98 47.98-114.295-19.178-17.856 2.452-14.596-14.608 6.607-12.896 26.744-73.778 69.186-22.152z" fill="#323c3c"/><path d="m202.245 309.755-95.93 95.93-17.068 5.545-12.906-12.912 4.878-18.483-19.144-114.27 47.99-47.99z" fill="#3f4a4a"/><path d="m472.825 105.105-179.86 179.86-32.97-32.96 63.971-112.68 115.899-67.18z" fill="#323c3c"/><path d="m206.264 122.284h254.371v46.616h-254.371z" fill="#3f4a4a" transform="matrix(.707 -.707 .707 .707 -5.288 278.419)"/><path d="m132.16 430.737-51.275 51.275-35.936-14.986 20.232-40.728 41.498-21.002z" fill="#edbe00"/><path d="m81.219 379.835 25.46 25.461-61.73 61.73-35.731-15.191z" fill="#ffd944"/></g></g></svg>