<svg id="Capa_1" enable-background="new 0 0 512 512" height="512" viewBox="0 0 512 512" width="512" xmlns="http://www.w3.org/2000/svg"><g><g><path d="m481.66 73.92 14.489 14.905v228.878l-14.489 22.647-20.405 12.942-60.595 2.393-26.5-15.335 15.266 15.59v40.851l-15.266 7.419-8.224 27.664h-97.532l-12.404-27.664-44.71-144.706 44.71-185.584 18.06-13.677 211.876-.058z" fill="#6fbe6b"/><path d="m247.596 60.185 8.404 13.735v330.29l-18.234 27.664h-202.723l-4.553-27.919-12.299-14.167v-310.468l12.299-5.4 7.361-13.735z" fill="#85c882"/></g><g><path d="m383.67 123.66v30h-127.67l-17.831-15 17.831-15z" fill="#dceaec"/><path d="m256 123.66v30h-21.14l-44.38 193.52-74.72-115.02 25.15-16.34 36.16 55.65 33.89-147.81z" fill="#f1f6f7"/></g><path d="m481.66 340.35 10.914 3.642v49.771l-10.914 10.447-12.064 9.848h-80.681l-14.755-9.848v-63.86z" fill="#edbe00"/><g><path d="m512 43.92v360.29l-7.952 14.34h-14.197l-8.191-14.34v-330.29h-225.66l-18.915-14.416 18.915-15.584z" fill="#3f4a4a"/><path d="m256 43.92v30h-225.51v330.29l-7.362 14.34h-11.915l-11.213-14.34v-360.29z" fill="#495959"/></g><g><path d="m512 404.21v63.87h-256l-16.191-23.033 16.191-40.837z" fill="#323c3c"/><path d="m0 404.21h256v63.87h-256z" fill="#3f4a4a"/></g></g></svg>