<svg id="Capa_1" enable-background="new 0 0 512 512" height="512" viewBox="0 0 512 512" width="512" xmlns="http://www.w3.org/2000/svg"><g><g><path d="m479.38 121.323v31.711l-21.95 10.869-279.91.24-23.02-12.09-1.75-.04-46.64-.93v-43.02l191.741-31.88 173.109 31.88v5.67z" fill="#dceaec"/><g><path d="m512 152.053v30l-148.49.11-26.6 15h-162.38l-20.03-15.11c-41.07 0-74.58-33.07-75.28-73.99l14.376-13.26 15.634 13.26c.68 23.79 19.79 43.05 43.52 43.95.58.03 1.17.04 1.75.04z" fill="#ca671b"/></g><g><path d="m479.38 108.063v13.26h-258.72v-13.26l127.489-8.39z" fill="#cee1e4"/></g><path d="m479.38 94.803v-30.73l-21.95-11.85-279.91-.24-23.02 12.09-1.75.04-46.64.93v43.02h364.85v-5.67z" fill="#f1f6f7"/><g><path d="m512 64.073v-30h-357.5c-41.07 0-74.58 33.07-75.28 73.99h30.01c.68-23.79 19.79-43.05 43.52-43.95.58-.03 1.17-.04 1.75-.04z" fill="#ff7c48"/></g><g><path d="m220.66 94.803h258.72v13.26h-258.72z" fill="#dceaec"/></g></g><g><path d="m32.62 269.206v31.711l21.95 10.869 279.91.24 23.02-12.09 1.75-.04 46.64-.93v-43.02l-191.741-31.88-173.109 31.88v5.67z" fill="#dceaec"/><g><path d="m0 299.936v30l148.49.11 26.6 15h162.38l20.03-15.11c41.07 0 74.58-33.07 75.28-73.99l-14.376-13.26-15.634 13.26c-.68 23.79-19.79 43.05-43.52 43.95-.58.03-1.17.04-1.75.04z" fill="#6fbe6b"/></g><g><path d="m32.62 255.946v13.26h258.72v-13.26l-127.489-8.39z" fill="#cee1e4"/></g><path d="m32.62 242.686v-30.73l21.95-11.85 279.91-.24 23.02 12.09 1.75.04 46.64.93v43.02h-364.85v-5.67z" fill="#f1f6f7"/><g><path d="m0 211.956v-30h357.5c41.07 0 74.58 33.07 75.28 73.99h-30.01c-.68-23.79-19.79-43.05-43.52-43.95-.58-.03-1.17-.04-1.75-.04z" fill="#85c882"/></g><g><path d="m32.62 242.686h258.72v13.26h-258.72z" fill="#dceaec"/></g></g><g><path d="m479.38 417.197v31.711l-21.95 10.869-279.91.24-23.02-12.09-1.75-.04-46.64-.93v-43.02l191.741-31.88 173.109 31.88v5.67z" fill="#dceaec"/><g><g><path d="m512 447.927v30h-357.5c-41.07 0-74.58-33.07-75.28-73.99l14.376-13.26 15.634 13.26c.68 23.79 19.79 43.05 43.52 43.95.58.03 1.17.04 1.75.04z" fill="#edbe00"/></g></g><g><path d="m479.38 403.937v13.26h-258.72v-13.26l127.489-8.391z" fill="#cee1e4"/></g><path d="m479.38 390.677v-30.73l-21.95-11.85-279.91-.24-23.02 12.09-1.75.04-46.64.93v43.02h364.85v-5.67z" fill="#f1f6f7"/><g><g><path d="m512 359.947v-30h-357.5c-41.07 0-74.58 33.07-75.28 73.99h30.01c.68-23.79 19.79-43.05 43.52-43.95.58-.03 1.17-.04 1.75-.04z" fill="#ffd944"/></g></g><g><path d="m220.66 390.677h258.72v13.26h-258.72z" fill="#dceaec"/></g></g></g></svg>