<svg id="Capa_1" enable-background="new 0 0 512 512" height="512" viewBox="0 0 512 512" width="512" xmlns="http://www.w3.org/2000/svg"><g><g><path d="m491.784 151.764-15.89 17.022h-206.298l-13.596-17.022v-151.764h235.784z" fill="#dceaec"/><g><path d="m388.892 246.012-4.403 14.86h-18.893l-6.704-14.86v-60.203l5.808-15h20.041l4.151 15z" fill="#3f4a4a"/></g><path d="m256 151.764h235.784v34.044h-235.784z" fill="#495959"/></g><g><path d="m224.254 246.01-22.623 17.49h-88.515l-18.235-17.488c-17.582 0-31.835-14.253-31.835-31.835 0-17.582 14.253-31.835 31.835-31.835h129.373z" fill="#ffd944"/><g><g><path d="m30 512h-30v-187.87l6.139-11.683h19.149l4.712 11.683z" fill="#3f4a4a"/></g><path d="m287.23 246.012 15.047 8.93v60.766l-15.047 8.422h-31.23l-22.149-39.059 22.149-39.059z" fill="#ca671b"/><path d="m256 246.01v78.12h-256l.07-4.2c0-40.82 33.09-73.92 73.92-73.92z" fill="#ff7c48"/><path d="m512 319.93v59.08l-17.725 30.458h-188.426l-18.619-30.458-.001-132.999h150.78c40.831-.001 73.991 33.099 73.991 73.919z" fill="#bb5f19"/><path d="m287.23 379.01h224.77v132.99h-224.77z" fill="#ca671b"/><g fill="#dceaec"><path d="m384.615 297.51h30v30h-30z"/><path d="m384.615 430.503h30v30h-30z"/></g></g></g></g></svg>