<svg id="Capa_1" enable-background="new 0 0 512 512" height="512" viewBox="0 0 512 512" width="512" xmlns="http://www.w3.org/2000/svg"><g><g><path d="m475.04 294.27c0 85.9-69.62 217.73-155.51 217.73-22.64 0-44.13-4.83-63.52-13.53h-.01l-79.413-164.491 79.413-181.689h.01c19.39-8.7 40.88-13.53 63.52-13.53 85.89 0 155.51 69.63 155.51 155.51z" fill="#6fbe6b"/><path d="m256 152.29v346.18c-19.4 8.7-40.89 13.53-63.52 13.53-85.89 0-155.52-131.83-155.52-217.73 0-85.88 69.63-155.51 155.52-155.51 22.63 0 44.12 4.83 63.52 13.53z" fill="#85c882"/></g><g><path d="m271.93 65.56v150.52l-1.78 6.07h-10.47l-3.68-5.33-7.965-74.331 7.965-76.929 3.894-6.815h9.702z" fill="#323c3c"/><path d="m256 65.56v151.26l-2.7 5.33h-8.36l-4.87-6.07v-150.52l2.973-6.815h9.191z" fill="#3f4a4a"/></g><g><path d="m335.41 233.5c-26.044 8.347-51.776 15.18-79.41 15.18l-17.894-18.191 17.894-13.669c24.3 0 46.822-6.341 69.7-13.66z" fill="#4a9f46"/><path d="m256 216.82v31.86c-27.632 0-53.367-6.833-79.41-15.18l9.71-30.34c22.885 7.321 45.389 13.66 69.7 13.66z" fill="#58b354"/></g><g><path d="m353.762 65.563h-97.762c0-36.045 29.219-65.563 65.263-65.563h84.643v13.418c.001 28.799-23.345 52.145-52.144 52.145z" fill="#007579"/><path d="m158.238 65.563h97.762c0-36.045-29.219-65.563-65.263-65.563h-84.643v13.418c-.001 28.799 23.345 52.145 52.144 52.145z" fill="#00959a"/></g></g></svg>