<svg id="Capa_1" enable-background="new 0 0 512 512" height="512" viewBox="0 0 512 512" width="512" xmlns="http://www.w3.org/2000/svg"><g><g><g><path d="m368.19 482-6.254 9.766h-61.276l-8.34-9.766-23.49-14.404.97-24.236v-20.19l39.37-26.21 12.6 5.4z" fill="#ca671b"/><path d="m292.32 482-8.852 9.766h-137.872l-15.506-9.766 9.429-13.413 108.381-32.777 21.9 7.55z" fill="#ff7c48"/></g><g><path d="m404.47 195.55c0 64.42-20.58 124.78-55.51 174.27-8.24 11.66-17.34 22.53-27.19 32.54-15.61 15.88-33.09 29.62-51.97 41-4.5 2.71-9.15 5.29-13.8 7.72l-23.936-45.101 23.936-109.369 26.11-43.31 107.23-98.21 15.13-6.94z" fill="#cee1e4"/><path d="m256 451.08c-38.21 20.09-81.345 31.238-125.91 30.92l-5.001-39.268 102.788-142.328s27.593-3.804 28.123-3.794z" fill="#dceaec"/><path d="m107.87 148.15v333.85l4.257 10.023 12.47-.257 4.58-9.766c60.19-44.12 110.273-112.23 126.823-185.39l-15.913-28.67-103.683-107.749z" fill="#edbe00"/></g><g><path d="m404.47 148.15c0 80.894-67.606 148.419-148.47 148.46l-36.957-88.248 36.957-71.632v-1.86l2.79-43.61 84.93-47.83 50.22 53.1c6.108 17.223 10.53 32.932 10.53 51.62z" fill="#dceaec"/><path d="m107.87 148.15c0 80.758 67.319 148.418 148.13 148.46v-159.88-1.86l-2.45-43.61-84.93-47.83-50.22 53.1c-6.181 17.427-10.53 32.678-10.53 51.62z" fill="#f1f6f7"/></g><g><path d="m401.667 122.573c-7.56-32.66-35.097-57.133-70.207-57.133-40.1 0-73.66 31.62-75.46 71.29l-7.5-89.73 7.5-47c73.16.04 133.457 52.903 145.667 122.573z" fill="#edbe00"/><path d="m110.691 122.344c7.56-32.66 35.079-56.904 70.189-56.904 40.1 0 73.32 31.62 75.12 71.29v-136.73c-73.16.04-133.099 52.674-145.309 122.344z" fill="#ffd944"/></g><g><g><path d="m166.534 125.093h31.062v30h-31.062z" fill="#3f4a4a"/></g><g><path d="m314.404 125.093h31.062v30h-31.062z" fill="#323c3c"/></g></g><g><g><g><path d="m270.862 132.532v60.62h-14.862l-7.638-28.64 7.638-31.98z" fill="#ca671b"/></g></g><g><path d="m241.138 132.532h14.862v60.62h-14.862z" fill="#ff7c48"/></g></g></g><g><path d="m481.96 482v30h-225.4l-21.943-15 21.943-15z" fill="#323c3c"/><path d="m30.04 482h226.52v30h-226.52z" fill="#3f4a4a"/></g></g></svg>