<svg id="Capa_1" enable-background="new 0 0 512 512" height="512" viewBox="0 0 512 512" width="512" xmlns="http://www.w3.org/2000/svg"><g><g><path d="m241 30.46 12.596 15.008v179.234l-12.596 16.268-12.638 15h-183.83l-14.042-15-16.384-17.07v-180.255l16.384-13.185 18.34-13.588h169.021z" fill="#f1f6f7"/><g><g><path d="m201.23 120.71v30h-50.48v50.48h-30v-50.48h-50.49v-30h50.49v-50.48h30v50.48z" fill="#00959a"/></g></g></g><g><path d="m241 270.97 13.362 14.243v181.787l-13.362 14.48-11.149 13.605h-183.83l-15.531-13.605-12.809-20.097v-181.021l12.809-9.392 14.51-11.8h185.872z" fill="#f1f6f7"/><g><g><g><path d="m157.27 376.22 35.7 35.7-21.22 21.21-35.69-35.69-35.7 35.69-21.21-21.21 35.69-35.7-35.69-35.69 21.21-21.22 35.7 35.7 35.69-35.7 21.22 21.22z" fill="#00959a"/></g></g></g></g><g><path d="m481.51 30.46 15.66 12.024v179.745l-15.66 18.741-18.042 15h-172.596l-19.872-15-11.277-18.31v-175.66l11.277-16.54 22.426-15.63h171.574z" fill="#dceaec"/><g><g><path d="m310.459 120.713h130.964v30h-130.964z" fill="#007579"/></g></g></g><g><path d="m481.51 270.97 15.66 15.349v182.809l-15.66 12.352-15.404 15.52h-176.34l-18.766-15.52-11.277-12.352v-185.192l11.277-12.966 21.064-11.8h175.319z" fill="#dceaec"/><g><g><g><path d="m310.459 361.223h130.964v30h-130.964z" fill="#007579"/></g></g><g><g><path d="m360.519 300.201h30.846v30h-30.846z" fill="#007579"/></g></g><g><g><path d="m360.519 420.818h30.846v30h-30.846z" fill="#007579"/></g></g></g></g><g><path d="m256 0-10.574 256 10.574 256h256v-512zm225.51 481.48h-210.51v-210.51h210.51zm0-240.51h-210.51v-210.51h210.51z" fill="#0d90bc"/><path d="m0 0v512h256v-512zm241 481.48h-210.51v-210.51h210.51zm0-240.51h-210.51v-210.51h210.51z" fill="#0fa8dc"/></g></g></svg>