<svg id="Capa_1" enable-background="new 0 0 512 512" height="512" viewBox="0 0 512 512" width="512" xmlns="http://www.w3.org/2000/svg"><g><g><g><path d="m453.116 432.356h-30v-63.412l5.468-17.64h19.405l5.127 17.64z" fill="#edbe00"/></g></g><g><g><path d="m85.172 432.356h-30v-63.412l5.468-18.248h19.404l5.128 18.248z" fill="#ffd944"/></g></g><path d="m512 172.594v196.35h-256l-46.681-128.07 46.681-161.23h161.27c51.34 0 94.73 41.62 94.73 92.95z" fill="#9ab8c2"/><path d="m256 79.644v289.3h-256v-84.986l18.787-5.876v-18.638l-18.787-5.486v-33.849l17.426-7.644v-15.66l-17.426-6.283v-17.928c0-51.33 43.39-92.95 94.73-92.95z" fill="#b3d1d6"/><g><path d="m0 190.522h209.319v29.587h-209.319z" fill="#3f4a4a"/></g><g><path d="m0 253.958h149.556v30h-149.556z" fill="#3f4a4a"/></g><path d="m179.319 253.958h30v30h-30z" fill="#f1f6f7"/><g><path d="m476.12 224.294c0 50.87-41.25 92.12-92.12 92.12l-38.064-96.305 38.064-87.935c50.87 0 92.12 41.25 92.12 92.12z" fill="#dceaec"/><path d="m384 132.174v184.24c-50.87 0-92.12-41.25-92.12-92.12s41.25-92.12 92.12-92.12z" fill="#f1f6f7"/><g><path d="m491.44 224.294c0 59.24-48.2 107.44-107.44 107.44l-15.756-16.666 15.756-13.334c42.7 0 77.44-34.74 77.44-77.44s-34.74-77.44-77.44-77.44l-13.232-13.731 13.232-16.269c59.24 0 107.44 48.2 107.44 107.44z" fill="#323c3c"/><path d="m306.56 224.294c0 42.7 34.74 77.44 77.44 77.44v30c-59.24 0-107.44-48.2-107.44-107.44s48.2-107.44 107.44-107.44v30c-42.7 0-77.44 34.74-77.44 77.44z" fill="#3f4a4a"/></g></g></g></svg>