<svg id="Capa_1" enable-background="new 0 0 512 512" height="512" viewBox="0 0 512 512" width="512" xmlns="http://www.w3.org/2000/svg"><g><g><path d="m256 0-18.234 39.295 18.234 39.295c21.535.009 40.4-17.435 40.4-39.3 0-21.7-18.1-39.29-40.4-39.29z" fill="#f1ba87"/><path d="m256 0v78.59c-21.535.009-40.4-17.435-40.4-39.3 0-21.7 18.1-39.29 40.4-39.29z" fill="#f1d0a4"/></g><g><g><g><path d="m119.465 174.233-4.593 15.065h-20.766l-4.641-15.065v-62.416l42.479-40.182 20.616 21.795-33.095 31.305z" fill="#3f4a4a"/></g></g><g><g><path d="m392.535 174.233 4.593 15.065h20.766l4.641-15.065v-62.416l-42.479-40.182-20.616 21.795 33.095 31.305z" fill="#323c3c"/></g></g></g><g><path d="m256 78.59-18.234 51.876 18.234 43.764 21.979 22.39h52.761l13.29-22.39c-1.71-57.97-40.48-95.63-88.03-95.64z" fill="#edbe00"/><path d="m256 78.59v95.64l-21.979 22.39h-52.761l-13.29-22.39c1.71-57.97 40.48-95.63 88.03-95.64z" fill="#ffd944"/></g><g><g><path d="m276.2 206.68-20.2 32.46-42.064 87.349 42.064 124.811 16.532 30.35h58.468l17.29-30.35 47.09-212.16-22.76-32.46z" fill="#bb5f19"/><path d="m235.8 206.68 20.2 32.46v212.16l-16.532 30.35h-58.468l-17.29-30.35-47.09-212.16 22.76-32.46z" fill="#ca671b"/></g><g><path d="m256 174.23-15.851 29.366 15.851 35.544h203.41v-64.91z" fill="#ca671b"/><path d="m52.59 174.23h203.41v64.91h-203.41z" fill="#ff7c48"/></g><g><path d="m256 451.3-18.915 35.53 18.915 25.17h139.25v-60.7z" fill="#ca671b"/><path d="m116.75 451.3h139.25v60.7h-139.25z" fill="#ff7c48"/></g></g></g></svg>