<svg id="Capa_1" enable-background="new 0 0 512.001 512.001" height="512" viewBox="0 0 512.001 512.001" width="512" xmlns="http://www.w3.org/2000/svg"><g><g><path d="m285.366 0c46.67 0 92.859 18.912 123.449 49.502s49.51 72.85 49.51 119.53v88.75c0 67.52-40.08 111.53-96.04 140.78v113.438h-76.92l-92.499-275.732z" fill="#ca671b"/><path d="m285.366.001v512h-77.13v-79h-87.97v-136.74h-66.59l66.59-119.45c0-44.644 12.805-86.632 42.951-120.381 30.977-34.681 75.647-55.368 122.149-56.429z" fill="#ff7c48"/></g><g><g><path d="m285.366 69.36-26.882 100.437 26.882 86.603 4.159 13.834h35.745l5.646-13.834c.05-23.78 7.37-46.84 20.21-66.85 7.8-12.16 12.32-26.61 12.32-42.12 0-43.119-34.95-78.079-78.08-78.07z" fill="#edbe00"/><path d="m285.366 69.36v187.04l-4.159 13.834h-35.745l-5.646-13.834c-.05-23.78-7.37-46.84-20.21-66.85-7.8-12.16-12.32-26.61-12.32-42.12 0-43.119 34.95-78.079 78.08-78.07z" fill="#ffd944"/></g><g><path d="m285.366 256.4-16.159 36.371 16.159 36.37h26.16l19.41-23.59v-49.151z" fill="#cee1e4"/><path d="m285.366 256.4v72.741h-26.16l-19.41-23.59v-49.151z" fill="#dceaec"/></g></g></g></svg>