<svg id="Capa_1" enable-background="new 0 0 512 512" height="512" viewBox="0 0 512 512" width="512" xmlns="http://www.w3.org/2000/svg"><g><path d="m415.85 223.215v144.64l-168.59 67.41-46.856-90.973 46.856-52.607 4.21-20.068 154.629-62.895z" fill="#323c3c"/><path d="m247.26 291.685v143.58l-168.59-67.41v-143.12l14.96-12.247 140.571 55.823z" fill="#3f4a4a"/><path d="m464.62 204.585-48.77 18.63-168.59 68.47-55.03-104.84 55.03-110.11 215.96 97.85-14.901 11.494h-189.191l-11.868-11.494-10.09 2.81v21.2l10.09 5.99 13.91-12.633h188.936z" fill="#3f4a4a"/><g><g><path d="m512 174.585v174.3h-29.49v-144.3h-235.25l-10.09-5.99v-21.2l10.09-2.81z" fill="#edbe00"/></g></g><path d="m247.26 76.735v214.95l-168.59-66.95-78.67-34.03z" fill="#495959"/></g></svg>