<svg id="Capa_1" enable-background="new 0 0 512 512" height="512" viewBox="0 0 512 512" width="512" xmlns="http://www.w3.org/2000/svg"><g><g><g><path d="m512 169.81v204.09l-13.508 9.185h-109.066l-16.726-9.185 13.662 10.717v105.702l-13.662 21.681h-116.7l-78.572-172.319 78.572-169.871 19.04-33.87h220.09z" fill="#dceaec"/><path d="m256 169.81v342.19h-256v-342.19l12.064-33.87h217.021z" fill="#f1f6f7"/></g><path d="m512 373.9-139.3 138.1v-138.1z" fill="#c0d9dd"/></g><g><path d="m512 51v118.81h-256l-35.426-59.405 35.426-59.405h123.51l8.384 2.723v28.596l-8.384 9.991 9.127-4.884h47.49l7.253 4.884-6.465-8.459v-26.553l6.465-6.298z" fill="#0d90bc"/><path d="m256 51v118.81h-256v-118.81h68.62l7.784 4.255v27.064l-7.784 9.991 9.316-7.438h48.511l6.043 7.438-7.064-11.012v-26.553l7.064-3.745z" fill="#0fa8dc"/></g><g><path d="m286 369.89v61h-30l-10.83-30.496 10.83-30.504z" fill="#007579"/><path d="m226 369.89h30v61h-30z" fill="#00959a"/></g><g><path d="m86.362 369.894h60v61h-60z" fill="#00959a"/><path d="m86.362 237.085h60v61h-60z" fill="#00959a"/><g><path d="m286 237.09v61h-30l-15-30.5 15-30.5z" fill="#007579"/><path d="m226 237.09h30v61h-30z" fill="#00959a"/></g><path d="m365.638 237.085h60v61h-60z" fill="#ca671b"/></g><g><path d="m68.622 0h63.864v92.308h-63.864z" fill="#ffd944"/><path d="m379.514 0h63.864v92.308h-63.864z" fill="#edbe00"/></g></g></svg>