<svg id="Capa_1" enable-background="new 0 0 512 512" height="512" viewBox="0 0 512 512" width="512" xmlns="http://www.w3.org/2000/svg"><g><g><g><path d="m159.18 30.08v97.686l-13.669 4.343v20.426l13.669 5.189v45.506l-10.265 6.017v17.362l10.265 7.03v45.352l-9.925 6.489v19.404l9.925 4.106v45.664l-9.584 6.094v20.426l9.584 3.481v68.316c0 32.6-26.43 59.03-59.03 59.03l-44.001-275.006 44.001-206.995 12.765-18.06h17.105z" fill="#dceaec"/><path d="m86.362 0 13.788 30v482c-32.6 0-59.03-26.43-59.03-59.03v-422.89l23.54-30.08z" fill="#f1f6f7"/></g><g><g><path d="m100.149 278.99h59.027v30h-59.027z" fill="#0d90bc"/></g><g><path d="m119.468 203.326h39.708v30h-39.708z" fill="#0d90bc"/></g><g><path d="m100.149 127.662h59.026v30h-59.026z" fill="#0d90bc"/></g><g><path d="m119.468 354.654h39.708v30h-39.708z" fill="#0d90bc"/></g></g><g><path d="m207.48 0v30h-107.33l-9.533-15 9.533-15z" fill="#9ab8c2"/><path d="m0 0h100.15v30h-100.15z" fill="#b3d1d6"/></g></g><g><g><path d="m512 363.14c0 82.22-66.64 148.86-148.86 148.86l-36.864-109.028 36.864-91.032 10.456-13.961h117.447l11.907 13.961c5.86 15.96 9.05 33.21 9.05 51.2z" fill="#edbe00"/><path d="m363.14 311.94v200.06c-82.21 0-148.85-66.64-148.85-148.86 0-17.99 3.19-35.24 9.05-51.2l15.107-16.004h114.043z" fill="#ffd944"/><g><g><path d="m419.125 387.972h49.202v30h-49.202z" fill="#ff7c48"/></g><g><path d="m468.327 341.943h-70.335v-30l8.207-11.837h52.851l9.277 11.837z" fill="#ff7c48"/></g></g></g><g><path d="m502.95 311.94h-139.81l-36.864-85.451 36.864-86.809 12.67-12.02h28.56l9.61 12.02v83.52c41.19 14.97 73.91 47.6 88.97 88.74z" fill="#dceaec"/><path d="m363.14 139.68v172.26h-139.8c15.06-41.14 47.77-73.77 88.96-88.74v-83.52l7.34-12.02h32.68z" fill="#f1f6f7"/><g><path d="m462.3 109.68v30h-99.16l-11.331-15 11.331-15z" fill="#9ab8c2"/><path d="m263.98 109.68h99.16v30h-99.16z" fill="#b3d1d6"/></g></g></g></g></svg>