<svg id="Capa_1" enable-background="new 0 0 512.054 512.054" height="512" viewBox="0 0 512.054 512.054" width="512" xmlns="http://www.w3.org/2000/svg"><g><g><g><path d="m356.424 436.994v75.06h-30v-55.9h-69.06l-11.918-16.76 11.918-13.24h57.55l-57.55-95.84-4.429-7.005 4.429-7.135 3.401-8.269h20.042l3.057 8.269z" fill="#323c3c"/><path d="m257.364 330.314-57.55 95.84h57.55v30h-69.06v55.9h-30v-75.06l72.56-120.82 3.347-8.269h19.149l4.004 8.269z" fill="#3f4a4a"/></g><g><path d="m315.324 286.174v30h-57.96l-7.333-69.034 7.333-48.779-.201-6.124 13.15-5.795 2.051 5.312v94.42z" fill="#0d90bc"/><path d="m257.364 198.361v117.813h-57.95v-30h42.95v-81.2l-1.284-6.233 12.906-5.693z" fill="#0fa8dc"/></g></g><g><g><g><path d="m471.837 139.57-56.09 24.72-13.19-29.93-17.149-.969-10.947-24.835 10.526-14.056 17.57-39.85 38.53 15.13z" fill="#0d90bc"/><path d="m441.087 69.78-56.1 24.72-14.945-2.301-11.309-25.664 8.702-11.888-13.188-29.927 56.1-24.72z" fill="#0fa8dc"/></g><path d="m402.557 134.36-144.65 63.74-14.978-.751-12.493-28.342 9.901-10.767 61.059-51.795 83.591-11.945z" fill="#dceaec"/><path d="m384.987 94.5-144.65 63.74-13.519 1.268-13.118-29.769 9.077-11.349 144.658-63.743z" fill="#f1f6f7"/></g><g><g><path d="m101.047 236.01-48.74 21.47-6.04-13.72 22.571-18.5 26.159-2.98 8.798-1.009 3.597 8.175z" fill="#323c3c"/><path d="m101.357 217.21-6.36 5.07-48.73 21.48-6.05-13.73 48.73-21.48 8.05-1.26z" fill="#3f4a4a"/></g><path d="m257.614 198.505-145.042 63.647-17.575-39.872 63.087-51.54 81.96-12.095z" fill="#9ab8c2"/><path d="m240.337 158.239-145.34 64.04-17.56-39.85 145.34-64.04z" fill="#b3d1d6"/></g></g></g></svg>