<svg id="Capa_1" enable-background="new 0 0 512 512" height="512" viewBox="0 0 512 512" width="512" xmlns="http://www.w3.org/2000/svg"><g><g><path d="m45.492 16.542c2.376 39.575 27.926 79.706 70.001 102.924 44.042 24.304 94.109 23.408 129.185 1.544-2.376-39.575-27.926-79.706-70.001-102.924-44.042-24.304-94.109-23.408-129.185-1.544z" fill="#00959a"/><path d="m466.508 66.523c-2.376 39.575-27.926 79.706-70.001 102.924-44.042 24.304-94.109 23.408-129.185 1.544 2.376-39.575 27.926-79.706 70.001-102.924 44.042-24.304 94.109-23.408 129.185-1.544z" fill="#007579"/><g><path d="m271.709 27.77v197.84l-2.649 8.581h-10.085l-2.266-8.581-7.5-94.629 7.5-103.211z" fill="#61362b"/><g><path d="m256.709 27.77v197.84l-2.617 8.581h-9.447l-2.936-8.581v-197.84z" fill="#784132"/></g></g></g><g><g><path d="m392.199 291.52-66.22 220.48h-69.27l-31.086-121.17 31.086-99.31 14.188-30.903h114.556z" fill="#bb5f19"/><path d="m256.709 291.52v220.48h-69.27l-66.22-220.48 14.532-30.903h98.809z" fill="#ca671b"/></g><g><path d="m433.969 225.61v65.91h-177.26l-15-30.903 15-35.007z" fill="#ca671b"/><path d="m79.449 225.61h177.26v65.91h-177.26z" fill="#ff7c48"/></g></g></g></svg>