<svg id="Capa_1" enable-background="new 0 0 512 512" height="512" viewBox="0 0 512 512" width="512" xmlns="http://www.w3.org/2000/svg"><g><g><g><path d="m448.22 482v30h-72l-8.241-114.872 8.241-79.748 3.503-6.976h8.171l3.326 6.976v164.62z" fill="#ca671b"/><path d="m376.22 317.38v194.62h-72v-30h57v-164.62l3.44-6.976h7.149z" fill="#ff7c48"/></g><path d="m512 0v317.38h-135.78l-19.135-134.37 19.135-183.01z" fill="#dceaec"/><path d="m240.45 0h135.77v317.38h-135.77z" fill="#f1f6f7"/></g><g><g><path d="m441.55 82.26-106.97 100.75-1.58-4.86 1.28-12.51 5.36-7.91-6.9 5.61h-12l-3.08-5.61 103.32-97.31z" fill="#323c3c"/></g><g><path d="m185.29 103.971c0 28.15-21.54 51.27-49.04 53.76h-4.95l-21.449-53.875 21.449-53.875c29.82 0 53.99 24.17 53.99 53.99z" fill="#edbe00"/><path d="m131.3 49.981v107.75h-4.95c-27.5-2.49-49.04-25.61-49.04-53.76 0-29.82 24.17-53.99 53.99-53.99z" fill="#ffd944"/><path d="m339.64 157.73c0 8.96-1.8 17.5-5.06 25.28-9.89 23.63-33.23 40.23-60.45 40.23h-77.32v288.76h-50.51v-137h-15l-33.524-142.232 33.524-75.038z" fill="#edbe00"/><path d="m131.3 157.73v217.27h-15v137h-50.52v-152.79h.01v-116.81h-30v116.81h-35.79v-135.97c0-36.18 29.61-65.51 65.78-65.51z" fill="#ffd944"/></g></g></g></svg>