<svg id="Capa_1" enable-background="new 0 0 512 512" height="512" viewBox="0 0 512 512" width="512" xmlns="http://www.w3.org/2000/svg"><g><g><g><g><path d="m495.646 366.33h-211.066l-10.133 9.351v11.234l10.133 9.415h181.066v51.989l5.822 6.681h19.66l4.518-6.681z" fill="#007579"/></g></g><path d="m448.319 448.319h63.681v63.681h-63.681z" fill="#edbe00"/></g><g><g><g><path d="m448.319 271h-163.741l-12.514-5.191v-18.66l12.514-6.149h163.741l15.288 5.66v18.042z" fill="#007579"/></g></g><path d="m448.319 224.159h63.681v63.681h-63.681z" fill="#edbe00"/></g><g><g><g><path d="m495.646 145.67h-219.176l-24.151-3.521-10.149-16.225 18.449-10.254h205.027v-51.989l8.46-6.681h14.979l6.561 6.681z" fill="#007579"/></g></g><path d="m448.319 0h63.681v63.681h-63.681z" fill="#edbe00"/></g><g><g><g><path d="m142.29 456.02-15-30.211 15-32.701 12.447-14.534h56.145l14.278 14.666-11.725-20.283v-46.978l11.725-.109 7.94-15.466h40.352l11.128 15.466v92.52l-33.36 37.63z" fill="#ecd6af"/><path d="m142.29 456.02v-62.912l-12.447-14.534h-56.145l-14.278 14.666 11.725-20.283v-46.978l-11.725-.109-7.94-15.466h-40.352l-11.128 15.466v92.52l33.36 37.63z" fill="#f2e4ca"/></g><path d="m255.161 393.24h-30l-5.527-3.728v-56.851l5.527-6.791 4.856-5.54h21.277l3.867 5.54z" fill="#3f4a4a"/><path d="m29.418 393.24h30l5.527-3.728v-56.851l-5.527-6.791-4.856-5.54h-21.277l-3.867 5.54z" fill="#495959"/></g><g><path d="m284.58 190.73v135.14h-59.42v67.37h-82.87l-29.035-149.985 29.035-187.645c39.3 0 74.86 15.12 100.61 39.58 25.76 24.45 41.68 58.23 41.68 95.54z" fill="#f2e4ca"/><path d="m142.29 55.61v337.63h-82.87v-67.37h-59.42v-135.14c0-74.62 63.71-135.12 142.29-135.12z" fill="#fff3e1"/></g><g><g><path d="m157.29 266v54.33h-15l-7.5-23.458 7.5-30.872z" fill="#3f4a4a"/><path d="m127.29 266h15v54.33h-15z" fill="#495959"/></g><g><path d="m50.459 200.66h58.532v30h-58.532z" fill="#495959"/></g><g><path d="m175.586 200.66h58.532v30h-58.532z" fill="#3f4a4a"/></g></g></g></g></svg>