<svg id="Capa_1" enable-background="new 0 0 512 512" height="512" viewBox="0 0 512 512" width="512" xmlns="http://www.w3.org/2000/svg"><g><g><g><path d="m0 411.077h85.317l10.448 7.673v13.617l-10.448 8.71h-85.317z" fill="#ff7c48"/></g><g><path d="m512 411.075v30h-256l-11.426-14.998 11.426-15.002z" fill="#dceaec"/><path d="m256 411.075v30h-94.418l-14.342-4.109v-20.26l14.34-5.631z" fill="#f1f6f7"/></g><circle cx="123.447" cy="426.077" fill="#ca671b" r="40.967"/></g><g><g><path d="m512 44.956v310.08h-256l-48.191-155.04 48.191-155.04z" fill="#dceaec"/><path d="m256 44.956v310.08h-31.341l-11.744-20.429h-163.245l-18.33 20.429h-31.34v-310.08z" fill="#f1f6f7"/></g><path d="m317.383 259.192v-133.234l133.234 66.617z" fill="#ca671b"/><g fill="#0fa8dc"><path d="m224.66 355.036h-193.32c1.877-63.652 44.446-105.022 96.66-105.022 26.713 0 50.895 10.821 68.403 28.328 16.712 16.712 27.342 39.517 28.257 76.694z"/><circle cx="128" cy="205.828" r="44.203"/></g></g></g></svg>